<?xml version="1.0" encoding="utf-8"?>
<!-- Generator: Adobe Illustrator 21.0.2, SVG Export Plug-In . SVG Version: 6.00 Build 0)  -->
<svg version="1.1" id="Layer_1" xmlns="http://www.w3.org/2000/svg" xmlns:xlink="http://www.w3.org/1999/xlink" x="0px" y="0px"
	 viewBox="0 0 40 40" style="enable-background:new 0 0 40 40;" xml:space="preserve">
<style type="text/css">
	.st0{fill:none;stroke:#414142;stroke-linecap:round;stroke-linejoin:round;stroke-miterlimit:10;}
	.st1{fill:#414142;}
</style>
<g>
	<path class="st0" d="M34.4,32.6c0.5,0.5,0.5,1.4,0,1.9c-0.5,0.5-1.4,0.5-2,0L18.6,20.5c-0.5-0.5-0.5-1.4,0-1.9
		c0.5-0.5,1.4-0.5,1.9,0L34.4,32.6z"/>
	<path class="st0" d="M17.5,15.2c0.6,0.6,0.5,1.5,0,2c-0.6,0.6-1.5,0.5-2,0l-0.6-0.6c-0.6-0.6-0.5-1.5,0-2c0.6-0.6,1.5-0.5,2,0
		L17.5,15.2z"/>
	<path class="st1" d="M13.8,12.9c0.2,0.2,0.2,0.5,0,0.7c-0.2,0.2-0.5,0.2-0.7,0L11,10.9c-0.2-0.2-0.2-0.5,0-0.7
		c0.2-0.2,0.5-0.2,0.7,0L13.8,12.9z"/>
	<path class="st1" d="M16.4,12.3c0,0.3-0.2,0.5-0.5,0.5c-0.3,0-0.5-0.2-0.5-0.5l0.1-6.8C15.5,5.2,15.8,5,16,5c0.3,0,0.5,0.2,0.5,0.5
		L16.4,12.3z"/>
	<path class="st1" d="M16.3,26c0,0.3-0.2,0.5-0.5,0.5c-0.3,0-0.5-0.2-0.5-0.5l0.1-6.8c0-0.3,0.2-0.5,0.5-0.5c0.3,0,0.5,0.2,0.5,0.5
		L16.3,26z"/>
	<path class="st1" d="M19.3,16.2c-0.3,0-0.5-0.2-0.5-0.5c0-0.3,0.2-0.5,0.5-0.5l6.8,0.1c0.3,0,0.5,0.2,0.5,0.5
		c0,0.3-0.2,0.5-0.5,0.5L19.3,16.2z"/>
	<path class="st1" d="M5.7,16.1c-0.3,0-0.5-0.2-0.5-0.5c0-0.3,0.2-0.5,0.5-0.5l6.8,0.1c0.3,0,0.5,0.2,0.5,0.5c0,0.3-0.2,0.5-0.5,0.5
		L5.7,16.1z"/>
	<path class="st1" d="M18.7,13.7c-0.2,0.2-0.5,0.2-0.7,0c-0.2-0.2-0.2-0.5,0-0.7l2.6-3.3c0.2-0.2,0.5-0.2,0.7,0
		c0.2,0.2,0.2,0.5,0,0.7L18.7,13.7z"/>
	<path class="st1" d="M11.1,20.7c-0.2,0.2-0.5,0.2-0.7,0c-0.2-0.2-0.2-0.5,0-0.7l2.7-2.3c0.2-0.2,0.5-0.2,0.7,0
		c0.2,0.2,0.2,0.5,0,0.7L11.1,20.7z"/>
</g>
</svg>
