<?xml version="1.0" encoding="utf-8"?>
<!-- Generator: Adobe Illustrator 21.0.2, SVG Export Plug-In . SVG Version: 6.00 Build 0)  -->
<svg version="1.1" id="Layer_1" xmlns="http://www.w3.org/2000/svg" xmlns:xlink="http://www.w3.org/1999/xlink" x="0px" y="0px"
	 viewBox="0 0 40 40" style="enable-background:new 0 0 40 40;" xml:space="preserve">
<style type="text/css">
	.st0{fill:none;stroke:#414142;stroke-linecap:round;stroke-linejoin:round;stroke-miterlimit:10;}
	.st1{fill:#414142;}
	.st2{fill:none;stroke:#414142;stroke-width:0.5;stroke-linecap:round;stroke-linejoin:round;stroke-miterlimit:10;}
</style>
<g>
	<path class="st0" d="M15.1,12.1c0,0-4.5-0.1-7.4,1.7c-2.3,1.4-5.1-1.7-2.3-4.2s6.7-2.8,8.5-0.3S15.1,12.1,15.1,12.1z"/>
	<path class="st0" d="M24.9,12.1c0,0,4.5-0.1,7.4,1.7c2.3,1.4,5.1-1.7,2.3-4.2s-6.7-2.8-8.5-0.3S24.9,12.1,24.9,12.1z"/>
	<path class="st0" d="M20.5,32.4h-1c-4,0-7.4-3.3-7.4-7.4v-6.8c0-4,3.3-7.4,7.4-7.4h1c4,0,7.4,3.3,7.4,7.4v6.8
		C27.8,29.1,24.5,32.4,20.5,32.4z"/>
	<circle class="st1" cx="16.6" cy="21.1" r="1.5"/>
	<circle class="st1" cx="23.8" cy="21.1" r="1.5"/>
	<circle class="st2" cx="16.6" cy="21.1" r="3.1"/>
	<path class="st1" d="M18.6,25c0.1-0.1,3.4-0.1,3.5,0c0.1,0.1,0,3.1-1.7,3.1C18.6,28.1,18.5,25.2,18.6,25z"/>
</g>
</svg>
