<?xml version="1.0" encoding="utf-8"?>
<!-- Generator: Adobe Illustrator 21.0.2, SVG Export Plug-In . SVG Version: 6.00 Build 0)  -->
<svg version="1.1" id="Layer_1" xmlns="http://www.w3.org/2000/svg" xmlns:xlink="http://www.w3.org/1999/xlink" x="0px" y="0px"
	 viewBox="0 0 40 40" style="enable-background:new 0 0 40 40;" xml:space="preserve">
<style type="text/css">
	.st0{fill:none;stroke:#414142;stroke-linecap:round;stroke-linejoin:round;stroke-miterlimit:10;}
</style>
<g>
	<path class="st0" d="M14.7,12.4c0.6-0.6,2.6-1.8,3.2-2.1c0.4-0.2,0.6-0.5,0.6-0.9V7.8c0-0.3,0.2-0.7,0.5-0.8c0.5-0.3,1.4-0.6,2.3,0
		c0.3,0.2,0.4,0.5,0.4,0.8v1.8c0,0.4,0.2,0.7,0.6,0.9c0.5,0.2,2.5,1.3,3.2,1.8c0.7,0.6,0.6,1.3-0.6,1.3h-9.4
		C14.2,13.6,14,13,14.7,12.4z"/>
	<g>
		<path class="st0" d="M25.2,33.4H14.8c-0.8,0-1.4-0.6-1.4-1.4V15c0-0.8,0.6-1.4,1.4-1.4h10.4c0.8,0,1.4,0.6,1.4,1.4v17
			C26.6,32.8,26,33.4,25.2,33.4z"/>
		<line class="st0" x1="21.5" y1="18.3" x2="26.6" y2="18.3"/>
		<line class="st0" x1="21.5" y1="21.6" x2="26.6" y2="21.6"/>
		<line class="st0" x1="21.5" y1="24.9" x2="26.6" y2="24.9"/>
		<line class="st0" x1="21.5" y1="28.8" x2="26.6" y2="28.8"/>
	</g>
</g>
</svg>
