<?xml version="1.0" encoding="utf-8"?>
<!-- Generator: Adobe Illustrator 21.0.2, SVG Export Plug-In . SVG Version: 6.00 Build 0)  -->
<svg version="1.1" id="Layer_1" xmlns="http://www.w3.org/2000/svg" xmlns:xlink="http://www.w3.org/1999/xlink" x="0px" y="0px"
	 viewBox="0 0 40 40" style="enable-background:new 0 0 40 40;" xml:space="preserve">
<style type="text/css">
	.st0{fill:none;stroke:#414142;stroke-linecap:round;stroke-linejoin:round;stroke-miterlimit:10;}
</style>
<g>
	<g>
		<line class="st0" x1="20" y1="15.9" x2="20" y2="33.6"/>
		<g>
			<g>
				<line class="st0" x1="7.1" y1="11" x2="15.4" y2="11"/>
				<polyline class="st0" points="13.3,21.6 9.3,11.2 5.2,21.6 				"/>
				<polyline class="st0" points="34.8,19.1 31.7,11.2 28.6,19.1 				"/>
				<line class="st0" x1="33.9" y1="11" x2="24.9" y2="11"/>
			</g>
			<circle class="st0" cx="20.1" cy="11.2" r="4.7"/>
			<path class="st0" d="M9.3,25.7c2.2,0,4.1-1.8,4.1-4.1H5.2C5.2,23.8,7,25.7,9.3,25.7z"/>
			<path class="st0" d="M31.7,22.2c1.7,0,3.1-1.4,3.1-3.1h-6.2C28.6,20.8,30,22.2,31.7,22.2z"/>
		</g>
	</g>
	<line class="st0" x1="14.7" y1="33.6" x2="25.6" y2="33.6"/>
</g>
</svg>
