<?xml version="1.0" encoding="utf-8"?>
<!-- Generator: Adobe Illustrator 21.0.2, SVG Export Plug-In . SVG Version: 6.00 Build 0)  -->
<svg version="1.1" id="Layer_1" xmlns="http://www.w3.org/2000/svg" xmlns:xlink="http://www.w3.org/1999/xlink" x="0px" y="0px"
	 viewBox="0 0 40 40" style="enable-background:new 0 0 40 40;" xml:space="preserve">
<style type="text/css">
	.st0{fill:none;stroke:#414142;stroke-linecap:round;stroke-linejoin:round;stroke-miterlimit:10;}
	.st1{fill:#FFFFFF;stroke:#414142;stroke-linecap:round;stroke-linejoin:round;stroke-miterlimit:10;}
</style>
<g>
	<path class="st0" d="M33.6,23.7H6.4c-1.3,0-2.3-1.1-2.3-2.3v-2.6c0-1.3,1.1-2.3,2.3-2.3h27.2c1.3,0,2.3,1.1,2.3,2.3v2.6
		C35.9,22.6,34.9,23.7,33.6,23.7z"/>
	<g>
		<path class="st1" d="M10.6,27.8h-2c-0.4,0-0.7-0.3-0.7-0.7V12.9c0-0.4,0.3-0.7,0.7-0.7h2c0.4,0,0.7,0.3,0.7,0.7v14.2
			C11.4,27.5,11,27.8,10.6,27.8z"/>
		<path class="st1" d="M31.4,27.8h-2c-0.4,0-0.7-0.3-0.7-0.7V12.9c0-0.4,0.3-0.7,0.7-0.7h2c0.4,0,0.7,0.3,0.7,0.7v14.2
			C32.1,27.5,31.8,27.8,31.4,27.8z"/>
	</g>
</g>
</svg>
