<?xml version="1.0" encoding="utf-8"?>
<!-- Generator: Adobe Illustrator 21.0.2, SVG Export Plug-In . SVG Version: 6.00 Build 0)  -->
<svg version="1.1" id="Layer_1" xmlns="http://www.w3.org/2000/svg" xmlns:xlink="http://www.w3.org/1999/xlink" x="0px" y="0px"
	 viewBox="0 0 40 40" style="enable-background:new 0 0 40 40;" xml:space="preserve">
<style type="text/css">
	.st0{fill:none;stroke:#414142;stroke-linecap:round;stroke-linejoin:round;stroke-miterlimit:10;}
	.st1{fill:#414142;}
</style>
<g>
	<path class="st0" d="M35,28.2c-0.2-0.3-2.9-13.4-2.9-13.4s-0.7-5-4.6-5s-4.6,2.9-4.6,2.9H20h-2.9c0,0-0.6-2.9-4.6-2.9s-4.6,5-4.6,5
		S5.2,27.8,5,28.2c-0.2,0.4-0.4,2.1,2,2.1c2.4,0,8.3-11.4,8.3-11.4H20h4.7c0,0,5.8,11.4,8.3,11.4C35.4,30.3,35.3,28.5,35,28.2z"/>
	<circle class="st0" cx="12.2" cy="15.1" r="2.1"/>
	<circle class="st1" cx="27.7" cy="12.6" r="0.8"/>
	<circle class="st1" cx="27.7" cy="16.3" r="0.8"/>
	<circle class="st1" cx="29.4" cy="14.5" r="0.8"/>
	<circle class="st1" cx="26" cy="14.5" r="0.8"/>
</g>
</svg>
