<?xml version="1.0" encoding="utf-8"?>
<!-- Generator: Adobe Illustrator 21.0.2, SVG Export Plug-In . SVG Version: 6.00 Build 0)  -->
<svg version="1.1" id="Layer_1" xmlns="http://www.w3.org/2000/svg" xmlns:xlink="http://www.w3.org/1999/xlink" x="0px" y="0px"
	 viewBox="0 0 40 40" style="enable-background:new 0 0 40 40;" xml:space="preserve">
<style type="text/css">
	.st0{fill:none;stroke:#414142;stroke-linecap:round;stroke-linejoin:round;stroke-miterlimit:10;}
</style>
<g>
	<g>
		<g>
			<path class="st0" d="M12.1,17.1h0.5c0-0.5,0.2-0.8,0.3-1.3L14,7.3H8.9l-3.8,9.2"/>
			<path class="st0" d="M19.5,17.1H20c0-0.1,0-0.2,0-0.3V7.3h-6l-1.2,8.4"/>
			<polyline class="st0" points="25.9,14.6 24.9,7.3 20.1,7.3 20.1,16.8 			"/>
			<path class="st0" d="M27,17.1"/>
			<polyline class="st0" points="33.9,16.5 30.7,7.3 24.9,7.3 			"/>
			<path class="st0" d="M8.6,20.6c1.9,0,3.5-1.6,3.5-3.5H5.2C5.2,19,6.7,20.6,8.6,20.6z"/>
			<path class="st0" d="M12.9,17.1c0,1.9,1.3,3.5,3.2,3.5s4-1.6,4-3.5H12.9L12.9,17.1z"/>
			<path class="st0" d="M20.1,17.1c0,1.9,1.6,3.5,3.5,3.5s2.7-1.6,2.7-3.5h-0.8"/>
			<path class="st0" d="M20.1,16.8c0,0.1,0,0.2,0,0.3h0V16.8z"/>
			<polyline class="st0" points="20.1,16.8 20.1,17.1 26.2,17.1 25.9,14.6 			"/>
			<path class="st0" d="M27,17.1c0,1.9,1.6,3.5,3.5,3.5c1.9,0,3.5-1.6,3.5-3.5H27z"/>
		</g>
		<path class="st0" d="M33.9,17.1"/>
	</g>
	<line class="st0" x1="8" y1="20.6" x2="8" y2="32.7"/>
	<line class="st0" x1="31.8" y1="20.3" x2="31.8" y2="32.7"/>
	<line class="st0" x1="4.9" y1="32.7" x2="35.1" y2="32.7"/>
	<polyline class="st0" points="15.7,32.7 15.7,27 24.1,27 24.1,32.7 	"/>
</g>
</svg>
