<?xml version="1.0" encoding="utf-8"?>
<!-- Generator: Adobe Illustrator 21.0.2, SVG Export Plug-In . SVG Version: 6.00 Build 0)  -->
<svg version="1.1" id="Layer_1" xmlns="http://www.w3.org/2000/svg" xmlns:xlink="http://www.w3.org/1999/xlink" x="0px" y="0px"
	 viewBox="0 0 40 40" style="enable-background:new 0 0 40 40;" xml:space="preserve">
<style type="text/css">
	.st0{fill:none;stroke:#414142;stroke-linecap:round;stroke-linejoin:round;stroke-miterlimit:10;}
</style>
<g>
	<path class="st0" d="M14.1,21.6c-0.4-1.5-1.7-3.2-3.9-3.6c1.8-0.5,3.1-2.2,3.1-4.1c0-2.4-1.9-4.3-4.3-4.3c-2.4,0-4.3,1.9-4.3,4.3
		c0,2,1.3,3.6,3.2,4.1c-2.5,0.5-4.5,2.8-4.5,5.5v3.4H12C11.8,24.6,12.7,22.2,14.1,21.6z"/>
	<path class="st0" d="M25.9,21.6c0.4-1.5,1.7-3.2,3.9-3.6c-1.8-0.5-3.1-2.2-3.1-4.1c0-2.4,1.9-4.3,4.3-4.3s4.3,1.9,4.3,4.3
		c0,2-1.3,3.6-3.2,4.1c2.5,0.5,4.5,2.8,4.5,5.5v3.4H28C28.2,24.6,27.3,22.2,25.9,21.6z"/>
	<path class="st0" d="M21.1,21.6c1.8-0.5,3.1-2.2,3.1-4.1c0-2.4-1.9-4.3-4.3-4.3s-4.3,1.9-4.3,4.3c0,2,1.3,3.6,3.2,4.1
		c-1,0.2-1.9,0.7-2.7,1.4c-1.1,1-1.8,2.5-1.8,4.1v0.5v2.9h11.2v-3.4C25.6,24.4,23.7,22.1,21.1,21.6z"/>
</g>
</svg>
