<?xml version="1.0" encoding="utf-8"?>
<!-- Generator: Adobe Illustrator 22.0.1, SVG Export Plug-In . SVG Version: 6.00 Build 0)  -->
<svg version="1.1" id="Layer_2_1_" xmlns="http://www.w3.org/2000/svg" xmlns:xlink="http://www.w3.org/1999/xlink" x="0px" y="0px"
	 viewBox="0 0 106 62" style="enable-background:new 0 0 106 62;" xml:space="preserve">
<style type="text/css">
	.st0{display:none;}
	.st1{display:inline;}
	.st2{fill:none;stroke:#000000;stroke-width:1.5;stroke-linecap:round;stroke-miterlimit:10;}
	.st3{fill:none;stroke:#000000;stroke-width:1.5;stroke-linecap:round;stroke-linejoin:round;stroke-miterlimit:10;}
	.st4{fill:#595857;}
</style>
<g class="st0">
	<path class="st1" d="M26.7,49.8c0,0.1-0.1,0.2-0.2,0.2h-0.2c-0.1,0-0.2-0.1-0.2-0.2V39.7c0-0.1,0.1-0.2,0.2-0.2H27
		c0.1,0,0.2,0.1,0.2,0.2l4.1,9.8l4.1-9.8c0.1-0.1,0.1-0.2,0.2-0.2h0.7c0.1,0,0.2,0.1,0.2,0.2v10.1c0,0.1-0.1,0.2-0.2,0.2h-0.2
		C36,50,36,49.9,36,49.8v-9.9l-4.1,9.8c-0.1,0.1-0.1,0.2-0.2,0.2H31c-0.1,0-0.1-0.1-0.2-0.2l-4.1-9.8C26.7,39.9,26.7,49.8,26.7,49.8
		z"/>
	<path class="st1" d="M42.6,49.8c0,0.1-0.1,0.2-0.2,0.2h-0.2C42,50,42,49.9,42,49.8v-4.6l-3.8-5.5c-0.1-0.1,0-0.2,0.2-0.2h0.3
		c0.1,0,0.2,0.1,0.3,0.2l3.4,5l3.4-5c0.1-0.1,0.1-0.2,0.3-0.2h0.3c0.1,0,0.3,0.1,0.2,0.2l-3.8,5.5v4.6H42.6z"/>
	<path class="st1" d="M50.7,45.5h-2.4v4.3c0,0.1-0.1,0.2-0.2,0.2h-0.2c-0.1,0-0.2-0.1-0.2-0.2V39.7c0-0.1,0.1-0.2,0.2-0.2h2.8
		c2.3,0,3.3,1.4,3.3,3C53.9,44,53,45.5,50.7,45.5z M50.7,40h-2.4v4.9h2.4c1.7,0,2.7-1.1,2.7-2.5S52.4,40,50.7,40z"/>
	<path class="st1" d="M62.3,49.8c0,0.1,0,0.2-0.2,0.2h-0.2c-0.1,0-0.2-0.1-0.2-0.2L60.5,47h-5.9l-1.2,2.8c-0.1,0.1-0.1,0.2-0.2,0.2
		H53c-0.1,0-0.2-0.1-0.2-0.2L57,39.7c0.1-0.1,0.1-0.2,0.2-0.2H58c0.1,0,0.1,0.1,0.2,0.2L62.3,49.8z M54.9,46.5h5.4l-2.7-6.6
		L54.9,46.5z"/>
	<path class="st1" d="M67.9,44.9c-0.1,0-0.2-0.1-0.2-0.2v-0.1c0-0.1,0.1-0.2,0.2-0.2h3.7c0.1,0,0.2,0.1,0.2,0.2v4.6
		c0,0.7-2.1,1-3.3,1c-3.2,0-5.4-1.9-5.4-5.4c0-3.4,2.2-5.5,5.4-5.5c1,0,2.1,0.2,2.6,0.4c0.1,0.1,0.2,0.1,0.2,0.2v0.2
		c0,0.1-0.1,0.2-0.2,0.2c-0.7-0.3-1.6-0.5-2.6-0.4c-2.8,0.1-4.8,1.9-4.8,4.9s1.7,4.8,4.7,4.8c0.5,0,2.2-0.1,2.8-0.6v-4.2L67.9,44.9
		L67.9,44.9z"/>
	<path class="st1" d="M79.2,39.5c0.1,0,0.2,0.1,0.2,0.2v0.1c0,0.1-0.1,0.2-0.2,0.2h-4.7v4.3H79c0.1,0,0.2,0.1,0.2,0.2v0.1
		c0,0.1-0.1,0.2-0.2,0.2h-4.5v4.6h4.9c0.1,0,0.2,0.1,0.2,0.2v0.1c0,0.1-0.1,0.2-0.2,0.2h-5.2C74,50,74,50,74,49.8V39.7
		c0-0.1,0.1-0.2,0.2-0.2H79.2z"/>
	<path class="st1" d="M60.5,26.1c-0.2-3.1-2.3-5.7-5.2-6.7c1-0.7,1.7-2,1.7-3.3c0-2.3-1.8-4.1-4.1-4.1s-4.1,1.8-4.1,4.1
		c0,1.4,0.7,2.6,1.7,3.3c-2.9,0.9-5,3.5-5.2,6.7l0,0V32h15.3L60.5,26.1L60.5,26.1z"/>
</g>
<g class="st0">
	<path class="st1" d="M52.8,15.7c-3-5.9-10.5-4.2-10.5,1.5c0,7.4,10.5,14.8,10.5,14.8s10.5-7.4,10.5-14.8
		C63.3,11.5,55.8,9.8,52.8,15.7z"/>
	<g class="st1">
		<path d="M30,40.1l-2.8,9.7c0,0.1-0.1,0.2-0.2,0.2h-0.6c-0.1,0-0.2-0.1-0.2-0.2l-3.1-10.1c0-0.1,0-0.2,0.2-0.2h0.2
			c0.1,0,0.2,0.1,0.2,0.2l3,9.8l2.9-9.8c0-0.1,0.1-0.2,0.2-0.2h0.4c0.1,0,0.2,0.1,0.2,0.2l2.9,9.8l3-9.8c0-0.1,0.1-0.2,0.2-0.2h0.2
			c0.1,0,0.2,0.1,0.2,0.2l-3.1,10.1c0,0.1-0.1,0.2-0.2,0.2H33c-0.1,0-0.2-0.1-0.2-0.2L30,40.1z"/>
		<path d="M38.7,49.8c0,0.1,0,0.2-0.1,0.2h-0.3c-0.1,0-0.2-0.1-0.2-0.2V39.7c0-0.1,0.1-0.2,0.2-0.2h0.2c0.1,0,0.2,0.1,0.2,0.2
			C38.7,39.7,38.7,49.8,38.7,49.8z"/>
		<path d="M45.6,47.2c0-2.4-5.3-2.2-5.3-5.2c0-2.6,3.3-3.2,5.3-2.4c0.1,0,0.2,0.1,0.1,0.2V40c0,0.1-0.1,0.2-0.2,0.1
			c-1.8-0.8-4.6,0-4.6,1.9c0,2.4,5.3,2.5,5.3,5.2c0,2.8-3.6,3.6-5.7,2.6c-0.1-0.1-0.2-0.1-0.2-0.3l0.1-0.2c0.1-0.2,0.2-0.2,0.3-0.2
			C42.3,50.2,45.6,49.7,45.6,47.2z"/>
		<path d="M55.2,49.8c0,0.1-0.1,0.2-0.2,0.2h-0.2c-0.1,0-0.2-0.1-0.2-0.2v-5h-6.2v5c0,0.1-0.1,0.2-0.2,0.2H48
			c-0.1,0-0.2-0.1-0.2-0.2V39.7c0-0.1,0.1-0.2,0.2-0.2h0.2c0.1,0,0.2,0.1,0.2,0.2v4.6h6.2v-4.6c0-0.1,0.1-0.2,0.2-0.2H55
			c0.1,0,0.2,0.1,0.2,0.2V49.8z"/>
		<path d="M60.7,50c-0.1,0-0.2-0.1-0.2-0.2V39.7c0-0.1,0.1-0.2,0.2-0.2h0.2c0.1,0,0.2,0.1,0.2,0.2v9.7h4.5c0.1,0,0.2,0.1,0.2,0.2
			v0.1c0,0.1-0.1,0.2-0.2,0.2L60.7,50L60.7,50z"/>
		<path d="M67.4,49.8c0,0.1,0,0.2-0.1,0.2H67c-0.1,0-0.2-0.1-0.2-0.2V39.7c0-0.1,0.1-0.2,0.2-0.2h0.2c0.1,0,0.2,0.1,0.2,0.2
			C67.4,39.7,67.4,49.8,67.4,49.8z"/>
		<path d="M74.3,47.2c0-2.4-5.3-2.2-5.3-5.2c0-2.6,3.3-3.2,5.3-2.4c0.1,0,0.2,0.1,0.1,0.2V40c0,0.1-0.1,0.2-0.2,0.1
			c-1.8-0.8-4.6,0-4.6,1.9c0,2.4,5.3,2.5,5.3,5.2c0,2.8-3.6,3.6-5.7,2.6c-0.2,0-0.2-0.1-0.2-0.3l0.1-0.2c0.1-0.2,0.2-0.2,0.3-0.2
			C71,50.2,74.3,49.7,74.3,47.2z"/>
		<path d="M75.5,40.1c-0.1,0-0.2-0.1-0.2-0.2v-0.1c0-0.1,0.1-0.2,0.2-0.2h6.9c0.1,0,0.2,0.1,0.2,0.2v0.1c0,0.1-0.1,0.2-0.2,0.2h-3.2
			v9.7c0,0.1-0.1,0.2-0.2,0.2h-0.2c-0.1,0-0.2-0.1-0.2-0.2v-9.7H75.5z"/>
	</g>
</g>
<g class="st0">
	<path class="st1" d="M15.6,45.3l2.4,4.5c0.1,0.1,0.1,0.2-0.1,0.2h-0.3c-0.1,0-0.2-0.1-0.3-0.2L15,45.4c-0.2,0-0.5,0.1-0.8,0.1h-2.4
		v4.3c0,0.1-0.1,0.2-0.2,0.2h-0.2c-0.1,0-0.2-0.1-0.2-0.2V39.7c0-0.1,0.1-0.2,0.2-0.2h2.8c2.3,0,3.3,1.4,3.3,3
		C17.5,43.7,16.9,44.8,15.6,45.3z M14.2,40h-2.4v4.9h2.4c1.7,0,2.7-1.1,2.7-2.5S15.9,40,14.2,40z"/>
	<path class="st1" d="M24.6,39.5c0.1,0,0.2,0.1,0.2,0.2v0.1c0,0.1-0.1,0.2-0.2,0.2h-4.7v4.3h4.5c0.1,0,0.2,0.1,0.2,0.2v0.1
		c0,0.1-0.1,0.2-0.2,0.2h-4.5v4.6h4.9c0.1,0,0.2,0.1,0.2,0.2v0.1c0,0.1-0.1,0.2-0.2,0.2h-5.2c-0.1,0-0.2-0.1-0.2-0.2v-10
		c0-0.1,0.1-0.2,0.2-0.2H24.6z"/>
	<path class="st1" d="M33.9,49.9c-0.7,0.2-1.1,0.3-2.1,0.3c-3.2,0-5.4-1.9-5.4-5.4c0-3.4,2.2-5.5,5.4-5.5c0.6,0,1.7,0,2.1,0.2
		c0.1,0.1,0.2,0.1,0.2,0.2v0.1c0,0.1-0.1,0.2-0.2,0.2c-0.8-0.2-1.3-0.2-2.1-0.2c-2.8,0-4.8,1.9-4.8,4.9s1.7,4.8,4.7,4.8
		c0.7,0,1.7-0.1,2.2-0.3c0.1,0,0.2,0,0.2,0.2v0.1C34.1,49.8,34,49.8,33.9,49.9z"/>
	<path class="st1" d="M40.8,39.5c0.1,0,0.2,0.1,0.2,0.2v0.1c0,0.2,0,0.2-0.2,0.2h-4.7v4.3h4.5c0.1,0,0.2,0.1,0.2,0.2v0.1
		c0,0.1-0.1,0.2-0.2,0.2h-4.5v4.6H41c0.1,0,0.2,0.1,0.2,0.2v0.1c0,0.1-0.1,0.2-0.2,0.2h-5.2c-0.1,0-0.2-0.1-0.2-0.2v-10
		c0-0.1,0.1-0.2,0.2-0.2H40.8z"/>
	<path class="st1" d="M49.9,50c-0.1,0-0.2-0.1-0.3-0.2l-6-9.6v9.6c0,0.1-0.1,0.2-0.2,0.2h-0.2C43,50,43,49.9,43,49.8V39.7
		c0-0.1,0.1-0.2,0.2-0.2h0.5c0.1,0,0.2,0.1,0.2,0.2l6.1,9.6v-9.6c0-0.1,0.1-0.2,0.2-0.2h0.2c0.1,0,0.2,0.1,0.2,0.2v10.1
		c0,0.1-0.1,0.2-0.2,0.2C50.4,50,49.9,50,49.9,50z"/>
	<path class="st1" d="M51.6,40.1c-0.1,0-0.2-0.1-0.2-0.2v-0.1c0-0.1,0.1-0.2,0.2-0.2h6.9c0.1,0,0.2,0.1,0.2,0.2v0.1
		c0,0.1-0.1,0.2-0.2,0.2h-3.2v9.7c0,0.1-0.1,0.2-0.2,0.2H55c-0.1,0-0.2-0.1-0.2-0.2v-9.7H51.6z"/>
	<path class="st1" d="M65.8,50c-0.1,0-0.1-0.1-0.2-0.2l-3.9-10.1c-0.1-0.1,0-0.2,0.2-0.2h0.2c0.1,0,0.2,0.1,0.2,0.2l3.8,9.8l3.8-9.8
		c0.1-0.1,0.1-0.2,0.2-0.2h0.2c0.1,0,0.2,0.1,0.2,0.2l-3.9,10.1c-0.1,0.1-0.1,0.2-0.2,0.2C66.4,50,65.8,50,65.8,50z"/>
	<path class="st1" d="M72.3,49.8c0,0.1,0,0.2-0.1,0.2h-0.3c-0.1,0-0.2-0.1-0.2-0.2V39.7c0-0.1,0.1-0.2,0.2-0.2h0.2
		c0.1,0,0.2,0.1,0.2,0.2C72.3,39.7,72.3,49.8,72.3,49.8z"/>
	<path class="st1" d="M79.6,39.5c0.1,0,0.2,0.1,0.2,0.2v0.1c0,0.1-0.1,0.2-0.2,0.2h-4.7v4.3h4.5c0.1,0,0.2,0.1,0.2,0.2v0.1
		c0,0.1-0.1,0.2-0.2,0.2h-4.5v4.6h4.9c0.1,0,0.2,0.1,0.2,0.2v0.1c0,0.1-0.1,0.2-0.2,0.2h-5.2c-0.1,0-0.2-0.1-0.2-0.2v-10
		c0-0.1,0.1-0.2,0.2-0.2H79.6z"/>
	<path class="st1" d="M87.5,40.1l-2.8,9.7c0,0.1-0.1,0.2-0.2,0.2h-0.6c-0.1,0-0.2-0.1-0.2-0.2l-3.1-10.1c0-0.1,0-0.2,0.2-0.2H81
		c0.1,0,0.2,0.1,0.2,0.2l3,9.8l2.9-9.8c0-0.1,0.1-0.2,0.2-0.2h0.4c0.1,0,0.2,0.1,0.2,0.2l2.9,9.8l3-9.8c0-0.1,0.1-0.2,0.2-0.2h0.2
		c0.1,0,0.2,0.1,0.2,0.2l-3.1,10.1c0,0.1-0.1,0.2-0.2,0.2h-0.6c-0.1,0-0.2-0.1-0.2-0.2L87.5,40.1z"/>
	<g class="st1">
		<g>
			<path d="M52.8,13.5c4.7,0,8.5,3.8,8.5,8.5s-3.8,8.5-8.5,8.5s-8.5-3.8-8.5-8.5S48.2,13.5,52.8,13.5 M52.8,12c-5.5,0-10,4.5-10,10
				s4.5,10,10,10s10-4.5,10-10S58.4,12,52.8,12L52.8,12z"/>
		</g>
		<g>
			<line class="st2" x1="52.8" y1="13" x2="52.8" y2="16"/>
		</g>
		<g>
			<line class="st2" x1="43.8" y1="22" x2="46.8" y2="22"/>
		</g>
		<g>
			<line class="st2" x1="52.8" y1="31" x2="52.8" y2="28"/>
		</g>
		<g>
			<line class="st2" x1="61.8" y1="22" x2="58.8" y2="22"/>
		</g>
		<polyline class="st3" points="49.9,19.1 52.8,22 57.8,17 		"/>
	</g>
</g>
<g class="st0">
	<g class="st1">
		<path d="M44.2,40.9v9c0,0.1-0.1,0.2-0.2,0.2h-1.3c-0.1,0-0.2-0.1-0.2-0.2v-9h-2.7c-0.1,0-0.2-0.1-0.2-0.2v-1.1
			c0-0.1,0.1-0.2,0.2-0.2h7.1c0.1,0,0.2,0.1,0.2,0.2v1.1c0,0.1-0.1,0.2-0.2,0.2H44.2z"/>
		<path d="M52.7,50.3c-3.3,0-4.7-2.6-4.7-5.6s1.5-5.6,4.7-5.6s4.8,2.6,4.7,5.6c0,1.7-0.4,3-1.2,4C55.4,49.8,54.2,50.3,52.7,50.3z
			 M49.6,44.8c0,1.9,0.9,4.1,3.1,4.1s3.1-2.1,3.1-4.1c0-1.9-0.9-4-3.1-4C50.5,40.7,49.6,42.8,49.6,44.8z"/>
		<path d="M61.2,45.8v4.1c0,0.1-0.1,0.2-0.2,0.2h-1.3c-0.1,0-0.2-0.1-0.2-0.2V39.6c0-0.1,0.1-0.2,0.2-0.2h2.9c2.1,0,3.4,1,3.4,3.1
			s-1.5,3.2-3.5,3.2h-1.3V45.8z M61.2,40.9v3.4h1.1c1.3,0,2.1-0.5,2.1-1.7c0-1.1-0.6-1.6-1.6-1.6h-1.6V40.9z"/>
	</g>
	<g class="st1">
		<polygon points="48.3,32 54.3,26.1 52.9,24.8 45.7,32 		"/>
		<polygon points="57.5,32 51.6,26.1 52.9,24.8 60.2,32 		"/>
	</g>
	<g class="st1">
		<polygon points="48.3,25.6 54.3,19.7 52.9,18.4 45.7,25.6 		"/>
		<polygon points="57.5,25.6 51.6,19.7 52.9,18.4 60.2,25.6 		"/>
	</g>
	<g class="st1">
		<polygon points="48.3,19.3 54.3,13.3 52.9,12 45.7,19.3 		"/>
		<polygon points="57.5,19.3 51.6,13.3 52.9,12 60.2,19.3 		"/>
	</g>
</g>
<g>
	<g>
		<path class="st4" d="M12.5,42.8h3.1c0.5,0,0.9,0.1,1.3,0.2c0.4,0.1,0.7,0.3,0.9,0.5c0.2,0.2,0.4,0.5,0.5,0.8
			c0.1,0.3,0.2,0.6,0.2,1v0.3c0,0.3-0.1,0.7-0.2,1c-0.1,0.3-0.3,0.6-0.5,0.8c-0.2,0.2-0.5,0.4-0.9,0.5c-0.4,0.1-0.8,0.2-1.2,0.2
			h-1.9v3.4h-1.2V42.8z M13.7,43.9v3.2h1.7c1.2,0,1.9-0.5,1.9-1.5v-0.2c0-0.5-0.1-0.9-0.4-1.1c-0.3-0.2-0.7-0.4-1.3-0.4H13.7z"/>
		<path class="st4" d="M21.1,51.4h-1.2v-8.6H23c0.4,0,0.8,0.1,1.2,0.2c0.3,0.1,0.6,0.3,0.9,0.5s0.4,0.5,0.5,0.7
			c0.1,0.3,0.2,0.6,0.2,0.9v0.3c0,0.5-0.1,0.9-0.4,1.3c-0.3,0.4-0.6,0.7-1.1,0.8l1.7,3.8h-1.3l-1.6-3.6h-2.1V51.4z M21.1,46.8h1.6
			c0.7,0,1.1-0.1,1.4-0.4c0.3-0.3,0.4-0.6,0.4-1v-0.2c0-0.4-0.1-0.8-0.4-1c-0.3-0.2-0.7-0.4-1.3-0.4h-1.8V46.8z"/>
		<path class="st4" d="M30.8,51.6c-0.5,0-1-0.1-1.4-0.2s-0.8-0.4-1.1-0.7c-0.3-0.3-0.6-0.7-0.7-1.2c-0.2-0.5-0.3-1-0.3-1.7v-1.3
			c0-0.6,0.1-1.2,0.3-1.6s0.4-0.9,0.7-1.2c0.3-0.3,0.7-0.6,1.1-0.7s0.9-0.2,1.4-0.2c0.5,0,1,0.1,1.4,0.2s0.8,0.4,1.1,0.7
			c0.3,0.3,0.6,0.7,0.7,1.2s0.3,1,0.3,1.6v1.3c0,0.6-0.1,1.2-0.3,1.7c-0.2,0.5-0.4,0.9-0.7,1.2c-0.3,0.3-0.7,0.6-1.1,0.7
			S31.3,51.6,30.8,51.6z M30.8,43.8c-0.3,0-0.6,0.1-0.9,0.2s-0.5,0.3-0.7,0.5s-0.4,0.5-0.5,0.9s-0.2,0.8-0.2,1.3v1
			c0,0.5,0.1,0.9,0.2,1.3c0.1,0.4,0.3,0.7,0.5,0.9s0.4,0.4,0.7,0.5s0.6,0.2,0.9,0.2c0.3,0,0.6-0.1,0.9-0.2s0.5-0.3,0.7-0.5
			c0.2-0.2,0.4-0.5,0.5-0.9c0.1-0.4,0.2-0.8,0.2-1.3v-1c0-0.5-0.1-0.9-0.2-1.3s-0.3-0.7-0.5-0.9c-0.2-0.2-0.4-0.4-0.7-0.5
			S31.2,43.8,30.8,43.8z"/>
		<path class="st4" d="M38.9,42.8c1.2,0,2.1,0.3,2.7,0.9c0.6,0.6,0.9,1.5,0.9,2.7v1.2c0,1.2-0.3,2.1-0.9,2.7s-1.5,0.9-2.7,0.9H36
			v-8.6H38.9z M37.2,50.4h1.6c0.4,0,0.7,0,1-0.1c0.3-0.1,0.6-0.3,0.8-0.5c0.2-0.2,0.4-0.5,0.5-0.8s0.2-0.8,0.2-1.2v-1.1
			c0-0.5-0.1-0.9-0.2-1.2s-0.3-0.6-0.5-0.8c-0.2-0.2-0.5-0.4-0.8-0.5c-0.3-0.1-0.7-0.1-1-0.1h-1.6V50.4z"/>
		<path class="st4" d="M50.5,42.8V48c0,0.7-0.1,1.2-0.2,1.7c-0.1,0.5-0.4,0.8-0.6,1.1s-0.6,0.5-1,0.6c-0.4,0.1-0.9,0.2-1.4,0.2
			c-0.5,0-1-0.1-1.4-0.2c-0.4-0.1-0.7-0.3-1-0.6s-0.5-0.7-0.6-1.1c-0.1-0.5-0.2-1-0.2-1.7v-5.2h1.2v5c0,0.5,0,0.9,0.1,1.2
			c0.1,0.3,0.2,0.6,0.4,0.8s0.4,0.4,0.6,0.5c0.3,0.1,0.6,0.1,0.9,0.1s0.6,0,0.9-0.1s0.5-0.2,0.6-0.5s0.3-0.5,0.4-0.8
			c0.1-0.3,0.1-0.8,0.1-1.2v-5H50.5z"/>
		<path class="st4" d="M58.6,50.5c-0.4,0.4-0.9,0.7-1.4,0.9c-0.5,0.2-1.1,0.2-1.6,0.2c-0.5,0-1-0.1-1.4-0.2s-0.8-0.4-1.1-0.7
			c-0.3-0.3-0.5-0.7-0.7-1.2c-0.2-0.5-0.3-1-0.3-1.7v-1.3c0-0.6,0.1-1.2,0.3-1.6s0.4-0.9,0.7-1.2c0.3-0.3,0.7-0.6,1.1-0.7
			s0.9-0.2,1.4-0.2c0.6,0,1.1,0.1,1.6,0.2c0.4,0.1,0.9,0.4,1.3,0.7l-0.6,1c-0.4-0.3-0.8-0.5-1.1-0.6c-0.4-0.1-0.7-0.2-1.1-0.2
			c-0.3,0-0.6,0.1-0.9,0.2c-0.3,0.1-0.5,0.3-0.7,0.5s-0.4,0.5-0.5,0.9c-0.1,0.4-0.2,0.8-0.2,1.3v1c0,0.5,0.1,0.9,0.2,1.3
			c0.1,0.4,0.3,0.7,0.5,0.9s0.4,0.4,0.7,0.5c0.3,0.1,0.6,0.2,0.9,0.2c0.4,0,0.8-0.1,1.2-0.2c0.4-0.1,0.8-0.4,1.2-0.7L58.6,50.5z"/>
		<path class="st4" d="M61.9,51.4v-7.6h-2.6v-1h6.4v1h-2.6v7.6H61.9z"/>
		<path class="st4" d="M71.4,45.2c0-0.1-0.1-0.2-0.1-0.3c0-0.1-0.1-0.2-0.1-0.3c0-0.1-0.1-0.2-0.1-0.3S71.1,44.2,71,44v7.4h-1.1
			v-8.6h1.7l2.4,5.6l2.3-5.6h1.7v8.6h-1.1V44c0,0.2-0.1,0.3-0.1,0.4s-0.1,0.2-0.1,0.3c0,0.1-0.1,0.2-0.1,0.3c0,0.1-0.1,0.2-0.1,0.3
			L74.5,50h-1L71.4,45.2z"/>
		<path class="st4" d="M86.8,51.4h-1.2l-0.9-2.5h-3.3l-0.9,2.5h-1.2l3.2-8.6h1.1L86.8,51.4z M81.8,47.9h2.6l-0.7-2
			c-0.1-0.2-0.1-0.3-0.2-0.5c0-0.1-0.1-0.3-0.1-0.4c0-0.1-0.1-0.3-0.1-0.4c0-0.1-0.1-0.3-0.1-0.5c-0.1,0.2-0.1,0.4-0.2,0.5
			c0,0.1-0.1,0.3-0.1,0.4c0,0.1-0.1,0.2-0.1,0.4c0,0.1-0.1,0.3-0.2,0.5L81.8,47.9z"/>
		<path class="st4" d="M88.1,42.8h3.1c0.5,0,0.9,0.1,1.3,0.2c0.4,0.1,0.7,0.3,0.9,0.5c0.2,0.2,0.4,0.5,0.5,0.8
			c0.1,0.3,0.2,0.6,0.2,1v0.3c0,0.3-0.1,0.7-0.2,1c-0.1,0.3-0.3,0.6-0.5,0.8c-0.2,0.2-0.5,0.4-0.9,0.5c-0.4,0.1-0.8,0.2-1.2,0.2
			h-1.9v3.4h-1.2V42.8z M89.2,43.9v3.2h1.7c1.2,0,1.9-0.5,1.9-1.5v-0.2c0-0.5-0.1-0.9-0.4-1.1s-0.7-0.4-1.3-0.4H89.2z"/>
	</g>
	<g>
		<path class="st4" d="M65,20.5c0-6.1-4.9-11-11-11c-6.1,0-11,4.9-11,11c0,1.5,0.3,2.9,0.8,4.2l0,0l0,0c0.1,0.1,0.1,0.3,0.2,0.4
			c0.8,1.9,1.1,2.5,3.5,6c2.6,3.7,4.2,5.8,4.7,6.5c0.4,0.5,1,1,1.7,1s1.3-0.5,1.7-1c0.5-0.7,2.1-2.7,4.7-6.5c2.5-3.5,2.7-4.1,3.5-6
			c0.1-0.1,0.1-0.3,0.2-0.4l0,0l0,0C64.7,23.4,65,22,65,20.5z M54,29c-4.7,0-8.5-3.8-8.5-8.5c0-4.7,3.8-8.5,8.5-8.5
			c4.7,0,8.5,3.8,8.5,8.5C62.5,25.2,58.7,29,54,29z"/>
		<path class="st4" d="M55.1,23c0,0.1-0.1,0.2-0.2,0.2h-1.9c-0.1,0-0.2-0.1-0.2-0.2v-7.8c0-0.1,0.1-0.2,0.2-0.2h1.9
			c0.1,0,0.2,0.1,0.2,0.2V23z"/>
		<path class="st4" d="M55.1,25.9c0,0.1-0.1,0.2-0.2,0.2h-1.9c-0.1,0-0.2-0.1-0.2-0.2V24c0-0.1,0.1-0.2,0.2-0.2h1.9
			c0.1,0,0.2,0.1,0.2,0.2V25.9z"/>
	</g>
</g>
</svg>
