<?xml version="1.0" encoding="utf-8"?>
<!-- Generator: Adobe Illustrator 22.0.1, SVG Export Plug-In . SVG Version: 6.00 Build 0)  -->
<svg version="1.1" id="Layer_2_1_" xmlns="http://www.w3.org/2000/svg" xmlns:xlink="http://www.w3.org/1999/xlink" x="0px" y="0px"
	 viewBox="0 0 106 62" style="enable-background:new 0 0 106 62;" xml:space="preserve">
<style type="text/css">
	.st0{display:none;}
	.st1{display:inline;}
	.st2{fill:none;stroke:#000000;stroke-width:1.5;stroke-linecap:round;stroke-miterlimit:10;}
	.st3{fill:none;stroke:#000000;stroke-width:1.5;stroke-linecap:round;stroke-linejoin:round;stroke-miterlimit:10;}
</style>
<g>
	<path d="M26,49.8c0,0.1,0,0.2-0.2,0.2h-0.2c-0.1,0-0.2-0.1-0.2-0.2L24.2,47h-5.8l-1.1,2.8c0,0.1-0.1,0.1-0.1,0.2c0,0-0.1,0-0.2,0
		h-0.2c-0.2,0-0.2-0.1-0.2-0.2l4.1-10c0-0.1,0-0.1,0.1-0.1c0,0,0.1,0,0.1,0h0.8c0.1,0,0.1,0,0.1,0c0,0,0,0.1,0.1,0.1L26,49.8z
		 M18.7,46.5H24L21.3,40L18.7,46.5z"/>
	<path d="M27.3,50c-0.1,0-0.2-0.1-0.2-0.2v-10c0-0.1,0.1-0.2,0.2-0.2h0.2c0.1,0,0.2,0.1,0.2,0.2v9.6h4.5c0.1,0,0.2,0.1,0.2,0.2v0.1
		c0,0.1-0.1,0.2-0.2,0.2H27.3z"/>
	<path d="M41.8,49.8c0,0.1,0,0.2-0.2,0.2h-0.2c-0.1,0-0.2-0.1-0.2-0.2L40.1,47h-5.8l-1.1,2.8c0,0.1-0.1,0.1-0.1,0.2c0,0-0.1,0-0.2,0
		h-0.2c-0.2,0-0.2-0.1-0.2-0.2l4.1-10c0-0.1,0-0.1,0.1-0.1c0,0,0.1,0,0.1,0h0.8c0.1,0,0.1,0,0.1,0c0,0,0,0.1,0.1,0.1L41.8,49.8z
		 M34.5,46.5h5.4L37.2,40L34.5,46.5z"/>
	<path d="M49.3,42.5c0,0.3,0,0.6-0.1,0.9s-0.2,0.5-0.3,0.8c-0.1,0.2-0.3,0.5-0.6,0.7c-0.2,0.2-0.5,0.3-0.8,0.5l2.4,4.5
		c0.1,0.1,0.1,0.2-0.1,0.2h-0.3c-0.1,0-0.2-0.1-0.3-0.2l-2.3-4.3c-0.1,0-0.3,0-0.4,0c-0.1,0-0.3,0-0.4,0h-2.4v4.3
		c0,0.1-0.1,0.2-0.2,0.2h-0.2c-0.1,0-0.2-0.1-0.2-0.2v-10c0-0.1,0.1-0.2,0.2-0.2H46c0.6,0,1.1,0.1,1.5,0.2c0.4,0.2,0.7,0.4,1,0.7
		c0.3,0.3,0.5,0.6,0.6,0.9C49.2,41.8,49.3,42.1,49.3,42.5z M48.7,42.5c0-0.3-0.1-0.7-0.2-1c-0.1-0.3-0.3-0.6-0.5-0.8
		c-0.2-0.2-0.5-0.4-0.8-0.5s-0.7-0.2-1.1-0.2h-2.4V45H46c0.4,0,0.8-0.1,1.1-0.2s0.6-0.3,0.8-0.5c0.2-0.2,0.4-0.5,0.5-0.8
		C48.6,43.2,48.7,42.9,48.7,42.5z"/>
	<path d="M51.9,49.8c0,0.1-0.1,0.2-0.2,0.2h-0.2c-0.1,0-0.2-0.1-0.2-0.2v-10c0-0.1,0.1-0.2,0.2-0.2h0.7c0.1,0,0.1,0,0.2,0
		c0,0,0.1,0.1,0.1,0.2l4.1,9.7l4.1-9.7c0-0.1,0.1-0.1,0.1-0.1s0.1,0,0.2,0h0.7c0.1,0,0.2,0.1,0.2,0.2v10c0,0.1-0.1,0.2-0.2,0.2h-0.2
		c-0.1,0-0.2-0.1-0.2-0.2V40l-4.1,9.7c0,0.1,0,0.1-0.1,0.1c0,0-0.1,0-0.1,0h-0.7c-0.1,0-0.1,0-0.1,0c0,0,0-0.1-0.1-0.1L51.9,40V49.8
		z"/>
	<path d="M67.7,50c-0.1,0-0.2-0.1-0.2-0.2v-10c0-0.1,0.1-0.2,0.2-0.2h0.2c0.1,0,0.2,0.1,0.2,0.2v9.6h4.5c0.1,0,0.2,0.1,0.2,0.2v0.1
		c0,0.1-0.1,0.2-0.2,0.2H67.7z"/>
	<path d="M74.5,49.8c0,0.1,0,0.1,0,0.2c0,0,0,0-0.1,0h-0.3c-0.1,0-0.2-0.1-0.2-0.2v-10c0-0.1,0.1-0.2,0.2-0.2h0.2
		c0.1,0,0.2,0.1,0.2,0.2V49.8z"/>
	<path d="M76.6,49.1c0.4,0.2,0.9,0.4,1.4,0.5c0.6,0.1,1.1,0,1.6-0.1s0.9-0.4,1.3-0.8c0.4-0.4,0.5-0.9,0.5-1.5c0-0.4-0.1-0.7-0.4-1
		c-0.3-0.3-0.6-0.5-1-0.7c-0.4-0.2-0.8-0.4-1.3-0.6c-0.5-0.2-0.9-0.4-1.3-0.7s-0.7-0.5-1-0.9c-0.3-0.3-0.4-0.8-0.4-1.2
		c0-0.4,0.1-0.8,0.3-1.1s0.4-0.6,0.7-0.8s0.6-0.4,1-0.5c0.4-0.1,0.7-0.2,1.1-0.2c0.4,0,0.8,0,1.2,0c0.4,0.1,0.7,0.1,1.1,0.3
		c0.1,0,0.2,0.1,0.1,0.2l0,0.2c0,0.1-0.1,0.2-0.2,0.1C81,40.1,80.7,40,80.4,40c-0.3-0.1-0.7-0.1-1,0c-0.3,0-0.7,0.1-1,0.2
		s-0.6,0.3-0.8,0.4c-0.2,0.2-0.4,0.4-0.6,0.7c-0.1,0.3-0.2,0.5-0.2,0.9c0,0.4,0.1,0.7,0.4,1c0.3,0.3,0.6,0.5,1,0.8
		c0.4,0.2,0.8,0.5,1.3,0.7s0.9,0.4,1.3,0.7s0.7,0.5,1,0.9c0.3,0.3,0.4,0.7,0.4,1.1c0,0.5-0.1,0.9-0.3,1.2c-0.2,0.4-0.4,0.6-0.7,0.9
		s-0.6,0.4-1,0.6c-0.4,0.1-0.8,0.2-1.2,0.3c-0.4,0-0.8,0-1.3,0c-0.4-0.1-0.8-0.2-1.2-0.3c-0.1-0.1-0.2-0.2-0.2-0.3l0.1-0.2
		C76.3,49.1,76.4,49.1,76.6,49.1z"/>
	<path d="M82.8,40.1c-0.1,0-0.2-0.1-0.2-0.2v-0.1c0-0.1,0.1-0.2,0.2-0.2h6.8c0.1,0,0.2,0.1,0.2,0.2v0.1c0,0.1-0.1,0.2-0.2,0.2h-3.1
		v9.6c0,0.1-0.1,0.2-0.2,0.2h-0.2c-0.1,0-0.2-0.1-0.2-0.2v-9.6H82.8z"/>
</g>
<g class="st0">
	<path class="st1" d="M26.7,49.8c0,0.1-0.1,0.2-0.2,0.2h-0.2c-0.1,0-0.2-0.1-0.2-0.2V39.7c0-0.1,0.1-0.2,0.2-0.2H27
		c0.1,0,0.2,0.1,0.2,0.2l4.1,9.8l4.1-9.8c0.1-0.1,0.1-0.2,0.2-0.2h0.7c0.1,0,0.2,0.1,0.2,0.2v10.1c0,0.1-0.1,0.2-0.2,0.2h-0.2
		C36,50,36,49.9,36,49.8v-9.9l-4.1,9.8c-0.1,0.1-0.1,0.2-0.2,0.2H31c-0.1,0-0.1-0.1-0.2-0.2l-4.1-9.8C26.7,39.9,26.7,49.8,26.7,49.8
		z"/>
	<path class="st1" d="M42.6,49.8c0,0.1-0.1,0.2-0.2,0.2h-0.2C42,50,42,49.9,42,49.8v-4.6l-3.8-5.5c-0.1-0.1,0-0.2,0.2-0.2h0.3
		c0.1,0,0.2,0.1,0.3,0.2l3.4,5l3.4-5c0.1-0.1,0.1-0.2,0.3-0.2h0.3c0.1,0,0.3,0.1,0.2,0.2l-3.8,5.5v4.6H42.6z"/>
	<path class="st1" d="M50.7,45.5h-2.4v4.3c0,0.1-0.1,0.2-0.2,0.2h-0.2c-0.1,0-0.2-0.1-0.2-0.2V39.7c0-0.1,0.1-0.2,0.2-0.2h2.8
		c2.3,0,3.3,1.4,3.3,3C53.9,44,53,45.5,50.7,45.5z M50.7,40h-2.4v4.9h2.4c1.7,0,2.7-1.1,2.7-2.5S52.4,40,50.7,40z"/>
	<path class="st1" d="M62.3,49.8c0,0.1,0,0.2-0.2,0.2h-0.2c-0.1,0-0.2-0.1-0.2-0.2L60.5,47h-5.9l-1.2,2.8c-0.1,0.1-0.1,0.2-0.2,0.2
		H53c-0.1,0-0.2-0.1-0.2-0.2L57,39.7c0.1-0.1,0.1-0.2,0.2-0.2H58c0.1,0,0.1,0.1,0.2,0.2L62.3,49.8z M54.9,46.5h5.4l-2.7-6.6
		L54.9,46.5z"/>
	<path class="st1" d="M67.9,44.9c-0.1,0-0.2-0.1-0.2-0.2v-0.1c0-0.1,0.1-0.2,0.2-0.2h3.7c0.1,0,0.2,0.1,0.2,0.2v4.6
		c0,0.7-2.1,1-3.3,1c-3.2,0-5.4-1.9-5.4-5.4c0-3.4,2.2-5.5,5.4-5.5c1,0,2.1,0.2,2.6,0.4c0.1,0.1,0.2,0.1,0.2,0.2v0.2
		c0,0.1-0.1,0.2-0.2,0.2c-0.7-0.3-1.6-0.5-2.6-0.4c-2.8,0.1-4.8,1.9-4.8,4.9s1.7,4.8,4.7,4.8c0.5,0,2.2-0.1,2.8-0.6v-4.2L67.9,44.9
		L67.9,44.9z"/>
	<path class="st1" d="M79.2,39.5c0.1,0,0.2,0.1,0.2,0.2v0.1c0,0.1-0.1,0.2-0.2,0.2h-4.7v4.3H79c0.1,0,0.2,0.1,0.2,0.2v0.1
		c0,0.1-0.1,0.2-0.2,0.2h-4.5v4.6h4.9c0.1,0,0.2,0.1,0.2,0.2v0.1c0,0.1-0.1,0.2-0.2,0.2h-5.2C74,50,74,50,74,49.8V39.7
		c0-0.1,0.1-0.2,0.2-0.2H79.2z"/>
	<path class="st1" d="M60.5,26.1c-0.2-3.1-2.3-5.7-5.2-6.7c1-0.7,1.7-2,1.7-3.3c0-2.3-1.8-4.1-4.1-4.1s-4.1,1.8-4.1,4.1
		c0,1.4,0.7,2.6,1.7,3.3c-2.9,0.9-5,3.5-5.2,6.7l0,0V32h15.3L60.5,26.1L60.5,26.1z"/>
</g>
<g class="st0">
	<path class="st1" d="M15.6,45.3l2.4,4.5c0.1,0.1,0.1,0.2-0.1,0.2h-0.3c-0.1,0-0.2-0.1-0.3-0.2L15,45.4c-0.2,0-0.5,0.1-0.8,0.1h-2.4
		v4.3c0,0.1-0.1,0.2-0.2,0.2h-0.2c-0.1,0-0.2-0.1-0.2-0.2V39.7c0-0.1,0.1-0.2,0.2-0.2h2.8c2.3,0,3.3,1.4,3.3,3
		C17.5,43.7,16.9,44.8,15.6,45.3z M14.2,40h-2.4v4.9h2.4c1.7,0,2.7-1.1,2.7-2.5S15.9,40,14.2,40z"/>
	<path class="st1" d="M24.6,39.5c0.1,0,0.2,0.1,0.2,0.2v0.1c0,0.1-0.1,0.2-0.2,0.2h-4.7v4.3h4.5c0.1,0,0.2,0.1,0.2,0.2v0.1
		c0,0.1-0.1,0.2-0.2,0.2h-4.5v4.6h4.9c0.1,0,0.2,0.1,0.2,0.2v0.1c0,0.1-0.1,0.2-0.2,0.2h-5.2c-0.1,0-0.2-0.1-0.2-0.2v-10
		c0-0.1,0.1-0.2,0.2-0.2H24.6z"/>
	<path class="st1" d="M33.9,49.9c-0.7,0.2-1.1,0.3-2.1,0.3c-3.2,0-5.4-1.9-5.4-5.4c0-3.4,2.2-5.5,5.4-5.5c0.6,0,1.7,0,2.1,0.2
		c0.1,0.1,0.2,0.1,0.2,0.2v0.1c0,0.1-0.1,0.2-0.2,0.2c-0.8-0.2-1.3-0.2-2.1-0.2c-2.8,0-4.8,1.9-4.8,4.9s1.7,4.8,4.7,4.8
		c0.7,0,1.7-0.1,2.2-0.3c0.1,0,0.2,0,0.2,0.2v0.1C34.1,49.8,34,49.8,33.9,49.9z"/>
	<path class="st1" d="M40.8,39.5c0.1,0,0.2,0.1,0.2,0.2v0.1c0,0.2,0,0.2-0.2,0.2h-4.7v4.3h4.5c0.1,0,0.2,0.1,0.2,0.2v0.1
		c0,0.1-0.1,0.2-0.2,0.2h-4.5v4.6H41c0.1,0,0.2,0.1,0.2,0.2v0.1c0,0.1-0.1,0.2-0.2,0.2h-5.2c-0.1,0-0.2-0.1-0.2-0.2v-10
		c0-0.1,0.1-0.2,0.2-0.2H40.8z"/>
	<path class="st1" d="M49.9,50c-0.1,0-0.2-0.1-0.3-0.2l-6-9.6v9.6c0,0.1-0.1,0.2-0.2,0.2h-0.2C43,50,43,49.9,43,49.8V39.7
		c0-0.1,0.1-0.2,0.2-0.2h0.5c0.1,0,0.2,0.1,0.2,0.2l6.1,9.6v-9.6c0-0.1,0.1-0.2,0.2-0.2h0.2c0.1,0,0.2,0.1,0.2,0.2v10.1
		c0,0.1-0.1,0.2-0.2,0.2C50.4,50,49.9,50,49.9,50z"/>
	<path class="st1" d="M51.6,40.1c-0.1,0-0.2-0.1-0.2-0.2v-0.1c0-0.1,0.1-0.2,0.2-0.2h6.9c0.1,0,0.2,0.1,0.2,0.2v0.1
		c0,0.1-0.1,0.2-0.2,0.2h-3.2v9.7c0,0.1-0.1,0.2-0.2,0.2H55c-0.1,0-0.2-0.1-0.2-0.2v-9.7H51.6z"/>
	<path class="st1" d="M65.8,50c-0.1,0-0.1-0.1-0.2-0.2l-3.9-10.1c-0.1-0.1,0-0.2,0.2-0.2h0.2c0.1,0,0.2,0.1,0.2,0.2l3.8,9.8l3.8-9.8
		c0.1-0.1,0.1-0.2,0.2-0.2h0.2c0.1,0,0.2,0.1,0.2,0.2l-3.9,10.1c-0.1,0.1-0.1,0.2-0.2,0.2C66.4,50,65.8,50,65.8,50z"/>
	<path class="st1" d="M72.3,49.8c0,0.1,0,0.2-0.1,0.2h-0.3c-0.1,0-0.2-0.1-0.2-0.2V39.7c0-0.1,0.1-0.2,0.2-0.2h0.2
		c0.1,0,0.2,0.1,0.2,0.2C72.3,39.7,72.3,49.8,72.3,49.8z"/>
	<path class="st1" d="M79.6,39.5c0.1,0,0.2,0.1,0.2,0.2v0.1c0,0.1-0.1,0.2-0.2,0.2h-4.7v4.3h4.5c0.1,0,0.2,0.1,0.2,0.2v0.1
		c0,0.1-0.1,0.2-0.2,0.2h-4.5v4.6h4.9c0.1,0,0.2,0.1,0.2,0.2v0.1c0,0.1-0.1,0.2-0.2,0.2h-5.2c-0.1,0-0.2-0.1-0.2-0.2v-10
		c0-0.1,0.1-0.2,0.2-0.2H79.6z"/>
	<path class="st1" d="M87.5,40.1l-2.8,9.7c0,0.1-0.1,0.2-0.2,0.2h-0.6c-0.1,0-0.2-0.1-0.2-0.2l-3.1-10.1c0-0.1,0-0.2,0.2-0.2H81
		c0.1,0,0.2,0.1,0.2,0.2l3,9.8l2.9-9.8c0-0.1,0.1-0.2,0.2-0.2h0.4c0.1,0,0.2,0.1,0.2,0.2l2.9,9.8l3-9.8c0-0.1,0.1-0.2,0.2-0.2h0.2
		c0.1,0,0.2,0.1,0.2,0.2l-3.1,10.1c0,0.1-0.1,0.2-0.2,0.2h-0.6c-0.1,0-0.2-0.1-0.2-0.2L87.5,40.1z"/>
	<g class="st1">
		<g>
			<path d="M52.8,13.5c4.7,0,8.5,3.8,8.5,8.5s-3.8,8.5-8.5,8.5s-8.5-3.8-8.5-8.5S48.2,13.5,52.8,13.5 M52.8,12c-5.5,0-10,4.5-10,10
				s4.5,10,10,10s10-4.5,10-10S58.4,12,52.8,12L52.8,12z"/>
		</g>
		<g>
			<line class="st2" x1="52.8" y1="13" x2="52.8" y2="16"/>
		</g>
		<g>
			<line class="st2" x1="43.8" y1="22" x2="46.8" y2="22"/>
		</g>
		<g>
			<line class="st2" x1="52.8" y1="31" x2="52.8" y2="28"/>
		</g>
		<g>
			<line class="st2" x1="61.8" y1="22" x2="58.8" y2="22"/>
		</g>
		<polyline class="st3" points="49.9,19.1 52.8,22 57.8,17 		"/>
	</g>
</g>
<g class="st0">
	<g class="st1">
		<path d="M9.3,45.5H6.9v4.3c0,0.1-0.1,0.2-0.2,0.2H6.5c-0.1,0-0.2-0.1-0.2-0.2V39.7c0-0.1,0.1-0.2,0.2-0.2h2.8c2.3,0,3.3,1.4,3.3,3
			C12.6,44,11.6,45.5,9.3,45.5z M9.3,40H6.9v4.9h2.4c1.7,0,2.7-1.1,2.7-2.5S11,40,9.3,40z"/>
		<path d="M18.2,45.3l2.4,4.5c0.1,0.1,0.1,0.2-0.1,0.2h-0.3c-0.1,0-0.2-0.1-0.3-0.2l-2.3-4.4c-0.2,0-0.5,0.1-0.8,0.1h-2.4v4.3
			c0,0.1-0.1,0.2-0.2,0.2H14c-0.1,0-0.2-0.1-0.2-0.2V39.7c0-0.1,0.1-0.2,0.2-0.2h2.8c2.3,0,3.3,1.4,3.3,3
			C20,43.7,19.5,44.8,18.2,45.3z M16.8,40h-2.4v4.9h2.4c1.7,0,2.7-1.1,2.7-2.5S18.5,40,16.8,40z"/>
		<path d="M26,50.2c-3.5,0-4.7-2.9-4.7-5.4s1.2-5.4,4.7-5.4s4.7,2.9,4.7,5.4S29.5,50.2,26,50.2z M26,39.9c-3,0-4.1,2.7-4.1,4.9
			s1.1,4.9,4.1,4.9s4.1-2.7,4.1-4.9C30.1,42.5,29,39.9,26,39.9z"/>
		<path d="M32.4,50c-0.1,0-0.2-0.1-0.2-0.2V39.7c0-0.1,0.1-0.2,0.2-0.2h2.3c3.7,0,5.3,2,5.3,5.2c0,3.5-2.1,5.2-6.2,5.2L32.4,50
			L32.4,50z M34.7,40.1h-1.9v9.4h1.1c3.8,0,5.6-1.6,5.6-4.7C39.5,41.6,38,40.1,34.7,40.1z"/>
		<path d="M48.9,39.7c0-0.1,0.1-0.2,0.2-0.2h0.2c0.1,0,0.2,0.1,0.2,0.2v6.7c0,2.6-1.7,3.8-3.8,3.8s-3.8-1.3-3.8-3.8v-6.7
			c0-0.1,0.1-0.2,0.2-0.2h0.2c0.1,0,0.2,0.1,0.2,0.2v6.7c0,2.1,1.4,3.2,3.2,3.2s3.2-1.1,3.2-3.2C48.9,46.4,48.9,39.7,48.9,39.7z"/>
		<path d="M58.6,49.9c-0.7,0.2-1.1,0.3-2.1,0.3c-3.2,0-5.4-1.9-5.4-5.4c0-3.4,2.2-5.5,5.4-5.5c0.6,0,1.7,0,2.1,0.2
			c0.1,0.1,0.2,0.1,0.2,0.2v0.1c0,0.1-0.1,0.2-0.2,0.2c-0.8-0.2-1.3-0.2-2.1-0.2c-2.8,0-4.8,1.9-4.8,4.9s1.7,4.8,4.7,4.8
			c0.7,0,1.7-0.1,2.2-0.3c0.1,0,0.2,0,0.2,0.2v0.1C58.8,49.8,58.7,49.8,58.6,49.9z"/>
		<path d="M59.3,40.1c-0.1,0-0.2-0.1-0.2-0.2v-0.1c0-0.1,0.1-0.2,0.2-0.2h6.9c0.1,0,0.2,0.1,0.2,0.2v0.1c0,0.1-0.1,0.2-0.2,0.2H63
			v9.7c0,0.1-0.1,0.2-0.2,0.2h-0.2c-0.1,0-0.2-0.1-0.2-0.2v-9.7H59.3z"/>
		<path d="M71.2,49.8c0,0.1-0.1,0.2-0.2,0.2h-0.2c-0.1,0-0.2-0.1-0.2-0.2V39.7c0-0.1,0.1-0.2,0.2-0.2h0.7c0.1,0,0.2,0.1,0.2,0.2
			l4.1,9.8l4.1-9.8c0.1-0.1,0.1-0.2,0.2-0.2h0.7c0.1,0,0.2,0.1,0.2,0.2v10.1c0,0.1-0.1,0.2-0.2,0.2h-0.2c-0.1,0-0.2-0.1-0.2-0.2
			v-9.9l-4.1,9.8c-0.1,0.1-0.1,0.2-0.2,0.2h-0.7c-0.1,0-0.1-0.1-0.2-0.2l-4.1-9.8L71.2,49.8L71.2,49.8z"/>
		<path d="M92,49.8c0,0.1,0,0.2-0.2,0.2h-0.2c-0.1,0-0.2-0.1-0.2-0.2L90.2,47h-5.9l-1.2,2.8c0,0.1,0,0.2-0.1,0.2h-0.2
			c-0.1,0-0.2-0.1-0.2-0.2l4.1-10.1c0.1-0.1,0.1-0.2,0.2-0.2h0.8c0.1,0,0.1,0.1,0.2,0.2L92,49.8z M84.6,46.5H90l-2.7-6.6L84.6,46.5z
			"/>
		<path d="M96.1,45.5h-2.4v4.3c0,0.1-0.1,0.2-0.2,0.2h-0.2c-0.1,0-0.2-0.1-0.2-0.2V39.7c0-0.1,0.1-0.2,0.2-0.2h2.8
			c2.3,0,3.3,1.4,3.3,3C99.4,44,98.4,45.5,96.1,45.5z M96.1,40h-2.4v4.9h2.4c1.7,0,2.7-1.1,2.7-2.5S97.8,40,96.1,40z"/>
	</g>
	<g class="st1">
		<path d="M52.4,12c-4.1,0-7.5,3.4-7.5,7.5S52.4,32,52.4,32s7.5-8.4,7.5-12.5S56.5,12,52.4,12z M52.4,25c-3,0-5.5-2.5-5.5-5.5
			s2.5-5.5,5.5-5.5s5.5,2.5,5.5,5.5S55.4,25,52.4,25z"/>
		<circle cx="52.4" cy="19.5" r="2.5"/>
	</g>
</g>
<g class="st0">
	<g class="st1">
		<path d="M44.2,40.9v9c0,0.1-0.1,0.2-0.2,0.2h-1.3c-0.1,0-0.2-0.1-0.2-0.2v-9h-2.7c-0.1,0-0.2-0.1-0.2-0.2v-1.1
			c0-0.1,0.1-0.2,0.2-0.2h7.1c0.1,0,0.2,0.1,0.2,0.2v1.1c0,0.1-0.1,0.2-0.2,0.2H44.2z"/>
		<path d="M52.7,50.3c-3.3,0-4.7-2.6-4.7-5.6s1.5-5.6,4.7-5.6s4.8,2.6,4.7,5.6c0,1.7-0.4,3-1.2,4C55.4,49.8,54.2,50.3,52.7,50.3z
			 M49.6,44.8c0,1.9,0.9,4.1,3.1,4.1s3.1-2.1,3.1-4.1c0-1.9-0.9-4-3.1-4C50.5,40.7,49.6,42.8,49.6,44.8z"/>
		<path d="M61.2,45.8v4.1c0,0.1-0.1,0.2-0.2,0.2h-1.3c-0.1,0-0.2-0.1-0.2-0.2V39.6c0-0.1,0.1-0.2,0.2-0.2h2.9c2.1,0,3.4,1,3.4,3.1
			s-1.5,3.2-3.5,3.2h-1.3V45.8z M61.2,40.9v3.4h1.1c1.3,0,2.1-0.5,2.1-1.7c0-1.1-0.6-1.6-1.6-1.6h-1.6V40.9z"/>
	</g>
	<g class="st1">
		<polygon points="48.3,32 54.3,26.1 52.9,24.8 45.7,32 		"/>
		<polygon points="57.5,32 51.6,26.1 52.9,24.8 60.2,32 		"/>
	</g>
	<g class="st1">
		<polygon points="48.3,25.6 54.3,19.7 52.9,18.4 45.7,25.6 		"/>
		<polygon points="57.5,25.6 51.6,19.7 52.9,18.4 60.2,25.6 		"/>
	</g>
	<g class="st1">
		<polygon points="48.3,19.3 54.3,13.3 52.9,12 45.7,19.3 		"/>
		<polygon points="57.5,19.3 51.6,13.3 52.9,12 60.2,19.3 		"/>
	</g>
</g>
<g>
	<path d="M58.9,23.3v-3.2c0-2.2-1.3-4.2-3.1-5.2c0,0,0-0.1,0-0.1c0-1.6-1.3-2.8-2.8-2.8s-2.8,1.3-2.8,2.8c0,0,0,0.1,0,0.1
		c-1.8,1-3.1,3-3.1,5.2v3.2l-2.3,4.5h16.4L58.9,23.3z M53,13.6c0.5,0,0.9,0.3,1.1,0.7c-0.3-0.1-0.7-0.1-1.1-0.1
		c-0.4,0-0.7,0-1.1,0.1C52.1,13.9,52.5,13.6,53,13.6z"/>
	<path d="M53,32c1.8,0,3.2-1.4,3.2-3.2h-6.4C49.8,30.6,51.2,32,53,32z"/>
</g>
</svg>
