<?xml version="1.0" encoding="utf-8"?>
<!-- Generator: Adobe Illustrator 21.0.2, SVG Export Plug-In . SVG Version: 6.00 Build 0)  -->
<svg version="1.1" id="Layer_1" xmlns="http://www.w3.org/2000/svg" xmlns:xlink="http://www.w3.org/1999/xlink" x="0px" y="0px"
	 viewBox="0 0 750 1334" style="enable-background:new 0 0 750 1334;" xml:space="preserve">
<g>
	<g>
		<path d="M347.5,685.8c0,0.1-0.1,0.2-0.2,0.2h-0.2c-0.1,0-0.2-0.1-0.2-0.2v-10.1c0-0.1,0.1-0.2,0.2-0.2h0.7c0.1,0,0.2,0.1,0.2,0.2
			l4.1,9.8l4.1-9.8c0.1-0.1,0.1-0.2,0.2-0.2h0.7c0.1,0,0.2,0.1,0.2,0.2v10.1c0,0.1-0.1,0.2-0.2,0.2h-0.2c-0.1,0-0.2-0.1-0.2-0.2
			v-9.9l-4.1,9.8c-0.1,0.1-0.1,0.2-0.2,0.2h-0.7c-0.1,0-0.1-0.1-0.2-0.2l-4.1-9.8V685.8z"/>
		<path d="M364.1,685.8c0,0.1-0.1,0.2-0.2,0.2h-0.2c-0.1,0-0.2-0.1-0.2-0.2v-4.6l-3.8-5.5c-0.1-0.1,0-0.2,0.2-0.2h0.3
			c0.1,0,0.2,0.1,0.3,0.2l3.4,5l3.4-5c0.1-0.1,0.1-0.2,0.3-0.2h0.3c0.1,0,0.3,0.1,0.2,0.2l-3.8,5.5V685.8z"/>
		<path d="M372.9,681.5h-2.4v4.3c0,0.1-0.1,0.2-0.2,0.2h-0.2c-0.1,0-0.2-0.1-0.2-0.2v-10.1c0-0.1,0.1-0.2,0.2-0.2h2.8
			c2.3,0,3.3,1.4,3.3,3C376.1,680,375.2,681.5,372.9,681.5z M372.9,676h-2.4v4.9h2.4c1.7,0,2.7-1.1,2.7-2.5S374.6,676,372.9,676z"/>
		<path d="M385.2,685.8c0,0.1,0,0.2-0.2,0.2h-0.2c-0.1,0-0.2-0.1-0.2-0.2l-1.2-2.8h-5.9l-1.2,2.8c-0.1,0.1-0.1,0.2-0.2,0.2h-0.2
			c-0.1,0-0.2-0.1-0.2-0.2l4.1-10.1c0.1-0.1,0.1-0.2,0.2-0.2h0.8c0.1,0,0.1,0.1,0.2,0.2L385.2,685.8z M377.8,682.5h5.4l-2.7-6.6
			L377.8,682.5z"/>
		<path d="M391.5,680.9c-0.1,0-0.2-0.1-0.2-0.2v-0.1c0-0.1,0.1-0.2,0.2-0.2h3.7c0.1,0,0.2,0.1,0.2,0.2v4.6c0,0.7-2.1,1-3.3,1
			c-3.2,0-5.4-1.9-5.4-5.4c0-3.4,2.2-5.5,5.4-5.5c1,0,2.1,0.2,2.6,0.4c0.1,0.1,0.2,0.1,0.2,0.2v0.2c0,0.1-0.1,0.2-0.2,0.2
			c-0.7-0.3-1.6-0.5-2.6-0.4c-2.8,0.1-4.8,1.9-4.8,4.9s1.7,4.8,4.7,4.8c0.5,0,2.2-0.1,2.8-0.6v-4.2H391.5z"/>
		<path d="M403.6,675.5c0.1,0,0.2,0.1,0.2,0.2v0.1c0,0.1-0.1,0.2-0.2,0.2h-4.7v4.3h4.5c0.1,0,0.2,0.1,0.2,0.2v0.1
			c0,0.1-0.1,0.2-0.2,0.2h-4.5v4.6h4.9c0.1,0,0.2,0.1,0.2,0.2v0.1c0,0.1-0.1,0.2-0.2,0.2h-5.2c-0.1,0-0.2-0.1-0.2-0.2v-10.1
			c0-0.1,0.1-0.2,0.2-0.2H403.6z"/>
	</g>
	<path d="M382.8,662.1c-0.2-3.1-2.3-5.7-5.2-6.7c1-0.7,1.7-2,1.7-3.3c0-2.3-1.8-4.1-4.1-4.1s-4.1,1.8-4.1,4.1c0,1.4,0.7,2.6,1.7,3.3
		c-2.9,0.9-5,3.5-5.2,6.7h0v5.9h15.3L382.8,662.1L382.8,662.1z"/>
</g>
</svg>
