<?xml version="1.0" encoding="utf-8"?>
<!-- Generator: Adobe Illustrator 21.0.2, SVG Export Plug-In . SVG Version: 6.00 Build 0)  -->
<svg version="1.1" id="Layer_1" xmlns="http://www.w3.org/2000/svg" xmlns:xlink="http://www.w3.org/1999/xlink" x="0px" y="0px"
	 viewBox="0 0 334 17" style="enable-background:new 0 0 334 17;" xml:space="preserve">
<g>
	<path d="M6.7,5.4c0,0.2-0.1,0.3-0.2,0.3H3.7c-0.1,0-0.2,0-0.2,0.2v3.5c0,0.1,0,0.2,0.2,0.2c1.4,0,2.4-0.1,3.5-0.2
		c0.1,0,0.2,0.1,0.3,0.2c0,0.2,0,0.3-0.2,0.3C6.4,10,5.3,10,3.5,10c-0.5,0-0.6-0.1-0.6-0.6V5.7c0-0.5,0.2-0.6,0.6-0.6h3
		C6.6,5.1,6.7,5.2,6.7,5.4z M8.9,4.8v7c0,0.2-0.2,0.3-0.3,0.3c-0.2,0-0.3-0.1-0.3-0.3v-7c0-0.2,0.2-0.3,0.3-0.3
		C8.8,4.5,8.9,4.6,8.9,4.8z"/>
	<path d="M15,5.4c0,0.2-0.1,0.3-0.2,0.3h-1.6v1c0,0.8,0.2,1.2,0.7,1.8c0.4,0.4,0.8,0.8,1.1,1.1c0.1,0.1,0.1,0.3,0,0.4
		c-0.1,0.1-0.3,0.2-0.4,0c-0.3-0.2-0.6-0.6-1-1c-0.6-0.6-0.7-0.8-0.7-1h0c0,0.2-0.2,0.4-0.7,1c-0.4,0.4-0.8,0.7-1.2,1.1
		c-0.1,0.1-0.3,0.1-0.4,0c-0.1-0.1-0.1-0.3,0-0.4c0.4-0.4,0.8-0.8,1.2-1.2c0.6-0.6,0.7-1,0.7-1.8v-1h-1.7c-0.2,0-0.2-0.1-0.2-0.3
		c0-0.2,0.1-0.3,0.2-0.3h4C15,5.1,15,5.3,15,5.4z M16.6,4.8v2.5h1.1c0.2,0,0.2,0.1,0.2,0.3c0,0.2-0.1,0.3-0.2,0.3h-1.1v4
		c0,0.2-0.2,0.3-0.3,0.3c-0.2,0-0.3-0.1-0.3-0.3v-7c0-0.2,0.2-0.3,0.3-0.3C16.5,4.5,16.6,4.6,16.6,4.8z"/>
	<path d="M22.8,6.9c0,1.1-0.6,2-2,2c-1.4,0-2-0.9-2-2c0-1.1,0.6-2,2-2C22.2,4.9,22.8,5.8,22.8,6.9z M19.5,6.9c0,0.8,0.4,1.4,1.4,1.4
		s1.4-0.7,1.4-1.4c0-0.8-0.4-1.5-1.4-1.5S19.5,6.1,19.5,6.9z M20.7,10v1.7c0,0.1,0,0.2,0.2,0.2h4.2c0.2,0,0.2,0.1,0.2,0.3
		s-0.1,0.3-0.2,0.3h-4.4c-0.5,0-0.6-0.1-0.6-0.6V10c0-0.2,0.2-0.3,0.3-0.3C20.5,9.7,20.7,9.8,20.7,10z M25.1,4.8v5.4
		c0,0.2-0.2,0.3-0.3,0.3c-0.2,0-0.3-0.1-0.3-0.3V4.8c0-0.2,0.2-0.3,0.3-0.3C24.9,4.5,25.1,4.6,25.1,4.8z"/>
	<path d="M32.9,10.1v0.6c0,0.5-0.2,0.6-0.6,0.6h-3.9c-0.1,0-0.1,0-0.1,0.1V12c0,0.1,0,0.1,0.1,0.1h4.5c0.1,0,0.2,0.1,0.2,0.3
		c0,0.1-0.1,0.3-0.2,0.3h-4.7c-0.5,0-0.6-0.1-0.6-0.6v-0.6c0-0.5,0.2-0.6,0.6-0.6h3.9c0.1,0,0.2,0,0.2-0.1v-0.5c0-0.1,0-0.1-0.2-0.1
		h-4.3c-0.1,0-0.2-0.1-0.2-0.3c0-0.1,0.1-0.3,0.2-0.3h1v-1h-2c-0.1,0-0.2-0.1-0.2-0.3c0-0.1,0.1-0.3,0.2-0.3h7
		c0.1,0,0.2,0.1,0.2,0.3c0,0.2-0.1,0.3-0.2,0.3h-2v1h0.5C32.7,9.5,32.9,9.6,32.9,10.1z M32.9,6c0,0.9-0.9,1.4-2.6,1.4
		S27.6,6.9,27.6,6c0-0.9,0.9-1.4,2.6-1.4S32.9,5,32.9,6z M28.3,6c0,0.5,0.6,0.8,2,0.8c1.3,0,2-0.3,2-0.8c0-0.5-0.6-0.8-2-0.8
		C28.9,5.1,28.3,5.4,28.3,6z M29.4,9.5h1.7v-1h-1.7V9.5z"/>
	<path d="M38.1,4.5v7.7c0,0.2-0.1,0.3-0.3,0.3c-0.2,0-0.3-0.1-0.3-0.3V4.5c0-0.2,0.2-0.3,0.3-0.3C37.9,4.3,38.1,4.4,38.1,4.5z"/>
	<path d="M45.1,5.4c0,0.2-0.1,0.3-0.2,0.3h-2.2c-0.1,0-0.2,0-0.2,0.2v3.4c0,0.1,0,0.2,0.2,0.2c0.8,0,1.9-0.1,2.5-0.2
		c0.1,0,0.2,0.1,0.3,0.2c0,0.2,0,0.3-0.2,0.3c-0.5,0.1-1.6,0.2-2.8,0.2c-0.5,0-0.6-0.1-0.6-0.6V5.8c0-0.5,0.2-0.6,0.6-0.6h2.4
		C45,5.2,45.1,5.3,45.1,5.4z M48.4,4.8v7.1c0,0.2-0.2,0.3-0.3,0.3c-0.2,0-0.3-0.1-0.3-0.3v-4h-1.2v3.6c0,0.2-0.2,0.3-0.3,0.3
		c-0.2,0-0.3-0.1-0.3-0.3V4.8c0-0.2,0.2-0.3,0.3-0.3c0.2,0,0.3,0.1,0.3,0.3v2.4h1.2V4.8c0-0.2,0.2-0.3,0.3-0.3
		C48.2,4.5,48.4,4.6,48.4,4.8z"/>
	<path d="M56.2,5.3c0,0.2-0.1,0.3-0.2,0.3h-1v2.6H56c0.2,0,0.2,0.1,0.2,0.3S56.2,8.8,56,8.8h-1.2v1.9h2c0.2,0,0.2,0.1,0.2,0.3
		s-0.1,0.3-0.2,0.3h-6.9c-0.2,0-0.2-0.1-0.2-0.3s0.1-0.3,0.2-0.3h2V8.8h-1.2c-0.2,0-0.2-0.1-0.2-0.3s0.1-0.3,0.2-0.3h1.1V5.6h-1
		c-0.1,0-0.2-0.1-0.2-0.3s0.1-0.3,0.2-0.3H56C56.1,5.1,56.2,5.2,56.2,5.3z M54.3,8.2V5.6h-2v2.6H54.3z M54.2,10.7V8.8h-1.8v1.9H54.2
		z"/>
	<path d="M61.4,6.7c0,0.3-0.2,0.5-0.5,0.5c-0.3,0-0.5-0.2-0.5-0.5c0-0.3,0.2-0.5,0.5-0.5C61.2,6.2,61.4,6.4,61.4,6.7z M61.4,10.1
		c0,0.3-0.2,0.5-0.5,0.5c-0.3,0-0.5-0.2-0.5-0.5c0-0.3,0.2-0.5,0.5-0.5C61.2,9.6,61.4,9.8,61.4,10.1z"/>
	<path d="M68.8,5.6v0.6c0,1.2-0.5,1.5-3.2,2.8c-0.1,0.1-0.3,0-0.4-0.2c-0.1-0.1-0.1-0.3,0.1-0.4c2.6-1.2,2.9-1.4,2.9-2.3V5.7
		c0-0.1,0-0.2-0.2-0.2h-2.5c-0.2,0-0.2-0.1-0.2-0.3c0-0.2,0.1-0.3,0.2-0.3h2.7C68.6,5,68.8,5.1,68.8,5.6z M71.3,10.1v1.8
		c0,0.5-0.2,0.6-0.6,0.6h-3.8c-0.5,0-0.6-0.1-0.6-0.6v-1.8c0-0.5,0.2-0.6,0.6-0.6h3.8C71.1,9.5,71.3,9.7,71.3,10.1z M66.9,10.2v1.6
		c0,0.1,0,0.2,0.2,0.2h3.4c0.1,0,0.2,0,0.2-0.2v-1.6c0-0.1-0.1-0.2-0.2-0.2h-3.4C67,10.1,66.9,10.1,66.9,10.2z M71.3,4.8v4
		c0,0.2-0.2,0.3-0.3,0.3c-0.2,0-0.3-0.1-0.3-0.3v-4c0-0.2,0.2-0.3,0.3-0.3C71.1,4.5,71.3,4.6,71.3,4.8z"/>
	<path d="M79.1,6.1c0,0.6-0.4,1-1,1.2v1.2h1.9c0.2,0,0.2,0.1,0.2,0.3s-0.1,0.3-0.2,0.3H73c-0.2,0-0.2-0.1-0.2-0.3s0.1-0.3,0.2-0.3
		h1.9V7.4c-0.7-0.2-1-0.6-1-1.2c0-1,0.9-1.5,2.6-1.5S79.1,5.2,79.1,6.1z M79.1,11.3c0,1-1,1.5-2.6,1.5s-2.6-0.5-2.6-1.5
		c0-1,1-1.5,2.6-1.5S79.1,10.3,79.1,11.3z M74.5,11.3c0,0.6,0.6,0.9,2,0.9c1.4,0,2-0.3,2-0.9c0-0.6-0.6-0.9-2-0.9
		C75.1,10.3,74.5,10.7,74.5,11.3z M74.5,6.1c0,0.6,0.6,0.9,2,0.9c1.3,0,2-0.3,2-0.9s-0.6-0.9-2-0.9C75.1,5.2,74.5,5.5,74.5,6.1z
		 M75.5,7.5v1h1.9v-1c-0.3,0-0.6,0.1-1,0.1C76.1,7.6,75.8,7.6,75.5,7.5z"/>
	<path d="M86.9,8.1c0,0.9-0.8,1.4-2,1.5v1.1H88c0.2,0,0.2,0.1,0.2,0.3c0,0.2-0.1,0.3-0.2,0.3h-6.9c-0.2,0-0.2-0.1-0.2-0.3
		c0-0.2,0.1-0.3,0.2-0.3h3.1V9.6c-1.3-0.1-2-0.6-2-1.5c0-0.9,0.9-1.5,2.4-1.5C86,6.7,86.9,7.2,86.9,8.1z M84.9,4.7v0.8h2.5
		c0.2,0,0.2,0.1,0.2,0.3S87.5,6,87.4,6h-5.7c-0.2,0-0.2-0.1-0.2-0.3s0.1-0.3,0.2-0.3h2.5V4.7c0-0.2,0.2-0.3,0.3-0.3
		S84.9,4.5,84.9,4.7z M82.8,8.1c0,0.6,0.6,0.9,1.7,0.9s1.7-0.4,1.7-0.9c0-0.6-0.6-0.9-1.7-0.9S82.8,7.6,82.8,8.1z"/>
	<path d="M92.3,4.5v7.7c0,0.2-0.1,0.3-0.3,0.3c-0.2,0-0.3-0.1-0.3-0.3V4.5c0-0.2,0.2-0.3,0.3-0.3C92.2,4.3,92.3,4.4,92.3,4.5z"/>
	<path d="M98.6,5.2v1.4c0,0.8,0.2,1.2,0.7,1.8c0.4,0.4,0.8,0.8,1.1,1.1c0.1,0.1,0.1,0.3,0,0.4c-0.1,0.1-0.3,0.1-0.4,0
		c-0.3-0.3-0.6-0.6-1-1c-0.6-0.6-0.7-0.8-0.7-1h0c0,0.2-0.2,0.5-0.7,1c-0.4,0.4-0.7,0.7-1.1,1.1c-0.1,0.1-0.3,0.1-0.4,0
		c-0.1-0.1-0.1-0.3,0-0.4c0.4-0.4,0.8-0.8,1.2-1.2c0.6-0.6,0.7-1,0.7-1.8V5.2c0-0.2,0.2-0.3,0.3-0.3S98.6,5,98.6,5.2z M102,4.8v2.5
		h1.1c0.2,0,0.2,0.1,0.2,0.3c0,0.2-0.1,0.3-0.2,0.3H102v4c0,0.2-0.2,0.3-0.3,0.3c-0.2,0-0.3-0.1-0.3-0.3v-7c0-0.2,0.2-0.3,0.3-0.3
		C101.9,4.5,102,4.6,102,4.8z"/>
	<path d="M110.5,4.8v3.8c0,0.2-0.2,0.3-0.3,0.3c-0.2,0-0.3-0.1-0.3-0.3V7h-1.8c-0.1,0.9-0.7,1.6-2,1.6c-1.3,0-2-0.8-2-1.9
		c0-1.1,0.6-1.9,2-1.9c1.2,0,1.8,0.7,2,1.6h1.8V4.8c0-0.2,0.2-0.3,0.3-0.3C110.4,4.5,110.5,4.6,110.5,4.8z M104.8,6.7
		c0,0.7,0.4,1.3,1.3,1.3s1.3-0.6,1.3-1.3s-0.4-1.3-1.3-1.3S104.8,6,104.8,6.7z M106.1,9.5v0.9h3.8V9.5c0-0.2,0.2-0.3,0.3-0.3
		s0.3,0.1,0.3,0.3v2.4c0,0.5-0.2,0.6-0.6,0.6h-3.8c-0.5,0-0.6-0.1-0.6-0.6V9.5c0-0.2,0.2-0.3,0.3-0.3C106,9.3,106.1,9.4,106.1,9.5z
		 M106.3,12h3.4c0.1,0,0.2,0,0.2-0.2V11h-3.8v0.8C106.1,11.9,106.2,12,106.3,12z"/>
	<path d="M116.6,5.4c0,0.2-0.1,0.3-0.2,0.3h-1.6v1c0,0.8,0.2,1.2,0.7,1.8c0.4,0.4,0.8,0.8,1.1,1.1c0.1,0.1,0.1,0.3,0,0.4
		c-0.1,0.1-0.3,0.2-0.4,0c-0.3-0.2-0.6-0.6-1-1c-0.6-0.6-0.7-0.8-0.7-1h0c0,0.2-0.2,0.4-0.7,1c-0.4,0.4-0.8,0.7-1.2,1.1
		c-0.1,0.1-0.3,0.1-0.4,0c-0.1-0.1-0.1-0.3,0-0.4c0.4-0.4,0.8-0.8,1.2-1.2c0.6-0.6,0.7-1,0.7-1.8v-1h-1.7c-0.2,0-0.2-0.1-0.2-0.3
		c0-0.2,0.1-0.3,0.2-0.3h4C116.5,5.1,116.6,5.3,116.6,5.4z M118.2,4.8v2.5h1.1c0.2,0,0.2,0.1,0.2,0.3c0,0.2-0.1,0.3-0.2,0.3h-1.1v4
		c0,0.2-0.2,0.3-0.3,0.3c-0.2,0-0.3-0.1-0.3-0.3v-7c0-0.2,0.2-0.3,0.3-0.3C118,4.5,118.2,4.6,118.2,4.8z"/>
	<path d="M127.4,8.7c0,0.2-0.1,0.3-0.2,0.3h-6.9c-0.2,0-0.2-0.1-0.2-0.3c0-0.2,0.1-0.3,0.2-0.3h6.9C127.3,8.4,127.4,8.5,127.4,8.7z
		 M126.4,11.3c0,1-1,1.5-2.6,1.5s-2.6-0.5-2.6-1.5s1-1.5,2.6-1.5S126.4,10.3,126.4,11.3z M126.3,5.1c0,0.2-0.1,0.3-0.2,0.3h-4.2
		c-0.1,0-0.2,0-0.2,0.2v1.3c0,0.1,0,0.2,0.2,0.2h4.3c0.2,0,0.2,0.1,0.2,0.3c0,0.2-0.1,0.3-0.2,0.3h-4.5c-0.5,0-0.6-0.1-0.6-0.6V5.4
		c0-0.5,0.2-0.6,0.6-0.6h4.4C126.3,4.8,126.3,4.9,126.3,5.1z M121.7,11.3c0,0.6,0.6,0.9,2,0.9c1.4,0,2-0.3,2-0.9
		c0-0.6-0.6-0.9-2-0.9C122.4,10.3,121.7,10.6,121.7,11.3z"/>
	<path d="M134.4,5.4v0.7c0,0.5-0.2,0.6-0.6,0.6H130c-0.1,0-0.1,0-0.1,0.1v0.6c0,0.1,0,0.1,0.1,0.1h4.4c0.1,0,0.2,0.1,0.2,0.3
		c0,0.2-0.1,0.3-0.2,0.3h-2.3v0.9h3.2c0.2,0,0.2,0.1,0.2,0.3c0,0.2-0.1,0.3-0.2,0.3h-6.9c-0.2,0-0.2-0.1-0.2-0.3
		c0-0.1,0.1-0.3,0.2-0.3h3.2V8.1h-1.7c-0.5,0-0.6-0.1-0.6-0.6V6.7c0-0.5,0.2-0.6,0.6-0.6h3.8c0.1,0,0.1,0,0.1-0.1V5.4
		c0-0.1,0-0.1-0.1-0.1h-4.2c-0.1,0-0.2-0.1-0.2-0.3s0.1-0.3,0.2-0.3h4.4C134.2,4.8,134.4,4.9,134.4,5.4z M134.4,10.8v1.6
		c0,0.2-0.2,0.3-0.3,0.3c-0.2,0-0.3-0.1-0.3-0.3v-1.5c0-0.1,0-0.2-0.2-0.2h-4.4c-0.1,0-0.2-0.1-0.2-0.3c0-0.1,0.1-0.3,0.2-0.3h4.6
		C134.3,10.2,134.4,10.4,134.4,10.8z"/>
	<path d="M142.8,4.8v5.4c0,0.2-0.2,0.3-0.3,0.3c-0.2,0-0.3-0.1-0.3-0.3V7.2h-1.9v1.1c0,0.5-0.2,0.6-0.6,0.6h-2.4
		c-0.5,0-0.6-0.1-0.6-0.6V5.2c0-0.2,0.2-0.3,0.3-0.3s0.3,0.1,0.3,0.3v1.2h2.3V5.2c0-0.2,0.2-0.3,0.3-0.3c0.2,0,0.3,0.1,0.3,0.3v1.5
		h1.9V4.8c0-0.2,0.2-0.3,0.3-0.3C142.6,4.5,142.8,4.6,142.8,4.8z M137.4,8.4h2c0.1,0,0.2,0,0.2-0.2V7h-2.3v1.2
		C137.3,8.3,137.3,8.4,137.4,8.4z M138.4,10.1v1.7c0,0.1,0,0.2,0.2,0.2h4.2c0.2,0,0.2,0.1,0.2,0.3s-0.1,0.3-0.2,0.3h-4.4
		c-0.5,0-0.6-0.1-0.6-0.6v-1.8c0-0.2,0.2-0.3,0.3-0.3S138.4,9.9,138.4,10.1z"/>
	<path d="M150.3,8.1c0,0.9-0.8,1.4-2,1.5v1.1h3.1c0.2,0,0.2,0.1,0.2,0.3c0,0.2-0.1,0.3-0.2,0.3h-6.9c-0.2,0-0.2-0.1-0.2-0.3
		c0-0.2,0.1-0.3,0.2-0.3h3.1V9.6c-1.3-0.1-2-0.6-2-1.5c0-0.9,0.9-1.5,2.4-1.5C149.4,6.7,150.3,7.2,150.3,8.1z M148.2,4.7v0.8h2.5
		c0.2,0,0.2,0.1,0.2,0.3S150.9,6,150.7,6h-5.7c-0.2,0-0.2-0.1-0.2-0.3s0.1-0.3,0.2-0.3h2.5V4.7c0-0.2,0.2-0.3,0.3-0.3
		S148.2,4.5,148.2,4.7z M146.2,8.1c0,0.6,0.6,0.9,1.7,0.9s1.7-0.4,1.7-0.9c0-0.6-0.6-0.9-1.7-0.9S146.2,7.6,146.2,8.1z"/>
	<path d="M155.9,6.7c0,0.3-0.2,0.5-0.5,0.5c-0.3,0-0.5-0.2-0.5-0.5c0-0.3,0.2-0.5,0.5-0.5C155.7,6.2,155.9,6.4,155.9,6.7z
		 M155.9,10.1c0,0.3-0.2,0.5-0.5,0.5c-0.3,0-0.5-0.2-0.5-0.5c0-0.3,0.2-0.5,0.5-0.5C155.7,9.6,155.9,9.8,155.9,10.1z"/>
	<path d="M163.4,5.3c0,0.2-0.1,0.3-0.2,0.3h-2.5l-0.1,2.3c0.3-0.3,0.8-0.5,1.4-0.5c1.2,0,1.9,0.8,1.9,1.9v0.1c0,0.9-0.6,2-2.2,2
		c-0.8,0-1.4-0.2-1.9-0.5c-0.2-0.1-0.2-0.3-0.1-0.4c0.1-0.2,0.2-0.2,0.4-0.1c0.4,0.3,1,0.5,1.6,0.5c1.1,0,1.5-0.7,1.5-1.4V9.4
		c0-1-0.5-1.4-1.4-1.4c-0.5,0-0.9,0.2-1.2,0.5c-0.1,0.1-0.2,0.2-0.4,0.2c-0.2,0-0.3-0.1-0.3-0.3l0.2-2.7c0-0.5,0.1-0.6,0.6-0.6h2.6
		C163.4,5,163.4,5.1,163.4,5.3z"/>
	<path d="M168.1,5.5l-2.7,3.9h2.5V7.6c0-0.2,0.2-0.3,0.3-0.3s0.3,0.1,0.3,0.3v1.8h0.8c0.2,0,0.2,0.1,0.2,0.3s-0.1,0.3-0.2,0.3h-0.8
		v1.2c0,0.2-0.2,0.3-0.3,0.3s-0.3-0.1-0.3-0.3V9.9h-2.8c-0.3,0-0.5-0.1-0.5-0.3c0-0.1,0-0.2,0.2-0.4l2.8-4c0.1-0.2,0.3-0.2,0.4-0.1
		C168.2,5.1,168.2,5.3,168.1,5.5z"/>
	<path d="M173.1,5.3v5.8c0,0.2-0.2,0.3-0.3,0.3c-0.2,0-0.3-0.1-0.3-0.3V5.8l-1.5,1c-0.2,0.1-0.3,0-0.4-0.1c-0.1-0.1-0.1-0.3,0.1-0.4
		l1.7-1c0.2-0.1,0.3-0.2,0.5-0.2C173,5,173.1,5.1,173.1,5.3z"/>
	<path d="M178.2,8.2c0,0.2-0.1,0.3-0.2,0.3h-2.4c-0.2,0-0.2-0.1-0.2-0.3c0-0.2,0.1-0.3,0.2-0.3h2.4C178.1,7.9,178.2,8,178.2,8.2z"/>
	<path d="M182.4,5.5l-2.7,3.9h2.5V7.6c0-0.2,0.2-0.3,0.3-0.3s0.3,0.1,0.3,0.3v1.8h0.8c0.2,0,0.2,0.1,0.2,0.3s-0.1,0.3-0.2,0.3h-0.8
		v1.2c0,0.2-0.2,0.3-0.3,0.3s-0.3-0.1-0.3-0.3V9.9h-2.8c-0.3,0-0.5-0.1-0.5-0.3c0-0.1,0-0.2,0.2-0.4l2.8-4c0.1-0.2,0.3-0.2,0.4-0.1
		C182.5,5.1,182.5,5.3,182.4,5.5z"/>
	<path d="M187.7,5.5L185,9.4h2.5V7.6c0-0.2,0.2-0.3,0.3-0.3s0.3,0.1,0.3,0.3v1.8h0.8c0.2,0,0.2,0.1,0.2,0.3s-0.1,0.3-0.2,0.3h-0.8
		v1.2c0,0.2-0.2,0.3-0.3,0.3s-0.3-0.1-0.3-0.3V9.9h-2.8c-0.3,0-0.5-0.1-0.5-0.3c0-0.1,0-0.2,0.2-0.4l2.8-4c0.1-0.2,0.3-0.2,0.4-0.1
		C187.8,5.1,187.8,5.3,187.7,5.5z"/>
	<path d="M192.5,8.2c0,0.2-0.1,0.3-0.2,0.3h-2.4c-0.2,0-0.2-0.1-0.2-0.3c0-0.2,0.1-0.3,0.2-0.3h2.4C192.4,7.9,192.5,8,192.5,8.2z"/>
	<path d="M197.7,7.9v0.5c0,2-0.6,3-2.2,3s-2.2-1-2.2-3V7.9c0-2,0.6-3,2.2-3S197.7,6,197.7,7.9z M194,8v0.4c0,1.7,0.4,2.5,1.5,2.5
		s1.5-0.8,1.5-2.5V8c0-1.7-0.4-2.5-1.5-2.5S194,6.3,194,8z"/>
	<path d="M203.1,7.9v0.5c0,2-0.6,3-2.2,3s-2.2-1-2.2-3V7.9c0-2,0.6-3,2.2-3S203.1,6,203.1,7.9z M199.4,8v0.4c0,1.7,0.4,2.5,1.5,2.5
		c1.2,0,1.5-0.8,1.5-2.5V8c0-1.7-0.4-2.5-1.5-2.5C199.7,5.5,199.4,6.3,199.4,8z"/>
	<path d="M208.4,7.9v0.5c0,2-0.6,3-2.2,3s-2.2-1-2.2-3V7.9c0-2,0.6-3,2.2-3S208.4,6,208.4,7.9z M204.7,8v0.4c0,1.7,0.4,2.5,1.5,2.5
		s1.5-0.8,1.5-2.5V8c0-1.7-0.4-2.5-1.5-2.5S204.7,6.3,204.7,8z"/>
	<path d="M213.6,7.6v0.2c0,2.8-0.9,3.6-2.4,3.6c-0.6,0-1.1-0.1-1.4-0.3c-0.2-0.1-0.2-0.2-0.1-0.4c0.1-0.2,0.2-0.2,0.4-0.1
		c0.3,0.2,0.7,0.3,1.2,0.3c1.1,0,1.7-0.7,1.7-2.6c-0.3,0.6-1,0.9-1.7,0.9c-1.2,0-2-0.8-2-2V7c0-1.3,0.9-2,2.1-2
		C212.7,4.9,213.6,5.8,213.6,7.6z M210,7L210,7c0,1,0.5,1.5,1.4,1.5c0.9,0,1.5-0.6,1.5-1.4V7.1c0-1-0.6-1.6-1.5-1.6
		C210.6,5.5,210,6,210,7z"/>
	<path d="M217.7,5.3v5.8c0,0.2-0.2,0.3-0.3,0.3c-0.2,0-0.3-0.1-0.3-0.3V5.8l-1.5,1c-0.2,0.1-0.3,0-0.4-0.1c-0.1-0.1-0.1-0.3,0.1-0.4
		l1.7-1c0.2-0.1,0.3-0.2,0.5-0.2C217.6,5,217.7,5.1,217.7,5.3z"/>
	<path d="M223.3,4.5v7.7c0,0.2-0.1,0.3-0.3,0.3c-0.2,0-0.3-0.1-0.3-0.3V4.5c0-0.2,0.2-0.3,0.3-0.3C223.1,4.3,223.3,4.4,223.3,4.5z"
		/>
	<path d="M230.3,5.4c0,0.2-0.1,0.3-0.2,0.3h-2.2c-0.1,0-0.2,0-0.2,0.2v3.4c0,0.1,0,0.2,0.2,0.2c0.8,0,1.9-0.1,2.5-0.2
		c0.1,0,0.2,0.1,0.3,0.2c0,0.2,0,0.3-0.2,0.3c-0.5,0.1-1.6,0.2-2.8,0.2c-0.5,0-0.6-0.1-0.6-0.6V5.8c0-0.5,0.2-0.6,0.6-0.6h2.4
		C230.2,5.2,230.3,5.3,230.3,5.4z M233.6,4.8v7.1c0,0.2-0.2,0.3-0.3,0.3c-0.2,0-0.3-0.1-0.3-0.3v-4h-1.2v3.6c0,0.2-0.2,0.3-0.3,0.3
		c-0.2,0-0.3-0.1-0.3-0.3V4.8c0-0.2,0.2-0.3,0.3-0.3c0.2,0,0.3,0.1,0.3,0.3v2.4h1.2V4.8c0-0.2,0.2-0.3,0.3-0.3
		C233.5,4.5,233.6,4.6,233.6,4.8z"/>
	<path d="M241.4,5.3c0,0.2-0.1,0.3-0.2,0.3h-1v2.6h1.1c0.2,0,0.2,0.1,0.2,0.3s-0.1,0.3-0.2,0.3H240v1.9h2c0.2,0,0.2,0.1,0.2,0.3
		s-0.1,0.3-0.2,0.3h-6.9c-0.2,0-0.2-0.1-0.2-0.3s0.1-0.3,0.2-0.3h2V8.8h-1.2c-0.2,0-0.2-0.1-0.2-0.3s0.1-0.3,0.2-0.3h1.1V5.6h-1
		c-0.1,0-0.2-0.1-0.2-0.3s0.1-0.3,0.2-0.3h5.3C241.3,5.1,241.4,5.2,241.4,5.3z M239.5,8.2V5.6h-2v2.6H239.5z M239.4,10.7V8.8h-1.8
		v1.9H239.4z"/>
	<path d="M247.6,5.3c0,0.2-0.1,0.3-0.2,0.3h-1.6v0.7c0,0.6,0.2,1,0.7,1.4c0.4,0.3,0.8,0.6,1.1,0.9c0.1,0.1,0.2,0.3,0.1,0.4
		c-0.1,0.1-0.3,0.2-0.4,0.1c-0.3-0.2-0.6-0.5-1-0.8c-0.5-0.4-0.7-0.7-0.7-0.9h0c0,0.2-0.2,0.5-0.7,0.9c-0.4,0.3-0.8,0.6-1.2,0.9
		c-0.2,0.1-0.3,0-0.4-0.1c-0.1-0.1-0.1-0.3,0-0.4c0.4-0.3,0.8-0.6,1.2-1c0.5-0.4,0.7-0.8,0.7-1.4V5.6h-1.7c-0.2,0-0.2-0.1-0.2-0.3
		c0-0.2,0.1-0.3,0.2-0.3h3.9C247.5,5.1,247.6,5.2,247.6,5.3z M245.1,10v1.7c0,0.1,0,0.2,0.2,0.2h4.2c0.2,0,0.2,0.1,0.2,0.3
		s-0.1,0.3-0.2,0.3h-4.4c-0.5,0-0.6-0.1-0.6-0.6V10c0-0.2,0.2-0.3,0.3-0.3C245,9.7,245.1,9.8,245.1,10z M249.5,4.8v5.4
		c0,0.2-0.2,0.3-0.3,0.3c-0.2,0-0.3-0.1-0.3-0.3V7.3h-1.5c-0.2,0-0.2-0.1-0.2-0.3c0-0.2,0.1-0.3,0.2-0.3h1.5v-2
		c0-0.2,0.2-0.3,0.3-0.3C249.4,4.5,249.5,4.6,249.5,4.8z"/>
	<path d="M256.1,10.4c0,0.2-0.1,0.3-0.2,0.3c-1.6,0.1-3.1,0.2-4.7,0.2c-0.2,0-0.2-0.1-0.2-0.3s0.1-0.3,0.2-0.3c0.7,0,1.3,0,2,0v-1
		c-1-0.1-1.5-0.6-1.5-1.3c0-0.8,0.7-1.3,1.8-1.3s1.8,0.5,1.8,1.3c0,0.7-0.5,1.2-1.5,1.3v1c0.7,0,1.3-0.1,2.1-0.1
		C256,10.1,256.1,10.2,256.1,10.4z M253.8,4.8v0.7h1.8c0.2,0,0.2,0.1,0.2,0.3c0,0.2-0.1,0.3-0.2,0.3h-4.3c-0.2,0-0.2-0.1-0.2-0.3
		c0-0.2,0.1-0.3,0.2-0.3h1.8V4.8c0-0.2,0.2-0.3,0.3-0.3C253.7,4.5,253.8,4.6,253.8,4.8z M252.2,7.9c0,0.5,0.4,0.8,1.2,0.8
		s1.2-0.3,1.2-0.8c0-0.5-0.4-0.8-1.2-0.8S252.2,7.4,252.2,7.9z M257.3,4.8v2.7h1c0.2,0,0.2,0.1,0.2,0.3c0,0.2-0.1,0.3-0.2,0.3h-1
		v3.7c0,0.2-0.2,0.3-0.3,0.3c-0.2,0-0.3-0.1-0.3-0.3v-7c0-0.2,0.2-0.3,0.3-0.3C257.1,4.5,257.3,4.6,257.3,4.8z"/>
	<path d="M262.7,6.7c0,0.3-0.2,0.5-0.5,0.5c-0.3,0-0.5-0.2-0.5-0.5c0-0.3,0.2-0.5,0.5-0.5C262.5,6.2,262.7,6.4,262.7,6.7z
		 M262.7,10.1c0,0.3-0.2,0.5-0.5,0.5c-0.3,0-0.5-0.2-0.5-0.5c0-0.3,0.2-0.5,0.5-0.5C262.5,9.6,262.7,9.8,262.7,10.1z"/>
	<path d="M270.5,7.9v0.5c0,2-0.6,3-2.2,3s-2.2-1-2.2-3V7.9c0-2,0.6-3,2.2-3S270.5,6,270.5,7.9z M266.8,8v0.4c0,1.7,0.4,2.5,1.5,2.5
		s1.5-0.8,1.5-2.5V8c0-1.7-0.4-2.5-1.5-2.5S266.8,6.3,266.8,8z"/>
	<path d="M274.6,5.3v5.8c0,0.2-0.2,0.3-0.3,0.3c-0.2,0-0.3-0.1-0.3-0.3V5.8l-1.5,1c-0.2,0.1-0.3,0-0.4-0.1c-0.1-0.1-0.1-0.3,0.1-0.4
		l1.7-1c0.2-0.1,0.3-0.2,0.5-0.2C274.4,5,274.6,5.1,274.6,5.3z"/>
	<path d="M281.2,7.9v0.5c0,2-0.6,3-2.2,3s-2.2-1-2.2-3V7.9c0-2,0.6-3,2.2-3S281.2,6,281.2,7.9z M277.5,8v0.4c0,1.7,0.4,2.5,1.5,2.5
		s1.5-0.8,1.5-2.5V8c0-1.7-0.4-2.5-1.5-2.5S277.5,6.3,277.5,8z"/>
	<path d="M284.9,8.2c0,0.2-0.1,0.3-0.2,0.3h-2.4c-0.2,0-0.2-0.1-0.2-0.3c0-0.2,0.1-0.3,0.2-0.3h2.4C284.8,7.9,284.9,8,284.9,8.2z"/>
	<path d="M289.8,6.5L289.8,6.5c0,0.6-0.3,1.2-1.1,1.5c0.8,0.1,1.4,0.7,1.4,1.5v0.1c0,0.9-0.7,1.8-2.1,1.8c-0.7,0-1.4-0.2-1.9-0.6
		c-0.2-0.1-0.2-0.3-0.1-0.4c0.1-0.2,0.2-0.2,0.4-0.1c0.5,0.3,1,0.5,1.5,0.5c1.1,0,1.5-0.6,1.5-1.3V9.5c0-0.9-0.8-1.2-1.5-1.2h-0.5
		c-0.2,0-0.2-0.1-0.2-0.3s0.1-0.3,0.2-0.3h0.5c0.6,0,1.3-0.3,1.3-1.2v0c0-0.6-0.5-1.1-1.3-1.1c-0.6,0-1,0.2-1.3,0.6
		c-0.1,0.1-0.3,0.1-0.4,0c-0.1-0.1-0.1-0.3,0-0.4c0.3-0.5,0.9-0.8,1.7-0.8C289.1,4.9,289.8,5.6,289.8,6.5z"/>
	<path d="M295.5,7.9v0.5c0,2-0.6,3-2.2,3s-2.2-1-2.2-3V7.9c0-2,0.6-3,2.2-3S295.5,6,295.5,7.9z M291.8,8v0.4c0,1.7,0.4,2.5,1.5,2.5
		c1.2,0,1.5-0.8,1.5-2.5V8c0-1.7-0.4-2.5-1.5-2.5C292.1,5.5,291.8,6.3,291.8,8z"/>
	<path d="M300.5,6.5L300.5,6.5c0,0.6-0.3,1.2-1.1,1.5c0.8,0.1,1.4,0.7,1.4,1.5v0.1c0,0.9-0.7,1.8-2.1,1.8c-0.7,0-1.4-0.2-1.9-0.6
		c-0.2-0.1-0.2-0.3-0.1-0.4c0.1-0.2,0.2-0.2,0.4-0.1c0.5,0.3,1,0.5,1.5,0.5c1.1,0,1.5-0.6,1.5-1.3V9.5c0-0.9-0.8-1.2-1.5-1.2H298
		c-0.2,0-0.2-0.1-0.2-0.3s0.1-0.3,0.2-0.3h0.5c0.6,0,1.3-0.3,1.3-1.2v0c0-0.6-0.5-1.1-1.3-1.1c-0.6,0-1,0.2-1.3,0.6
		c-0.1,0.1-0.3,0.1-0.4,0c-0.1-0.1-0.1-0.3,0-0.4c0.3-0.5,0.9-0.8,1.7-0.8C299.8,4.9,300.5,5.6,300.5,6.5z"/>
	<path d="M305.1,5.5l-2.7,3.9h2.5V7.6c0-0.2,0.2-0.3,0.3-0.3s0.3,0.1,0.3,0.3v1.8h0.8c0.2,0,0.2,0.1,0.2,0.3s-0.1,0.3-0.2,0.3h-0.8
		v1.2c0,0.2-0.2,0.3-0.3,0.3s-0.3-0.1-0.3-0.3V9.9h-2.8c-0.3,0-0.5-0.1-0.5-0.3c0-0.1,0-0.2,0.2-0.4l2.8-4c0.1-0.2,0.3-0.2,0.4-0.1
		C305.2,5.1,305.2,5.3,305.1,5.5z"/>
	<path d="M309.9,8.2c0,0.2-0.1,0.3-0.2,0.3h-2.4c-0.2,0-0.2-0.1-0.2-0.3c0-0.2,0.1-0.3,0.2-0.3h2.4C309.8,7.9,309.9,8,309.9,8.2z"/>
	<path d="M313.8,5.3v5.8c0,0.2-0.2,0.3-0.3,0.3c-0.2,0-0.3-0.1-0.3-0.3V5.8l-1.5,1c-0.2,0.1-0.3,0-0.4-0.1c-0.1-0.1-0.1-0.3,0.1-0.4
		l1.7-1c0.2-0.1,0.3-0.2,0.5-0.2C313.7,5,313.8,5.1,313.8,5.3z"/>
	<path d="M320.5,5.4c0,0.1,0,0.2-0.2,0.6l-2.4,5.2c-0.1,0.2-0.3,0.2-0.4,0.1c-0.1-0.1-0.2-0.2-0.2-0.4l2.4-5.3h-3.4
		c-0.2,0-0.2-0.1-0.2-0.3s0.1-0.3,0.2-0.3h3.6C320.3,5,320.5,5.1,320.5,5.4z"/>
	<path d="M324.7,5.5L322,9.4h2.5V7.6c0-0.2,0.2-0.3,0.3-0.3c0.2,0,0.3,0.1,0.3,0.3v1.8h0.8c0.2,0,0.2,0.1,0.2,0.3s-0.1,0.3-0.2,0.3
		h-0.8v1.2c0,0.2-0.2,0.3-0.3,0.3c-0.2,0-0.3-0.1-0.3-0.3V9.9h-2.8c-0.3,0-0.5-0.1-0.5-0.3c0-0.1,0-0.2,0.2-0.4l2.8-4
		c0.1-0.2,0.3-0.2,0.4-0.1C324.8,5.1,324.9,5.3,324.7,5.5z"/>
	<path d="M330.6,5.3c0.2,0.1,0.2,0.2,0.1,0.4c-0.1,0.2-0.2,0.2-0.4,0.1c-0.3-0.2-0.7-0.3-1.2-0.3c-1.2,0-1.6,1-1.8,2.6
		c0.3-0.6,1-0.9,1.7-0.9c1.2,0,2,0.8,2,2v0.1c0,1.3-0.9,2-2.1,2c-1.3,0-2.2-0.9-2.2-2.7V8.6c0-2.7,0.9-3.6,2.4-3.6
		C329.8,4.9,330.3,5.1,330.6,5.3z M327.5,9.2L327.5,9.2c0,1,0.6,1.6,1.5,1.6s1.5-0.5,1.5-1.5V9.3c0-1-0.5-1.5-1.4-1.5
		C328.1,7.8,327.5,8.5,327.5,9.2z"/>
</g>
</svg>
