<?xml version="1.0" encoding="utf-8"?>
<!-- Generator: Adobe Illustrator 21.0.2, SVG Export Plug-In . SVG Version: 6.00 Build 0)  -->
<svg version="1.1" id="Layer_4" xmlns="http://www.w3.org/2000/svg" xmlns:xlink="http://www.w3.org/1999/xlink" x="0px" y="0px"
	 viewBox="0 0 18 18" style="enable-background:new 0 0 18 18;" xml:space="preserve">
<style type="text/css">
	.st0{fill:#303030;}
</style>
<g>
	<path class="st0" d="M9,0C4,0,0,4,0,9c0,5,4,9,9,9c5,0,9-4,9-9C18,4,14,0,9,0z M9,16.8c-4.3,0-7.8-3.5-7.8-7.8
		c0-4.3,3.5-7.8,7.8-7.8s7.8,3.5,7.8,7.8C16.8,13.3,13.3,16.8,9,16.8z"/>
	<g>
		<polygon class="st0" points="8.4,13 4.5,9 8.4,5 9.5,6.1 6.6,9 9.5,11.9 		"/>
		<rect x="5.5" y="8.2" class="st0" width="7.8" height="1.5"/>
	</g>
</g>
</svg>
