<?xml version="1.0" encoding="utf-8"?>
<!-- Generator: Adobe Illustrator 21.0.2, SVG Export Plug-In . SVG Version: 6.00 Build 0)  -->
<svg version="1.1" id="Layer_1" xmlns="http://www.w3.org/2000/svg" xmlns:xlink="http://www.w3.org/1999/xlink" x="0px" y="0px"
	 viewBox="0 0 40 40" style="enable-background:new 0 0 40 40;" xml:space="preserve">
<style type="text/css">
	.st0{fill:#414142;}
	.st1{fill:none;stroke:#414142;stroke-linecap:round;stroke-linejoin:round;stroke-miterlimit:10;}
</style>
<g>
	<path class="st0" d="M33,32.5H7c-0.8,0-1.5-0.7-1.5-1.5v0c0-0.8,0.7-1.5,1.5-1.5H33c0.8,0,1.5,0.7,1.5,1.5v0
		C34.6,31.8,33.9,32.5,33,32.5z"/>
	<polygon class="st1" points="10.5,29.5 17.1,7.5 22.2,7.5 29.5,29.5 	"/>
	<polygon class="st0" points="24.9,15.6 14.7,15.6 15.6,12.5 23.9,12.5 	"/>
	<polygon class="st0" points="26.7,21.1 13.1,21.1 13.8,18.7 25.9,18.7 	"/>
	<polygon class="st0" points="28.6,27 11.4,27 12.1,24.4 27.7,24.4 	"/>
</g>
</svg>
