<?xml version="1.0" encoding="utf-8"?>
<!-- Generator: Adobe Illustrator 22.0.1, SVG Export Plug-In . SVG Version: 6.00 Build 0)  -->
<svg version="1.1" id="Layer_1" xmlns="http://www.w3.org/2000/svg" xmlns:xlink="http://www.w3.org/1999/xlink" x="0px" y="0px"
	 viewBox="0 0 40 40" style="enable-background:new 0 0 40 40;" xml:space="preserve">
<style type="text/css">
	.st0{fill:#414142;}
	.st1{font-family:'MyriadPro-Regular';}
	.st2{font-size:12px;}
</style>
<g>
	<path class="st0" d="M17.1,26.6c0.1,0.2,0,0.3-0.2,0.3h-1c-0.2,0-0.3,0-0.4-0.3l-1.5-3.7H6.6c-0.5,1.3-1,2.4-1.5,3.7
		c-0.1,0.3-0.2,0.3-0.4,0.3H3.8c-0.2,0-0.2-0.1-0.2-0.3l5.9-14.3C9.6,12.1,9.7,12,9.9,12h1.2c0.2,0,0.3,0.1,0.4,0.2L17.1,26.6z
		 M13.6,21.6c-1.1-2.8-2.1-5.4-3.2-8.2l-3.3,8.2H13.6z"/>
	<path class="st0" d="M26.7,25.6c0.2,0,0.3,0.1,0.3,0.3v0.7c0,0.2-0.1,0.3-0.3,0.3h-6.5c-0.7,0-0.7,0-0.7-0.8V12.4
		c0-0.2,0.1-0.3,0.3-0.3h0.9c0.2,0,0.3,0.1,0.3,0.3v13.2H26.7z"/>
	<path class="st0" d="M36.3,25.6c0.2,0,0.3,0.1,0.3,0.3v0.7c0,0.2-0.1,0.3-0.3,0.3h-6.5c-0.7,0-0.7,0-0.7-0.8V12.4
		c0-0.2,0.1-0.3,0.3-0.3h0.9c0.2,0,0.3,0.1,0.3,0.3v13.2H36.3z"/>
</g>
<text transform="matrix(1 0 0 1 -172 41)" class="st1 st2">http://mave01.cafe24.com/data/product/thumb-20181026071001_tecooni@cyworld.com_0_375x632.jpg</text>
</svg>
