<?xml version="1.0" encoding="utf-8"?>
<!-- Generator: Adobe Illustrator 22.0.1, SVG Export Plug-In . SVG Version: 6.00 Build 0)  -->
<svg version="1.1" id="Capa_1" xmlns="http://www.w3.org/2000/svg" xmlns:xlink="http://www.w3.org/1999/xlink" x="0px" y="0px"
	 viewBox="0 0 512 512" style="enable-background:new 0 0 512 512;" xml:space="preserve">
<g>
	<path d="M368,0H144c-26.4,0-48,21.6-48,48v416c0,26.4,21.6,48,48,48h224c26.4,0,48-21.6,48-48V48C416,21.6,394.4,0,368,0z M200,16
		h112c4.4,0,8,3.6,8,8v0c0,4.4-3.6,8-8,8H200c-4.4,0-8-3.6-8-8v0C192,19.6,195.6,16,200,16z M384,445H128V48h256V445z"/>
</g>
</svg>
