<?xml version="1.0" encoding="utf-8"?>
<!-- Generator: Adobe Illustrator 21.0.2, SVG Export Plug-In . SVG Version: 6.00 Build 0)  -->
<svg version="1.1" id="Layer_1" xmlns="http://www.w3.org/2000/svg" xmlns:xlink="http://www.w3.org/1999/xlink" x="0px" y="0px"
	 viewBox="0 0 40 40" style="enable-background:new 0 0 40 40;" xml:space="preserve">
<style type="text/css">
	.st0{fill:none;stroke:#414142;stroke-linecap:round;stroke-linejoin:round;stroke-miterlimit:10;}
</style>
<g>
	<line class="st0" x1="20" y1="10.4" x2="20" y2="18.5"/>
	<line class="st0" x1="10.5" y1="18.6" x2="30" y2="18.6"/>
	<g>
		<path class="st0" d="M8.9,26.6L8.9,26.6c0,1.7,1.4,3,3,3c1.7,0,3-1.4,3-3v0"/>
		<g>
			<path class="st0" d="M33.4,18.6H30l-2.2-5.9c-0.5-1.3-1.9-2.3-3.3-2.3h-9.2c-1.3,0-2.7,1.1-3.1,2.3l-1.7,5.9H6.6
				c-1.3,0-2.4,1.1-2.4,2.4v5.6h3.5h1.2c0-1.7,1.4-3,3-3c1.7,0,3,1.4,3,3h1h7.6h0.8c0-1.7,1.4-3,3-3c1.7,0,3,1.4,3,3h0.9h4.5V21
				C35.8,19.7,34.7,18.6,33.4,18.6z"/>
			<path class="st0" d="M24.4,26.6L24.4,26.6c0,1.7,1.4,3,3,3c1.7,0,3-1.4,3-3l0,0"/>
		</g>
	</g>
</g>
</svg>
