<?xml version="1.0" encoding="utf-8"?>
<!-- Generator: Adobe Illustrator 22.0.0, SVG Export Plug-In . SVG Version: 6.00 Build 0)  -->
<svg version="1.1" id="Layer_1" xmlns="http://www.w3.org/2000/svg" xmlns:xlink="http://www.w3.org/1999/xlink" x="0px" y="0px"
	 viewBox="0 0 50 50" style="enable-background:new 0 0 50 50;" xml:space="preserve">
<style type="text/css">
	.st0{fill:#555656;}
</style>
<g>
	<path class="st0" d="M13.2,39.2c-0.6,0.7-1.6,0.7-2.3,0.1l0,0c-0.7-0.6-0.7-1.6-0.1-2.3l25.3-26.3c0.6-0.7,1.6-0.7,2.3-0.1l0,0
		c0.7,0.6,0.7,1.6,0.1,2.3L13.2,39.2z"/>
</g>
<g>
	<path class="st0" d="M10.4,13.6C9.7,13,9.7,12,10.3,11.3l0,0c0.6-0.7,1.6-0.7,2.3-0.1l26.3,25.3c0.7,0.6,0.7,1.6,0.1,2.3l0,0
		c-0.6,0.7-1.6,0.7-2.3,0.1L10.4,13.6z"/>
</g>
</svg>
