<?xml version="1.0" encoding="utf-8"?>
<!-- Generator: Adobe Illustrator 22.0.1, SVG Export Plug-In . SVG Version: 6.00 Build 0)  -->
<svg version="1.1" id="Capa_1" xmlns="http://www.w3.org/2000/svg" xmlns:xlink="http://www.w3.org/1999/xlink" x="0px" y="0px"
	 viewBox="0 0 512 512" style="enable-background:new 0 0 512 512;" xml:space="preserve">
<g>
	<g>
		<path d="M401.2,512L241.1,380.6H53c-29.2,0-52.9-24.1-52.9-53.8V53.8C0.1,24.2,23.8,0,53,0h406c29.2,0,52.9,24.2,52.9,53.8v272.9
			c0,29.7-23.7,53.8-52.9,53.8h-57.8V512z M53,32c-11.5,0-20.9,9.8-20.9,21.9v272.9c0,12,9.4,21.9,20.9,21.9h199.5l116.7,95.7v-95.7
			H459c11.5,0,20.9-9.8,20.9-21.9V53.8c0-12.1-9.4-21.9-20.9-21.9L53,32L53,32z"/>
	</g>
	<g>
		<path d="M124,154.4L124,154.4c18.2,0,33,14.8,33,33v0c0,18.2-14.8,33-33,33h0c-18.2,0-33-14.8-33-33v0
			C91,169.1,105.8,154.4,124,154.4z"/>
	</g>
	<g>
		<path d="M256,154.4L256,154.4c18.2,0,33,14.8,33,33v0c0,18.2-14.8,33-33,33h0c-18.2,0-33-14.8-33-33v0
			C223,169.1,237.8,154.4,256,154.4z"/>
	</g>
	<g>
		<path d="M388,154.4L388,154.4c18.2,0,33,14.8,33,33v0c0,18.2-14.8,33-33,33h0c-18.2,0-33-14.8-33-33v0
			C354.9,169.1,369.7,154.4,388,154.4z"/>
	</g>
</g>
</svg>
