<?xml version="1.0" encoding="utf-8"?>
<!-- Generator: Adobe Illustrator 21.0.2, SVG Export Plug-In . SVG Version: 6.00 Build 0)  -->
<svg version="1.1" id="Layer_1" xmlns="http://www.w3.org/2000/svg" xmlns:xlink="http://www.w3.org/1999/xlink" x="0px" y="0px"
	 viewBox="0 0 40 40" style="enable-background:new 0 0 40 40;" xml:space="preserve">
<style type="text/css">
	.st0{fill:none;stroke:#414142;stroke-linecap:round;stroke-linejoin:round;stroke-miterlimit:10;}
</style>
<g>
	<path id="XMLID_228_" class="st0" d="M6,33.9L6,33.9c-1.5-1.5-1.5-4,0.1-5.5l13.4-12.5l4.3,4.4L11.5,33.9C9.9,35.4,7.5,35.4,6,33.9
		z"/>
	<path id="XMLID_227_" class="st0" d="M34.6,9.8l-4.5,4.4l-4.3-4.4l4.4-4.3c-2.8-1.1-5.9-0.4-8.1,1.7c-3,3-3.1,7.9-0.1,10.9
		c3,3,7.8,3,10.9,0.1C35.1,16,35.7,12.6,34.6,9.8z"/>
	
		<ellipse id="XMLID_225_" transform="matrix(0.7149 -0.6992 0.6992 0.7149 -18.9185 15.1579)" class="st0" cx="9.1" cy="30.8" rx="1.3" ry="1.3"/>
</g>
</svg>
