<?xml version="1.0" encoding="utf-8"?>
<!-- Generator: Adobe Illustrator 22.0.1, SVG Export Plug-In . SVG Version: 6.00 Build 0)  -->
<svg version="1.1" id="_x3C_Layer_x3E_" xmlns="http://www.w3.org/2000/svg" xmlns:xlink="http://www.w3.org/1999/xlink" x="0px"
	 y="0px" viewBox="0 0 20 20" style="enable-background:new 0 0 20 20;" xml:space="preserve">
<style type="text/css">
	.st0{fill:#888888;}
</style>
<g>
	<path class="st0" d="M12.7,7.5c0,1.5-1.2,2.7-2.7,2.7c-1.5,0-2.7-1.2-2.7-2.7C7.3,6,8.5,4.8,10,4.8C11.5,4.8,12.7,6,12.7,7.5z"/>
	<path class="st0" d="M11,11.4c-0.5,0-1,0-1,0s-0.4,0-1,0c-0.9,0.1-3.2,1.1-3.2,3.2v1.5c0,0,0,0.5,0.5,0.5c0.5,0,3.7,0,3.7,0
		s3.1,0,3.7,0c0.5,0,0.5-0.5,0.5-0.5v-1.5C14.2,12.6,11.9,11.5,11,11.4z"/>
	<path class="st0" d="M18.2,5.6c0,1.3-1,2.3-2.3,2.3c-1.3,0-2.3-1-2.3-2.3s1-2.3,2.3-2.3C17.2,3.3,18.2,4.4,18.2,5.6z"/>
	<path class="st0" d="M6.4,5.6c0,1.3-1,2.3-2.3,2.3c-1.3,0-2.3-1-2.3-2.3s1-2.3,2.3-2.3C5.3,3.3,6.4,4.4,6.4,5.6z"/>
	<path class="st0" d="M16.7,9.1c-0.4,0-0.8,0-0.8,0s-0.4,0-0.8,0c-0.7,0-2.3,0.8-2.6,2.2c0.9,0.4,1.8,1.1,2.3,2.2c0.6,0,1.2,0,1.2,0
		s2.6,0,3.1,0c0.4,0,0.4-0.4,0.4-0.4v-1.2C19.4,10.1,17.5,9.2,16.7,9.1z"/>
	<path class="st0" d="M7.5,11.4c-0.3-1.4-2-2.2-2.7-2.2c-0.4,0-0.8,0-0.8,0s-0.4,0-0.8,0c-0.8,0.1-2.7,0.9-2.7,2.7v1.2
		c0,0,0,0.4,0.4,0.4c0.4,0,3.1,0,3.1,0s0.6,0,1.2,0C5.8,12.5,6.7,11.8,7.5,11.4z"/>
</g>
</svg>
