<?xml version="1.0" encoding="utf-8"?>
<!-- Generator: Adobe Illustrator 22.0.1, SVG Export Plug-In . SVG Version: 6.00 Build 0)  -->
<svg version="1.1" id="_x3C_Layer_x3E_" xmlns="http://www.w3.org/2000/svg" xmlns:xlink="http://www.w3.org/1999/xlink" x="0px"
	 y="0px" viewBox="0 0 20 20" style="enable-background:new 0 0 20 20;" xml:space="preserve">
<style type="text/css">
	.st0{fill:#FFFFFF;}
</style>
<g>
	<path class="st0" d="M12.6,7.6c0,1.4-1.1,2.5-2.5,2.5c-1.4,0-2.5-1.1-2.5-2.5C7.5,6.2,8.6,5,10,5C11.4,5,12.6,6.2,12.6,7.6z"/>
	<path class="st0" d="M10.9,11.4c-0.5,0-0.9,0-0.9,0s-0.4,0-0.9,0c-0.9,0.1-3.1,1.1-3.1,3.1v1.4c0,0,0,0.5,0.5,0.5
		c0.5,0,3.5,0,3.5,0s3,0,3.5,0s0.5-0.5,0.5-0.5v-1.4C14,12.4,11.8,11.4,10.9,11.4z"/>
	<path class="st0" d="M17.8,5.9c0,1.2-1,2.2-2.2,2.2c-1.2,0-2.2-1-2.2-2.2c0-1.2,1-2.2,2.2-2.2C16.8,3.7,17.8,4.7,17.8,5.9z"/>
	<path class="st0" d="M6.6,5.9C6.6,7,5.6,8,4.4,8C3.2,8,2.2,7,2.2,5.9c0-1.2,1-2.2,2.2-2.2C5.6,3.7,6.6,4.7,6.6,5.9z"/>
	<path class="st0" d="M16.4,9.2c-0.4,0-0.8,0-0.8,0s-0.3,0-0.8,0c-0.7,0-2.2,0.7-2.5,2.1c0.8,0.4,1.7,1.1,2.2,2.1c0.6,0,1.1,0,1.1,0
		s2.5,0,2.9,0c0.4,0,0.4-0.4,0.4-0.4v-1.2C18.9,10.1,17.1,9.2,16.4,9.2z"/>
	<path class="st0" d="M7.7,11.3C7.4,9.9,5.8,9.2,5.2,9.2c-0.4,0-0.8,0-0.8,0s-0.3,0-0.8,0c-0.7,0-2.6,0.9-2.6,2.6v1.2
		c0,0,0,0.4,0.4,0.4c0.4,0,2.9,0,2.9,0s0.6,0,1.2,0C6,12.4,6.9,11.7,7.7,11.3z"/>
</g>
</svg>
