<?xml version="1.0" encoding="utf-8"?>
<!-- Generator: Adobe Illustrator 21.0.2, SVG Export Plug-In . SVG Version: 6.00 Build 0)  -->
<svg version="1.1" id="Layer_2" xmlns="http://www.w3.org/2000/svg" xmlns:xlink="http://www.w3.org/1999/xlink" x="0px" y="0px"
	 viewBox="0 0 40 40" style="enable-background:new 0 0 40 40;" xml:space="preserve">
<style type="text/css">
	.st0{fill:#505050;}
	.st1{fill:#FFFFFF;}
</style>
<path class="st0" d="M1149.8,860.3h-11.7c-0.9-2.9-2.1-5.8-3.5-8.4l8.2-8.2c0.7-0.7,0.7-1.8,0.1-2.5l-17.5-17.5
	c-0.7-0.7-1.8-0.6-2.5,0.1l-8.2,8.2c-2.7-1.4-5.5-2.6-8.5-3.5v-11.7c0-1-0.8-1.8-1.7-1.8h-24.7c-0.9,0-1.7,0.8-1.7,1.8v11.7
	c-2.9,0.9-5.8,2.1-8.5,3.5l-8.2-8.2c-0.7-0.7-1.8-0.7-2.5-0.1l-17.5,17.5c-0.7,0.7-0.6,1.8,0.1,2.5l8.2,8.2
	c-1.4,2.7-2.6,5.5-3.5,8.4h-11.7c-1,0-1.8,0.8-1.8,1.7v24.7c0,0.9,0.8,1.7,1.8,1.7h11.7c0.9,2.9,2.1,5.8,3.5,8.4l-8.2,8.2
	c-0.7,0.7-0.7,1.8-0.1,2.5l17.5,17.5c0.7,0.7,1.8,0.6,2.5-0.1l8.2-8.2c2.7,1.4,5.5,2.6,8.4,3.5v11.7c0,1,0.8,1.8,1.7,1.8h24.7
	c0.9,0,1.7-0.8,1.7-1.8v-11.7c2.9-0.9,5.8-2.1,8.4-3.5l8.2,8.2c0.7,0.7,1.8,0.7,2.5,0.1l17.5-17.5c0.7-0.7,0.6-1.8-0.1-2.5l-8.2-8.2
	c1.4-2.7,2.6-5.5,3.5-8.4h11.7c1,0,1.8-0.8,1.8-1.7V862C1151.6,861.1,1150.8,860.3,1149.8,860.3z M1092.3,899.8
	c-14,0-25.4-11.4-25.4-25.4c0-14.1,11.4-25.4,25.4-25.4c14.1,0,25.4,11.4,25.4,25.4C1117.7,888.4,1106.3,899.8,1092.3,899.8z"/>
<g>
	<path class="st1" d="M29.7,7.8h-3.9V5c0-0.9-0.8-1.8-1.8-1.8h-8.3C14.8,3.2,14,4.1,14,5v2.8h-3.8c-1.1,0-1.9,0.8-1.9,1.9l0.1,2.4
		h22.8l0.1-2.4C31.6,8.7,30.8,7.8,29.7,7.8z M16.2,7.8V5.9c0-0.4,0.1-0.6,0.4-0.6h6.5c0.5,0,0.5,0.4,0.5,0.6v1.9
		C23.6,7.8,16.2,7.8,16.2,7.8z"/>
	<path class="st1" d="M8.6,14.1l0.6,20.8c0,1.1,0.8,1.9,1.9,1.9h17.7c1.1,0,1.9-0.8,1.9-1.9l0.5-20.8H8.6z M15.3,32.4
		c0,0.5-0.6,0.8-1.2,0.8c-0.7,0-1.2-0.4-1.2-0.8V18c0-0.5,0.6-0.8,1.2-0.8c0.7,0,1.2,0.4,1.2,0.8V32.4z M21.2,32.4
		c0,0.5-0.6,0.8-1.2,0.8c-0.7,0-1.2-0.4-1.2-0.8V18c0-0.5,0.6-0.8,1.2-0.8c0.7,0,1.2,0.4,1.2,0.8V32.4z M27.1,32.4
		c0,0.5-0.6,0.8-1.2,0.8c-0.7,0-1.2-0.4-1.2-0.8V18c0-0.5,0.6-0.8,1.2-0.8c0.7,0,1.2,0.4,1.2,0.8V32.4z"/>
</g>
</svg>
