<?xml version="1.0" encoding="utf-8"?>
<!-- Generator: Adobe Illustrator 22.0.1, SVG Export Plug-In . SVG Version: 6.00 Build 0)  -->
<svg version="1.1" id="Layer_2_1_" xmlns="http://www.w3.org/2000/svg" xmlns:xlink="http://www.w3.org/1999/xlink" x="0px" y="0px"
	 viewBox="0 0 40 40" style="enable-background:new 0 0 40 40;" xml:space="preserve">
<style type="text/css">
	.st0{opacity:0.3;}
	.st1{fill:#FFFFFF;}
</style>
<g class="st0">
	<path d="M24.1,3.2c1,0,1.8,0.9,1.8,1.8v2.8h3.9c1.1,0,1.9,0.9,1.6,1.9l-0.1,2.4H8.5L8.4,9.7c0-1.1,0.8-1.9,1.9-1.9h3.8V5
		c0-0.9,0.8-1.8,1.7-1.8H24.1 M16.3,7.8h7.4V5.9c0-0.2,0-0.6-0.5-0.6h-6.5c-0.3,0-0.4,0.2-0.4,0.6V7.8 M24.1,1.2h-8.3
		c-2,0-3.7,1.8-3.7,3.8v0.8h-1.8c-2.2,0-3.9,1.7-3.9,3.9v0l0,0l0.1,2.4l0.1,1.9h1.9h22.8h1.9l0.1-1.9l0.1-2.2c0.2-1,0-1.9-0.6-2.7
		c-0.7-0.9-1.8-1.5-3-1.5h-1.9V5C27.9,2.9,26.2,1.2,24.1,1.2L24.1,1.2z"/>
	<path d="M31.2,14.1L31.2,14.1 M31.2,14.1l-0.5,20.8c0,1.1-0.8,1.9-1.9,1.9H11.1c-1.1,0-1.9-0.8-1.9-1.9L8.6,14.1H31.2 M25.9,33.2
		c0.6,0,1.2-0.3,1.2-0.8V18c0-0.4-0.5-0.8-1.2-0.8c-0.6,0-1.2,0.3-1.2,0.8v14.4C24.7,32.8,25.2,33.2,25.9,33.2 M20,33.2
		c0.6,0,1.2-0.3,1.2-0.8V18c0-0.4-0.5-0.8-1.2-0.8c-0.6,0-1.2,0.3-1.2,0.8v14.4C18.8,32.8,19.3,33.2,20,33.2 M14.1,33.2
		c0.6,0,1.2-0.3,1.2-0.8V18c0-0.4-0.5-0.8-1.2-0.8c-0.6,0-1.2,0.3-1.2,0.8v14.4C12.9,32.8,13.4,33.2,14.1,33.2 M33.2,12.1h-2H8.6
		H6.5l0.1,2.1l0.6,20.8c0,2.2,1.7,3.9,3.9,3.9h17.7c2.2,0,3.9-1.7,3.9-3.9l0.5-20.8L33.2,12.1L33.2,12.1z M31.2,12.1L31.2,12.1
		L31.2,12.1L31.2,12.1z M31.2,16.1L31.2,16.1L31.2,16.1L31.2,16.1z"/>
</g>
<g>
	<g>
		<path class="st1" d="M29.8,7.8h-3.9V5c0-0.9-0.8-1.8-1.8-1.8h-8.3c-0.9,0-1.7,0.9-1.7,1.8v2.8h-3.8c-1.1,0-1.9,0.8-1.9,1.9
			l0.1,2.4h22.8l0.1-2.4C31.7,8.7,30.9,7.8,29.8,7.8z M16.3,7.8V5.9c0-0.4,0.1-0.6,0.4-0.6h6.5c0.5,0,0.5,0.4,0.5,0.6v1.9H16.3z"/>
	</g>
	<g>
		<path class="st1" d="M8.6,14.1l0.6,20.8c0,1.1,0.8,1.9,1.9,1.9h17.7c1.1,0,1.9-0.8,1.9-1.9l0.5-20.8C31.2,14.1,8.6,14.1,8.6,14.1z
			 M15.3,32.4c0,0.5-0.6,0.8-1.2,0.8c-0.7,0-1.2-0.4-1.2-0.8V18c0-0.5,0.6-0.8,1.2-0.8c0.7,0,1.2,0.4,1.2,0.8V32.4z M21.2,32.4
			c0,0.5-0.6,0.8-1.2,0.8c-0.7,0-1.2-0.4-1.2-0.8V18c0-0.5,0.6-0.8,1.2-0.8c0.7,0,1.2,0.4,1.2,0.8V32.4z M27.1,32.4
			c0,0.5-0.6,0.8-1.2,0.8c-0.7,0-1.2-0.4-1.2-0.8V18c0-0.5,0.6-0.8,1.2-0.8c0.7,0,1.2,0.4,1.2,0.8V32.4z"/>
	</g>
</g>
</svg>
