<?xml version="1.0" encoding="utf-8"?>
<!-- Generator: Adobe Illustrator 22.0.1, SVG Export Plug-In . SVG Version: 6.00 Build 0)  -->
<svg version="1.1" id="Layer_2_1_" xmlns="http://www.w3.org/2000/svg" xmlns:xlink="http://www.w3.org/1999/xlink" x="0px" y="0px"
	 viewBox="0 0 40 40" style="enable-background:new 0 0 40 40;" xml:space="preserve">
<style type="text/css">
	.st0{fill:#FFFFFF;}
	.st1{fill:#5E5E5E;}
</style>
<g>
	<image style="overflow:visible;" width="106" height="116" xlink:href="2A16975A.png"  transform="matrix(1 0 0 1 -33 -38)">
	</image>
</g>
<g>
	
		<image style="overflow:visible;opacity:0.75;" width="35" height="44" xlink:href="2A16975B.png"  transform="matrix(1 0 0 1 2 -2)">
	</image>
	<g>
		<g>
			<g>
				<path class="st0" d="M9.5,13.2c-0.2,0-0.4-0.2-0.4-0.4L9,10.7c0-1.2,0.9-2.1,2.1-2.1h3.1V6.5c0-1,0.9-2,1.9-2h7.5
					c1.1,0,2,0.9,2,2v2.2h3.1c0.6,0,1.2,0.3,1.6,0.7c0.3,0.4,0.4,0.9,0.2,1.5l-0.1,2.1c0,0.2-0.2,0.4-0.4,0.4H9.5z M22.9,8.6V7.3
					c0,0,0-0.1,0-0.2l-5.9,0c0,0,0,0.1,0,0.2v1.3H22.9z"/>
				<path class="st1" d="M23.6,4.8c0.9,0,1.6,0.8,1.6,1.6V9h3.5c1,0,1.7,0.8,1.4,1.7l-0.1,2.2H9.5l-0.1-2.2c0-1,0.7-1.7,1.7-1.7h3.4
					V6.5c0-0.8,0.7-1.6,1.5-1.6H23.6 M16.6,9h6.7V7.3c0-0.2,0-0.5-0.5-0.5h-5.9c-0.3,0-0.4,0.2-0.4,0.5V9 M23.6,4.1h-7.5
					c-1.2,0-2.3,1.1-2.3,2.4v1.8h-2.7c-1.4,0-2.5,1.1-2.5,2.5l0.1,2.2c0,0.4,0.3,0.7,0.7,0.7h20.6c0.4,0,0.7-0.3,0.7-0.7l0.1-2.1
					c0.1-0.6,0-1.2-0.3-1.7c-0.4-0.6-1.1-0.9-1.9-0.9H26V6.5C26,5.2,24.9,4.1,23.6,4.1L23.6,4.1z M17.3,7.2L17.3,7.2L17.3,7.2
					L17.3,7.2z M17.3,7.5h5.2v0.8h-5.2V7.5L17.3,7.5z"/>
			</g>
			<g>
				<path class="st0" d="M11.9,35.5c-1.2,0-2.1-0.9-2.1-2.1L9.3,14.7c0-0.1,0-0.2,0.1-0.3c0.1-0.1,0.2-0.1,0.3-0.1h20.4
					c0.1,0,0.2,0,0.3,0.1c0.1,0.1,0.1,0.2,0.1,0.3L30,33.5c0,1.2-0.9,2.1-2.1,2.1H11.9z M25.3,17.8c-0.4,0-0.7,0.2-0.7,0.3v13
					c0,0.1,0.2,0.3,0.7,0.3c0.4,0,0.7-0.2,0.7-0.3v-13C26,18.1,25.8,17.8,25.3,17.8z M20,17.8c-0.4,0-0.7,0.2-0.7,0.3v13
					c0,0.1,0.2,0.3,0.7,0.3c0.4,0,0.7-0.2,0.7-0.3v-13C20.7,18.1,20.5,17.8,20,17.8z M14.7,17.8c-0.4,0-0.7,0.2-0.7,0.3v13
					c0,0.1,0.2,0.3,0.7,0.3c0.4,0,0.7-0.2,0.7-0.3v-13C15.4,18.1,15.1,17.8,14.7,17.8z"/>
				<path class="st1" d="M30.1,14.7L30.1,14.7 M30.1,14.7l-0.5,18.8c0,1-0.7,1.7-1.7,1.7h-16c-1,0-1.7-0.7-1.7-1.7L9.7,14.7H30.1
					 M25.3,31.9c0.5,0,1.1-0.3,1.1-0.7v-13c0-0.4-0.5-0.7-1.1-0.7c-0.5,0-1.1,0.3-1.1,0.7v13C24.2,31.6,24.7,31.9,25.3,31.9
					 M20,31.9c0.5,0,1.1-0.3,1.1-0.7v-13c0-0.4-0.5-0.7-1.1-0.7c-0.5,0-1.1,0.3-1.1,0.7v13C18.9,31.6,19.4,31.9,20,31.9 M14.7,31.9
					c0.5,0,1.1-0.3,1.1-0.7v-13c0-0.4-0.5-0.7-1.1-0.7c-0.5,0-1.1,0.3-1.1,0.7v13C13.6,31.6,14,31.9,14.7,31.9 M30.1,13.9L30.1,13.9
					H9.7c-0.2,0-0.4,0.1-0.5,0.2c-0.1,0.1-0.2,0.3-0.2,0.5l0.5,18.8c0,1.4,1.1,2.4,2.5,2.4h16c1.4,0,2.5-1.1,2.5-2.5l0.4-18.7
					c0,0,0-0.1,0-0.1C30.8,14.3,30.5,13.9,30.1,13.9L30.1,13.9z M30.1,15.4L30.1,15.4L30.1,15.4L30.1,15.4z M25,18.3
					c0.1,0,0.2-0.1,0.3-0.1c0.2,0,0.3,0,0.3,0.1v12.8c-0.1,0-0.2,0.1-0.3,0.1c-0.2,0-0.3,0-0.3-0.1V18.3L25,18.3z M19.7,18.3
					c0.1,0,0.2-0.1,0.3-0.1c0.2,0,0.3,0,0.3,0.1v12.8c-0.1,0-0.2,0.1-0.3,0.1c-0.2,0-0.3,0-0.3-0.1V18.3L19.7,18.3z M14.3,18.3
					c0.1,0,0.2-0.1,0.3-0.1c0.2,0,0.3,0,0.3,0.1v12.8c-0.1,0-0.2,0.1-0.3,0.1c-0.2,0-0.3,0-0.3-0.1V18.3L14.3,18.3z"/>
			</g>
		</g>
	</g>
</g>
</svg>
