<?xml version="1.0" encoding="utf-8"?>
<!-- Generator: Adobe Illustrator 21.0.2, SVG Export Plug-In . SVG Version: 6.00 Build 0)  -->
<svg version="1.1" id="Layer_1" xmlns="http://www.w3.org/2000/svg" xmlns:xlink="http://www.w3.org/1999/xlink" x="0px" y="0px"
	 viewBox="0 0 40 40" style="enable-background:new 0 0 40 40;" xml:space="preserve">
<style type="text/css">
	.st0{fill:none;stroke:#414142;stroke-linecap:round;stroke-linejoin:round;stroke-miterlimit:10;}
	.st1{fill:#414142;}
</style>
<g>
	<polygon class="st0" points="28.3,4.6 27.5,35.4 34.5,35.4 33.1,4.6 	"/>
	<line class="st0" x1="28.1" y1="13.3" x2="33.1" y2="13.3"/>
	<rect x="8.2" y="24.9" class="st1" width="3.7" height="3.7"/>
	<rect x="20.1" y="24.9" class="st1" width="3.7" height="3.7"/>
	<rect x="14.2" y="24.9" class="st1" width="3.7" height="3.7"/>
	<rect x="8.2" y="30.1" class="st1" width="3.7" height="3.7"/>
	<rect x="20.1" y="30.1" class="st1" width="3.7" height="3.7"/>
	<rect x="14.2" y="30.1" class="st1" width="3.7" height="3.7"/>
	<polygon class="st0" points="19,22.5 19,16.5 18.1,16.5 11.7,22.8 11.7,16.5 10.6,16.5 5.5,21.6 5.5,35.4 27.5,35.4 27.5,16.6 
		25,16.6 	"/>
</g>
</svg>
