<?xml version="1.0" encoding="utf-8"?>
<!-- Generator: Adobe Illustrator 22.0.1, SVG Export Plug-In . SVG Version: 6.00 Build 0)  -->
<svg version="1.1" id="Layer_1" xmlns="http://www.w3.org/2000/svg" xmlns:xlink="http://www.w3.org/1999/xlink" x="0px" y="0px"
	 viewBox="0 0 150 150" style="enable-background:new 0 0 150 150;" xml:space="preserve">
<style type="text/css">
	.st0{fill:#E53E3B;}
	.st1{fill:#FFFFFF;}
</style>
<g>
	<polygon class="st0" points="0,42 119,42 150,73 122.5,108 0,108 	"/>
	<g>
		<path class="st1" d="M14.7,60.2H21l10.5,18.7c0.3,0.6,0.7,1.3,1,2.1c0.4,0.8,0.7,1.8,0.9,2.8V60.2h5.1v30.8h-6.3L21.8,72.3
			c-0.4-0.7-0.8-1.4-1.1-2.2c-0.3-0.8-0.6-1.6-0.8-2.5v23.5h-5.1V60.2z"/>
		<path class="st1" d="M65.4,60.2v4.5H51v8.3h13.5v4.4H51v9h14.7v4.5H45.6V60.2H65.4z"/>
		<path class="st1" d="M69.3,60.2H75l5.6,22.9l6.2-22.9h5.3l6.2,22.8l5.9-22.8h5.3l-8.5,30.8h-5.2l-6.2-23.7L83,91.1h-5.3L69.3,60.2
			z"/>
	</g>
</g>
</svg>
