<?xml version="1.0" encoding="utf-8"?>
<!-- Generator: Adobe Illustrator 22.0.1, SVG Export Plug-In . SVG Version: 6.00 Build 0)  -->
<svg version="1.1" id="_x3C_Layer_x3E_" xmlns="http://www.w3.org/2000/svg" xmlns:xlink="http://www.w3.org/1999/xlink" x="0px"
	 y="0px" viewBox="0 0 20 20" style="enable-background:new 0 0 20 20;" xml:space="preserve">
<style type="text/css">
	.st0{fill:#FFFFFF;}
</style>
<path class="st0" d="M13.9,3c-2.4,0-4.3,1.9-4.3,4.3c0,0,0,0.1,0,0.1c0,0,0,0,0,0C9.7,11,13.9,17,13.9,17s4.2-6,4.3-9.6c0,0,0,0,0,0
	c0,0,0-0.1,0-0.1C18.2,4.9,16.3,3,13.9,3z M13.9,10.1c-1.6,0-2.8-1.3-2.8-2.8c0-1.6,1.3-2.8,2.8-2.8s2.8,1.3,2.8,2.8
	C16.7,8.9,15.4,10.1,13.9,10.1z"/>
</svg>
