<?xml version="1.0" encoding="utf-8"?>
<!-- Generator: Adobe Illustrator 22.0.1, SVG Export Plug-In . SVG Version: 6.00 Build 0)  -->
<svg version="1.1" id="Layer_1" xmlns="http://www.w3.org/2000/svg" xmlns:xlink="http://www.w3.org/1999/xlink" x="0px" y="0px"
	 viewBox="0 0 50 50" style="enable-background:new 0 0 50 50;" xml:space="preserve">
<style type="text/css">
	.st0{fill:#A7A7A7;}
</style>
<path class="st0" d="M15.1,38.8c-5.3,0-9.6-4.3-9.6-9.6c0-5.3,4.3-9.6,9.6-9.6c5.3,0,9.6,4.3,9.6,9.6C24.7,34.5,20.4,38.8,15.1,38.8
	z M15.1,22.6c-3.6,0-6.6,3-6.6,6.6s3,6.6,6.6,6.6s6.6-3,6.6-6.6S18.8,22.6,15.1,22.6z"/>
<path class="st0" d="M34.9,30.4c-5.3,0-9.6-4.3-9.6-9.6s4.3-9.6,9.6-9.6s9.6,4.3,9.6,9.6S40.1,30.4,34.9,30.4z M34.9,14.3
	c-3.6,0-6.6,3-6.6,6.6s3,6.6,6.6,6.6s6.6-3,6.6-6.6S38.5,14.3,34.9,14.3z"/>
<path class="st0" d="M34.5,43.4c-0.8,0-1.5-0.7-1.5-1.5v-13c0-0.8,0.7-1.5,1.5-1.5s1.5,0.7,1.5,1.5v13C36,42.7,35.3,43.4,34.5,43.4z
	"/>
<path class="st0" d="M41,36.9H28c-0.8,0-1.5-0.7-1.5-1.5s0.7-1.5,1.5-1.5h13c0.8,0,1.5,0.7,1.5,1.5S41.8,36.9,41,36.9z"/>
<path class="st0" d="M15.1,22.6c-0.8,0-1.5-0.7-1.5-1.5V8.7c0-0.8,0.7-1.5,1.5-1.5s1.5,0.7,1.5,1.5v12.4
	C16.6,21.9,16,22.6,15.1,22.6z"/>
<path class="st0" d="M6.9,18.2c-0.4,0-0.8-0.1-1.1-0.4c-0.6-0.6-0.6-1.5,0-2.1l9.3-9.3l9.3,9.3c0.6,0.6,0.6,1.5,0,2.1
	c-0.6,0.6-1.5,0.6-2.1,0l-7.2-7.2l-7.2,7.2C7.7,18,7.3,18.2,6.9,18.2z"/>
</svg>
