<?xml version="1.0" encoding="utf-8"?>
<!-- Generator: Adobe Illustrator 21.0.2, SVG Export Plug-In . SVG Version: 6.00 Build 0)  -->
<svg version="1.1" id="_x3C_Layer_x3E_" xmlns="http://www.w3.org/2000/svg" xmlns:xlink="http://www.w3.org/1999/xlink" x="0px"
	 y="0px" viewBox="0 0 20 20" style="enable-background:new 0 0 20 20;" xml:space="preserve">
<style type="text/css">
	.st0{fill:#565656;}
</style>
<g>
	<path class="st0" d="M10,18.1L10,18.1L10,18.1z"/>
	<path class="st0" d="M15.7,7.9c0-3.4-2.5-6.1-5.7-6.1c-3.1,0-5.7,2.7-5.7,6.1c0,0,0,0.4,0.1,1.1c0,0.1,0,0.2,0,0.3
		C4.8,11,6,14.2,10,17.9c4-3.7,5.2-6.9,5.5-8.6c0-0.1,0-0.2,0-0.3C15.7,8.3,15.7,7.9,15.7,7.9z M10,10.7c-1.7,0-3.1-1.4-3.1-3.1
		S8.3,4.5,10,4.5s3.1,1.4,3.1,3.1S11.7,10.7,10,10.7z"/>
</g>
</svg>
