<?xml version="1.0" encoding="utf-8"?>
<!-- Generator: Adobe Illustrator 22.0.1, SVG Export Plug-In . SVG Version: 6.00 Build 0)  -->
<svg version="1.1" id="Layer_1" xmlns="http://www.w3.org/2000/svg" xmlns:xlink="http://www.w3.org/1999/xlink" x="0px" y="0px"
	 viewBox="0 0 50 50" style="enable-background:new 0 0 50 50;" xml:space="preserve">
<style type="text/css">
	.st0{fill:#A7A7A7;}
</style>
<g>
	<g id="XMLID_55_">
		<path id="XMLID_56_" class="st0" d="M37.7,43.6H12.3c-0.8,0-1.4-0.6-1.4-1.4v-22c0-0.8,0.6-1.4,1.4-1.4h25.3
			c0.8,0,1.4,0.6,1.4,1.4v22C39.1,43,38.5,43.6,37.7,43.6z M13.8,40.7h22.4V21.6H13.8V40.7z"/>
	</g>
	<path id="XMLID_54_" class="st0" d="M31.7,21.6c-0.8,0-1.4-0.6-1.4-1.4v-4.6c0-3.5-2.4-6.3-5.2-6.3c-2.9,0-5.2,2.8-5.2,6.3v4.6
		c0,0.8-0.6,1.4-1.4,1.4s-1.4-0.6-1.4-1.4v-4.6c0-5.1,3.7-9.2,8.1-9.2s8.1,4.1,8.1,9.2v4.6C33.1,20.9,32.5,21.6,31.7,21.6z"/>
	<g id="XMLID_51_">
		<path id="XMLID_53_" class="st0" d="M27.8,29.1c0,1.6-1.3,2.8-2.8,2.8c-1.6,0-2.8-1.3-2.8-2.8c0-1.6,1.3-2.8,2.8-2.8
			C26.6,26.2,27.8,27.5,27.8,29.1z"/>
		<path id="XMLID_52_" class="st0" d="M25,38.1c-0.8,0-1.4-0.6-1.4-1.4v-4.8c0-0.8,0.6-1.4,1.4-1.4c0.8,0,1.4,0.6,1.4,1.4v4.8
			C26.4,37.5,25.8,38.1,25,38.1z"/>
	</g>
</g>
</svg>
