<?xml version="1.0" encoding="utf-8"?>
<!-- Generator: Adobe Illustrator 22.0.1, SVG Export Plug-In . SVG Version: 6.00 Build 0)  -->
<svg version="1.1" id="Layer_1" xmlns="http://www.w3.org/2000/svg" xmlns:xlink="http://www.w3.org/1999/xlink" x="0px" y="0px"
	 viewBox="0 0 50 50" style="enable-background:new 0 0 50 50;" xml:space="preserve">
<style type="text/css">
	.st0{fill:#A7A7A7;}
</style>
<g>
	<path class="st0" d="M45,11c0.2,0.2,0.3,0.3,0.5,0.5C45.4,11.4,45.2,11.2,45,11z"/>
	<path class="st0" d="M45.5,11.5c0.2,0.2,0.3,0.4,0.5,0.6C45.9,11.9,45.7,11.7,45.5,11.5z"/>
	<path class="st0" d="M46,37.9c-0.1,0.2-0.3,0.4-0.5,0.6c1.1-1.3,1.8-3,1.8-4.8V16.3c0-1.6-0.5-3-1.4-4.2L30.7,25L46,37.9z"/>
	<path class="st0" d="M4,12.1c-0.8,1.2-1.4,2.6-1.4,4.2v17.3c0,1.6,0.5,3,1.4,4.2L19.3,25L4,12.1z"/>
	<path class="st0" d="M29.6,26l-4.2,3.5c-0.1,0.1-0.3,0.2-0.4,0.2l0,0c-0.1,0-0.3-0.1-0.4-0.2L20.4,26L5,39c1.3,1.2,3,2,4.9,2H25
		h15.1c2.2,0,4.1-1,5.5-2.5c-0.2,0.2-0.3,0.4-0.5,0.5L29.6,26z"/>
	<path class="st0" d="M25,27.9L45,11c-1.3-1.2-3-2-4.9-2H25H9.9C8,9.1,6.3,9.8,5,11L25,27.9L25,27.9z"/>
	<path class="st0" d="M45.5,38.5C45.5,38.5,45.5,38.5,45.5,38.5C45.5,38.5,45.5,38.5,45.5,38.5z"/>
	<polygon class="st0" points="45,11 45,11 45,11 	"/>
	<polygon class="st0" points="46,12.1 46,12.1 46,12.1 	"/>
	<path class="st0" d="M45.5,11.5C45.5,11.5,45.5,11.5,45.5,11.5C45.5,11.5,45.5,11.5,45.5,11.5z"/>
</g>
</svg>
