<?xml version="1.0" encoding="utf-8"?>
<!-- Generator: Adobe Illustrator 21.0.2, SVG Export Plug-In . SVG Version: 6.00 Build 0)  -->
<svg version="1.1" id="Layer_1" xmlns="http://www.w3.org/2000/svg" xmlns:xlink="http://www.w3.org/1999/xlink" x="0px" y="0px"
	 viewBox="0 0 89 89" style="enable-background:new 0 0 89 89;" xml:space="preserve">
<path d="M76.5,76.7H12.5l6.1-52.9l0.5-0.6h51l0.5,0.6L76.5,76.7z M14.7,74.7h59.6l-5.7-49.5H20.4L14.7,74.7z"/>
<path d="M44.5,62.2c-8.3,0-15-6.7-15-15V29h2v18.2c0,7.2,5.8,13,13,13s13-5.8,13-13V29h2v18.2C59.5,55.5,52.8,62.2,44.5,62.2z"/>
<path d="M70.6,25.2H18.4l0.2-1.4l4.2-5.2l-3-6.3h49.6l-3,6.3l4.2,5.2L70.6,25.2z M21.6,23.2h45.9l-3.5-4.3l2.2-4.6H22.9l2.2,4.6
	L21.6,23.2z"/>
</svg>
