<?xml version="1.0" encoding="utf-8"?>
<!-- Generator: Adobe Illustrator 21.0.2, SVG Export Plug-In . SVG Version: 6.00 Build 0)  -->
<svg version="1.1" id="Layer_1" xmlns="http://www.w3.org/2000/svg" xmlns:xlink="http://www.w3.org/1999/xlink" x="0px" y="0px"
	 viewBox="0 0 40 40" style="enable-background:new 0 0 40 40;" xml:space="preserve">
<style type="text/css">
	.st0{fill:none;stroke:#414142;stroke-linecap:round;stroke-linejoin:round;stroke-miterlimit:10;}
</style>
<g>
	<circle class="st0" cx="20" cy="20" r="14.6"/>
	<path class="st0" d="M20,34.1V5.9c0,0-7.4,3.2-7.1,14.2S20,34.1,20,34.1z"/>
	<path class="st0" d="M20,5.9v28.2c0,0,7.4-3.2,7.1-14.1S20,5.9,20,5.9z"/>
	<line class="st0" x1="5.4" y1="20" x2="34.6" y2="20"/>
	<path class="st0" d="M9.6,9.8c0,0,4.3,4.1,10.4,3.9c6.1-0.2,10.4-3.9,10.4-3.9"/>
	<path class="st0" d="M9.6,30.3c0,0,4.3-4.1,10.4-3.9c6.1,0.2,10.4,3.9,10.4,3.9"/>
</g>
</svg>
