<?xml version="1.0" encoding="utf-8"?>
<!-- Generator: Adobe Illustrator 22.0.1, SVG Export Plug-In . SVG Version: 6.00 Build 0)  -->
<svg version="1.1" id="Layer_1" xmlns="http://www.w3.org/2000/svg" xmlns:xlink="http://www.w3.org/1999/xlink" x="0px" y="0px"
	 viewBox="0 0 50 50" style="enable-background:new 0 0 50 50;" xml:space="preserve">
<style type="text/css">
	.st0{fill:#FFFFFF;}
</style>
<path class="st0" d="M21.6,45.6c-0.1,0-0.3-0.1-0.4-0.2L1.2,25.4c0,0,0,0,0,0h0c0,0,0,0,0,0s0,0,0,0h0C1.1,25.3,1,25.2,1,25
	c0,0,0-0.1,0-0.1c0-0.1,0.1-0.2,0.1-0.3c0,0,0,0,0,0L21.3,4.5c0.2-0.2,0.5-0.2,0.7,0c0.2,0.2,0.2,0.5,0,0.7L2.8,24.5h45.7
	c0.3,0,0.5,0.2,0.5,0.5s-0.2,0.5-0.5,0.5H2.8L22,44.7c0.1,0.1,0.2,0.2,0.2,0.4c0,0.1-0.1,0.3-0.2,0.4C21.9,45.6,21.8,45.6,21.6,45.6
	z"/>
</svg>
