<?xml version="1.0" encoding="utf-8"?>
<!-- Generator: Adobe Illustrator 22.0.1, SVG Export Plug-In . SVG Version: 6.00 Build 0)  -->
<svg version="1.1" id="Layer_2_1_" xmlns="http://www.w3.org/2000/svg" xmlns:xlink="http://www.w3.org/1999/xlink" x="0px" y="0px"
	 viewBox="0 0 40 40" style="enable-background:new 0 0 40 40;" xml:space="preserve">
<style type="text/css">
	.st0{fill:#505050;}
	.st1{fill:#FFFFFF;}
</style>
<g>
	<path class="st0" d="M89.2,52.7c-0.4,0-0.8-0.2-1.1-0.4c-0.4-0.5-0.6-1.1-0.3-1.7l2.8-5.8c-1.1-2-1.7-4.2-1.7-6.4
		c0-7.7,6.7-13.9,14.9-13.9s14.9,6.2,14.9,13.9s-6.7,13.9-14.9,13.9c-2.9,0-5.8-0.8-8.2-2.3l-5.8,2.7C89.6,52.7,89.4,52.7,89.2,52.7
		z M95.7,46.7c0.3,0,0.6,0.1,0.9,0.3c2.1,1.5,4.6,2.3,7.2,2.3c6.5,0,11.9-4.9,11.9-10.9s-5.3-10.9-11.9-10.9s-11.9,4.9-11.9,10.9
		c0,1.9,0.6,3.9,1.7,5.6c0.3,0.4,0.3,1,0.1,1.5l-1.3,2.7l2.7-1.3C95.3,46.8,95.5,46.7,95.7,46.7z"/>
	<circle class="st0" cx="98.1" cy="38" r="1.5"/>
	<circle class="st0" cx="103.5" cy="38" r="1.5"/>
	<circle class="st0" cx="108.9" cy="38" r="1.5"/>
</g>
<g>
	<ellipse class="st0" cx="159.8" cy="33" rx="6.9" ry="7.5"/>
	<path class="st0" d="M173.2,52.8c0-8-6-14.5-13.3-14.5s-13.3,6.5-13.3,14.5H173.2z"/>
</g>
<g>
	<path class="st0" d="M66.7-14.8H49.6c-0.3,0-0.6-0.2-0.7-0.5l-5.3-13.6c-0.1-0.2-0.1-0.5,0.1-0.7c0.1-0.2,0.4-0.3,0.7-0.3H72
		c0.3,0,0.5,0.1,0.7,0.3c0.1,0.2,0.2,0.5,0.1,0.7l-5.3,13.6C67.4-15,67.1-14.8,66.7-14.8z M50.2-16.4h16l4.6-12H45.5L50.2-16.4z"/>
	<path class="st0" d="M46.1-24c-0.3,0-0.6-0.2-0.7-0.5l-2.9-7.4H39c-0.4,0-0.8-0.4-0.8-0.8s0.4-0.8,0.8-0.8h4c0.3,0,0.6,0.2,0.7,0.5
		l3.1,7.9c0.2,0.4,0,0.9-0.5,1C46.3-24.1,46.2-24,46.1-24z"/>
	<path class="st0" d="M58.2-14.8c-0.4,0-0.8-0.4-0.8-0.8v-13.6c0-0.4,0.4-0.8,0.8-0.8c0.4,0,0.8,0.4,0.8,0.8v13.6
		C59-15.2,58.6-14.8,58.2-14.8z"/>
	<path class="st0" d="M53.9-14.8c-0.4,0-0.7-0.3-0.8-0.6l-3-13.6c-0.1-0.4,0.2-0.9,0.6-1c0.4-0.1,0.9,0.2,1,0.6l3,13.6
		c0.1,0.4-0.2,0.9-0.6,1C54-14.8,54-14.8,53.9-14.8z"/>
	<path class="st0" d="M62.4-14.8c-0.1,0-0.1,0-0.2,0c-0.4-0.1-0.7-0.5-0.6-1l3-13.6c0.1-0.4,0.5-0.7,1-0.6c0.4,0.1,0.7,0.5,0.6,1
		l-3,13.6C63.1-15.1,62.8-14.8,62.4-14.8z"/>
	<path class="st0" d="M70.1-23.6H46.2c-0.4,0-0.8-0.4-0.8-0.8s0.4-0.8,0.8-0.8h23.9c0.4,0,0.8,0.4,0.8,0.8S70.6-23.6,70.1-23.6z"/>
	<path class="st0" d="M68.4-19.1H48c-0.4,0-0.8-0.4-0.8-0.8s0.4-0.8,0.8-0.8h20.4c0.4,0,0.8,0.4,0.8,0.8
		C69.2-19.4,68.8-19.1,68.4-19.1z"/>
	<path class="st0" d="M51.4-9.6c-1.4,0-2.5-1.1-2.5-2.5s1.1-2.5,2.5-2.5s2.5,1.1,2.5,2.5S52.8-9.6,51.4-9.6z M51.4-13
		c-0.5,0-0.9,0.4-0.9,0.9s0.4,0.9,0.9,0.9s0.9-0.4,0.9-0.9C52.3-12.6,51.9-13,51.4-13z"/>
	<path class="st0" d="M65.2-9.6c-1.4,0-2.5-1.1-2.5-2.5s1.1-2.5,2.5-2.5s2.5,1.1,2.5,2.5S66.6-9.6,65.2-9.6z M65.2-13
		c-0.5,0-0.9,0.4-0.9,0.9s0.4,0.9,0.9,0.9s0.9-0.4,0.9-0.9S65.7-13,65.2-13z"/>
</g>
<path class="st0" d="M1149.8,860.3h-11.7c-0.9-2.9-2.1-5.8-3.5-8.4l8.2-8.2c0.7-0.7,0.7-1.8,0.1-2.5l-17.5-17.5
	c-0.7-0.7-1.8-0.6-2.5,0.1l-8.2,8.2c-2.7-1.4-5.5-2.6-8.5-3.5v-11.7c0-1-0.8-1.8-1.7-1.8h-24.7c-0.9,0-1.7,0.8-1.7,1.8v11.7
	c-2.9,0.9-5.8,2.1-8.5,3.5l-8.2-8.2c-0.7-0.7-1.8-0.7-2.5-0.1l-17.5,17.5c-0.7,0.7-0.6,1.8,0.1,2.5l8.2,8.2
	c-1.4,2.7-2.6,5.5-3.5,8.4h-11.7c-1,0-1.8,0.8-1.8,1.7v24.7c0,0.9,0.8,1.7,1.8,1.7h11.7c0.9,2.9,2.1,5.8,3.5,8.4l-8.2,8.2
	c-0.7,0.7-0.7,1.8-0.1,2.5l17.5,17.5c0.7,0.7,1.8,0.6,2.5-0.1l8.2-8.2c2.7,1.4,5.5,2.6,8.4,3.5v11.7c0,1,0.8,1.8,1.7,1.8h24.7
	c0.9,0,1.7-0.8,1.7-1.8v-11.7c2.9-0.9,5.8-2.1,8.4-3.5l8.2,8.2c0.7,0.7,1.8,0.7,2.5,0.1l17.5-17.5c0.7-0.7,0.6-1.8-0.1-2.5l-8.2-8.2
	c1.4-2.7,2.6-5.5,3.5-8.4h11.7c1,0,1.8-0.8,1.8-1.7V862C1151.6,861.1,1150.8,860.3,1149.8,860.3z M1092.3,899.8
	c-14,0-25.4-11.4-25.4-25.4c0-14.1,11.4-25.4,25.4-25.4c14.1,0,25.4,11.4,25.4,25.4C1117.7,888.4,1106.3,899.8,1092.3,899.8z"/>
<path class="st0" d="M203,34.1h-2.8c-0.2-0.7-0.5-1.4-0.9-2.1l2-2c0.2-0.2,0.2-0.4,0-0.6l-4.3-4.3c-0.2-0.2-0.4-0.2-0.6,0l-2,2
	c-0.7-0.3-1.3-0.6-2.1-0.9v-2.8c0-0.2-0.2-0.4-0.4-0.4h-6c-0.2,0-0.4,0.2-0.4,0.4v2.8c-0.7,0.2-1.4,0.5-2.1,0.9l-2-2
	c-0.2-0.2-0.4-0.2-0.6,0l-4.3,4.3c-0.2,0.2-0.2,0.4,0,0.6l2,2c-0.3,0.7-0.6,1.3-0.9,2.1H175c-0.2,0-0.4,0.2-0.4,0.4v6
	c0,0.2,0.2,0.4,0.4,0.4h2.8c0.2,0.7,0.5,1.4,0.9,2.1l-2,2c-0.2,0.2-0.2,0.4,0,0.6l4.3,4.3c0.2,0.2,0.4,0.2,0.6,0l2-2
	c0.7,0.3,1.3,0.6,2.1,0.9v2.8c0,0.2,0.2,0.4,0.4,0.4h6c0.2,0,0.4-0.2,0.4-0.4v-2.8c0.7-0.2,1.4-0.5,2.1-0.9l2,2
	c0.2,0.2,0.4,0.2,0.6,0l4.3-4.3c0.2-0.2,0.2-0.4,0-0.6l-2-2c0.3-0.7,0.6-1.3,0.9-2.1h2.8c0.2,0,0.4-0.2,0.4-0.4v-6
	C203.5,34.3,203.3,34.1,203,34.1z M189,43.8c-3.4,0-6.2-2.8-6.2-6.2s2.8-6.2,6.2-6.2s6.2,2.8,6.2,6.2S192.4,43.8,189,43.8z"/>
<g>
	<path class="st0" d="M138.8,28.8h-3.3v-2.4c0-0.8-0.7-1.5-1.5-1.5h-7c-0.8,0-1.5,0.7-1.5,1.5v2.4h-3.2c-0.9,0-1.6,0.7-1.6,1.6
		l0.1,2h19.3l0.1-2C140.4,29.5,139.7,28.8,138.8,28.8z M127.5,28.8v-1.6c0-0.3,0.1-0.5,0.3-0.5h5.5c0.3,0,0.3,0.3,0.3,0.5v1.6H127.5
		z"/>
	<path class="st0" d="M121,34.1l0.5,17.6c0,0.9,0.7,1.6,1.6,1.6h15.3c0.9,0,1.6-0.7,1.6-1.6l0.5-17.6H121z M126.7,49.6
		c0,0.4-0.5,0.7-1,0.7c-0.6,0-1-0.3-1-0.7V37.4c0-0.4,0.5-0.7,1-0.7c0.6,0,1,0.3,1,0.7V49.6z M131.7,49.6c0,0.4-0.5,0.7-1,0.7
		c-0.6,0-1-0.3-1-0.7V37.4c0-0.4,0.5-0.7,1-0.7c0.6,0,1,0.3,1,0.7V49.6z M136.7,49.6c0,0.4-0.5,0.7-1,0.7c-0.6,0-1-0.3-1-0.7V37.4
		c0-0.4,0.5-0.7,1-0.7c0.6,0,1,0.3,1,0.7V49.6z"/>
</g>
<g>
	<g>
		<g>
			<path class="st0" d="M-25.9,12.7c0,0.5,0,0.9-0.1,1.3c-0.1,0.3-0.3,0.7-0.6,1.2c-0.2,0.4-0.4,0.6-0.6,0.8
				c-0.2,0.2-0.4,0.4-0.7,0.7c-0.3,0.3-0.6,0.6-0.9,0.9s-0.5,0.6-0.6,0.8c-0.2,0.3-0.3,0.6-0.4,0.9s-0.1,0.6-0.1,1v0.8h-2.5v-0.8
				c0-0.5,0.1-1,0.2-1.5c0.1-0.4,0.3-0.8,0.4-1.1c0.1-0.2,0.3-0.5,0.5-0.7c0.2-0.3,0.5-0.5,0.7-0.8c0.3-0.3,0.6-0.6,0.9-1
				s0.5-0.6,0.5-0.6c0.1-0.2,0.2-0.4,0.3-0.7c0.1-0.3,0.2-0.7,0.2-1.2c0-0.8-0.2-1.3-0.7-1.6c-0.4-0.3-1-0.5-1.7-0.5
				c-0.6,0-1.1,0.1-1.6,0.2c-0.5,0.1-1.2,0.3-2.1,0.6L-34.9,9c0.5-0.2,1.1-0.3,1.8-0.4c0.7-0.1,1.4-0.2,2-0.2c0.7,0,1.3,0.1,1.9,0.3
				s1.1,0.4,1.5,0.8c0.5,0.4,0.9,0.9,1.1,1.4C-26.1,11.4-25.9,12-25.9,12.7z M-32.5,24.6v-2.7h2.9v2.7H-32.5z"/>
		</g>
	</g>
	<path class="st0" d="M-45,30.7c-0.4,0-0.8-0.2-1.1-0.4c-0.4-0.5-0.6-1.1-0.3-1.7l2.8-5.8c-1.1-2-1.7-4.2-1.7-6.4
		c0-7.7,6.7-13.9,14.9-13.9s14.9,6.2,14.9,13.9s-6.7,13.9-14.9,13.9c-2.9,0-5.8-0.8-8.2-2.3l-5.8,2.5C-44.6,30.6-44.8,30.7-45,30.7z
		 M-38.5,24.6c0.3,0,0.6,0.1,0.9,0.3c2.1,1.5,4.6,2.3,7.2,2.3c6.5,0,11.9-4.9,11.9-10.9s-5.3-11-11.9-11s-11.8,4.9-11.8,11
		c0,1.9,0.6,3.9,1.7,5.6c0.3,0.4,0.3,1,0.1,1.5l-1.3,2.7l2.7-1.3C-38.9,24.7-38.7,24.6-38.5,24.6z"/>
</g>
<g>
	<polygon class="st0" points="25.9,61 22.7,64.8 35.7,71.7 39,67.9 	"/>
	<path class="st0" d="M35.9,70.8c-0.1-0.1-0.3-0.1-0.5,0L23.3,77l-11.9-6.5c-0.2-0.1-0.3-0.1-0.5,0s-0.2,0.2-0.2,0.4l-0.2,13.4
		c0,0.2,0.1,0.4,0.3,0.5L23,91.3c0.1,0,0.2,0.1,0.2,0.1s0.2,0,0.2-0.1l12.4-6.5c0.2-0.1,0.3-0.3,0.3-0.4V71.2
		C36.1,71.1,36.1,70.9,35.9,70.8z M12.3,73l10.1,5.5V89l-10.3-5.4L12.3,73z M34.4,83.6L24.1,89V78.5l10.3-5.3V83.6z"/>
	<polygon class="st0" points="10.9,70.8 6.5,73.4 19.7,80.3 24,77.8 	"/>
	<polygon class="st0" points="35.7,70.8 22.5,77.8 26.9,80.3 40,73.4 	"/>
	<polygon class="st0" points="20.6,61 7.6,67.9 10.8,71.7 23.8,64.8 	"/>
	<polygon class="st1" points="23.3,65.2 10.9,71.7 23.3,78.2 35.6,71.7 	"/>
</g>
<g>
	<path class="st0" d="M23.7,21c2.6,0,4.9,1.9,5.4,4.5l0.6,2.8c0.3,1.5-0.8,2.9-2.3,2.9h-15c-1.5,0-2.6-1.4-2.3-2.9l0.6-2.8
		c0.6-2.6,2.8-4.5,5.4-4.5H23.7 M23.7,18h-7.4c-4,0-7.5,2.8-8.4,6.8l-0.6,2.8c-0.4,1.6,0,3.3,1.1,4.6c1,1.3,2.5,2,4.1,2h15
		c1.6,0,3.1-0.7,4.1-2c1-1.3,1.4-2.9,1.1-4.6l-0.6-2.8C31.2,20.8,27.7,18,23.7,18L23.7,18z"/>
	<g>
		<path class="st0" d="M16.1,20.2c-0.8,0-1.5-0.7-1.5-1.5v-3.2c0-0.8,0.7-1.5,1.5-1.5s1.5,0.7,1.5,1.5v3.2
			C17.6,19.6,16.9,20.2,16.1,20.2z"/>
		<path class="st0" d="M23.9,20.2c-0.8,0-1.5-0.7-1.5-1.5v-3.2c0-0.8,0.7-1.5,1.5-1.5s1.5,0.7,1.5,1.5v3.2
			C25.4,19.6,24.7,20.2,23.9,20.2z"/>
	</g>
	<g>
		<path class="st0" d="M30.6,7.5c0,0-5.3-1.7-10.7-1.6S9.3,7.7,9.3,7.7c-2.7,0.7-4.5,3.4-3.9,6.2c0.6,2.9,11,0.9,10.5-2
			c-0.1-0.4-0.3-1.1-0.3-1.1c1.5-0.3,3-0.4,4.5-0.4s3,0.1,4.5,0.3c0,0-0.3,0.7-0.3,1.1c-0.5,2.9,10,4.7,10.5,1.8
			C35.1,10.8,33.4,8.1,30.6,7.5z"/>
	</g>
	<g>
		<path class="st0" d="M17.2,25.8h-1.1c-0.5,0-0.9-0.4-0.9-0.9v-1.1c0-0.5,0.4-0.9,0.9-0.9h1.1c0.5,0,0.9,0.4,0.9,0.9V25
			C18.1,25.5,17.7,25.8,17.2,25.8z"/>
		<path class="st0" d="M20.6,25.8h-1.1c-0.5,0-0.9-0.4-0.9-0.9v-1.1c0-0.5,0.4-0.9,0.9-0.9h1.1c0.5,0,0.9,0.4,0.9,0.9V25
			C21.4,25.5,21,25.8,20.6,25.8z"/>
		<path class="st0" d="M23.9,25.8h-1.1c-0.5,0-0.9-0.4-0.9-0.9v-1.1c0-0.5,0.4-0.9,0.9-0.9h1.1c0.5,0,0.9,0.4,0.9,0.9V25
			C24.8,25.5,24.4,25.8,23.9,25.8z"/>
		<path class="st0" d="M17.2,29.1h-1.1c-0.5,0-0.9-0.4-0.9-0.9v-1.1c0-0.5,0.4-0.9,0.9-0.9h1.1c0.5,0,0.9,0.4,0.9,0.9v1.1
			C18.1,28.7,17.7,29.1,17.2,29.1z"/>
		<path class="st0" d="M20.6,29.1h-1.1c-0.5,0-0.9-0.4-0.9-0.9v-1.1c0-0.5,0.4-0.9,0.9-0.9h1.1c0.5,0,0.9,0.4,0.9,0.9v1.1
			C21.4,28.7,21,29.1,20.6,29.1z"/>
		<path class="st0" d="M23.9,29.1h-1.1c-0.5,0-0.9-0.4-0.9-0.9v-1.1c0-0.5,0.4-0.9,0.9-0.9h1.1c0.5,0,0.9,0.4,0.9,0.9v1.1
			C24.8,28.7,24.4,29.1,23.9,29.1z"/>
	</g>
</g>
</svg>
