<?xml version="1.0" encoding="utf-8"?>
<!-- Generator: Adobe Illustrator 22.0.1, SVG Export Plug-In . SVG Version: 6.00 Build 0)  -->
<svg version="1.1" id="Layer_1" xmlns="http://www.w3.org/2000/svg" xmlns:xlink="http://www.w3.org/1999/xlink" x="0px" y="0px"
	 viewBox="0 0 50 50" style="enable-background:new 0 0 50 50;" xml:space="preserve">
<style type="text/css">
	.st0{fill:#F3F2F2;}
</style>
<path class="st0" d="M35.1,12.9c-4.8-4.2-12.1-3.8-16.3,1c-3.9,4.4-3.8,10.9,0,15.2c-0.1,0.1-0.1,0.1-0.2,0.2l-7.2,8.2
	c-0.6,0.6-0.5,1.6,0.1,2.2c0.6,0.6,1.6,0.5,2.2-0.1l7.2-8.2c0.1-0.1,0.1-0.1,0.2-0.2c4.7,3.2,11.2,2.5,15.1-1.9
	C40.3,24.4,39.9,17.1,35.1,12.9z M33.9,27.2c-3.1,3.6-8.6,3.9-12.1,0.8c-3.6-3.1-3.9-8.6-0.8-12.1c3.1-3.6,8.6-3.9,12.1-0.8
	C36.7,18.2,37.1,23.6,33.9,27.2z"/>
</svg>
