<?xml version="1.0" encoding="utf-8"?>
<!-- Generator: Adobe Illustrator 22.0.1, SVG Export Plug-In . SVG Version: 6.00 Build 0)  -->
<svg version="1.1" id="Layer_2_1_" xmlns="http://www.w3.org/2000/svg" xmlns:xlink="http://www.w3.org/1999/xlink" x="0px" y="0px"
	 viewBox="0 0 40 40" style="enable-background:new 0 0 40 40;" xml:space="preserve">
<style type="text/css">
	.st0{fill:#505050;}
</style>
<path class="st0" d="M20.1,32.9c-1.1,0-7.9-4.8-11.6-9.4c-2.9-3.7-4-7.2-3.2-10.4c0.9-3.6,3.1-5.8,6.2-6c3.1-0.2,6.4,1.7,8.5,4.7
	c2.1-2.9,5.5-4.9,8.5-4.7c3,0.2,5.3,2.4,6.2,6c0.8,3.3-0.3,6.8-3.2,10.5C27.8,28.2,21.1,32.9,20.1,32.9z M11.9,10.1
	c-0.1,0-0.2,0-0.3,0c-2.1,0.1-3,2.1-3.4,3.7c-1.5,6.3,8.4,13.7,11.8,15.8c2.9-1.9,13.3-9.2,11.7-15.8c0,0,0,0,0,0
	c-0.4-1.6-1.3-3.6-3.4-3.7c-2.6-0.2-5.7,2.2-6.9,5.4c-0.2,0.6-0.8,1-1.4,1s-1.2-0.4-1.4-1C17.4,12.4,14.5,10.1,11.9,10.1z"/>
<path class="st0" d="M1149.8,860.3h-11.7c-0.9-2.9-2.1-5.8-3.5-8.4l8.2-8.2c0.7-0.7,0.7-1.8,0.1-2.5l-17.5-17.5
	c-0.7-0.7-1.8-0.6-2.5,0.1l-8.2,8.2c-2.7-1.4-5.5-2.6-8.5-3.5v-11.7c0-1-0.8-1.8-1.7-1.8h-24.7c-0.9,0-1.7,0.8-1.7,1.8v11.7
	c-2.9,0.9-5.8,2.1-8.5,3.5l-8.2-8.2c-0.7-0.7-1.8-0.7-2.5-0.1l-17.5,17.5c-0.7,0.7-0.6,1.8,0.1,2.5l8.2,8.2
	c-1.4,2.7-2.6,5.5-3.5,8.4h-11.7c-1,0-1.8,0.8-1.8,1.7v24.7c0,0.9,0.8,1.7,1.8,1.7h11.7c0.9,2.9,2.1,5.8,3.5,8.4l-8.2,8.2
	c-0.7,0.7-0.7,1.8-0.1,2.5l17.5,17.5c0.7,0.7,1.8,0.6,2.5-0.1l8.2-8.2c2.7,1.4,5.5,2.6,8.4,3.5v11.7c0,1,0.8,1.8,1.7,1.8h24.7
	c0.9,0,1.7-0.8,1.7-1.8v-11.7c2.9-0.9,5.8-2.1,8.4-3.5l8.2,8.2c0.7,0.7,1.8,0.7,2.5,0.1l17.5-17.5c0.7-0.7,0.6-1.8-0.1-2.5l-8.2-8.2
	c1.4-2.7,2.6-5.5,3.5-8.4h11.7c1,0,1.8-0.8,1.8-1.7V862C1151.6,861.1,1150.8,860.3,1149.8,860.3z M1092.3,899.8
	c-14,0-25.4-11.4-25.4-25.4c0-14.1,11.4-25.4,25.4-25.4c14.1,0,25.4,11.4,25.4,25.4C1117.7,888.4,1106.3,899.8,1092.3,899.8z"/>
</svg>
