<?xml version="1.0" encoding="utf-8"?>
<!-- Generator: Adobe Illustrator 21.0.2, SVG Export Plug-In . SVG Version: 6.00 Build 0)  -->
<svg version="1.1" id="Layer_2" xmlns="http://www.w3.org/2000/svg" xmlns:xlink="http://www.w3.org/1999/xlink" x="0px" y="0px"
	 viewBox="0 0 40 40" style="enable-background:new 0 0 40 40;" xml:space="preserve">
<style type="text/css">
	.st0{fill:#505050;}
	.st1{fill-rule:evenodd;clip-rule:evenodd;fill:#505050;}
	.st2{fill:#FFFFFF;}
</style>
<g>
	<path class="st0" d="M89.2,52.7c-0.4,0-0.8-0.2-1.1-0.4c-0.4-0.5-0.6-1.1-0.3-1.7l2.8-5.8c-1.1-2-1.7-4.2-1.7-6.4
		c0-7.7,6.7-13.9,14.9-13.9s14.9,6.2,14.9,13.9s-6.7,13.9-14.9,13.9c-2.9,0-5.8-0.8-8.2-2.3l-5.8,2.7C89.6,52.7,89.4,52.7,89.2,52.7
		z M95.7,46.7c0.3,0,0.6,0.1,0.9,0.3c2.1,1.5,4.6,2.3,7.2,2.3c6.5,0,11.9-4.9,11.9-10.9s-5.3-10.9-11.9-10.9s-11.9,4.9-11.9,10.9
		c0,1.9,0.6,3.9,1.7,5.6c0.3,0.4,0.3,1,0.1,1.5l-1.3,2.7l2.7-1.3C95.3,46.8,95.5,46.7,95.7,46.7z"/>
	<circle class="st0" cx="98.1" cy="38" r="1.5"/>
	<circle class="st0" cx="103.5" cy="38" r="1.5"/>
	<circle class="st0" cx="108.9" cy="38" r="1.5"/>
</g>
<g>
	<ellipse class="st0" cx="159.8" cy="33" rx="6.9" ry="7.5"/>
	<path class="st0" d="M173.2,52.8c0-8-6-14.5-13.3-14.5s-13.3,6.5-13.3,14.5H173.2z"/>
</g>
<g>
	<path class="st0" d="M30.9,27.7H13.8c-0.3,0-0.6-0.2-0.7-0.5L7.8,13.6c-0.1-0.2-0.1-0.5,0.1-0.7c0.1-0.2,0.4-0.3,0.7-0.3h27.7
		c0.3,0,0.5,0.1,0.7,0.3c0.1,0.2,0.2,0.5,0.1,0.7l-5.3,13.6C31.5,27.5,31.2,27.7,30.9,27.7z M14.3,26.1h16l4.6-12H9.7L14.3,26.1z"/>
	<path class="st0" d="M10.2,18.5c-0.3,0-0.6-0.2-0.7-0.5l-2.9-7.4H3.1c-0.4,0-0.8-0.4-0.8-0.8s0.4-0.8,0.8-0.8h4
		c0.3,0,0.6,0.2,0.7,0.5l3.1,7.9c0.2,0.4,0,0.9-0.5,1C10.4,18.5,10.3,18.5,10.2,18.5z"/>
	<path class="st0" d="M22.4,27.7c-0.4,0-0.8-0.4-0.8-0.8V13.3c0-0.4,0.4-0.8,0.8-0.8c0.4,0,0.8,0.4,0.8,0.8v13.6
		C23.2,27.4,22.8,27.7,22.4,27.7z"/>
	<path class="st0" d="M18.1,27.7c-0.4,0-0.7-0.3-0.8-0.6l-3-13.6c-0.1-0.4,0.2-0.9,0.6-1c0.4-0.1,0.9,0.2,1,0.6l3,13.6
		c0.1,0.4-0.2,0.9-0.6,1C18.2,27.7,18.2,27.7,18.1,27.7z"/>
	<path class="st0" d="M26.6,27.7c-0.1,0-0.1,0-0.2,0c-0.4-0.1-0.7-0.5-0.6-1l3-13.6c0.1-0.4,0.5-0.7,1-0.6c0.4,0.1,0.7,0.5,0.6,1
		l-3,13.6C27.3,27.5,27,27.7,26.6,27.7z"/>
	<path class="st0" d="M34.3,19H10.4c-0.4,0-0.8-0.4-0.8-0.8s0.4-0.8,0.8-0.8h23.9c0.4,0,0.8,0.4,0.8,0.8S34.7,19,34.3,19z"/>
	<path class="st0" d="M32.5,23.5H12.2c-0.4,0-0.8-0.4-0.8-0.8c0-0.4,0.4-0.8,0.8-0.8h20.4c0.4,0,0.8,0.4,0.8,0.8
		C33.4,23.1,33,23.5,32.5,23.5z"/>
	<path class="st0" d="M15.6,32.9c-1.4,0-2.5-1.1-2.5-2.5c0-1.4,1.1-2.5,2.5-2.5c1.4,0,2.5,1.1,2.5,2.5C18.1,31.8,17,32.9,15.6,32.9z
		 M15.6,29.5c-0.5,0-0.9,0.4-0.9,0.9c0,0.5,0.4,0.9,0.9,0.9c0.5,0,0.9-0.4,0.9-0.9C16.5,29.9,16.1,29.5,15.6,29.5z"/>
	<path class="st0" d="M29.4,32.9c-1.4,0-2.5-1.1-2.5-2.5c0-1.4,1.1-2.5,2.5-2.5c1.4,0,2.5,1.1,2.5,2.5
		C31.9,31.8,30.7,32.9,29.4,32.9z M29.4,29.5c-0.5,0-0.9,0.4-0.9,0.9c0,0.5,0.4,0.9,0.9,0.9c0.5,0,0.9-0.4,0.9-0.9
		C30.3,29.9,29.9,29.5,29.4,29.5z"/>
</g>
<path class="st1" d="M1149.8,860.3h-11.7c-0.9-2.9-2.1-5.8-3.5-8.4l8.2-8.2c0.7-0.7,0.7-1.8,0.1-2.5l-17.5-17.5
	c-0.7-0.7-1.8-0.6-2.5,0.1l-8.2,8.2c-2.7-1.4-5.5-2.6-8.5-3.5v-11.7c0-1-0.8-1.8-1.7-1.8h-24.7c-0.9,0-1.7,0.8-1.7,1.8v11.7
	c-2.9,0.9-5.8,2.1-8.5,3.5l-8.2-8.2c-0.7-0.7-1.8-0.7-2.5-0.1l-17.5,17.5c-0.7,0.7-0.6,1.8,0.1,2.5l8.2,8.2
	c-1.4,2.7-2.6,5.5-3.5,8.4h-11.7c-1,0-1.8,0.8-1.8,1.7v24.7c0,0.9,0.8,1.7,1.8,1.7h11.7c0.9,2.9,2.1,5.8,3.5,8.4l-8.2,8.2
	c-0.7,0.7-0.7,1.8-0.1,2.5l17.5,17.5c0.7,0.7,1.8,0.6,2.5-0.1l8.2-8.2c2.7,1.4,5.5,2.6,8.4,3.5v11.7c0,1,0.8,1.8,1.7,1.8h24.7
	c0.9,0,1.7-0.8,1.7-1.8v-11.7c2.9-0.9,5.8-2.1,8.4-3.5l8.2,8.2c0.7,0.7,1.8,0.7,2.5,0.1l17.5-17.5c0.7-0.7,0.6-1.8-0.1-2.5l-8.2-8.2
	c1.4-2.7,2.6-5.5,3.5-8.4h11.7c1,0,1.8-0.8,1.8-1.7V862C1151.6,861.1,1150.8,860.3,1149.8,860.3z M1092.3,899.8
	c-14,0-25.4-11.4-25.4-25.4c0-14.1,11.4-25.4,25.4-25.4c14.1,0,25.4,11.4,25.4,25.4C1117.7,888.4,1106.3,899.8,1092.3,899.8z"/>
<path class="st1" d="M203,34.1h-2.8c-0.2-0.7-0.5-1.4-0.9-2.1l2-2c0.2-0.2,0.2-0.4,0-0.6l-4.3-4.3c-0.2-0.2-0.4-0.2-0.6,0l-2,2
	c-0.7-0.3-1.3-0.6-2.1-0.9v-2.8c0-0.2-0.2-0.4-0.4-0.4h-6c-0.2,0-0.4,0.2-0.4,0.4v2.8c-0.7,0.2-1.4,0.5-2.1,0.9l-2-2
	c-0.2-0.2-0.4-0.2-0.6,0l-4.3,4.3c-0.2,0.2-0.2,0.4,0,0.6l2,2c-0.3,0.7-0.6,1.3-0.9,2.1H175c-0.2,0-0.4,0.2-0.4,0.4v6
	c0,0.2,0.2,0.4,0.4,0.4h2.8c0.2,0.7,0.5,1.4,0.9,2.1l-2,2c-0.2,0.2-0.2,0.4,0,0.6l4.3,4.3c0.2,0.2,0.4,0.2,0.6,0l2-2
	c0.7,0.3,1.3,0.6,2.1,0.9v2.8c0,0.2,0.2,0.4,0.4,0.4h6c0.2,0,0.4-0.2,0.4-0.4v-2.8c0.7-0.2,1.4-0.5,2.1-0.9l2,2
	c0.2,0.2,0.4,0.2,0.6,0l4.3-4.3c0.2-0.2,0.2-0.4,0-0.6l-2-2c0.3-0.7,0.6-1.3,0.9-2.1h2.8c0.2,0,0.4-0.2,0.4-0.4v-6
	C203.5,34.3,203.3,34.1,203,34.1z M189,43.8c-3.4,0-6.2-2.8-6.2-6.2c0-3.4,2.8-6.2,6.2-6.2c3.4,0,6.2,2.8,6.2,6.2
	C195.2,41,192.4,43.8,189,43.8z"/>
<g>
	<path class="st0" d="M138.8,28.8h-3.3v-2.4c0-0.8-0.7-1.5-1.5-1.5h-7c-0.8,0-1.5,0.7-1.5,1.5v2.4h-3.2c-0.9,0-1.6,0.7-1.6,1.6
		l0.1,2h19.3l0.1-2C140.4,29.5,139.7,28.8,138.8,28.8z M127.5,28.8v-1.6c0-0.3,0.1-0.5,0.3-0.5h5.5c0.3,0,0.3,0.3,0.3,0.5v1.6H127.5
		z"/>
	<path class="st0" d="M121,34.1l0.5,17.6c0,0.9,0.7,1.6,1.6,1.6h15.3c0.9,0,1.6-0.7,1.6-1.6l0.5-17.6H121z M126.7,49.6
		c0,0.4-0.5,0.7-1,0.7c-0.6,0-1-0.3-1-0.7V37.4c0-0.4,0.5-0.7,1-0.7c0.6,0,1,0.3,1,0.7V49.6z M131.7,49.6c0,0.4-0.5,0.7-1,0.7
		c-0.6,0-1-0.3-1-0.7V37.4c0-0.4,0.5-0.7,1-0.7c0.6,0,1,0.3,1,0.7V49.6z M136.7,49.6c0,0.4-0.5,0.7-1,0.7c-0.6,0-1-0.3-1-0.7V37.4
		c0-0.4,0.5-0.7,1-0.7c0.6,0,1,0.3,1,0.7V49.6z"/>
</g>
<g>
	<g>
		<g>
			<path class="st0" d="M77.3,34.8c0,0.5,0,0.9-0.1,1.3s-0.3,0.7-0.6,1.2c-0.2,0.4-0.4,0.6-0.6,0.8c-0.2,0.2-0.4,0.4-0.7,0.7
				c-0.3,0.3-0.6,0.6-0.9,0.9s-0.5,0.6-0.6,0.8c-0.2,0.3-0.3,0.6-0.4,0.9c-0.1,0.3-0.1,0.6-0.1,1v0.8h-2.5v-0.8c0-0.5,0.1-1,0.2-1.5
				s0.3-0.8,0.4-1.1c0.1-0.2,0.3-0.5,0.5-0.7c0.2-0.3,0.5-0.5,0.7-0.8c0.3-0.3,0.6-0.6,0.9-1s0.5-0.6,0.5-0.6
				c0.1-0.2,0.2-0.4,0.3-0.7s0.2-0.7,0.2-1.2c0-0.8-0.2-1.3-0.7-1.6c-0.4-0.3-1-0.5-1.7-0.5c-0.6,0-1.1,0.1-1.6,0.2
				c-0.5,0.1-1.2,0.3-2.1,0.6l-0.1-2.4c0.5-0.2,1.1-0.3,1.8-0.4c0.7-0.1,1.4-0.2,2-0.2c0.7,0,1.3,0.1,1.9,0.3
				c0.6,0.2,1.1,0.4,1.5,0.8c0.5,0.4,0.9,0.9,1.1,1.4C77.2,33.5,77.3,34.1,77.3,34.8z M70.8,46.7V44h2.9v2.7H70.8z"/>
		</g>
	</g>
	<path class="st0" d="M58.3,52.7c-0.4,0-0.8-0.2-1.1-0.4c-0.4-0.5-0.6-1.1-0.3-1.7l2.8-5.8c-1.1-2-1.7-4.2-1.7-6.4
		c0-7.7,6.7-13.9,14.9-13.9s14.9,6.2,14.9,13.9s-6.7,13.9-14.9,13.9c-2.9,0-5.8-0.8-8.2-2.3l-5.8,2.7C58.7,52.7,58.5,52.7,58.3,52.7
		z M64.8,46.7c0.3,0,0.6,0.1,0.9,0.3c2.1,1.5,4.6,2.3,7.2,2.3c6.5,0,11.9-4.9,11.9-10.9s-5.3-10.9-11.9-10.9S61,32.3,61,38.3
		c0,1.9,0.6,3.9,1.7,5.6c0.3,0.4,0.3,1,0.1,1.5l-1.3,2.7l2.7-1.3C64.4,46.8,64.6,46.7,64.8,46.7z"/>
</g>
<g>
	<polygon class="st0" points="45.7,58 42.5,61.9 55.5,68.8 58.8,64.9 	"/>
	<path class="st0" d="M55.7,67.9c-0.1-0.1-0.3-0.1-0.5,0l-12.1,6.2l-11.9-6.5c-0.2-0.1-0.3-0.1-0.5,0c-0.2,0.1-0.2,0.2-0.2,0.4
		l-0.2,13.4c0,0.2,0.1,0.4,0.3,0.5l12.4,6.5c0.1,0,0.2,0.1,0.2,0.1s0.2,0,0.2-0.1l12.4-6.5c0.2-0.1,0.3-0.3,0.3-0.4V68.3
		C56,68.1,55.9,68,55.7,67.9z M32.1,70.1l10.1,5.5v10.5L32,80.7L32.1,70.1z M54.2,80.7L44,86.1V75.6l10.3-5.3V80.7z"/>
	<polygon class="st0" points="30.7,67.9 26.4,70.4 39.5,77.4 43.8,74.8 	"/>
	<polygon class="st0" points="55.5,67.9 42.3,74.8 46.7,77.4 59.8,70.4 	"/>
	<polygon class="st0" points="40.4,58 27.4,64.9 30.6,68.8 43.7,61.9 	"/>
	<polygon class="st2" points="43.1,62.2 30.7,68.8 43.1,75.3 55.5,68.8 	"/>
</g>
</svg>
