<?xml version="1.0" encoding="utf-8"?>
<!-- Generator: Adobe Illustrator 22.0.1, SVG Export Plug-In . SVG Version: 6.00 Build 0)  -->
<svg version="1.1" id="Layer_2_1_" xmlns="http://www.w3.org/2000/svg" xmlns:xlink="http://www.w3.org/1999/xlink" x="0px" y="0px"
	 viewBox="0 0 40 40" style="enable-background:new 0 0 40 40;" xml:space="preserve">
<style type="text/css">
	.st0{fill:#505050;}
</style>
<path class="st0" d="M1149.8,860.3h-11.7c-0.9-2.9-2.1-5.8-3.5-8.4l8.2-8.2c0.7-0.7,0.7-1.8,0.1-2.5l-17.5-17.5
	c-0.7-0.7-1.8-0.6-2.5,0.1l-8.2,8.2c-2.7-1.4-5.5-2.6-8.5-3.5v-11.7c0-1-0.8-1.8-1.7-1.8h-24.7c-0.9,0-1.7,0.8-1.7,1.8v11.7
	c-2.9,0.9-5.8,2.1-8.5,3.5l-8.2-8.2c-0.7-0.7-1.8-0.7-2.5-0.1l-17.5,17.5c-0.7,0.7-0.6,1.8,0.1,2.5l8.2,8.2
	c-1.4,2.7-2.6,5.5-3.5,8.4h-11.7c-1,0-1.8,0.8-1.8,1.7v24.7c0,0.9,0.8,1.7,1.8,1.7h11.7c0.9,2.9,2.1,5.8,3.5,8.4l-8.2,8.2
	c-0.7,0.7-0.7,1.8-0.1,2.5l17.5,17.5c0.7,0.7,1.8,0.6,2.5-0.1l8.2-8.2c2.7,1.4,5.5,2.6,8.4,3.5v11.7c0,1,0.8,1.8,1.7,1.8h24.7
	c0.9,0,1.7-0.8,1.7-1.8v-11.7c2.9-0.9,5.8-2.1,8.4-3.5l8.2,8.2c0.7,0.7,1.8,0.7,2.5,0.1l17.5-17.5c0.7-0.7,0.6-1.8-0.1-2.5l-8.2-8.2
	c1.4-2.7,2.6-5.5,3.5-8.4h11.7c1,0,1.8-0.8,1.8-1.7V862C1151.6,861.1,1150.8,860.3,1149.8,860.3z M1092.3,899.8
	c-14,0-25.4-11.4-25.4-25.4c0-14.1,11.4-25.4,25.4-25.4c14.1,0,25.4,11.4,25.4,25.4C1117.7,888.4,1106.3,899.8,1092.3,899.8z"/>
<g>
	<path class="st0" d="M20,33.5H5.8c-0.7,0-1.3-0.6-1.3-1.3V7.7c0-0.7,0.6-1.3,1.3-1.3H20c0.7,0,1.3,0.6,1.3,1.3v24.6
		C21.2,33,20.7,33.5,20,33.5z M7,31h11.7V9H7V31z"/>
	<path class="st0" d="M34.2,33.5H20c-0.7,0-1.3-0.6-1.3-1.3V16.6c0-0.7,0.6-1.3,1.3-1.3h14.2c0.7,0,1.3,0.6,1.3,1.3v15.7
		C35.5,33,34.9,33.5,34.2,33.5z M21.3,31H33V17.8H21.3V31z"/>
	<g>
		<path class="st0" d="M11.2,13.5H9.9c-0.5,0-0.9-0.4-0.9-0.9v-1.3c0-0.5,0.4-0.9,0.9-0.9h1.3c0.5,0,0.9,0.4,0.9,0.9v1.3
			C12.1,13.1,11.7,13.5,11.2,13.5z"/>
		<path class="st0" d="M15.8,13.5h-1.3c-0.5,0-0.9-0.4-0.9-0.9v-1.3c0-0.5,0.4-0.9,0.9-0.9h1.3c0.5,0,0.9,0.4,0.9,0.9v1.3
			C16.7,13.1,16.3,13.5,15.8,13.5z"/>
	</g>
	<g>
		<path class="st0" d="M11.2,18.1H9.9c-0.5,0-0.9-0.4-0.9-0.9v-1.3c0-0.5,0.4-0.9,0.9-0.9h1.3c0.5,0,0.9,0.4,0.9,0.9v1.3
			C12.1,17.7,11.7,18.1,11.2,18.1z"/>
		<path class="st0" d="M15.8,18.1h-1.3c-0.5,0-0.9-0.4-0.9-0.9v-1.3c0-0.5,0.4-0.9,0.9-0.9h1.3c0.5,0,0.9,0.4,0.9,0.9v1.3
			C16.7,17.7,16.3,18.1,15.8,18.1z"/>
	</g>
	<g>
		<path class="st0" d="M11.2,22.8H9.9c-0.5,0-0.9-0.4-0.9-0.9v-1.3c0-0.5,0.4-0.9,0.9-0.9h1.3c0.5,0,0.9,0.4,0.9,0.9v1.3
			C12.1,22.4,11.7,22.8,11.2,22.8z"/>
		<path class="st0" d="M15.8,22.8h-1.3c-0.5,0-0.9-0.4-0.9-0.9v-1.3c0-0.5,0.4-0.9,0.9-0.9h1.3c0.5,0,0.9,0.4,0.9,0.9v1.3
			C16.7,22.4,16.3,22.8,15.8,22.8z"/>
	</g>
	<g>
		<path class="st0" d="M25.5,22.8h-1.3c-0.5,0-0.9-0.4-0.9-0.9v-1.3c0-0.5,0.4-0.9,0.9-0.9h1.3c0.5,0,0.9,0.4,0.9,0.9v1.3
			C26.4,22.4,26,22.8,25.5,22.8z"/>
		<path class="st0" d="M30.1,22.8h-1.3c-0.5,0-0.9-0.4-0.9-0.9v-1.3c0-0.5,0.4-0.9,0.9-0.9h1.3c0.5,0,0.9,0.4,0.9,0.9v1.3
			C31,22.4,30.6,22.8,30.1,22.8z"/>
	</g>
	<path class="st0" d="M15.2,33.5h-4.8c-0.7,0-1.3-0.6-1.3-1.3v-6.6c0-0.7,0.6-1.3,1.3-1.3h4.8c0.7,0,1.3,0.6,1.3,1.3v6.6
		C16.4,33,15.9,33.5,15.2,33.5z M11.7,31h2.3v-4.1h-2.3V31z"/>
</g>
</svg>
