<?xml version="1.0" encoding="utf-8"?>
<!-- Generator: Adobe Illustrator 21.0.2, SVG Export Plug-In . SVG Version: 6.00 Build 0)  -->
<svg version="1.1" id="Layer_1" xmlns="http://www.w3.org/2000/svg" xmlns:xlink="http://www.w3.org/1999/xlink" x="0px" y="0px"
	 viewBox="0 0 50 50" style="enable-background:new 0 0 50 50;" xml:space="preserve">
<style type="text/css">
	.st0{fill:#FFFFFF;}
</style>
<g>
	<path d="M40,19.5H10c-1.1,0-2-0.9-2-2v0c0-1.1,0.9-2,2-2h30c1.1,0,2,0.9,2,2v0C42,18.6,41.1,19.5,40,19.5z"/>
	<path d="M40,35H10c-1.1,0-2-0.9-2-2v0c0-1.1,0.9-2,2-2h30c1.1,0,2,0.9,2,2v0C42,34.1,41.1,35,40,35z"/>
	<g>
		<path class="st0" d="M16,22.5L16,22.5c-2.8,0-5-2.2-5-5v0c0-2.7,2.2-5,5-5h0c2.7,0,5,2.2,5,5v0C21,20.3,18.8,22.5,16,22.5z"/>
		<path d="M16,23.5c-3.3,0-6-2.7-6-6s2.7-6,6-6s6,2.7,6,6S19.3,23.5,16,23.5z M16,13.5c-2.2,0-4,1.8-4,4s1.8,4,4,4s4-1.8,4-4
			S18.2,13.5,16,13.5z"/>
	</g>
	<g>
		<path class="st0" d="M34,38L34,38c-2.8,0-5-2.2-5-5v0c0-2.7,2.2-5,5-5h0c2.8,0,5,2.2,5,5v0C39,35.8,36.8,38,34,38z"/>
		<path d="M34,39c-3.3,0-6-2.7-6-6s2.7-6,6-6s6,2.7,6,6S37.3,39,34,39z M34,29c-2.2,0-4,1.8-4,4s1.8,4,4,4s4-1.8,4-4S36.2,29,34,29z
			"/>
	</g>
</g>
</svg>
