<?xml version="1.0" encoding="utf-8"?>
<!-- Generator: Adobe Illustrator 22.0.1, SVG Export Plug-In . SVG Version: 6.00 Build 0)  -->
<svg version="1.1" id="Layer_1" xmlns="http://www.w3.org/2000/svg" xmlns:xlink="http://www.w3.org/1999/xlink" x="0px" y="0px"
	 viewBox="0 0 57.2 57.2" style="enable-background:new 0 0 57.2 57.2;" xml:space="preserve">
<style type="text/css">
	.st0{fill:#FFFFFF;}
	.st1{fill:#FF2C00;}
</style>
<g>
	<path class="st0" d="M28.6,4.6c-13.2,0-24,10.8-24,24c0,13.2,10.8,24,24,24c13.2,0,24-10.8,24-24C52.6,15.4,41.8,4.6,28.6,4.6z
		 M28.6,8.6c4.8,0,9.2,1.7,12.6,4.5L13.1,41.2c-2.8-3.4-4.5-7.9-4.5-12.6C8.6,17.6,17.6,8.6,28.6,8.6z M28.6,48.6
		c-4.8,0-9.2-1.7-12.6-4.5L44.1,16c2.8,3.4,4.5,7.9,4.5,12.6C48.6,39.6,39.6,48.6,28.6,48.6z"/>
	<path class="st1" d="M28.6,4.6c13.2,0,24,10.8,24,24c0,13.2-10.8,24-24,24c-13.2,0-24-10.8-24-24C4.6,15.4,15.4,4.6,28.6,4.6
		 M13.1,41.2l28.1-28.1c-3.4-2.8-7.9-4.5-12.6-4.5c-11,0-20,9-20,20C8.6,33.4,10.3,37.8,13.1,41.2 M28.6,48.6c11,0,20-9,20-20
		c0-4.8-1.7-9.2-4.5-12.6L16,44.1C19.4,46.9,23.8,48.6,28.6,48.6 M28.6,3.6c-13.8,0-25,11.2-25,25c0,13.8,11.2,25,25,25
		c13.8,0,25-11.2,25-25C53.6,14.8,42.4,3.6,28.6,3.6L28.6,3.6z M13.2,39.7c-2.3-3.2-3.6-7.1-3.6-11.1c0-10.5,8.5-19,19-19
		c4,0,7.9,1.3,11.1,3.6L13.2,39.7L13.2,39.7z M17.5,44L44,17.5c2.3,3.2,3.6,7.1,3.6,11.1c0,10.5-8.5,19-19,19
		C24.6,47.6,20.7,46.3,17.5,44L17.5,44z"/>
</g>
</svg>
