<?xml version="1.0" encoding="utf-8"?>
<!-- Generator: Adobe Illustrator 21.0.2, SVG Export Plug-In . SVG Version: 6.00 Build 0)  -->
<svg version="1.1" id="Layer_2" xmlns="http://www.w3.org/2000/svg" xmlns:xlink="http://www.w3.org/1999/xlink" x="0px" y="0px"
	 viewBox="0 0 40 40" style="enable-background:new 0 0 40 40;" xml:space="preserve">
<style type="text/css">
	.st0{fill:#505050;}
	.st1{fill:#303030;}
</style>
<path class="st0" d="M1149.8,860.3h-11.7c-0.9-2.9-2.1-5.8-3.5-8.4l8.2-8.2c0.7-0.7,0.7-1.8,0.1-2.5l-17.5-17.5
	c-0.7-0.7-1.8-0.6-2.5,0.1l-8.2,8.2c-2.7-1.4-5.5-2.6-8.5-3.5v-11.7c0-1-0.8-1.8-1.7-1.8h-24.7c-0.9,0-1.7,0.8-1.7,1.8v11.7
	c-2.9,0.9-5.8,2.1-8.5,3.5l-8.2-8.2c-0.7-0.7-1.8-0.7-2.5-0.1l-17.5,17.5c-0.7,0.7-0.6,1.8,0.1,2.5l8.2,8.2
	c-1.4,2.7-2.6,5.5-3.5,8.4h-11.7c-1,0-1.8,0.8-1.8,1.7v24.7c0,0.9,0.8,1.7,1.8,1.7h11.7c0.9,2.9,2.1,5.8,3.5,8.4l-8.2,8.2
	c-0.7,0.7-0.7,1.8-0.1,2.5l17.5,17.5c0.7,0.7,1.8,0.6,2.5-0.1l8.2-8.2c2.7,1.4,5.5,2.6,8.4,3.5v11.7c0,1,0.8,1.8,1.7,1.8h24.7
	c0.9,0,1.7-0.8,1.7-1.8v-11.7c2.9-0.9,5.8-2.1,8.4-3.5l8.2,8.2c0.7,0.7,1.8,0.7,2.5,0.1l17.5-17.5c0.7-0.7,0.6-1.8-0.1-2.5l-8.2-8.2
	c1.4-2.7,2.6-5.5,3.5-8.4h11.7c1,0,1.8-0.8,1.8-1.7V862C1151.6,861.1,1150.8,860.3,1149.8,860.3z M1092.3,899.8
	c-14,0-25.4-11.4-25.4-25.4c0-14.1,11.4-25.4,25.4-25.4c14.1,0,25.4,11.4,25.4,25.4C1117.7,888.4,1106.3,899.8,1092.3,899.8z"/>
<path class="st1" d="M22,9.5h-3.3V7.1c0-0.8-0.7-1.5-1.5-1.5h-7c-0.8,0-1.5,0.7-1.5,1.5v2.4H5.5c-0.9,0-1.6,0.7-1.6,1.6l0.1,2h19.3
	l0.1-2C23.6,10.2,22.9,9.5,22,9.5z M10.6,9.5V7.9c0-0.3,0.1-0.5,0.3-0.5h5.5c0.4,0,0.4,0.3,0.4,0.5v1.6C16.8,9.5,10.6,9.5,10.6,9.5z
	"/>
<g>
	<path class="st1" d="M13.5,33.8l3.2-8.6c0.2-0.5,0.6-0.8,1-0.9v-6.1c0-0.4,0.5-0.7,1-0.7c0.6,0,1,0.3,1,0.7v6.1
		c0.5,0.1,1,0.4,1.2,0.9l1.5,4.1v-3.6c0-0.5,0.2-0.9,0.5-1.1l0.2-9.7H4.1l0.5,17.6c0,0.9,0.7,1.6,1.6,1.6h7.3
		C13.5,34,13.5,33.9,13.5,33.8z M9.8,30.3c0,0.4-0.5,0.7-1,0.7c-0.6,0-1-0.3-1-0.7V18.1c0-0.4,0.5-0.7,1-0.7c0.6,0,1,0.3,1,0.7V30.3
		z M12.8,18.1c0-0.4,0.5-0.7,1-0.7c0.6,0,1,0.3,1,0.7v12.2c0,0.4-0.5,0.7-1,0.7c-0.6,0-1-0.3-1-0.7V18.1z"/>
	<polygon class="st1" points="19.2,33.5 18.4,33.5 18.2,34 19.4,34 	"/>
</g>
<g>
	<path class="st1" d="M22.8,34.4h-1.7L20.3,32h-2.9l-0.9,2.4h-1.6l3.2-8.6h1.4L22.8,34.4z M17.8,30.7h2l-0.6-1.8
		c-0.2-0.6-0.3-0.9-0.4-1.3c-0.1,0.5-0.2,0.7-0.4,1.3L17.8,30.7z"/>
	<path class="st1" d="M25.5,25.7v7.4h3.9v1.3H24v-8.6H25.5z"/>
	<path class="st1" d="M32.2,25.7v7.4h3.9v1.3h-5.5v-8.6H32.2z"/>
</g>
</svg>
