<?xml version="1.0" encoding="utf-8"?>
<!-- Generator: Adobe Illustrator 21.0.2, SVG Export Plug-In . SVG Version: 6.00 Build 0)  -->
<svg version="1.1" id="Layer_1" xmlns="http://www.w3.org/2000/svg" xmlns:xlink="http://www.w3.org/1999/xlink" x="0px" y="0px"
	 viewBox="0 0 50 50" style="enable-background:new 0 0 50 50;" xml:space="preserve">
<g>
	<path d="M34,16H10c-1.1,0-2-0.9-2-2v0c0-1.1,0.9-2,2-2h24c1.1,0,2,0.9,2,2v0C36,15.1,35.1,16,34,16z"/>
	<path d="M40,27H10c-1.1,0-2-0.9-2-2v0c0-1.1,0.9-2,2-2h30c1.1,0,2,0.9,2,2v0C42,26.1,41.1,27,40,27z"/>
	<path d="M28,38H10c-1.1,0-2-0.9-2-2v0c0-1.1,0.9-2,2-2h18c1.1,0,2,0.9,2,2v0C30,37.1,29.1,38,28,38z"/>
</g>
</svg>
