<?xml version="1.0" encoding="utf-8"?>
<!-- Generator: Adobe Illustrator 22.0.1, SVG Export Plug-In . SVG Version: 6.00 Build 0)  -->
<svg version="1.1" id="Layer_1" xmlns="http://www.w3.org/2000/svg" xmlns:xlink="http://www.w3.org/1999/xlink" x="0px" y="0px"
	 viewBox="0 0 50 50" style="enable-background:new 0 0 50 50;" xml:space="preserve">
<style type="text/css">
	.st0{fill:#FFFFFF;}
</style>
<g>
	<path class="st0" d="M44,15.9H24.4c-0.7-3.1-3.4-5.4-6.7-5.4c-3.3,0-6.1,2.3-6.8,5.4H6c-0.8,0-1.5,0.7-1.5,1.5s0.7,1.5,1.5,1.5h4.9
		c0.7,3.1,3.4,5.4,6.8,5.4c3.3,0,6.1-2.3,6.7-5.4H44c0.8,0,1.5-0.7,1.5-1.5S44.9,15.9,44,15.9z M17.6,21.3c-2.2,0-3.9-1.8-3.9-3.9
		c0-2.2,1.8-3.9,3.9-3.9s3.9,1.8,3.9,3.9C21.5,19.6,19.8,21.3,17.6,21.3z"/>
	<path class="st0" d="M45.5,32.5c0-3.8-3.1-6.9-6.9-6.9c-3.3,0-6.1,2.3-6.8,5.4H6c-0.8,0-1.5,0.7-1.5,1.5c0,0.8,0.7,1.5,1.5,1.5
		h25.9c0.7,3.1,3.4,5.4,6.8,5.4c3.8,0,6.9-3.1,6.9-6.9C45.5,32.6,45.5,32.6,45.5,32.5C45.5,32.5,45.5,32.5,45.5,32.5z M38.6,36.5
		c-2.2,0-3.9-1.8-3.9-3.9c0-2.2,1.8-3.9,3.9-3.9c2.2,0,3.9,1.8,3.9,3.9C42.5,34.7,40.8,36.5,38.6,36.5z"/>
</g>
</svg>
