<?xml version="1.0" encoding="utf-8"?>
<!-- Generator: Adobe Illustrator 21.0.2, SVG Export Plug-In . SVG Version: 6.00 Build 0)  -->
<svg version="1.1" id="Layer_1" xmlns="http://www.w3.org/2000/svg" xmlns:xlink="http://www.w3.org/1999/xlink" x="0px" y="0px"
	 viewBox="0 0 89 89" style="enable-background:new 0 0 89 89;" xml:space="preserve">
<style type="text/css">
	.st0{fill:none;}
	.st1{fill:#FFFFFF;}
</style>
<g>
	<path d="M87.7,64.1H1.3V50.9h48.1V27.2h26.4l11.8,24.4V64.1z M3.3,62.1h82.3v-10L74.6,29.2H51.5v23.6H3.3V62.1z"/>
	<polygon points="72.6,31.9 55,31.9 55,50.4 80.9,50.4 	"/>
	<rect x="10.4" y="22.9" class="st0" width="32.8" height="29.1"/>
	<rect x="22.9" y="22.9" width="7.8" height="29.1"/>
	<path d="M44.2,53H9.4V21.9h34.8V53z M11.4,51h30.8V23.9H11.4V51z"/>
	<path d="M29.9,23.9H16.8v-9.3L29.9,23.9z M18.8,21.9h4.8l-4.8-3.4V21.9z"/>
	<path d="M36.7,23.9H23.6l13.1-9.3V23.9z M29.9,21.9h4.8v-3.4L29.9,21.9z"/>
	<g>
		<circle class="st1" cx="19.6" cy="65.1" r="8.3"/>
		<path d="M19.6,74.4c-5.1,0-9.3-4.2-9.3-9.3s4.2-9.3,9.3-9.3s9.3,4.2,9.3,9.3S24.7,74.4,19.6,74.4z M19.6,57.8
			c-4,0-7.3,3.3-7.3,7.3s3.3,7.3,7.3,7.3s7.3-3.3,7.3-7.3S23.6,57.8,19.6,57.8z"/>
	</g>
	<g>
		<circle class="st1" cx="69.4" cy="65.1" r="8.3"/>
		<path d="M69.4,74.4c-5.1,0-9.3-4.2-9.3-9.3s4.2-9.3,9.3-9.3s9.3,4.2,9.3,9.3S74.5,74.4,69.4,74.4z M69.4,57.8
			c-4,0-7.3,3.3-7.3,7.3s3.3,7.3,7.3,7.3s7.3-3.3,7.3-7.3S73.4,57.8,69.4,57.8z"/>
	</g>
</g>
</svg>
