<?xml version="1.0" encoding="utf-8"?>
<!-- Generator: Adobe Illustrator 21.0.2, SVG Export Plug-In . SVG Version: 6.00 Build 0)  -->
<svg version="1.1" id="Layer_4" xmlns="http://www.w3.org/2000/svg" xmlns:xlink="http://www.w3.org/1999/xlink" x="0px" y="0px"
	 viewBox="0 0 18 18" style="enable-background:new 0 0 18 18;" xml:space="preserve">
<style type="text/css">
	.st0{fill:#303030;}
</style>
<g>
	<path class="st0" d="M9,2.3c-3.7,0-6.7,3-6.7,6.8c0,3.7,3,6.7,6.7,6.7s6.7-3,6.7-6.7C15.7,5.3,12.7,2.3,9,2.3z M9,14.8
		c-3.2,0-5.8-2.6-5.8-5.8c0-3.2,2.6-5.8,5.8-5.8s5.8,2.6,5.8,5.8C14.8,12.2,12.2,14.8,9,14.8z"/>
	<g>
		<polygon class="st0" points="8.6,12 5.6,9 8.6,6 9.4,6.8 7.2,9 9.4,11.2 		"/>
		<rect x="6.4" y="8.4" class="st0" width="5.8" height="1.1"/>
	</g>
</g>
</svg>
