<?xml version="1.0" encoding="utf-8"?>
<!-- Generator: Adobe Illustrator 22.0.1, SVG Export Plug-In . SVG Version: 6.00 Build 0)  -->
<svg version="1.1" id="Layer_1" xmlns="http://www.w3.org/2000/svg" xmlns:xlink="http://www.w3.org/1999/xlink" x="0px" y="0px"
	 viewBox="0 0 50 50" style="enable-background:new 0 0 50 50;" xml:space="preserve">
<style type="text/css">
	.st0{fill:#FFFFFF;}
</style>
<g>
	<path class="st0" d="M41.4,14.3H8.6c-1.1,0-2-0.9-2-2s0.9-2,2-2h32.9c1.1,0,2,0.9,2,2S42.5,14.3,41.4,14.3z"/>
	<path class="st0" d="M41.4,27H8.6c-1.1,0-2-0.9-2-2c0-1.1,0.9-2,2-2h32.9c1.1,0,2,0.9,2,2C43.4,26.1,42.5,27,41.4,27z"/>
	<path class="st0" d="M41.4,39.7H8.6c-1.1,0-2-0.9-2-2s0.9-2,2-2h32.9c1.1,0,2,0.9,2,2S42.5,39.7,41.4,39.7z"/>
</g>
</svg>
