<?xml version="1.0" encoding="utf-8"?>
<!-- Generator: Adobe Illustrator 22.0.1, SVG Export Plug-In . SVG Version: 6.00 Build 0)  -->
<svg version="1.1" id="Layer_1" xmlns="http://www.w3.org/2000/svg" xmlns:xlink="http://www.w3.org/1999/xlink" x="0px" y="0px"
	 viewBox="0 0 50 50" style="enable-background:new 0 0 50 50;" xml:space="preserve">
<style type="text/css">
	.st0{fill:#FFFFFF;}
</style>
<g>
	<path class="st0" d="M20.4,20.9c0.5-0.2,1-0.5,1.4-0.8c0.4-0.3,0.7-0.7,0.9-1.2c0.2-0.4,0.3-0.9,0.3-1.4v-0.9
		c0-0.5-0.1-0.9-0.3-1.4c-0.2-0.4-0.5-0.8-0.9-1.2c-0.4-0.3-0.8-0.6-1.4-0.8c-0.6-0.2-1.2-0.3-1.9-0.3c-0.7,0-1.3,0.1-1.9,0.3
		c-0.5,0.2-1,0.5-1.4,0.8c-0.4,0.3-0.7,0.7-0.9,1.2c-0.2,0.4-0.3,0.9-0.3,1.4v0.9c0,0.5,0.1,0.9,0.3,1.4c0.2,0.4,0.5,0.8,0.9,1.2
		c0.4,0.3,0.8,0.6,1.4,0.8c0.6,0.2,1.2,0.3,1.9,0.3C19.2,21.2,19.9,21.1,20.4,20.9z"/>
	<path class="st0" d="M46.3,0H3.7C1.7,0,0,1.7,0,3.7v42.6C0,48.3,1.7,50,3.7,50h42.6c2,0,3.7-1.7,3.7-3.7V3.7C50,1.7,48.3,0,46.3,0z
		 M31.9,9.7h3.2v15.2h-3.2V9.7z M12.9,22c-0.6-0.6-1.1-1.3-1.4-2c-0.3-0.7-0.5-1.5-0.5-2.3v-1.3c0-0.7,0.2-1.5,0.5-2.2
		c0.3-0.7,0.8-1.4,1.4-2c0.6-0.6,1.4-1.1,2.4-1.5c0.9-0.4,2-0.6,3.3-0.6c1.2,0,2.3,0.2,3.3,0.6c0.9,0.4,1.7,0.9,2.4,1.5
		c0.6,0.6,1.1,1.3,1.4,2c0.3,0.8,0.5,1.5,0.5,2.2v1.3c0,0.8-0.2,1.5-0.5,2.3c-0.3,0.8-0.8,1.4-1.4,2c-0.6,0.6-1.4,1.1-2.4,1.4
		c-0.9,0.4-2,0.5-3.3,0.5c-1.2,0-2.3-0.2-3.3-0.5C14.3,23.1,13.5,22.6,12.9,22z M36,40.4H16.3v-8.3h15.7v-2.9H16.1v-2.7h19v8.3H19.5
		v3H36V40.4z"/>
</g>
</svg>
