<?xml version="1.0" encoding="utf-8"?>
<!-- Generator: Adobe Illustrator 22.0.0, SVG Export Plug-In . SVG Version: 6.00 Build 0)  -->
<svg version="1.1" id="Layer_1" xmlns="http://www.w3.org/2000/svg" xmlns:xlink="http://www.w3.org/1999/xlink" x="0px" y="0px"
	 viewBox="0 0 50 50" style="enable-background:new 0 0 50 50;" xml:space="preserve">
<style type="text/css">
	.st0{fill:#FFFFFF;}
</style>
<g>
	
		<image style="overflow:visible;opacity:0.75;" width="57" height="57" xlink:href="4D4DE175.png"  transform="matrix(1 0 0 1 -3.5039 -3.5039)">
	</image>
	<g>
		<path class="st0" d="M42,5H8C6.4,5,5,6.4,5,8V42c0,1.6,1.4,3,3,3H42c1.6,0,3-1.4,3-3V8C45,6.4,43.6,5,42,5z M27.2,31.2
			c-1-0.9-1.8-1.7-2.4-2.3s-1.3-1.3-1.8-1.8c-0.4-0.4-0.7-0.8-1-1.2s-0.5-0.7-0.6-1l0,0c-0.2,0.3-0.3,0.6-0.6,1
			c-0.2,0.3-0.6,0.7-1,1.2c-0.6,0.6-1.2,1.3-1.9,2c-0.7,0.7-1.6,1.5-2.5,2.4l-1.8-1.8c1.7-1.5,3.1-2.9,4.3-4.2
			c0.4-0.5,0.8-0.9,1-1.3s0.5-0.8,0.6-1.2s0.2-0.8,0.3-1.2c0.1-0.4,0.1-0.9,0.1-1.4v-6.2h2.7v6.2c0,0.6,0,1,0.1,1.4
			c0.1,0.4,0.2,0.9,0.3,1.2c0.2,0.4,0.4,0.8,0.6,1.2c0.3,0.4,0.6,0.8,1,1.3c0.6,0.6,1.2,1.3,1.8,1.9s1.4,1.3,2.2,2L27.2,31.2z
			 M34.4,37.6h-2.7V12.3h2.7V37.6z"/>
	</g>
</g>
</svg>
