<?xml version="1.0" encoding="utf-8"?>
<!-- Generator: Adobe Illustrator 22.0.0, SVG Export Plug-In . SVG Version: 6.00 Build 0)  -->
<svg version="1.1" id="Layer_1" xmlns="http://www.w3.org/2000/svg" xmlns:xlink="http://www.w3.org/1999/xlink" x="0px" y="0px"
	 viewBox="0 0 50 50" style="enable-background:new 0 0 50 50;" xml:space="preserve">
<style type="text/css">
	.st0{fill:#FFFFFF;}
</style>
<g>
	<g>
		<path class="st0" d="M20.4,20.9c0.5-0.2,1-0.5,1.4-0.8s0.7-0.7,0.9-1.2c0.2-0.4,0.3-0.9,0.3-1.4v-0.9c0-0.5-0.1-0.9-0.3-1.4
			c-0.2-0.4-0.5-0.8-0.9-1.2c-0.4-0.3-0.8-0.6-1.4-0.8s-1.2-0.3-1.9-0.3c-0.7,0-1.3,0.1-1.9,0.3c-0.5,0.2-1,0.5-1.4,0.8
			s-0.7,0.7-0.9,1.2c-0.2,0.4-0.3,0.9-0.3,1.4v0.9c0,0.5,0.1,0.9,0.3,1.4c0.2,0.4,0.5,0.8,0.9,1.2c0.4,0.3,0.8,0.6,1.4,0.8
			c0.6,0.2,1.2,0.3,1.9,0.3C19.2,21.2,19.9,21.1,20.4,20.9z"/>
		<path d="M18.5,13.9c0.6,0,1.1,0.1,1.6,0.2c0.4,0.1,0.7,0.3,1.1,0.6c0.3,0.3,0.5,0.6,0.6,0.9c0.2,0.4,0.2,0.7,0.2,1v0.9
			c0,0.4-0.1,0.7-0.2,1l0,0l0,0c-0.1,0.3-0.3,0.6-0.6,0.8c-0.4,0.3-0.8,0.5-1.2,0.7c-0.4,0.1-0.9,0.2-1.5,0.2
			c-0.6,0-1.1-0.1-1.6-0.2c-0.4-0.1-0.7-0.3-1.1-0.6c-0.3-0.3-0.5-0.6-0.6-0.9c-0.2-0.4-0.2-0.7-0.2-1v-0.9c0-0.4,0.1-0.7,0.2-1l0,0
			l0,0c0.1-0.3,0.3-0.6,0.6-0.8c0.4-0.3,0.8-0.5,1.1-0.7C17.5,14,17.9,13.9,18.5,13.9 M18.5,12.9c-0.7,0-1.3,0.1-1.9,0.3
			c-0.5,0.2-1,0.5-1.4,0.8c-0.4,0.3-0.7,0.7-0.9,1.2c-0.2,0.4-0.3,0.9-0.3,1.4v0.9c0,0.5,0.1,0.9,0.3,1.4c0.2,0.4,0.5,0.8,0.9,1.2
			c0.4,0.3,0.8,0.6,1.4,0.8c0.6,0.2,1.2,0.3,1.9,0.3s1.4-0.1,1.9-0.3c0.5-0.2,1-0.5,1.4-0.8c0.4-0.3,0.7-0.7,0.9-1.2
			c0.2-0.4,0.3-0.9,0.3-1.4v-0.9c0-0.5-0.1-0.9-0.3-1.4c-0.2-0.4-0.5-0.8-0.9-1.2c-0.4-0.3-0.8-0.6-1.4-0.8
			C19.8,13,19.2,12.9,18.5,12.9L18.5,12.9z"/>
	</g>
	<g>
		<path class="st0" d="M46.3,0H3.7C1.7,0,0,1.7,0,3.7v42.6c0,2,1.7,3.7,3.7,3.7h42.6c2,0,3.7-1.7,3.7-3.7V3.7C50,1.7,48.3,0,46.3,0z
			 M31.9,9.7h3.2v15.2h-3.2C31.9,24.9,31.9,9.7,31.9,9.7z M12.9,22c-0.6-0.6-1.1-1.3-1.4-2c-0.3-0.7-0.5-1.5-0.5-2.3v-1.3
			c0-0.7,0.2-1.5,0.5-2.2s0.8-1.4,1.4-2c0.6-0.6,1.4-1.1,2.4-1.5c0.9-0.4,2-0.6,3.3-0.6c1.2,0,2.3,0.2,3.3,0.6
			c0.9,0.4,1.7,0.9,2.4,1.5c0.6,0.6,1.1,1.3,1.4,2c0.3,0.8,0.5,1.5,0.5,2.2v1.3c0,0.8-0.2,1.5-0.5,2.3s-0.8,1.4-1.4,2
			s-1.4,1.1-2.4,1.4c-0.9,0.4-2,0.5-3.3,0.5c-1.2,0-2.3-0.2-3.3-0.5C14.3,23.1,13.5,22.6,12.9,22z M36,40.4H16.3v-8.3H32v-2.9H16.1
			v-2.7h19v8.3H19.5v3H36V40.4z"/>
		<path d="M46.3,1C47.7,1,49,2.3,49,3.7v42.6c0,1.4-1.3,2.7-2.7,2.7H3.7C2.3,49,1,47.7,1,46.3V3.7C1,2.3,2.3,1,3.7,1H46.3
			 M30.9,25.5H16.1h-1v1v2.7v1h1H31v0.9H16.3h-1v1v8.3v1h1H36h1v-1v-2.6v-1h-1H20.5v-1h14.6h1v-1v-8.3v-1v-0.6V9.7v-1h-1h-3.2h-1v1
			v15.2V25.5 M18.6,24.9c1.2,0,2.5-0.1,3.6-0.6c1.1-0.3,2-0.9,2.8-1.6c0.6-0.6,1.2-1.3,1.6-2.4c0.3-0.8,0.6-1.6,0.6-2.7v-1.3
			c0-0.9-0.3-1.8-0.6-2.6c-0.3-0.8-0.9-1.6-1.6-2.3l0,0l0,0c-0.8-0.7-1.7-1.2-2.7-1.7c-1.1-0.4-2.3-0.7-3.7-0.7
			c-1.4,0-2.7,0.2-3.7,0.7c-1.1,0.4-2,1-2.7,1.7c-0.7,0.7-1.3,1.5-1.6,2.3c-0.4,0.9-0.6,1.8-0.6,2.6v1.3c0,0.9,0.2,1.8,0.6,2.7
			c0.3,0.8,0.9,1.6,1.6,2.3c0.8,0.8,1.7,1.3,2.8,1.7C16.2,24.7,17.4,24.9,18.6,24.9 M46.3,0H3.7C1.7,0,0,1.7,0,3.7v42.6
			c0,2,1.7,3.7,3.7,3.7h42.6c2,0,3.7-1.7,3.7-3.7V3.7C50,1.7,48.3,0,46.3,0L46.3,0z M31.9,24.9V9.7h3.2v15.2H31.9L31.9,24.9z
			 M18.6,23.9c-1.2,0-2.3-0.2-3.3-0.5c-1-0.3-1.8-0.8-2.4-1.4c-0.6-0.6-1.1-1.3-1.4-2S11,18.5,11,17.7v-1.3c0-0.7,0.2-1.5,0.5-2.2
			s0.8-1.4,1.4-2c0.6-0.6,1.4-1.1,2.4-1.5c0.9-0.4,2-0.6,3.3-0.6c1.2,0,2.3,0.2,3.3,0.6c0.9,0.4,1.7,0.9,2.4,1.5
			c0.6,0.6,1.1,1.3,1.4,2c0.3,0.8,0.5,1.5,0.5,2.2v1.3c0,0.8-0.2,1.5-0.5,2.3c-0.3,0.8-0.8,1.4-1.4,2c-0.6,0.6-1.4,1.1-2.4,1.4
			C21,23.8,19.9,23.9,18.6,23.9L18.6,23.9z M16.1,29.2v-2.7h19v8.3H19.5v3H36v2.6H16.3v-8.3H32v-2.9H16.1L16.1,29.2z"/>
	</g>
</g>
</svg>
