<?xml version="1.0" encoding="utf-8"?>
<!-- Generator: Adobe Illustrator 22.0.1, SVG Export Plug-In . SVG Version: 6.00 Build 0)  -->
<svg version="1.1" id="Layer_1" xmlns="http://www.w3.org/2000/svg" xmlns:xlink="http://www.w3.org/1999/xlink" x="0px" y="0px"
	 viewBox="0 0 50 50" style="enable-background:new 0 0 50 50;" xml:space="preserve">
<style type="text/css">
	.st0{fill:#FFFFFF;}
</style>
<g>
	<path class="st0" d="M32.5,28.3l-4.7-5c0,0-0.1-0.1-0.1-0.1c2.3-2.8,2.2-6.9-0.3-9.6c-2.7-2.9-7.4-3.1-10.3-0.4
		c-2.9,2.7-3.1,7.4-0.4,10.3c2.5,2.7,6.6,3.1,9.6,1c0,0,0.1,0.1,0.1,0.1l4.7,5c0.4,0.4,1,0.4,1.4,0C32.9,29.3,32.9,28.7,32.5,28.3z
		 M18.1,22.2c-2-2.2-1.9-5.6,0.3-7.7c2.2-2,5.6-1.9,7.7,0.3c2,2.2,1.9,5.6-0.3,7.7C23.6,24.5,20.1,24.4,18.1,22.2z"/>
	<g>
		<path class="st0" d="M8.9,37c0.3,0,0.5-0.1,0.7-0.2c0.1-0.1,0.2-0.3,0.2-0.4v-0.1c0-0.1,0-0.2,0-0.2s-0.1-0.1-0.2-0.2
			c-0.1-0.1-0.2-0.1-0.3-0.2c-0.1,0-0.3-0.1-0.4-0.1c-0.2,0-0.4-0.1-0.6-0.2c-0.2-0.1-0.3-0.1-0.4-0.2c-0.1-0.1-0.2-0.2-0.3-0.3
			s-0.1-0.3-0.1-0.5v-0.1c0-0.1,0-0.3,0.1-0.4s0.1-0.3,0.3-0.4c0.1-0.1,0.3-0.2,0.5-0.3c0.2-0.1,0.4-0.1,0.6-0.1
			c0.3,0,0.5,0,0.7,0.1c0.2,0.1,0.4,0.2,0.6,0.3L10,34c-0.2-0.1-0.3-0.2-0.5-0.2S9.1,33.7,9,33.7c-0.3,0-0.5,0.1-0.6,0.2
			c-0.2,0.1-0.2,0.3-0.2,0.4v0.1c0,0.1,0,0.2,0.1,0.2s0.1,0.1,0.2,0.2c0.1,0.1,0.2,0.1,0.3,0.1c0.1,0,0.3,0.1,0.4,0.1
			c0.3,0.1,0.5,0.1,0.7,0.2c0.2,0.1,0.3,0.2,0.4,0.3c0.1,0.1,0.2,0.2,0.2,0.3s0.1,0.3,0.1,0.4v0.1c0,0.2,0,0.4-0.1,0.5
			s-0.2,0.3-0.3,0.4c-0.1,0.1-0.3,0.2-0.5,0.2s-0.4,0.1-0.6,0.1c-0.3,0-0.6,0-0.8-0.1s-0.5-0.2-0.6-0.4l0.3-0.5
			c0.1,0.1,0.2,0.1,0.3,0.2c0.1,0.1,0.2,0.1,0.3,0.1c0.1,0,0.2,0.1,0.3,0.1C8.7,37,8.8,37,8.9,37z"/>
		<path class="st0" d="M13.8,33.3v0.5h-2v1.3h1.9v0.5h-1.9V37h2.1v0.5h-2.7v-4.2H13.8z"/>
		<path class="st0" d="M18,37.5h-0.6L17,36.2h-1.6l-0.4,1.2h-0.6l1.6-4.2h0.6L18,37.5z M15.5,35.8h1.3l-0.4-1c0-0.1-0.1-0.2-0.1-0.2
			s0-0.1-0.1-0.2s0-0.1-0.1-0.2s0-0.1-0.1-0.2c0,0.1-0.1,0.2-0.1,0.3s0,0.1-0.1,0.2s0,0.1-0.1,0.2s0,0.1-0.1,0.2L15.5,35.8z"/>
		<path class="st0" d="M19.2,37.5h-0.6v-4.2h1.5c0.2,0,0.4,0,0.6,0.1c0.2,0.1,0.3,0.1,0.4,0.2c0.1,0.1,0.2,0.2,0.3,0.4
			c0.1,0.1,0.1,0.3,0.1,0.5v0.2c0,0.2-0.1,0.4-0.2,0.6c-0.1,0.2-0.3,0.3-0.5,0.4l0.8,1.9H21l-0.8-1.8h-1V37.5z M19.2,35.2H20
			c0.3,0,0.6-0.1,0.7-0.2c0.1-0.1,0.2-0.3,0.2-0.5v-0.1c0-0.2-0.1-0.4-0.2-0.5c-0.1-0.1-0.4-0.2-0.6-0.2h-0.9V35.2z"/>
		<path class="st0" d="M25.4,37c-0.2,0.2-0.4,0.3-0.7,0.4s-0.5,0.1-0.8,0.1c-0.3,0-0.5,0-0.7-0.1s-0.4-0.2-0.5-0.3
			c-0.1-0.2-0.3-0.3-0.3-0.6c-0.1-0.2-0.1-0.5-0.1-0.8v-0.6c0-0.3,0-0.6,0.1-0.8c0.1-0.2,0.2-0.4,0.3-0.6c0.1-0.2,0.3-0.3,0.5-0.4
			s0.4-0.1,0.7-0.1c0.3,0,0.5,0,0.8,0.1c0.2,0.1,0.4,0.2,0.6,0.3L25,34.1c-0.2-0.2-0.4-0.3-0.5-0.3c-0.2-0.1-0.4-0.1-0.5-0.1
			c-0.2,0-0.3,0-0.4,0.1c-0.1,0.1-0.3,0.1-0.4,0.3c-0.1,0.1-0.2,0.3-0.2,0.4s-0.1,0.4-0.1,0.6v0.5c0,0.2,0,0.4,0.1,0.6
			s0.1,0.3,0.2,0.4c0.1,0.1,0.2,0.2,0.4,0.3C23.6,37,23.8,37,24,37c0.2,0,0.4,0,0.6-0.1s0.4-0.2,0.6-0.4L25.4,37z"/>
		<path class="st0" d="M29.3,33.3v4.2h-0.6v-1.9h-2v1.9h-0.6v-4.2h0.6V35h2v-1.8H29.3z"/>
		<path class="st0" d="M32.3,33.3V37h2v0.5h-2.6v-4.2H32.3z"/>
		<path class="st0" d="M35.5,33.3v4.2h-0.6v-4.2H35.5z"/>
		<path class="st0" d="M37.8,37c0.3,0,0.5-0.1,0.7-0.2c0.2-0.1,0.2-0.3,0.2-0.4v-0.1c0-0.1,0-0.2,0-0.2s-0.1-0.1-0.2-0.2
			s-0.2-0.1-0.3-0.2s-0.3-0.1-0.4-0.1c-0.2,0-0.4-0.1-0.6-0.2c-0.2-0.1-0.3-0.1-0.4-0.2c-0.1-0.1-0.2-0.2-0.3-0.3s-0.1-0.3-0.1-0.5
			v-0.1c0-0.1,0-0.3,0.1-0.4s0.1-0.3,0.3-0.4c0.1-0.1,0.3-0.2,0.5-0.3c0.2-0.1,0.4-0.1,0.6-0.1c0.3,0,0.5,0,0.7,0.1s0.4,0.2,0.6,0.3
			L38.8,34c-0.2-0.1-0.3-0.2-0.5-0.2s-0.3-0.1-0.5-0.1c-0.3,0-0.5,0.1-0.6,0.2c-0.2,0.1-0.2,0.3-0.2,0.4v0.1c0,0.1,0,0.2,0.1,0.2
			s0.1,0.1,0.2,0.2s0.2,0.1,0.3,0.1s0.3,0.1,0.4,0.1c0.3,0.1,0.5,0.1,0.7,0.2s0.3,0.2,0.4,0.3c0.1,0.1,0.2,0.2,0.2,0.3
			s0.1,0.3,0.1,0.4v0.1c0,0.2,0,0.4-0.1,0.5s-0.2,0.3-0.3,0.4c-0.1,0.1-0.3,0.2-0.5,0.2c-0.2,0-0.4,0.1-0.6,0.1
			c-0.3,0-0.6,0-0.8-0.1s-0.5-0.2-0.6-0.4l0.3-0.5c0.1,0.1,0.2,0.1,0.3,0.2s0.2,0.1,0.3,0.1s0.2,0.1,0.3,0.1S37.7,37,37.8,37z"/>
		<path class="st0" d="M40.9,37.5v-3.7h-1.3v-0.5h3.2v0.5h-1.3v3.7H40.9z"/>
	</g>
</g>
</svg>
