<?xml version="1.0" encoding="utf-8"?>
<!-- Generator: Adobe Illustrator 22.0.1, SVG Export Plug-In . SVG Version: 6.00 Build 0)  -->
<svg version="1.1" id="Layer_1" xmlns="http://www.w3.org/2000/svg" xmlns:xlink="http://www.w3.org/1999/xlink" x="0px" y="0px"
	 viewBox="0 0 50 50" style="enable-background:new 0 0 50 50;" xml:space="preserve">
<style type="text/css">
	.st0{fill:#FFFFFF;}
</style>
<path class="st0" d="M46.3,0H3.7C1.7,0,0,1.7,0,3.7v42.6C0,48.3,1.7,50,3.7,50h42.6c2,0,3.7-1.7,3.7-3.7V3.7C50,1.7,48.3,0,46.3,0z
	 M27.8,32.8c-1.2-1.1-2.2-2.1-3-2.9c-0.8-0.8-1.6-1.6-2.2-2.3c-0.5-0.5-0.9-1-1.3-1.5c-0.4-0.5-0.6-0.9-0.8-1.2h0
	c-0.2,0.4-0.4,0.8-0.7,1.2c-0.3,0.4-0.7,0.9-1.3,1.5c-0.7,0.8-1.5,1.6-2.4,2.5c-0.9,0.9-2,1.9-3.1,3l-2.2-2.3
	c2.1-1.9,3.9-3.6,5.4-5.3c0.5-0.6,1-1.1,1.3-1.6c0.3-0.5,0.6-1,0.8-1.5c0.2-0.5,0.3-1,0.4-1.5c0.1-0.5,0.1-1.1,0.1-1.7v-7.7h3.4v7.7
	c0,0.7,0,1.3,0.1,1.8c0.1,0.5,0.2,1.1,0.4,1.5c0.2,0.5,0.5,1,0.8,1.5c0.4,0.5,0.8,1,1.3,1.6c0.7,0.8,1.5,1.6,2.3,2.4
	c0.8,0.8,1.7,1.6,2.7,2.5L27.8,32.8z M36.8,40.8h-3.4V9.1h3.4V40.8z"/>
</svg>
