<?xml version="1.0" encoding="utf-8"?>
<!-- Generator: Adobe Illustrator 22.0.1, SVG Export Plug-In . SVG Version: 6.00 Build 0)  -->
<svg version="1.1" id="Layer_1" xmlns="http://www.w3.org/2000/svg" xmlns:xlink="http://www.w3.org/1999/xlink" x="0px" y="0px"
	 viewBox="0 0 50 50" style="enable-background:new 0 0 50 50;" xml:space="preserve">
<style type="text/css">
	.st0{fill:#FFFFFF;}
</style>
<g>
	<path class="st0" d="M25.3,25.3c0.4-0.3,0.6-0.6,0.8-0.9c0.2-0.3,0.3-0.7,0.3-1.1v-0.7c0-0.4-0.1-0.7-0.3-1.1
		c-0.2-0.3-0.5-0.6-0.8-0.9C25,20.4,24.5,20.2,24,20c-0.6-0.2-1.2-0.2-1.9-0.2c-0.7,0-1.4,0.1-1.9,0.2c-0.5,0.2-1,0.4-1.4,0.6
		c-0.4,0.3-0.6,0.6-0.8,0.9c-0.2,0.3-0.3,0.7-0.3,1.1v0.7c0,0.4,0.1,0.7,0.3,1.1c0.2,0.3,0.5,0.6,0.8,0.9c0.4,0.3,0.8,0.5,1.4,0.6
		c0.5,0.2,1.2,0.2,1.9,0.2c0.7,0,1.3-0.1,1.9-0.2C24.5,25.8,25,25.6,25.3,25.3z"/>
	<path class="st0" d="M47.2,0H2.8C1.3,0,0,1.3,0,2.9v44.3C0,48.7,1.3,50,2.8,50h44.3c1.6,0,2.8-1.3,2.8-2.9V2.9
		C50,1.3,48.7,0,47.2,0z M12.9,12.8h7.5V9.1h3.3v3.8H31v2.9H12.9V12.8z M28.7,34.5c-1.3,0.1-2.8,0.2-4.4,0.2
		c-1.6,0.1-3.4,0.1-5.3,0.1c-2,0-4.3,0-7,0v-2.9c1.7,0,3.2,0,4.7,0c1.4,0,2.7,0,3.9-0.1v-3.1c-1-0.1-1.8-0.3-2.6-0.7
		c-0.8-0.3-1.4-0.7-1.9-1.2c-0.5-0.5-0.9-1-1.2-1.6c-0.3-0.6-0.4-1.2-0.4-1.8v-1.3c0-0.7,0.2-1.3,0.5-2c0.3-0.6,0.8-1.2,1.5-1.7
		c0.7-0.5,1.5-0.9,2.4-1.2c0.9-0.3,2-0.4,3.2-0.4s2.3,0.1,3.2,0.4c0.9,0.3,1.7,0.7,2.4,1.2c0.7,0.5,1.2,1.1,1.5,1.7
		c0.3,0.6,0.5,1.3,0.5,2v1.3c0,1.2-0.5,2.3-1.5,3.3c-1,1-2.4,1.6-4.2,1.9v3.1c1.6,0,3.1-0.1,4.5-0.2c1.3-0.1,2.7-0.2,4.1-0.4
		l0.3,2.9C31.4,34.3,30,34.4,28.7,34.5z M37.7,40.6h-3.3V9.3h3.3V40.6z"/>
</g>
</svg>
