<?xml version="1.0" encoding="utf-8"?>
<!-- Generator: Adobe Illustrator 21.0.2, SVG Export Plug-In . SVG Version: 6.00 Build 0)  -->
<svg version="1.1" id="_x3C_Layer_x3E_" xmlns="http://www.w3.org/2000/svg" xmlns:xlink="http://www.w3.org/1999/xlink" x="0px"
	 y="0px" viewBox="0 0 18 18" style="enable-background:new 0 0 18 18;" xml:space="preserve">
<style type="text/css">
	.st0{fill-rule:evenodd;clip-rule:evenodd;fill:#D4D4D4;}
</style>
<path class="st0" d="M17.7,6.9H16c-0.1-0.4-0.3-0.9-0.5-1.3l1.3-1.3c0.1-0.1,0.1-0.3,0-0.4L14,1.3c-0.1-0.1-0.3-0.1-0.4,0l-1.3,1.3
	C12,2.4,11.6,2.2,11.1,2V0.3C11.1,0.1,11,0,10.9,0H7.1C7,0,6.9,0.1,6.9,0.3V2C6.4,2.2,6,2.4,5.6,2.6L4.3,1.3C4.2,1.2,4.1,1.2,4,1.3
	L1.3,4c-0.1,0.1-0.1,0.3,0,0.4l1.3,1.3C2.4,6,2.2,6.4,2,6.9H0.3C0.1,6.9,0,7,0,7.1v3.7c0,0.1,0.1,0.3,0.3,0.3H2
	c0.1,0.4,0.3,0.9,0.5,1.3l-1.3,1.3c-0.1,0.1-0.1,0.3,0,0.4L4,16.7c0.1,0.1,0.3,0.1,0.4,0l1.3-1.3C6,15.6,6.4,15.8,6.9,16v1.8
	C6.9,17.9,7,18,7.1,18h3.7c0.1,0,0.3-0.1,0.3-0.3V16c0.4-0.1,0.9-0.3,1.3-0.5l1.3,1.3c0.1,0.1,0.3,0.1,0.4,0l2.6-2.7
	c0.1-0.1,0.1-0.3,0-0.4l-1.3-1.3c0.2-0.4,0.4-0.8,0.5-1.3h1.8c0.2,0,0.3-0.1,0.3-0.3V7.1C18,7,17.9,6.9,17.7,6.9z M9,12.9
	c-2.1,0-3.9-1.7-3.9-3.9c0-2.1,1.7-3.9,3.9-3.9c2.1,0,3.9,1.7,3.9,3.9C12.9,11.1,11.1,12.9,9,12.9z"/>
</svg>
