<?xml version="1.0" encoding="utf-8"?>
<!-- Generator: Adobe Illustrator 22.0.1, SVG Export Plug-In . SVG Version: 6.00 Build 0)  -->
<svg version="1.1" id="_x3C_Layer_x3E_" xmlns="http://www.w3.org/2000/svg" xmlns:xlink="http://www.w3.org/1999/xlink" x="0px"
	 y="0px" viewBox="0 0 18 18" style="enable-background:new 0 0 18 18;" xml:space="preserve">
<style type="text/css">
	.st0{fill:#F3F2F2;}
</style>
<path class="st0" d="M18,6.6c-0.1-0.5-0.3-1-0.5-1.5c-0.1-0.2-0.3-0.3-0.5-0.3c-0.6,0-1.2,0-1.8,0c-0.4-0.6-0.9-1.1-1.4-1.5
	c0.1-0.6,0.1-1.2,0.2-1.8c0-0.2-0.1-0.4-0.3-0.5c-0.5-0.3-1-0.5-1.5-0.7c-0.2-0.1-0.4,0-0.6,0.1c-0.4,0.4-0.8,0.9-1.3,1.3
	C9.7,1.6,9,1.5,8.3,1.6C7.9,1.1,7.5,0.6,7.2,0.2C7,0,6.8,0,6.6,0c-0.5,0.1-1,0.3-1.5,0.5C4.9,0.6,4.8,0.9,4.8,1c0,0.6,0,1.2,0,1.8
	C4.2,3.3,3.7,3.7,3.3,4.2C2.7,4.2,2.1,4.1,1.5,4.1C1.3,4,1,4.2,0.9,4.3c-0.3,0.5-0.5,1-0.7,1.5C0.2,6,0.3,6.2,0.4,6.4
	c0.4,0.4,0.9,0.8,1.3,1.3C1.6,8.3,1.5,9,1.6,9.7c-0.5,0.4-0.9,0.8-1.4,1.2C0,11,0,11.2,0,11.4c0.1,0.5,0.3,1,0.5,1.5
	c0.1,0.2,0.3,0.3,0.5,0.3c0.6,0,1.2,0,1.8,0c0.4,0.6,0.9,1.1,1.4,1.5c-0.1,0.6-0.1,1.2-0.2,1.8c0,0.2,0.1,0.4,0.3,0.5
	c0.5,0.3,1,0.5,1.5,0.7c0.2,0.1,0.4,0,0.6-0.1c0.4-0.4,0.8-0.9,1.3-1.3c0.7,0.1,1.4,0.2,2.1,0.1c0.4,0.5,0.8,0.9,1.2,1.4
	C11,18,11.2,18,11.4,18c0.5-0.1,1-0.3,1.5-0.5c0.2-0.1,0.3-0.3,0.3-0.5c0-0.6,0-1.2,0-1.8c0.6-0.4,1.1-0.9,1.5-1.4
	c0.6,0.1,1.2,0.1,1.8,0.2c0.2,0,0.4-0.1,0.5-0.3c0.3-0.5,0.5-1,0.7-1.5c0.1-0.2,0-0.4-0.1-0.6c-0.4-0.4-0.9-0.8-1.3-1.3
	c0.1-0.7,0.2-1.4,0.1-2.1c0.5-0.4,0.9-0.8,1.4-1.2C18,7,18,6.8,18,6.6z M9,14.1c-2.8,0-5.1-2.3-5.1-5.1c0-2.8,2.3-5.1,5.1-5.1
	c2.8,0,5.1,2.3,5.1,5.1C14.1,11.8,11.8,14.1,9,14.1z"/>
</svg>
