<?xml version="1.0" encoding="utf-8"?>
<!-- Generator: Adobe Illustrator 22.0.1, SVG Export Plug-In . SVG Version: 6.00 Build 0)  -->
<svg version="1.1" id="Layer_1" xmlns="http://www.w3.org/2000/svg" xmlns:xlink="http://www.w3.org/1999/xlink" x="0px" y="0px"
	 viewBox="0 0 50 50" style="enable-background:new 0 0 50 50;" xml:space="preserve">
<style type="text/css">
	.st0{fill:#FFFFFF;}
</style>
<g>
	<path class="st0" d="M25,29.5c0,0,5.1-3.9,7.6-6.7c2.5-2.9,2.9-5.1,2.9-6.2c0-1.1-0.1-5.2-4.2-5.2c-4.1,0-6.3,5-6.3,5s-2.3-5-6.3-5
		c-4.1,0-4.2,4.1-4.2,5.2c0,1.1,0.4,3.4,2.9,6.2C19.9,25.6,25,29.5,25,29.5z"/>
	<g>
		<path class="st0" d="M26.3,33.5h-0.6v0.3c0,0.1,0,0.2,0,0.3s0,0.1,0,0.2s0,0.1,0.1,0.2s0.1,0.1,0.1,0.2c0.1,0.1,0.1,0.2,0.2,0.3
			c0.1,0.1,0.2,0.2,0.3,0.3l-0.4,0.3c-0.1-0.1-0.2-0.2-0.2-0.3c-0.1-0.1-0.1-0.2-0.2-0.3c-0.1-0.1-0.1-0.1-0.1-0.2
			c0-0.1-0.1-0.1-0.1-0.2h0c0,0,0,0.1-0.1,0.1c0,0.1-0.1,0.1-0.2,0.2c-0.1,0.1-0.1,0.2-0.2,0.3c-0.1,0.1-0.2,0.2-0.3,0.3h0
			c-0.1-0.1-0.2-0.2-0.3-0.3c-0.1-0.1-0.1-0.2-0.2-0.3s-0.1-0.2-0.2-0.2c0-0.1-0.1-0.1-0.1-0.1h0c0,0,0,0.1-0.1,0.2
			c0,0.1-0.1,0.1-0.1,0.2c-0.1,0.1-0.1,0.2-0.2,0.3c-0.1,0.1-0.2,0.2-0.3,0.3l-0.4-0.3c0.1-0.1,0.2-0.3,0.3-0.4
			c0.1-0.1,0.2-0.2,0.2-0.3c0.1-0.1,0.1-0.1,0.1-0.2c0-0.1,0.1-0.1,0.1-0.2s0-0.1,0-0.2s0-0.2,0-0.3v-0.3h-0.6V33h3.3V33.5z
			 M27.4,36V38h-3.5V36H27.4z M24.4,34.5c0.1,0.1,0.1,0.1,0.1,0.2s0.1,0.1,0.2,0.2c0.1-0.1,0.1-0.1,0.2-0.2s0.1-0.1,0.1-0.2
			c0-0.1,0.1-0.1,0.1-0.1c0,0,0-0.1,0.1-0.1s0-0.1,0-0.2s0-0.2,0-0.3v-0.3h-1v0.3c0,0.1,0,0.2,0,0.3s0,0.1,0,0.2s0,0.1,0.1,0.1
			C24.3,34.4,24.3,34.4,24.4,34.5z M24.5,37.5h2.3v-1.1h-2.3V37.5z M26.9,35.7v-3h0.6v3H26.9z"/>
	</g>
</g>
</svg>
