<?xml version="1.0" encoding="utf-8"?>
<!-- Generator: Adobe Illustrator 22.0.1, SVG Export Plug-In . SVG Version: 6.00 Build 0)  -->
<svg version="1.1" id="Layer_1" xmlns="http://www.w3.org/2000/svg" xmlns:xlink="http://www.w3.org/1999/xlink" x="0px" y="0px"
	 viewBox="0 0 50 50" style="enable-background:new 0 0 50 50;" xml:space="preserve">
<style type="text/css">
	.st0{fill:#FFFFFF;}
	.st1{opacity:0.2;}
</style>
<g>
	<g>
		<path class="st0" d="M15.1,26.4c0,0.1-0.1,0.1-0.1,0.2c-0.7,1.3-0.2,2.9,1.1,3.6c1.3,0.7,2.9,0.2,3.6-1.1c0-0.1,0.1-0.1,0.1-0.2
			L15.1,26.4z"/>
		<path class="st0" d="M26.5,28.5c-0.2-0.5-1.4-3.2-0.5-4.8c0.7-1.4-0.3,0.6,1.2-2.3c1.7-3.4-0.7-6.3-1.6-6.7c0,0,0.9-1.7,1.2-2.3
			c0.3-0.6,0.1-1.4-0.6-1.8c-0.7-0.4-1.6,0-1.8,0.5c-0.3,0.6-1.2,2.3-1.2,2.3c-0.8-0.4-4.6-0.7-6.3,2.7c-1.5,2.9-0.5,0.9-1.2,2.3
			c-0.9,1.7-3.7,2.3-4.2,2.4c-0.6,0.1-0.8,0.6-0.8,0.6l-0.7,1.4l7.9,4.1l7.9,4.1l0.7-1.4C26.5,29.5,26.7,29.1,26.5,28.5z"/>
		<g class="st1">
			<path class="st0" d="M30.6,28.3c0,0.1,0,0.1,0.1,0.2c0.6,1.3,2.2,1.8,3.4,1.1c1.3-0.6,1.8-2.1,1.1-3.4c0-0.1-0.1-0.1-0.1-0.2
				L30.6,28.3z"/>
			<path class="st0" d="M39.5,21.2c0,0-0.2-0.4-0.8-0.6c-0.5-0.1-3.2-0.7-4-2.3C34,17,35,18.9,33.6,16.1c-1.6-3.2-5.3-3-6.1-2.6
				c-0.3,0.1-0.9,0.6-1.1,0.9l0,0c1.3,1.2,3,4.2,1.3,7.3c-0.8,1.6-0.9,1.7-0.9,1.7l0,0c0,0,0,0.1-0.3,0.6c-0.5,1-0.1,2.8,0.5,4.2
				c0.1,0.3,0.2,0.6,0.2,0.8l5.2-2.6l7.6-3.8L39.5,21.2z"/>
		</g>
	</g>
	<g>
		<path class="st0" d="M19.6,38.2H19l-0.4-1.2h-1.6l-0.4,1.2h-0.6l1.6-4.2H18L19.6,38.2z M17.1,36.4h1.3l-0.4-1
			c0-0.1-0.1-0.2-0.1-0.2s0-0.1-0.1-0.2s0-0.1-0.1-0.2s0-0.1-0.1-0.2c0,0.1-0.1,0.2-0.1,0.2s0,0.1-0.1,0.2c0,0.1,0,0.1-0.1,0.2
			s0,0.1-0.1,0.2L17.1,36.4z"/>
		<path class="st0" d="M20.8,34v3.7h2v0.5h-2.6V34H20.8z"/>
		<path class="st0" d="M26.7,38.2h-0.6l-0.4-1.2H24l-0.4,1.2H23l1.6-4.2h0.6L26.7,38.2z M24.2,36.4h1.3l-0.4-1
			c0-0.1-0.1-0.2-0.1-0.2s0-0.1-0.1-0.2s0-0.1-0.1-0.2s0-0.1-0.1-0.2c0,0.1-0.1,0.2-0.1,0.2s0,0.1-0.1,0.2c0,0.1,0,0.1-0.1,0.2
			s0,0.1-0.1,0.2L24.2,36.4z"/>
		<path class="st0" d="M27.9,38.2h-0.6V34h1.5c0.2,0,0.4,0,0.6,0.1c0.2,0.1,0.3,0.1,0.4,0.2c0.1,0.1,0.2,0.2,0.3,0.4
			c0.1,0.1,0.1,0.3,0.1,0.5v0.2c0,0.2-0.1,0.4-0.2,0.6s-0.3,0.3-0.5,0.4l0.8,1.9h-0.6l-0.8-1.8h-1V38.2z M27.9,35.9h0.8
			c0.3,0,0.6-0.1,0.7-0.2s0.2-0.3,0.2-0.5v-0.1c0-0.2-0.1-0.4-0.2-0.5c-0.1-0.1-0.4-0.2-0.6-0.2h-0.9V35.9z"/>
		<path class="st0" d="M31.8,35.1c0,0,0-0.1-0.1-0.1s0-0.1,0-0.1s0-0.1-0.1-0.1s0-0.1-0.1-0.2v3.6h-0.5V34h0.9l1.2,2.8l1.1-2.8h0.8
			v4.2h-0.6v-3.6c0,0.1,0,0.1-0.1,0.2s0,0.1,0,0.1s0,0.1,0,0.1s0,0.1-0.1,0.1l-1,2.3h-0.5L31.8,35.1z"/>
	</g>
</g>
</svg>
