<?xml version="1.0" encoding="utf-8"?>
<!-- Generator: Adobe Illustrator 21.0.2, SVG Export Plug-In . SVG Version: 6.00 Build 0)  -->
<svg version="1.1" id="Layer_1" xmlns="http://www.w3.org/2000/svg" xmlns:xlink="http://www.w3.org/1999/xlink" x="0px" y="0px"
	 viewBox="0 0 18 18" style="enable-background:new 0 0 18 18;" xml:space="preserve">
<style type="text/css">
	.st0{fill:#888888;}
</style>
<g>
	<path class="st0" d="M3.9,5.1H1.4C1.2,5.1,1,4.9,1,4.6V3.1c0-0.2,0.2-0.4,0.4-0.4h2.5c0.2,0,0.4,0.2,0.4,0.4v1.5
		C4.3,4.9,4.1,5.1,3.9,5.1z M1.9,4.2h1.6V3.6H1.9V4.2z"/>
	<path class="st0" d="M13.3,5H8.1C8,5,7.8,4.9,7.7,4.8c-0.1-0.1-0.1-0.3,0-0.4l0.9-1.6C8.7,2.7,8.9,2.6,9,2.6h3.4
		c0.2,0,0.3,0.1,0.4,0.2l0.9,1.6c0.1,0.1,0.1,0.3,0,0.4C13.6,4.9,13.5,5,13.3,5z M8.9,4.2h3.7l-0.4-0.7H9.3L8.9,4.2z"/>
	<g>
		<g>
			<path class="st0" d="M5.9,10.2c0-1.8,1-3.3,2.4-4.2H0.4v7.3H7C6.3,12.4,5.9,11.3,5.9,10.2z"/>
			<path class="st0" d="M13.1,6c1.4,0.8,2.4,2.4,2.4,4.2c0,1.2-0.4,2.2-1.1,3.1h3.1V6H13.1z"/>
		</g>
		<path class="st0" d="M18,15H0V4.2h18V15z M10.7,5.8c-2.4,0-4.4,2-4.4,4.4c0,1.8,1,3.3,2.7,4l1.7,0.8l1.7-0.8
			c1.6-0.7,2.7-2.3,2.7-4C15.1,7.7,13.1,5.8,10.7,5.8z M14.1,14.2h3V5.1H12c2.3,0.6,4,2.6,4,5.1C16,11.7,15.3,13.2,14.1,14.2z
			 M0.9,14.2h6.4c-1.2-1-1.8-2.4-1.8-4c0-2.5,1.7-4.5,4-5.1H0.9V14.2z"/>
	</g>
	<path class="st0" d="M10.7,15.4c-2.9,0-5.3-2.4-5.3-5.3s2.4-5.3,5.3-5.3S16,7.3,16,10.2S13.6,15.4,10.7,15.4z M10.7,5.8
		c-2.4,0-4.4,2-4.4,4.4c0,2.4,2,4.4,4.4,4.4s4.4-2,4.4-4.4C15.1,7.7,13.1,5.8,10.7,5.8z"/>
	<path class="st0" d="M10.7,6.7c-1.9,0-3.5,1.6-3.5,3.5c0,1.9,1.6,3.5,3.5,3.5c1.9,0,3.5-1.6,3.5-3.5C14.2,8.2,12.6,6.7,10.7,6.7z
		 M10.7,11.4c-0.7,0-1.2-0.5-1.2-1.2C9.5,9.5,10,9,10.7,9c0.7,0,1.2,0.5,1.2,1.2C11.9,10.8,11.4,11.4,10.7,11.4z"/>
</g>
</svg>
