<?xml version="1.0" encoding="utf-8"?>
<!-- Generator: Adobe Illustrator 22.0.1, SVG Export Plug-In . SVG Version: 6.00 Build 0)  -->
<svg version="1.1" id="Layer_1" xmlns="http://www.w3.org/2000/svg" xmlns:xlink="http://www.w3.org/1999/xlink" x="0px" y="0px"
	 viewBox="0 0 36.9 21.9" style="enable-background:new 0 0 36.9 21.9;" xml:space="preserve">
<style type="text/css">
	.st0{fill:#FFFFFF;}
</style>
<g>
	<g>
		<path class="st0" d="M0.3,1.5c1.2-0.2,2.8-0.4,4.7-0.4c2.4,0,4.2,0.6,5.4,1.6c1.1,0.9,1.7,2.3,1.7,4c0,1.7-0.5,3.1-1.5,4.1
			c-1.3,1.4-3.4,2.1-5.9,2.1c-0.7,0-1.4,0-2-0.2v7.7H0.3V1.5z M2.8,10.7c0.5,0.1,1.2,0.2,2,0.2c3,0,4.8-1.4,4.8-4.1
			c0-2.5-1.8-3.8-4.5-3.8C4,3.1,3.2,3.1,2.8,3.3V10.7z"/>
		<path class="st0" d="M14.9,10.9c0-1.6,0-3-0.1-4.3H17l0.1,2.7h0.1c0.6-1.8,2.1-3,3.8-3c0.3,0,0.5,0,0.7,0.1v2.4
			c-0.3-0.1-0.5-0.1-0.9-0.1c-1.8,0-3,1.3-3.4,3.2c-0.1,0.3-0.1,0.7-0.1,1.2v7.3h-2.5V10.9z"/>
		<path class="st0" d="M36.3,13.4c0,5.1-3.5,7.3-6.8,7.3c-3.7,0-6.6-2.7-6.6-7.1c0-4.6,3-7.3,6.8-7.3C33.7,6.3,36.3,9.2,36.3,13.4z
			 M25.4,13.5c0,3,1.7,5.3,4.2,5.3c2.4,0,4.2-2.2,4.2-5.3c0-2.3-1.2-5.3-4.1-5.3S25.4,10.9,25.4,13.5z"/>
	</g>
</g>
</svg>
