<?xml version="1.0" encoding="utf-8"?>
<!-- Generator: Adobe Illustrator 22.0.1, SVG Export Plug-In . SVG Version: 6.00 Build 0)  -->
<svg version="1.1" id="_x3C_Layer_x3E_" xmlns="http://www.w3.org/2000/svg" xmlns:xlink="http://www.w3.org/1999/xlink" x="0px"
	 y="0px" viewBox="0 0 18 18" style="enable-background:new 0 0 18 18;" xml:space="preserve">
<style type="text/css">
	.st0{fill:#F7F7F7;}
</style>
<g>
	<path class="st0" d="M10,4.1c0,0.2-0.2,0.4-0.4,0.4l-1.3,0C8.2,4.4,8,4.3,8,4.1l0-1.3c0-0.2,0.2-0.4,0.4-0.4l1.3,0
		c0.2,0,0.4,0.2,0.4,0.4L10,4.1z"/>
	<path class="st0" d="M10,9.6C10,9.9,9.8,10,9.6,10l-1.3,0C8.1,10,8,9.8,8,9.6l0-1.3C8,8.1,8.2,8,8.4,8l1.3,0C9.9,8,10,8.2,10,8.4
		L10,9.6z"/>
	<path class="st0" d="M10,15.2c0,0.2-0.2,0.4-0.4,0.4l-1.3,0c-0.2,0-0.4-0.2-0.4-0.4l0-1.3c0-0.2,0.2-0.4,0.4-0.4l1.3,0
		c0.2,0,0.4,0.2,0.4,0.4L10,15.2z"/>
</g>
</svg>
