<?xml version="1.0" encoding="utf-8"?>
<!-- Generator: Adobe Illustrator 22.0.0, SVG Export Plug-In . SVG Version: 6.00 Build 0)  -->
<svg version="1.1" id="Layer_1" xmlns="http://www.w3.org/2000/svg" xmlns:xlink="http://www.w3.org/1999/xlink" x="0px" y="0px"
	 viewBox="0 0 50 50" style="enable-background:new 0 0 50 50;" xml:space="preserve">
<style type="text/css">
	.st0{fill:#FFFFFF;}
</style>
<g>
	<g>
		<path class="st0" d="M25.4,25.3c0.4-0.3,0.6-0.6,0.8-0.9c0.2-0.3,0.3-0.7,0.3-1.1v-0.7c0-0.4-0.1-0.7-0.3-1.1
			c-0.2-0.3-0.5-0.6-0.8-0.9c-0.3-0.2-0.8-0.4-1.3-0.6c-0.6-0.2-1.2-0.2-1.9-0.2s-1.4,0.1-1.9,0.2c-0.5,0.2-1,0.4-1.4,0.6
			c-0.4,0.3-0.6,0.6-0.8,0.9s-0.3,0.7-0.3,1.1v0.7c0,0.4,0.1,0.7,0.3,1.1c0.2,0.3,0.5,0.6,0.8,0.9c0.4,0.3,0.8,0.5,1.4,0.6
			c0.5,0.2,1.2,0.2,1.9,0.2c0.7,0,1.3-0.1,1.9-0.2C24.6,25.8,25.1,25.6,25.4,25.3z"/>
		<path d="M22.2,20.8c0.6,0,1.1,0,1.6,0.1c0.4,0.1,0.8,0.3,1,0.4c0.2,0.2,0.4,0.4,0.6,0.6c0.1,0.3,0.2,0.4,0.2,0.6v0.7
			c0,0.3-0.1,0.4-0.1,0.5c-0.2,0.3-0.3,0.5-0.6,0.7l-0.1,0l-0.1,0.1c-0.1,0.1-0.4,0.2-0.8,0.3c-0.6,0.1-1.1,0.2-1.7,0.2
			c-0.6,0-1.2,0-1.5-0.1l-0.1,0l-0.1,0c-0.4-0.1-0.7-0.2-0.9-0.4c-0.2-0.2-0.5-0.5-0.6-0.6c-0.1-0.3-0.2-0.4-0.2-0.6v-0.7
			c0-0.3,0.1-0.4,0.1-0.5c0.2-0.2,0.3-0.4,0.5-0.6c0.3-0.2,0.7-0.3,1.2-0.5C20.9,20.9,21.5,20.8,22.2,20.8 M22.2,19.8
			c-0.7,0-1.4,0.1-1.9,0.2c-0.5,0.2-1,0.4-1.4,0.6c-0.4,0.3-0.6,0.6-0.8,0.9c-0.2,0.3-0.3,0.7-0.3,1.1v0.7c0,0.4,0.1,0.7,0.3,1.1
			c0.2,0.3,0.5,0.6,0.8,0.9c0.4,0.3,0.8,0.5,1.4,0.6c0.5,0.2,1.2,0.2,1.9,0.2c0.7,0,1.3-0.1,1.9-0.2c0.5-0.1,1-0.3,1.3-0.6
			c0.4-0.3,0.6-0.6,0.8-0.9c0.2-0.3,0.3-0.7,0.3-1.1v-0.7c0-0.4-0.1-0.7-0.3-1.1c-0.2-0.3-0.5-0.6-0.8-0.9c-0.3-0.2-0.8-0.4-1.3-0.6
			C23.5,19.8,22.9,19.8,22.2,19.8L22.2,19.8z"/>
	</g>
	<g>
		<path class="st0" d="M47.3,0H2.8C1.3,0,0,1.3,0,2.9v44.3C0,48.7,1.3,50,2.8,50h44.3c1.6,0,2.8-1.3,2.8-2.9V2.9
			C50.1,1.3,48.8,0,47.3,0z M13,12.8h7.5V9.1h3.3v3.8h7.3v2.9H13V12.8z M28.8,34.5c-1.3,0.1-2.8,0.2-4.4,0.2
			c-1.6,0.1-3.4,0.1-5.3,0.1c-2,0-4.3,0-7,0v-2.9c1.7,0,3.2,0,4.7,0c1.4,0,2.7,0,3.9-0.1v-3.1c-1-0.1-1.8-0.3-2.6-0.7
			c-0.8-0.3-1.4-0.7-1.9-1.2c-0.5-0.5-0.9-1-1.2-1.6s-0.4-1.2-0.4-1.8v-1.3c0-0.7,0.2-1.3,0.5-2c0.3-0.6,0.8-1.2,1.5-1.7
			c0.7-0.5,1.5-0.9,2.4-1.2c0.9-0.3,2-0.4,3.2-0.4c1.2,0,2.3,0.1,3.2,0.4s1.7,0.7,2.4,1.2c0.7,0.5,1.2,1.1,1.5,1.7s0.5,1.3,0.5,2
			v1.3c0,1.2-0.5,2.3-1.5,3.3s-2.4,1.6-4.2,1.9v3.1c1.6,0,3.1-0.1,4.5-0.2c1.3-0.1,2.7-0.2,4.1-0.4L33,34
			C31.5,34.3,30.1,34.4,28.8,34.5z M37.8,40.6h-3.3V9.3h3.3V40.6z"/>
		<path d="M47.3,1c0.5,0,0.9,0.2,1.2,0.5C48.9,1.9,49,2.4,49,2.8l0,0v0v44.2c0,1.1-0.8,1.9-1.8,1.9H2.8C1.9,49,1,48.1,1,47.2V2.9
			C1,1.9,1.9,1,2.8,1H47.3 M19.5,11.8H13h-1v1v3v1h1h4.3c-0.5,0.2-0.9,0.5-1.3,0.8c-0.8,0.6-1.4,1.3-1.8,2.1l0,0l0,0
			c-0.3,0.8-0.6,1.5-0.6,2.4v1.3c0,0.8,0.2,1.6,0.5,2.2c0.3,0.6,0.8,1.2,1.4,1.9c0.6,0.6,1.3,1.1,2.2,1.4c0.6,0.3,1.3,0.5,2,0.7v1.3
			c-0.9,0-1.9,0-2.9,0h-4.7h-1v1v2.9v1h1h7c1.9,0,3.7,0,5.3-0.1c1.6,0,3.1-0.1,4.4-0.2l0.1,0c1.3-0.1,2.7-0.2,4.2-0.5l0.3-0.1v5.7v1
			h1h3.3h1v-1V9.3v-1h-1h-3.3h-1v1V30l-0.9,0.1c-1.3,0.2-2.5,0.3-3.8,0.4l-0.3,0c-1.1,0.1-2.3,0.2-3.4,0.2v-1.3c1.7-0.4,2.9-1,3.9-2
			c1.2-1.2,1.8-2.5,1.8-4v-1.3c0-0.8-0.2-1.7-0.6-2.4c-0.4-0.8-1-1.5-1.8-2.1c-0.4-0.3-0.9-0.6-1.3-0.8h4h1v-1v-2.9v-1h-1h-6.3V9.1
			v-1h-1h-3.3h-1v1V11.8 M47.3,0H2.8C1.3,0,0,1.3,0,2.9v44.3C0,48.7,1.3,50,2.8,50h44.3c1.6,0,2.8-1.3,2.8-2.9V2.9
			C50.1,1.3,48.8,0,47.3,0L47.3,0z M13,15.8v-3h7.5V9.1h3.3v3.8h7.3v2.9H13L13,15.8z M34.5,40.6V9.3h3.3v31.3H34.5L34.5,40.6z
			 M12.1,34.8v-2.9c1.7,0,3.2,0,4.7,0c1.4,0,2.7,0,3.9-0.1v-3.1c-1-0.1-1.8-0.3-2.6-0.7c-0.8-0.3-1.4-0.7-1.9-1.2
			c-0.5-0.5-0.9-1-1.2-1.6c-0.3-0.6-0.4-1.2-0.4-1.8v-1.3c0-0.7,0.2-1.3,0.5-2c0.3-0.6,0.8-1.2,1.5-1.7c0.7-0.5,1.5-0.9,2.4-1.2
			s2-0.4,3.2-0.4s2.3,0.1,3.2,0.4c0.9,0.3,1.7,0.7,2.4,1.2c0.7,0.5,1.2,1.1,1.5,1.7s0.5,1.3,0.5,2v1.3c0,1.2-0.5,2.3-1.5,3.3
			c-1,1-2.4,1.6-4.2,1.9v3.1c1.6,0,3.1-0.1,4.5-0.2c1.3-0.1,2.7-0.2,4.1-0.4L33,34c-1.5,0.3-2.9,0.4-4.2,0.5s-2.8,0.2-4.4,0.2
			c-1.6,0.1-3.4,0.1-5.3,0.1C17.1,34.8,14.8,34.8,12.1,34.8L12.1,34.8z"/>
	</g>
</g>
</svg>
