<?xml version="1.0" encoding="utf-8"?>
<!-- Generator: Adobe Illustrator 22.0.1, SVG Export Plug-In . SVG Version: 6.00 Build 0)  -->
<svg version="1.1" id="Layer_1" xmlns="http://www.w3.org/2000/svg" xmlns:xlink="http://www.w3.org/1999/xlink" x="0px" y="0px"
	 viewBox="0 0 59.1 24.8" style="enable-background:new 0 0 59.1 24.8;" xml:space="preserve">
<style type="text/css">
	.st0{fill:#FFFFFF;}
</style>
<title>ic_switch_grid</title>
<g>
	<path class="st0" d="M35.8,3.9h4.3c0.8,0,1.5,0.7,1.5,1.5v4.3c0,0.8-0.7,1.5-1.5,1.5h-4.3c-0.8,0-1.5-0.7-1.5-1.5V5.4
		C34.3,4.6,35,3.9,35.8,3.9z"/>
	<path class="st0" d="M45.6,3.9h4.3c0.8,0,1.5,0.7,1.5,1.5v4.3c0,0.8-0.7,1.5-1.5,1.5h-4.3c-0.8,0-1.5-0.7-1.5-1.5V5.4
		C44.1,4.6,44.8,3.9,45.6,3.9z"/>
	<path class="st0" d="M35.8,13.6h4.3c0.8,0,1.5,0.7,1.5,1.5v4.3c0,0.8-0.7,1.5-1.5,1.5h-4.3c-0.8,0-1.5-0.7-1.5-1.5v-4.3
		C34.3,14.3,35,13.6,35.8,13.6z"/>
	<path class="st0" d="M45.6,13.6h4.3c0.8,0,1.5,0.7,1.5,1.5v4.3c0,0.8-0.7,1.5-1.5,1.5h-4.3c-0.8,0-1.5-0.7-1.5-1.5v-4.3
		C44.1,14.3,44.8,13.6,45.6,13.6z"/>
</g>
</svg>
