<?xml version="1.0" encoding="utf-8"?>
<!-- Generator: Adobe Illustrator 22.0.1, SVG Export Plug-In . SVG Version: 6.00 Build 0)  -->
<svg version="1.1" id="Layer_1" xmlns="http://www.w3.org/2000/svg" xmlns:xlink="http://www.w3.org/1999/xlink" x="0px" y="0px"
	 viewBox="0 0 59.1 24.8" style="enable-background:new 0 0 59.1 24.8;" xml:space="preserve">
<style type="text/css">
	.st0{fill:#FFFFFF;}
</style>
<title>ic_switch_list</title>
<g>
	<path class="st0" d="M7.4,4.4L7.4,4.4c0.9,0,1.7,0.8,1.7,1.7v0c0,0.9-0.8,1.7-1.7,1.7l0,0c-0.9,0-1.7-0.8-1.7-1.7v0
		C5.7,5.2,6.5,4.4,7.4,4.4z"/>
	<path class="st0" d="M12.7,4.4h12c0.9,0,1.7,0.8,1.7,1.7v0c0,0.9-0.8,1.7-1.7,1.7h-12c-0.9,0-1.7-0.8-1.7-1.7v0
		C11,5.2,11.7,4.4,12.7,4.4z"/>
	<path class="st0" d="M7.4,10.7L7.4,10.7c0.9,0,1.7,0.8,1.7,1.7l0,0c0,0.9-0.8,1.7-1.7,1.7l0,0c-0.9,0-1.7-0.8-1.7-1.7l0,0
		C5.7,11.4,6.5,10.7,7.4,10.7z"/>
	<path class="st0" d="M12.7,10.7h12c0.9,0,1.7,0.8,1.7,1.7l0,0c0,0.9-0.8,1.7-1.7,1.7h-12c-0.9,0-1.7-0.8-1.7-1.7l0,0
		C11,11.4,11.7,10.7,12.7,10.7z"/>
	<path class="st0" d="M7.4,16.9L7.4,16.9c0.9,0,1.7,0.8,1.7,1.7v0c0,0.9-0.8,1.7-1.7,1.7l0,0c-0.9,0-1.7-0.8-1.7-1.7v0
		C5.7,17.7,6.5,16.9,7.4,16.9z"/>
	<path class="st0" d="M12.7,16.9h12c0.9,0,1.7,0.8,1.7,1.7v0c0,0.9-0.8,1.7-1.7,1.7h-12c-0.9,0-1.7-0.8-1.7-1.7v0
		C11,17.7,11.7,16.9,12.7,16.9z"/>
</g>
<title>ic_switch_grid</title>
</svg>
