<?xml version="1.0" encoding="utf-8"?>
<!-- Generator: Adobe Illustrator 22.0.1, SVG Export Plug-In . SVG Version: 6.00 Build 0)  -->
<svg version="1.1" id="Layer_1" xmlns="http://www.w3.org/2000/svg" xmlns:xlink="http://www.w3.org/1999/xlink" x="0px" y="0px"
	 viewBox="0 0 64 64" style="enable-background:new 0 0 64 64;" xml:space="preserve">
<style type="text/css">
	.st0{fill:#FFFFFF;}
</style>
<g>
	<path class="st0" d="M25.8,48.7L14.9,38.3c0,0,1.7,10.4,1.9,11.7c0.2,1.3,2.1,2.6,3.1,2C20.9,51.4,25.8,48.7,25.8,48.7z"/>
	<path class="st0" d="M56.5,13.1c-0.6,0.1-3.7,0.7-3.7,0.7S14.6,22.1,10.3,23c-2.4,0.5-3,3.3-1.1,5.1c0.4,0.4,4,4,8.2,8.3l29.4-15.9
		L20.9,40c5.4,5.5,10.9,11,11.9,11.8c2,1.8,4.3,0.1,5.1-1.5c0.8-1.5,19-34.4,19.7-35.8C58.2,13.5,57.4,13,56.5,13.1z"/>
</g>
</svg>
