<?xml version="1.0" encoding="utf-8"?>
<!-- Generator: Adobe Illustrator 22.0.1, SVG Export Plug-In . SVG Version: 6.00 Build 0)  -->
<svg version="1.1" id="Capa_1" xmlns="http://www.w3.org/2000/svg" xmlns:xlink="http://www.w3.org/1999/xlink" x="0px" y="0px"
	 viewBox="0 0 512 512" style="enable-background:new 0 0 512 512;" xml:space="preserve">
<g>
	<g>
		<path d="M401.2,512L241.1,380.6H53c-29.2,0-52.9-24.1-52.9-53.8V53.8C0.1,24.1,23.8,0,53,0h406c29.2,0,52.9,24.1,52.9,53.8v272.9
			c0,29.7-23.7,53.8-52.9,53.8h-57.8L401.2,512L401.2,512z M53,32c-11.5,0-20.9,9.8-20.9,21.9v272.9c0,12,9.4,21.9,20.9,21.9h199.5
			l116.7,95.7v-95.7H459c11.5,0,20.9-9.8,20.9-21.9V53.8c0-12-9.4-21.9-20.9-21.9H53z"/>
	</g>
</g>
<g>
	<path d="M148.9,218.5v-2.1c0-11.2-8.7-16-24.4-19.4c-23.1-5-49-9-49-41.2v-2.5c0-16.7,12.1-39,49.6-39c15.2,0,29.2,2.5,43.3,11.5
		l-11.5,19c-11.2-7.3-20.2-8.7-31.3-8.7c-17.5,0-25.6,9.2-25.6,16.7v2.3c0,13.5,13.7,15.4,30,19c32.7,7.3,43.7,20.8,43.7,39.8v2.5
		c0,31-24,40.6-51,40.6c-20,0-38.8-7.1-49.6-16l11.9-19.6c8.5,7.1,22.3,13.5,38.8,13.5C141.2,235,148.9,227.9,148.9,218.5z"/>
	<path d="M217.7,158.8c-1.9-4.8-3.8-11-7.1-21V255h-22.9V116.3h35l34,86.2l32.7-86.2h35.4V255h-23.3V137.9c-2.9,11.5-4.8,16-6.5,21
		l-29,73.1h-19.6L217.7,158.8z"/>
	<path d="M414.5,218.5v-2.1c0-11.2-8.7-16-24.4-19.4c-23.1-5-49-9-49-41.2v-2.5c0-16.7,12.1-39,49.6-39c15.2,0,29.2,2.5,43.3,11.5
		l-11.5,19c-11.2-7.3-20.2-8.7-31.3-8.7c-17.5,0-25.6,9.2-25.6,16.7v2.3c0,13.5,13.7,15.4,30,19c32.7,7.3,43.7,20.8,43.7,39.8v2.5
		c0,31-24,40.6-51,40.6c-20,0-38.8-7.1-49.6-16l11.9-19.6c8.5,7.1,22.3,13.5,38.8,13.5C406.8,235,414.5,227.9,414.5,218.5z"/>
</g>
</svg>
