<?xml version="1.0" encoding="utf-8"?>
<!-- Generator: Adobe Illustrator 21.0.2, SVG Export Plug-In . SVG Version: 6.00 Build 0)  -->
<svg version="1.1" id="Layer_1" xmlns="http://www.w3.org/2000/svg" xmlns:xlink="http://www.w3.org/1999/xlink" x="0px" y="0px"
	 viewBox="0 0 50 50" style="enable-background:new 0 0 50 50;" xml:space="preserve">
<style type="text/css">
	.st0{fill:#3A3A3A;}
</style>
<path class="st0" d="M42,35.3L31.7,27c-0.1-0.1-0.2-0.2-0.4-0.2c2.4-5.2,1-11.5-3.6-15.2c-5.5-4.4-13.5-3.5-17.9,2
	c-4.4,5.5-3.5,13.5,2,17.9c4.7,3.8,11.3,3.7,15.8,0.1c0.1,0.1,0.2,0.2,0.3,0.3l10.4,8.3c1.2,0.9,3,0.6,4.1-0.7
	C43.3,38.1,43.2,36.3,42,35.3z M26.9,27.3c-3.2,4-9,4.6-12.9,1.4c-4-3.2-4.6-9-1.4-12.9c3.2-4,9-4.6,12.9-1.4
	C29.4,17.5,30.1,23.3,26.9,27.3z"/>
</svg>
