<?xml version="1.0" encoding="utf-8"?>
<!-- Generator: Adobe Illustrator 22.0.1, SVG Export Plug-In . SVG Version: 6.00 Build 0)  -->
<svg version="1.1" id="Layer_1" xmlns="http://www.w3.org/2000/svg" xmlns:xlink="http://www.w3.org/1999/xlink" x="0px" y="0px"
	 viewBox="0 0 50 50" style="enable-background:new 0 0 50 50;" xml:space="preserve">
<style type="text/css">
	.st0{fill:#555656;}
	.st1{fill:#E2E1E1;}
</style>
<g>
	<path class="st0" d="M36.6,29.3c-4.4,5-12,5.5-17,1.1c-5-4.4-5.5-12-1.1-17c4.4-5,12-5.5,17-1.1C40.6,16.7,41.1,24.3,36.6,29.3z"/>
	<path class="st1" d="M34.3,27.3c-3.3,3.7-9,4.1-12.7,0.8c-3.7-3.3-4.1-9-0.8-12.7c3.3-3.7,9-4.1,12.7-0.8
		C37.3,17.9,37.6,23.6,34.3,27.3z"/>
	<path class="st0" d="M13.2,40.2c-0.6,0.7-1.6,0.7-2.3,0.1l0,0c-0.7-0.6-0.7-1.6-0.1-2.3l7.6-8.6c0.6-0.7,1.6-0.7,2.3-0.1l0,0
		c0.7,0.6,0.7,1.6,0.1,2.3L13.2,40.2z"/>
</g>
</svg>
