<?xml version="1.0" encoding="utf-8"?>
<!-- Generator: Adobe Illustrator 21.0.2, SVG Export Plug-In . SVG Version: 6.00 Build 0)  -->
<svg version="1.1" id="Layer_1" xmlns="http://www.w3.org/2000/svg" xmlns:xlink="http://www.w3.org/1999/xlink" x="0px" y="0px"
	 viewBox="0 0 40 40" style="enable-background:new 0 0 40 40;" xml:space="preserve">
<style type="text/css">
	.st0{fill:none;stroke:#414142;stroke-width:1.3;stroke-linecap:round;stroke-linejoin:round;stroke-miterlimit:10;}
	.st1{fill:none;stroke:#414142;stroke-linecap:round;stroke-linejoin:round;stroke-miterlimit:10;}
	.st2{fill:#414142;}
	.st3{font-family:'OCRB';}
	.st4{font-size:12.3712px;}
</style>
<g>
	<line class="st0" x1="19" y1="7.4" x2="19" y2="18.5"/>
	<line class="st0" x1="27.1" y1="18.5" x2="19" y2="18.5"/>
	<path class="st0" d="M27.4,22.9c1.1,0,2.1,0.3,3,0.8c1.1-1.9,1.7-4,1.7-6.3c0-7-5.7-12.7-12.7-12.7S6.7,10.4,6.7,17.4
		s5.7,12.7,12.7,12.7c0.7,0,1.5-0.1,2.2-0.2c-0.1-0.4-0.1-0.7-0.1-1.1C21.4,25.5,24.1,22.9,27.4,22.9z"/>
	<path class="st1" d="M21.5,29.9c0.5,2.8,2.9,4.9,5.8,4.9c3.3,0,5.9-2.7,5.9-5.9c0-2.2-1.2-4.1-2.9-5.1"/>
	<text transform="matrix(1 0 0 1 23.6943 33.2626)" class="st2 st3 st4">$</text>
</g>
</svg>
