<?xml version="1.0" encoding="utf-8"?>
<!-- Generator: Adobe Illustrator 22.0.1, SVG Export Plug-In . SVG Version: 6.00 Build 0)  -->
<svg version="1.1" id="Layer_1" xmlns="http://www.w3.org/2000/svg" xmlns:xlink="http://www.w3.org/1999/xlink" x="0px" y="0px"
	 viewBox="0 0 50 50" style="enable-background:new 0 0 50 50;" xml:space="preserve">
<style type="text/css">
	.st0{fill:#F7F7F7;}
	.st1{fill:#CBF44D;}
</style>
<path class="st0" d="M32.3,44.6c-0.3,0-0.6,0-0.9-0.1c-5.5-1.1-23.5-6.3-25.1-26.4c-0.1-1.4,0.4-2.7,1.4-3.7l2.8-2.8
	c0.5-0.5,1.1-0.7,1.8-0.7s1.3,0.3,1.8,0.7l5.8,5.8c0.3,0.3,0.4,0.6,0.4,1s-0.1,0.7-0.4,1l-3.4,3.4l0.1,0.3
	c0.6,1.6,3.2,7.3,10.9,11.2l0.3,0.2l3.8-3.8c0.3-0.3,0.6-0.4,1-0.4c0.4,0,0.7,0.2,1,0.4l6.4,6.4c0.6,0.6,0.6,1.5,0,2l-4.2,4.2
	C34.7,44.1,33.5,44.6,32.3,44.6z M12.1,12.8c-0.1,0-0.3,0-0.4,0.2l-2.8,2.8C8.3,16.4,8,17.2,8.1,18c0.6,8,4.1,14.4,10.3,18.9
	c5.2,3.8,11,5.3,13.3,5.8c0.2,0,0.4,0.1,0.6,0.1c0.7,0,1.5-0.3,2-0.8l3.8-3.8l-5.7-5.7L28,36.8L26.4,36
	c-8.3-4.2-11.1-10.4-11.8-12.2l-0.5-1.4l3.9-3.9L12.6,13C12.4,12.8,12.3,12.8,12.1,12.8z"/>
<path class="st1" d="M36.7,23.7c-0.5,0-1-0.4-1-1c0-5.5-4.5-10-10-10c-0.5,0-1-0.4-1-1c0-0.5,0.4-1,1-1c6.5,0,11.9,5.3,11.9,11.9
	C37.6,23.2,37.2,23.7,36.7,23.7z"/>
<path class="st1" d="M29.9,23.7c-0.5,0-1-0.4-1-1c0-1.7-1.4-3.1-3.1-3.1c-0.5,0-1-0.4-1-1c0-0.5,0.4-1,1-1c2.8,0,5.1,2.3,5.1,5.1
	C30.8,23.2,30.4,23.7,29.9,23.7z"/>
<path class="st1" d="M43.5,23.7c-0.5,0-1-0.4-1-1c0-9.3-7.5-16.8-16.8-16.8c-0.5,0-1-0.4-1-1c0-0.5,0.4-1,1-1
	c10.3,0,18.7,8.4,18.7,18.7C44.5,23.2,44,23.7,43.5,23.7z"/>
</svg>
