<?xml version="1.0" encoding="utf-8"?>
<!-- Generator: Adobe Illustrator 22.0.1, SVG Export Plug-In . SVG Version: 6.00 Build 0)  -->
<svg version="1.1" id="Layer_1" xmlns="http://www.w3.org/2000/svg" xmlns:xlink="http://www.w3.org/1999/xlink" x="0px" y="0px"
	 viewBox="0 0 50 50" style="enable-background:new 0 0 50 50;" xml:space="preserve">
<style type="text/css">
	.st0{opacity:0.3;fill:none;stroke:#000000;stroke-width:3;stroke-linecap:round;stroke-linejoin:round;stroke-miterlimit:10;}
	.st1{fill:#FFFFFF;}
</style>
<path class="st0" d="M42.3,25c0-10.1-8.2-18.3-18.3-18.3C14,6.7,5.8,14.9,5.8,25S14,43.3,24,43.3h5.9c1.2,0,2.2-1,2.2-2.2
	s-1-2.2-2.2-2.2H24c-7.7,0-13.9-6.2-13.9-13.9c0-7.7,6.2-13.9,13.9-13.9c7.7,0,13.9,6.2,13.9,13.9h-4.2l6.4,6.4l6.4-6.4H42.3z"/>
<path class="st1" d="M42.3,25c0-10.1-8.2-18.3-18.3-18.3C14,6.7,5.8,14.9,5.8,25S14,43.3,24,43.3h5.9c1.2,0,2.2-1,2.2-2.2
	s-1-2.2-2.2-2.2H24c-7.7,0-13.9-6.2-13.9-13.9c0-7.7,6.2-13.9,13.9-13.9c7.7,0,13.9,6.2,13.9,13.9h-4.2l6.4,6.4l6.4-6.4H42.3z"/>
</svg>
