<?xml version="1.0" encoding="utf-8"?>
<!-- Generator: Adobe Illustrator 22.0.1, SVG Export Plug-In . SVG Version: 6.00 Build 0)  -->
<svg version="1.1" id="Layer_1" xmlns="http://www.w3.org/2000/svg" xmlns:xlink="http://www.w3.org/1999/xlink" x="0px" y="0px"
	 viewBox="0 0 64 64" style="enable-background:new 0 0 64 64;" xml:space="preserve">
<style type="text/css">
	.st0{fill:#FFFFFF;}
</style>
<g>
	<g>
		<path class="st0" d="M16.1,18.8c0,1.6-1.3,2.8-2.8,2.8c-1.6,0-2.8-1.3-2.8-2.8c0-1.6,1.3-2.8,2.8-2.8C14.8,16,16.1,17.3,16.1,18.8
			z"/>
		<path class="st0" d="M50.8,21.7H21.1c-1.6,0-2.8-1.3-2.8-2.8c0-1.6,1.3-2.8,2.8-2.8h29.6c1.6,0,2.8,1.3,2.8,2.8
			C53.6,20.4,52.3,21.7,50.8,21.7z"/>
	</g>
	<g>
		<path class="st0" d="M16.1,32c0,1.6-1.3,2.8-2.8,2.8c-1.6,0-2.8-1.3-2.8-2.8c0-1.6,1.3-2.8,2.8-2.8C14.8,29.2,16.1,30.4,16.1,32z"
			/>
		<path class="st0" d="M50.8,34.8H21.1c-1.6,0-2.8-1.3-2.8-2.8c0-1.6,1.3-2.8,2.8-2.8h29.6c1.6,0,2.8,1.3,2.8,2.8
			C53.6,33.6,52.3,34.8,50.8,34.8z"/>
	</g>
	<g>
		<path class="st0" d="M16.1,45.2c0,1.6-1.3,2.8-2.8,2.8c-1.6,0-2.8-1.3-2.8-2.8c0-1.6,1.3-2.8,2.8-2.8
			C14.8,42.3,16.1,43.6,16.1,45.2z"/>
		<path class="st0" d="M50.8,48H21.1c-1.6,0-2.8-1.3-2.8-2.8c0-1.6,1.3-2.8,2.8-2.8h29.6c1.6,0,2.8,1.3,2.8,2.8
			C53.6,46.7,52.3,48,50.8,48z"/>
	</g>
</g>
</svg>
