<?xml version="1.0" encoding="utf-8"?>
<!-- Generator: Adobe Illustrator 22.0.1, SVG Export Plug-In . SVG Version: 6.00 Build 0)  -->
<svg version="1.1" id="Layer_1" xmlns="http://www.w3.org/2000/svg" xmlns:xlink="http://www.w3.org/1999/xlink" x="0px" y="0px"
	 viewBox="0 0 64 64" style="enable-background:new 0 0 64 64;" xml:space="preserve">
<style type="text/css">
	.st0{fill:url(#SVGID_1_);}
</style>
<linearGradient id="SVGID_1_" gradientUnits="userSpaceOnUse" x1="8.5927" y1="32" x2="55.4072" y2="32">
	<stop  offset="0" style="stop-color:#6AC1B4"/>
	<stop  offset="1" style="stop-color:#78CAE6"/>
</linearGradient>
<path class="st0" d="M53.1,29.7H16.4L32.1,14c0.9-0.9,0.9-2.3,0-3.2c-0.9-0.9-2.3-0.9-3.2,0L9.3,30.4c-0.4,0.4-0.7,1-0.7,1.6
	c0,0.6,0.2,1.2,0.7,1.6l19.6,19.6c0.4,0.4,1,0.7,1.6,0.7c0.6,0,1.2-0.2,1.6-0.7c0.9-0.9,0.9-2.3,0-3.2L16.4,34.3h36.7
	c1.3,0,2.3-1,2.3-2.3C55.4,30.7,54.4,29.7,53.1,29.7z"/>
</svg>
