<?xml version="1.0" encoding="utf-8"?>
<!-- Generator: Adobe Illustrator 21.0.2, SVG Export Plug-In . SVG Version: 6.00 Build 0)  -->
<svg version="1.1" id="Layer_1" xmlns="http://www.w3.org/2000/svg" xmlns:xlink="http://www.w3.org/1999/xlink" x="0px" y="0px"
	 viewBox="0 0 40 40" style="enable-background:new 0 0 40 40;" xml:space="preserve">
<style type="text/css">
	.st0{fill:none;stroke:#414142;stroke-linecap:round;stroke-linejoin:round;stroke-miterlimit:10;}
</style>
<g>
	<path class="st0" d="M20,30.9c0,0-4.2-1.5-8.3-1.5s-6.9,1.5-6.9,1.5V10.7c0,0,2.4-1.5,6.9-1.5s8.3,1.5,8.3,1.5V30.9z"/>
	<path class="st0" d="M20,30.9c0,0,4.2-1.5,8.3-1.5s6.9,1.5,6.9,1.5V10.7c0,0-2.4-1.5-6.9-1.5S20,10.7,20,10.7V30.9z"/>
	<path class="st0" d="M7.1,15.1c0,0,2.5-0.9,5.7-0.9s5.1,1.7,5.1,1.7"/>
	<path class="st0" d="M9.2,17.7c0,0,1.5-0.4,4.1-0.4s4.6,1.4,4.6,1.4"/>
	<path class="st0" d="M7.1,21c0,0,2.5-0.9,5.7-0.9s5.1,1.7,5.1,1.7"/>
	<path class="st0" d="M9.2,23.6c0,0,1.5-0.4,4.1-0.4s4.6,1.4,4.6,1.4"/>
	<path class="st0" d="M33.3,15.1c0,0-2.5-0.9-5.7-0.9s-5.1,1.7-5.1,1.7"/>
	<path class="st0" d="M31.2,17.7c0,0-1.5-0.4-4.1-0.4s-4.6,1.4-4.6,1.4"/>
	<path class="st0" d="M33.3,21c0,0-2.5-0.9-5.7-0.9s-5.1,1.7-5.1,1.7"/>
	<path class="st0" d="M31.2,23.6c0,0-1.5-0.4-4.1-0.4s-4.6,1.4-4.6,1.4"/>
</g>
</svg>
