<?xml version="1.0" encoding="utf-8"?>
<!-- Generator: Adobe Illustrator 22.0.1, SVG Export Plug-In . SVG Version: 6.00 Build 0)  -->
<svg version="1.1" id="Layer_1" xmlns="http://www.w3.org/2000/svg" xmlns:xlink="http://www.w3.org/1999/xlink" x="0px" y="0px"
	 viewBox="0 0 50 50" style="enable-background:new 0 0 50 50;" xml:space="preserve">
<style type="text/css">
	.st0{fill:#FF3636;}
	.st1{fill:#888888;}
</style>
<polygon class="st0" points="11.5,31.5 15,18.3 34.9,18.3 38.5,30.8 38.5,42.1 11.5,42.1 "/>
<g>
	<path class="st1" d="M44.2,48c0,1.1-0.9,2-2,2H7.8c-1.1,0-2-0.9-2-2v-2.4c0-1.1,0.9-2,2-2h34.3c1.1,0,2,0.9,2,2V48z"/>
	<path class="st1" d="M25,13.7c-7.4,0-13.4,5.9-13.4,13.3v3.7v2.3v5.3v2.1v1.8h1.8h0.1h0c0-0.1,0-0.1,0-0.2v-3.7v-6v-1.9v-3.2
		c0-6.3,5.1-11.4,11.5-11.4c6.3,0,11.5,5.1,11.5,11.4v3.2v1.9v6.5h0v3.3h0.1h1.8v-1.8v-1.5v-5.9v-2.3v-3.7
		C38.4,19.6,32.4,13.7,25,13.7z"/>
	<rect x="23" y="31" class="st1" width="4" height="11.1"/>
	<path class="st1" d="M29.1,31c0,2.3-1.9,4.1-4.2,4.1c-2.3,0-4.2-1.9-4.2-4.1c0-2.3,1.9-4.1,4.2-4.1C27.3,26.9,29.1,28.7,29.1,31z"
		/>
	<path class="st1" d="M25.5,10.4c0,0.3-0.2,0.5-0.5,0.5l0,0c-0.3,0-0.5-0.2-0.5-0.5V0.5C24.4,0.2,24.7,0,25,0l0,0
		c0.3,0,0.5,0.2,0.5,0.5V10.4z"/>
	<path class="st1" d="M16,12.9c0.2,0.2,0.1,0.6-0.1,0.7l0,0c-0.2,0.2-0.6,0.1-0.8-0.1L9.5,5.4C9.3,5.1,9.4,4.8,9.7,4.6l0,0
		c0.2-0.2,0.6-0.1,0.8,0.1L16,12.9z"/>
	<path class="st1" d="M9.8,19.6c0.3,0.1,0.4,0.4,0.3,0.7l0,0c-0.1,0.3-0.5,0.4-0.7,0.3l-9.1-4.1C0,16.3-0.1,16,0.1,15.7l0,0
		c0.1-0.3,0.5-0.4,0.7-0.3L9.8,19.6z"/>
	<path class="st1" d="M34,12.9c-0.2,0.2-0.1,0.6,0.1,0.7l0,0c0.2,0.2,0.6,0.1,0.8-0.1l5.6-8.2c0.2-0.2,0.1-0.6-0.1-0.8l0,0
		c-0.2-0.2-0.6-0.1-0.8,0.1L34,12.9z"/>
	<path class="st1" d="M40.2,19.6c-0.3,0.1-0.4,0.4-0.3,0.7l0,0c0.1,0.3,0.5,0.4,0.7,0.3l9.1-4.1c0.3-0.1,0.4-0.4,0.3-0.7l0,0
		c-0.1-0.3-0.5-0.4-0.7-0.3L40.2,19.6z"/>
</g>
</svg>
