<?xml version="1.0" encoding="utf-8"?>
<!-- Generator: Adobe Illustrator 21.0.2, SVG Export Plug-In . SVG Version: 6.00 Build 0)  -->
<svg version="1.1" id="Layer_1" xmlns="http://www.w3.org/2000/svg" xmlns:xlink="http://www.w3.org/1999/xlink" x="0px" y="0px"
	 viewBox="0 0 59.1 62" style="enable-background:new 0 0 59.1 62;" xml:space="preserve">
<style type="text/css">
	.st0{fill:#FF3636;}
	.st1{fill:#303030;}
	.st2{fill:#111111;}
</style>
<rect x="11" y="44.5" class="st0" width="37" height="12.9"/>
<path class="st1" d="M29.2,7.1L29.2,7.1c-0.5,0-0.9-0.4-0.9-0.9V0.9c0-0.5,0.4-0.9,0.9-0.9h0C29.7,0,30,0.4,30,0.9v5.4
	C30,6.7,29.7,7.1,29.2,7.1z"/>
<path class="st1" d="M45.1,13.1L45.1,13.1c0.3,0.4,0.9,0.4,1.2,0.1l4.1-3.5c0.4-0.3,0.4-0.9,0.1-1.2v0c-0.3-0.4-0.9-0.4-1.2-0.1
	l-4.1,3.5C44.8,12.2,44.8,12.7,45.1,13.1z"/>
<path class="st1" d="M52.2,27.9L52.2,27.9c0.1,0.5,0.6,0.8,1.1,0.6l5.2-1.3c0.5-0.1,0.8-0.6,0.6-1.1l0,0c-0.1-0.5-0.6-0.8-1.1-0.6
	l-5.2,1.3C52.3,26.9,52,27.4,52.2,27.9z"/>
<path class="st1" d="M14,13.1L14,13.1c-0.3,0.4-0.9,0.4-1.2,0.1L8.7,9.7C8.3,9.4,8.2,8.9,8.5,8.5l0,0c0.3-0.4,0.9-0.4,1.2-0.1
	l4.1,3.5C14.3,12.2,14.3,12.7,14,13.1z"/>
<path class="st1" d="M6.9,27.9L6.9,27.9c-0.1,0.5-0.6,0.8-1.1,0.6l-5.2-1.3c-0.5-0.1-0.8-0.6-0.6-1.1l0,0c0.1-0.5,0.6-0.8,1.1-0.6
	l5.2,1.3C6.7,26.9,7,27.4,6.9,27.9z"/>
<g>
	<rect x="6.8" y="58.8" class="st1" width="45.4" height="3.2"/>
	<path class="st2" d="M29.5,59.8L29.5,59.8c-1.7,0-3.2-1.4-3.2-3.2v-15c0-1.7,1.4-3.2,3.2-3.2h0c1.7,0,3.2,1.4,3.2,3.2v15
		C32.7,58.4,31.3,59.8,29.5,59.8z"/>
	<path class="st1" d="M49.5,60.3h-40V31.4c0-11,9-20,20-20s20,9,20,20V60.3z M12.5,57.3h34V31.4c0-9.4-7.6-17-17-17s-17,7.6-17,17
		V57.3z"/>
</g>
</svg>
