<?xml version="1.0" encoding="utf-8"?>
<!-- Generator: Adobe Illustrator 21.0.2, SVG Export Plug-In . SVG Version: 6.00 Build 0)  -->
<svg version="1.1" id="Layer_1" xmlns="http://www.w3.org/2000/svg" xmlns:xlink="http://www.w3.org/1999/xlink" x="0px" y="0px"
	 viewBox="0 0 50 50" style="enable-background:new 0 0 50 50;" xml:space="preserve">
<style type="text/css">
	.st0{fill:#FFFFFF;}
</style>
<g>
	<g>
		<path class="st0" d="M25,4c11.6,0,21,9.4,21,21s-9.4,21-21,21S4,36.6,4,25S13.4,4,25,4 M25,0C11.2,0,0,11.2,0,25s11.2,25,25,25
			s25-11.2,25-25S38.8,0,25,0L25,0z"/>
	</g>
</g>
<g>
	<path class="st0" d="M33.7,36.6L13.4,16.3c-0.8-0.8-0.8-2.1,0-2.8l0,0c0.8-0.8,2.1-0.8,2.8,0l20.3,20.3c0.8,0.8,0.8,2.1,0,2.8l0,0
		C35.8,37.4,34.5,37.4,33.7,36.6z"/>
</g>
<g>
	<path class="st0" d="M13.4,33.7l20.3-20.3c0.8-0.8,2.1-0.8,2.8,0v0c0.8,0.8,0.8,2.1,0,2.8L16.3,36.6c-0.8,0.8-2.1,0.8-2.8,0h0
		C12.6,35.8,12.6,34.5,13.4,33.7z"/>
</g>
</svg>
