<?xml version="1.0" encoding="utf-8"?>
<!-- Generator: Adobe Illustrator 21.0.2, SVG Export Plug-In . SVG Version: 6.00 Build 0)  -->
<svg version="1.1" id="Layer_1" xmlns="http://www.w3.org/2000/svg" xmlns:xlink="http://www.w3.org/1999/xlink" x="0px" y="0px"
	 viewBox="0 0 15 15" style="enable-background:new 0 0 15 15;" xml:space="preserve">
<style type="text/css">
	.st0{fill:#3E3B3A;}
</style>
<g>
	<path id="XMLID_416_" class="st0" d="M7.5,14.5c-3.9,0-7-3.1-7-7c0-3.9,3.1-7,7-7c3.9,0,7,3.1,7,7C14.5,11.4,11.4,14.5,7.5,14.5z
		 M7.5,1.5c-3.3,0-6,2.7-6,6c0,3.3,2.7,6,6,6c3.3,0,6-2.7,6-6C13.5,4.2,10.8,1.5,7.5,1.5z"/>
	<g id="XMLID_5_">
		<g id="XMLID_11_">
			<path id="XMLID_17_" class="st0" d="M5.7,11.5C5.7,11.5,5.7,11.5,5.7,11.5c-0.2,0-0.4-0.2-0.5-0.4l-1.7-6
				C3.5,4.8,3.6,4.5,3.9,4.5c0.3-0.1,0.5,0.1,0.6,0.3l1.2,4.4L7,4.8c0.1-0.3,0.4-0.4,0.6-0.3C7.9,4.5,8.1,4.8,8,5.1l-1.8,6
				C6.1,11.3,5.9,11.5,5.7,11.5z"/>
			<path id="XMLID_14_" class="st0" d="M9.3,11.5c-0.2,0-0.4-0.1-0.5-0.4L7,5.1C6.9,4.8,7.1,4.5,7.4,4.5C7.6,4.4,7.9,4.5,8,4.8
				l1.3,4.4l1.2-4.4c0.1-0.3,0.4-0.4,0.6-0.3c0.3,0.1,0.4,0.3,0.3,0.6l-1.7,6C9.7,11.3,9.5,11.4,9.3,11.5
				C9.3,11.5,9.3,11.5,9.3,11.5z"/>
		</g>
		<path id="XMLID_8_" class="st0" d="M11.8,8.4H3.2c-0.3,0-0.5-0.2-0.5-0.5c0-0.3,0.2-0.5,0.5-0.5h8.6c0.3,0,0.5,0.2,0.5,0.5
			C12.3,8.2,12.1,8.4,11.8,8.4z"/>
	</g>
</g>
</svg>
