<?xml version="1.0" encoding="utf-8"?>
<!-- Generator: Adobe Illustrator 22.0.1, SVG Export Plug-In . SVG Version: 6.00 Build 0)  -->
<svg version="1.1" id="Layer_1" xmlns="http://www.w3.org/2000/svg" xmlns:xlink="http://www.w3.org/1999/xlink" x="0px" y="0px"
	 viewBox="0 0 50 50" style="enable-background:new 0 0 50 50;" xml:space="preserve">
<style type="text/css">
	.st0{fill:#FFFFFF;}
</style>
<path class="st0" d="M20.6,39.5L4.7,23.6c-1.1-1.1-1.1-2.8,0-3.8l0,0c1.1-1.1,2.8-1.1,3.8,0l15.9,15.9c1.1,1.1,1.1,2.8,0,3.8l0,0
	C23.3,40.6,21.6,40.6,20.6,39.5z"/>
<path class="st0" d="M20.6,35.7l20.9-20.9c1.1-1.1,2.8-1.1,3.8,0l0,0c1.1,1.1,1.1,2.8,0,3.8L24.4,39.5c-1.1,1.1-2.8,1.1-3.8,0l0,0
	C19.5,38.5,19.5,36.8,20.6,35.7z"/>
</svg>
