<?xml version="1.0" encoding="utf-8"?>
<!-- Generator: Adobe Illustrator 22.0.0, SVG Export Plug-In . SVG Version: 6.00 Build 0)  -->
<svg version="1.1" id="Layer_1" xmlns="http://www.w3.org/2000/svg" xmlns:xlink="http://www.w3.org/1999/xlink" x="0px" y="0px"
	 viewBox="0 0 40 40" style="enable-background:new 0 0 40 40;" xml:space="preserve">
<style type="text/css">
	.st0{fill:#414142;}
</style>
<g>
	<path class="st0" d="M5.6,31.4c-0.2,0.2-0.2,0.5,0,0.7L8,34.4c0.1,0.1,0.2,0.1,0.3,0.1s0.2,0,0.3-0.1L11,32
		c0.1-0.1,0.1-0.2,0.1-0.3c0-0.1,0-0.2-0.1-0.3L8.6,29c-0.2-0.2-0.5-0.2-0.7,0L5.6,31.4z M8.3,30l1.7,1.7l-1.7,1.7l-1.7-1.7L8.3,30z
		"/>
	<path class="st0" d="M32,3.9l-9.8,9.8c-0.5-0.1-0.9-0.2-1.4-0.2c-1.5,0-3,0.6-4,1.7c-1.1,1.1-1.7,2.5-1.7,4c0,0.5,0.1,0.9,0.2,1.4
		l-6.7,6.7c-0.4-0.1-0.9,0-1.3,0.3l-3.2,3.2c-0.5,0.5-0.5,1.4,0,1.9l3.2,3.2c0.3,0.3,0.6,0.4,0.9,0.4c0.4,0,0.7-0.1,0.9-0.4l3.2-3.2
		c0.3-0.3,0.4-0.6,0.4-0.9c0-0.1,0-0.2-0.1-0.3l6.7-6.7c1.9,0.5,4,0,5.4-1.5c1.1-1.1,1.7-2.5,1.7-4c0-0.5-0.1-0.9-0.2-1.4L36.1,8
		c0.1-0.1,0.1-0.2,0.1-0.3v0l-0.1-3.4c0-0.3-0.2-0.5-0.5-0.5l-3.4-0.1C32.2,3.8,32,3.8,32,3.9z M9.4,27.8l6.2-6.2
		c0.3,0.6,0.7,1.2,1.1,1.7c0.5,0.5,1.1,0.9,1.7,1.1l-6.2,6.2L9.4,27.8z M8.6,28.3l3.2,3.2c0.1,0.2,0.1,0.4,0,0.6l-3.2,3.2
		c-0.1,0.1-0.2,0.1-0.3,0.1s-0.2,0-0.3-0.1L4.8,32c-0.1-0.1-0.1-0.2-0.1-0.3s0-0.2,0.1-0.3L8,28.3C8.2,28.1,8.4,28.1,8.6,28.3z
		 M17.4,22.6c-0.9-0.9-1.4-2.1-1.4-3.4c0-1.3,0.5-2.5,1.4-3.4c1.9-1.9,4.9-1.9,6.8,0c1.9,1.9,1.9,4.9,0,6.8
		C22.3,24.5,19.3,24.5,17.4,22.6z M24.8,15.2c-0.5-0.5-1.1-0.9-1.7-1.1l9.3-9.3l2.8,0.1l0.1,2.8L26,16.8
		C25.7,16.2,25.3,15.7,24.8,15.2z"/>
	<path class="st0" d="M33.5,7c0-0.1,0-0.3-0.1-0.4c-0.2-0.2-0.5-0.2-0.7,0c-0.2,0.2-0.2,0.5,0,0.7c0.2,0.2,0.5,0.2,0.7,0
		C33.4,7.3,33.5,7.2,33.5,7z"/>
	<path class="st0" d="M30.8,9.2c0.2,0.2,0.5,0.2,0.7,0c0.1-0.1,0.1-0.2,0.1-0.4s0-0.3-0.1-0.4c-0.2-0.2-0.5-0.2-0.7,0
		C30.6,8.7,30.6,9,30.8,9.2z"/>
	<path class="st0" d="M29,11c0.1,0.1,0.2,0.1,0.4,0.1c0.1,0,0.3-0.1,0.4-0.1c0.1-0.1,0.1-0.2,0.1-0.4c0-0.1,0-0.3-0.1-0.4
		c-0.1-0.1-0.2-0.1-0.4-0.1c-0.1,0-0.3,0.1-0.4,0.1C28.8,10.5,28.8,10.8,29,11z"/>
	<path class="st0" d="M22.6,18c0.1-0.1,0.1-0.2,0.1-0.3s0-0.2-0.1-0.3c-0.2-0.2-0.5-0.2-0.7,0l-1.2,1.2l-1.7-1.7
		c-0.2-0.2-0.5-0.2-0.7,0c-0.2,0.2-0.2,0.5,0,0.7l2,2c0.1,0.1,0.2,0.1,0.3,0.1c0.1,0,0.2,0,0.3-0.1L22.6,18z"/>
</g>
</svg>
