<?xml version="1.0" encoding="utf-8"?>
<!-- Generator: Adobe Illustrator 21.0.2, SVG Export Plug-In . SVG Version: 6.00 Build 0)  -->
<svg version="1.1" id="_x3C_Layer_x3E_" xmlns="http://www.w3.org/2000/svg" xmlns:xlink="http://www.w3.org/1999/xlink" x="0px"
	 y="0px" viewBox="0 0 20 20" style="enable-background:new 0 0 20 20;" xml:space="preserve">
<style type="text/css">
	.st0{fill:#FFFFFF;}
	.st1{opacity:0.5;}
</style>
<path class="st0" d="M18.1,6c-1.2-5-6.6-3-8.1,0.9C8.5,3,3.1,1,1.9,6C0.6,11.4,10,17,10,17s0,0,0.1,0C10.1,17,19.4,11.4,18.1,6z"/>
<path class="st1" d="M14.9,3c1.4,0,2.6,0.9,3.2,3c1.3,5.4-8,11-8,11C10,17,10,17,10,17S0.6,11.4,1.9,6c0.5-2.1,1.8-3,3.2-3
	C7,3,9.1,4.6,10,6.9C10.9,4.6,13,3,14.9,3 M14.9,2.5c-1.9,0-3.8,1.3-4.9,3.2C8.9,3.9,6.9,2.5,5.1,2.5c-1.8,0-3.1,1.2-3.6,3.4
	C0,11.6,9.3,17.2,9.7,17.4l0.1,0.1l0.1,0.1h0.1l0.1-0.1l0.1-0.1c0.4-0.2,9.6-5.9,8.2-11.5C18.1,3.8,16.7,2.5,14.9,2.5L14.9,2.5z"/>
</svg>
