<?xml version="1.0" encoding="utf-8"?>
<!-- Generator: Adobe Illustrator 22.0.1, SVG Export Plug-In . SVG Version: 6.00 Build 0)  -->
<svg version="1.1" id="_x3C_Layer_x3E_" xmlns="http://www.w3.org/2000/svg" xmlns:xlink="http://www.w3.org/1999/xlink" x="0px"
	 y="0px" viewBox="0 0 20 20" style="enable-background:new 0 0 20 20;" xml:space="preserve">
<style type="text/css">
	.st0{filter:url(#Adobe_OpacityMaskFilter);}
	.st1{mask:url(#SVGID_1_);}
	.st2{fill:#9E9E9F;}
	.st3{fill:#FFFFFF;}
</style>
<g>
	<g>
		<defs>
			<filter id="Adobe_OpacityMaskFilter" filterUnits="userSpaceOnUse" x="1" y="3.5" width="18.6" height="16.1">
				<feFlood  style="flood-color:white;flood-opacity:1" result="back"/>
				<feBlend  in="SourceGraphic" in2="back" mode="normal"/>
			</filter>
		</defs>
		<mask maskUnits="userSpaceOnUse" x="1" y="3.5" width="18.6" height="16.1" id="SVGID_1_">
			<g class="st0">
				<image style="overflow:visible;" width="24" height="21" xlink:href="22181CFC.jpg"  transform="matrix(1 0 0 1 -2 1)">
				</image>
			</g>
		</mask>
		<g class="st1">
			<path class="st2" d="M10.3,19.5c0,0,4.5-3.4,6.7-5.9c2.2-2.5,2.6-4.5,2.6-5.5s-0.1-4.6-3.7-4.6c-3.6,0-5.6,4.4-5.6,4.4
				s-2-4.4-5.6-4.4C1.1,3.5,1,7.1,1,8.1s0.4,3,2.6,5.5C5.8,16.1,10.3,19.5,10.3,19.5z"/>
		</g>
	</g>
	<path class="st3" d="M9.7,18.5c0,0,4.5-3.4,6.7-5.9c2.2-2.5,2.6-4.5,2.6-5.5s-0.1-4.6-3.7-4.6c-3.6,0-5.6,4.4-5.6,4.4
		s-2-4.4-5.6-4.4c-3.6,0-3.7,3.6-3.7,4.6s0.4,3,2.6,5.5C5.2,15.1,9.7,18.5,9.7,18.5z"/>
</g>
</svg>
