<?xml version="1.0" encoding="utf-8"?>
<!-- Generator: Adobe Illustrator 21.0.2, SVG Export Plug-In . SVG Version: 6.00 Build 0)  -->
<svg version="1.1" id="Layer_1" xmlns="http://www.w3.org/2000/svg" xmlns:xlink="http://www.w3.org/1999/xlink" x="0px" y="0px"
	 viewBox="0 0 80 80" style="enable-background:new 0 0 80 80;" xml:space="preserve">
<style type="text/css">
	.st0{fill:#FFE700;}
</style>
<path class="st0" d="M40.1,65.1c-8.9,0-17.3-4.8-21.8-12.6c-2-3.4-3.1-7.1-3.3-11c-0.1-1.9,1.4-3.6,3.3-3.7c1.9-0.1,3.6,1.4,3.7,3.3
	c0.2,2.8,1,5.5,2.4,8c3.2,5.6,9.2,9.1,15.7,9.1c2.8,0,5.4-0.6,7.9-1.8c1.7-0.8,3.8-0.1,4.7,1.6c0.8,1.7,0.1,3.8-1.6,4.7
	C47.6,64.3,43.9,65.1,40.1,65.1z M61.5,40.7c-1.7,0-3.2-1.3-3.5-3c-0.3-2.4-1.1-4.6-2.3-6.7c-3.2-5.6-9.2-9.1-15.7-9.1
	c-3.2,0-6.3,0.8-9,2.4c-1.7,1-3.8,0.4-4.8-1.3c-1-1.7-0.4-3.8,1.3-4.8c3.8-2.2,8.1-3.4,12.5-3.4c8.9,0,17.3,4.8,21.8,12.6
	c1.7,2.9,2.7,6,3.2,9.3c0.3,1.9-1.1,3.7-3,3.9C61.8,40.7,61.6,40.7,61.5,40.7z"/>
</svg>
