<?xml version="1.0" encoding="utf-8"?>
<!-- Generator: Adobe Illustrator 21.0.2, SVG Export Plug-In . SVG Version: 6.00 Build 0)  -->
<svg version="1.1" id="Layer_1" xmlns="http://www.w3.org/2000/svg" xmlns:xlink="http://www.w3.org/1999/xlink" x="0px" y="0px"
	 viewBox="0 0 172 166.3" style="enable-background:new 0 0 172 166.3;" xml:space="preserve">
<g>
	<g>
		<path d="M82.9,0L71.2,87.4H88l-1.6,12.1H69.6l-3.5,25.9H54.2l3.5-25.9H4L80,0H82.9z M66,38.5L28.5,87.4h30.9L66,38.5z"/>
		<path d="M147.7,59.4c5.9,3,10.3,6.5,13.1,10.4c3.9,5.4,5.9,11.6,5.9,18.5c0,7.2-1.9,13.9-5.6,20.1c-3.7,6.3-8.9,11.2-15.6,14.7
			s-14.1,5.3-22.2,5.3c-10.7,0-19.6-3.3-26.6-10c-7-6.7-10.6-14.6-10.6-23.9c0-7.6,2.2-14.6,6.7-21c4.5-6.3,11.3-11.6,20.7-15.9
			c-5.1-3.4-8.7-7-10.9-10.8c-2.1-3.7-3.2-7.9-3.2-12.3c0-9.1,3.7-17.2,11.2-24.2c7.5-7,16.4-10.5,26.9-10.5
			c9.1,0,16.6,2.9,22.7,8.7c6,5.8,9,12.8,9,21c0,6.3-1.8,11.9-5.4,16.8C160.3,51.4,154.9,55.7,147.7,59.4z M130.7,64.9
			c-8.5,0-16,2.7-22.4,8.1c-6.5,5.4-9.7,12.5-9.7,21.3c0,6.6,2.3,12,7,16.3c4.7,4.3,10.7,6.4,18.2,6.4c5.7,0,10.9-1.3,15.8-3.8
			c4.9-2.5,8.7-6,11.4-10.5c2.7-4.5,4.1-9.1,4.1-13.9c0-6.8-2.3-12.5-6.9-17.1C143.4,67.3,137.6,64.9,130.7,64.9z M137.2,12
			c-7.1,0-13.2,2.3-18.1,6.8c-4.9,4.5-7.4,9.7-7.4,15.7c0,5.3,1.9,9.7,5.7,13.2c3.8,3.5,8.9,5.2,15.1,5.2c6.8,0,12.5-2.3,17.2-6.8
			c4.7-4.5,7.1-9.8,7.1-15.8c0-5-1.9-9.3-5.6-12.9S142.8,12,137.2,12z"/>
	</g>
	<g>
		<path d="M0,148.4h1.4v12.7h5.4v1.4H0V148.4z"/>
		<path d="M18.5,159l1.1,0.6c-0.4,0.7-0.8,1.3-1.3,1.8c-0.5,0.4-1,0.8-1.6,1c-0.6,0.2-1.3,0.3-2.1,0.3c-1.7,0-3-0.6-4-1.7
			c-1-1.1-1.4-2.4-1.4-3.8c0-1.3,0.4-2.5,1.2-3.5c1-1.3,2.4-2,4.1-2c1.8,0,3.2,0.7,4.2,2c0.8,0.9,1.1,2.1,1.1,3.5h-9.3
			c0,1.2,0.4,2.2,1.2,3s1.7,1.2,2.8,1.2c0.5,0,1-0.1,1.5-0.3c0.5-0.2,0.9-0.4,1.3-0.7C17.7,160.2,18.1,159.7,18.5,159z M18.5,156.2
			c-0.2-0.7-0.4-1.3-0.8-1.7c-0.3-0.4-0.8-0.8-1.4-1c-0.6-0.3-1.1-0.4-1.8-0.4c-1,0-1.9,0.3-2.6,1c-0.5,0.5-0.9,1.2-1.2,2.1H18.5z"
			/>
		<path d="M24.6,148.2H26v3.9h2.1v1.2H26v9.2h-1.3v-9.2h-1.8v-1.2h1.8V148.2z"/>
		<path d="M32,152.5h-1l-0.2-4.4h1.4L32,152.5z"/>
		<path d="M41.1,153.2l-0.9,0.9c-0.7-0.7-1.4-1-2.1-1c-0.4,0-0.8,0.1-1.1,0.4c-0.3,0.3-0.5,0.6-0.5,1c0,0.3,0.1,0.7,0.4,1
			c0.3,0.3,0.8,0.7,1.6,1.1c1,0.5,1.7,1,2,1.5c0.4,0.5,0.5,1,0.5,1.6c0,0.9-0.3,1.6-0.9,2.2c-0.6,0.6-1.3,0.9-2.2,0.9
			c-0.6,0-1.2-0.1-1.7-0.4c-0.5-0.3-1-0.6-1.4-1.1l0.8-1c0.7,0.8,1.4,1.2,2.2,1.2c0.5,0,1-0.2,1.4-0.5c0.4-0.3,0.6-0.7,0.6-1.2
			c0-0.4-0.1-0.7-0.4-1c-0.2-0.3-0.8-0.7-1.7-1.1c-0.9-0.5-1.6-1-1.9-1.4c-0.3-0.5-0.5-1-0.5-1.6c0-0.8,0.3-1.4,0.8-2
			c0.5-0.5,1.2-0.8,2-0.8C39.2,151.8,40.2,152.3,41.1,153.2z"/>
		<path d="M52,148.2h1.3v3.9h2.1v1.2h-2.1v9.2H52v-9.2h-1.8v-1.2H52V148.2z"/>
		<path d="M57.9,152.1h1.4v1.5c0.4-0.6,0.8-1,1.3-1.3c0.5-0.3,0.9-0.4,1.4-0.4c0.4,0,0.8,0.1,1.2,0.4l-0.7,1.1
			c-0.3-0.1-0.5-0.2-0.7-0.2c-0.4,0-0.9,0.2-1.3,0.5c-0.4,0.4-0.7,0.9-0.9,1.7c-0.2,0.6-0.2,1.8-0.2,3.6v3.5h-1.4V152.1z"/>
		<path d="M75.6,152.1v10.4h-1.3v-1.8c-0.6,0.7-1.2,1.2-1.9,1.5c-0.7,0.3-1.5,0.5-2.3,0.5c-1.5,0-2.7-0.5-3.8-1.6
			c-1-1.1-1.6-2.4-1.6-3.9c0-1.5,0.5-2.8,1.6-3.8c1-1.1,2.3-1.6,3.8-1.6c0.9,0,1.6,0.2,2.3,0.5c0.7,0.4,1.3,0.9,1.8,1.6v-1.9H75.6z
			 M70.3,153.1c-0.7,0-1.4,0.2-2.1,0.5c-0.6,0.4-1.1,0.9-1.5,1.5c-0.4,0.7-0.6,1.4-0.6,2.1c0,0.7,0.2,1.4,0.6,2.1
			c0.4,0.7,0.9,1.2,1.5,1.6c0.6,0.4,1.3,0.6,2,0.6c0.7,0,1.4-0.2,2.1-0.6c0.7-0.4,1.2-0.9,1.5-1.5c0.4-0.6,0.5-1.3,0.5-2.1
			c0-1.2-0.4-2.2-1.2-3C72.4,153.5,71.5,153.1,70.3,153.1z"/>
		<path d="M90,148.1v14.4h-1.3v-1.8c-0.6,0.7-1.2,1.2-1.9,1.5c-0.7,0.3-1.5,0.5-2.3,0.5c-1.5,0-2.7-0.5-3.8-1.6
			c-1-1.1-1.6-2.4-1.6-3.9c0-1.5,0.5-2.8,1.6-3.8c1-1.1,2.3-1.6,3.8-1.6c0.9,0,1.6,0.2,2.3,0.5c0.7,0.4,1.3,0.9,1.8,1.6v-5.9H90z
			 M84.7,153.1c-0.7,0-1.4,0.2-2.1,0.5c-0.6,0.4-1.1,0.9-1.5,1.5c-0.4,0.7-0.6,1.4-0.6,2.1c0,0.7,0.2,1.4,0.6,2.1
			c0.4,0.7,0.9,1.2,1.5,1.6c0.6,0.4,1.3,0.6,2,0.6c0.7,0,1.4-0.2,2.1-0.6c0.7-0.4,1.2-0.9,1.5-1.5c0.4-0.6,0.5-1.3,0.5-2.1
			c0-1.2-0.4-2.2-1.2-3C86.8,153.5,85.8,153.1,84.7,153.1z"/>
		<path d="M102.7,159l1.1,0.6c-0.4,0.7-0.8,1.3-1.3,1.8c-0.5,0.4-1,0.8-1.6,1c-0.6,0.2-1.3,0.3-2.1,0.3c-1.7,0-3-0.6-4-1.7
			c-1-1.1-1.4-2.4-1.4-3.8c0-1.3,0.4-2.5,1.2-3.5c1-1.3,2.4-2,4.1-2c1.8,0,3.2,0.7,4.2,2c0.8,0.9,1.1,2.1,1.1,3.5h-9.3
			c0,1.2,0.4,2.2,1.2,3c0.7,0.8,1.7,1.2,2.8,1.2c0.5,0,1-0.1,1.5-0.3c0.5-0.2,0.9-0.4,1.3-0.7C101.9,160.2,102.3,159.7,102.7,159z
			 M102.7,156.2c-0.2-0.7-0.4-1.3-0.8-1.7c-0.3-0.4-0.8-0.8-1.4-1c-0.6-0.3-1.2-0.4-1.8-0.4c-1,0-1.9,0.3-2.6,1
			c-0.5,0.5-0.9,1.2-1.2,2.1H102.7z"/>
		<path d="M124.3,158h-8.4c0.1,0.7,0.4,1.3,1,1.8c0.5,0.4,1.2,0.7,2,0.7c1,0,1.8-0.3,2.5-1l2.2,1c-0.5,0.8-1.2,1.4-2,1.7
			c-0.8,0.4-1.7,0.6-2.7,0.6c-1.6,0-3-0.5-4-1.5c-1-1-1.5-2.3-1.5-3.9c0-1.6,0.5-2.9,1.5-3.9c1-1,2.3-1.6,3.8-1.6c1.6,0,3,0.5,4,1.6
			c1,1,1.5,2.4,1.5,4.1L124.3,158z M121.7,156c-0.2-0.6-0.5-1-1-1.4c-0.5-0.4-1.1-0.5-1.8-0.5c-0.7,0-1.4,0.2-1.9,0.6
			c-0.3,0.3-0.7,0.7-1,1.3H121.7z"/>
		<path d="M135,152.1h2.6v10.4H135v-1.1c-0.5,0.5-1,0.8-1.5,1c-0.5,0.2-1.1,0.3-1.7,0.3c-1.3,0-2.5-0.5-3.5-1.6
			c-1-1-1.5-2.3-1.5-3.9c0-1.6,0.5-2.9,1.4-3.9c0.9-1,2.1-1.5,3.5-1.5c0.6,0,1.2,0.1,1.8,0.4c0.5,0.2,1.1,0.6,1.5,1.1V152.1z
			 M132.3,154.2c-0.8,0-1.5,0.3-2,0.9c-0.5,0.6-0.8,1.3-0.8,2.2c0,0.9,0.3,1.6,0.8,2.2c0.5,0.6,1.2,0.9,2,0.9c0.8,0,1.5-0.3,2-0.9
			s0.8-1.3,0.8-2.2c0-0.9-0.3-1.6-0.8-2.2S133.1,154.2,132.3,154.2z"/>
		<path d="M147.6,153.5l-1.6,1.6c-0.7-0.6-1.3-1-1.8-1c-0.3,0-0.5,0.1-0.7,0.2c-0.2,0.1-0.2,0.3-0.2,0.5c0,0.1,0.1,0.3,0.2,0.4
			c0.1,0.1,0.4,0.3,0.8,0.5l1,0.5c1,0.5,1.7,1,2.1,1.5c0.4,0.5,0.6,1.1,0.6,1.8c0,0.9-0.3,1.7-1,2.3c-0.7,0.6-1.6,0.9-2.7,0.9
			c-1.5,0-2.7-0.6-3.6-1.8l1.6-1.7c0.3,0.4,0.7,0.6,1.1,0.9c0.4,0.2,0.8,0.3,1.1,0.3c0.3,0,0.6-0.1,0.8-0.2c0.2-0.2,0.3-0.4,0.3-0.6
			c0-0.4-0.4-0.8-1.1-1.2l-0.9-0.4c-1.7-0.8-2.5-1.9-2.5-3.2c0-0.8,0.3-1.5,0.9-2.1c0.6-0.6,1.4-0.9,2.4-0.9c0.7,0,1.3,0.1,1.9,0.4
			C146.7,152.5,147.2,153,147.6,153.5z"/>
		<path d="M151.8,147.8c0.5,0,0.8,0.2,1.2,0.5c0.3,0.3,0.5,0.7,0.5,1.2c0,0.5-0.2,0.9-0.5,1.2c-0.3,0.3-0.7,0.5-1.2,0.5
			c-0.5,0-0.9-0.2-1.2-0.5c-0.3-0.3-0.5-0.7-0.5-1.2c0-0.5,0.2-0.8,0.5-1.2C151,148,151.4,147.8,151.8,147.8z M150.5,152.1h2.6v10.4
			h-2.6V152.1z"/>
		<path d="M156.2,148.1h2.6v14.4h-2.6V148.1z"/>
		<path d="M161,152.1h2.7l2.7,6.5l3-6.5h2.7l-6.5,14.2h-2.7l2.1-4.6L161,152.1z"/>
	</g>
</g>
</svg>
