<?xml version="1.0" encoding="utf-8"?>
<!-- Generator: Adobe Illustrator 22.0.1, SVG Export Plug-In . SVG Version: 6.00 Build 0)  -->
<svg version="1.1" id="Layer_1" xmlns="http://www.w3.org/2000/svg" xmlns:xlink="http://www.w3.org/1999/xlink" x="0px" y="0px"
	 viewBox="0 0 182 182" style="enable-background:new 0 0 182 182;" xml:space="preserve">
<style type="text/css">
	.st0{fill:#231F20;}
</style>
<g>
	<g>
		<path class="st0" d="M87.5,7.1L75.7,94.6h16.9L91,106.7H74.1l-3.5,26H58.7l3.5-26H8.4L84.6,7.1H87.5z M70.5,45.6l-37.6,49h30.9
			L70.5,45.6z"/>
		<path class="st0" d="M152.3,66.5c5.9,3.1,10.3,6.5,13.2,10.4c3.9,5.4,5.9,11.6,5.9,18.6c0,7.2-1.9,13.9-5.6,20.2
			c-3.7,6.3-9,11.2-15.6,14.7s-14.1,5.3-22.2,5.3c-10.7,0-19.6-3.3-26.7-10c-7.1-6.7-10.6-14.6-10.6-23.9c0-7.7,2.2-14.7,6.7-21
			c4.5-6.3,11.4-11.6,20.7-15.9c-5.1-3.4-8.7-7-10.9-10.8c-2.1-3.7-3.2-7.9-3.2-12.4c0-9.2,3.7-17.2,11.2-24.2
			c7.5-7,16.5-10.5,26.9-10.5c9.1,0,16.7,2.9,22.7,8.7c6,5.8,9,12.8,9,21c0,6.3-1.8,11.9-5.4,16.8C165,58.6,159.6,62.9,152.3,66.5z
			 M135.4,72.1c-8.5,0-16,2.7-22.5,8.2c-6.5,5.4-9.7,12.5-9.7,21.3c0,6.6,2.3,12.1,7,16.4c4.7,4.3,10.7,6.5,18.2,6.5
			c5.7,0,10.9-1.3,15.8-3.8c4.9-2.5,8.7-6,11.4-10.5s4.1-9.1,4.1-13.9c0-6.8-2.3-12.5-7-17.1C148.1,74.4,142.3,72.1,135.4,72.1z
			 M141.9,19.1c-7.2,0-13.2,2.3-18.2,6.8c-4.9,4.5-7.4,9.8-7.4,15.7c0,5.3,1.9,9.7,5.7,13.2c3.8,3.5,8.9,5.2,15.2,5.2
			c6.8,0,12.5-2.3,17.2-6.8c4.7-4.5,7.1-9.8,7.1-15.9c0-5.1-1.9-9.4-5.6-12.9S147.5,19.1,141.9,19.1z"/>
	</g>
	<g>
		<path class="st0" d="M4.4,155.8h1.4v12.7h5.4v1.4H4.4V155.8z"/>
		<path class="st0" d="M23,166.4l1.1,0.6c-0.4,0.7-0.8,1.3-1.3,1.8c-0.5,0.4-1,0.8-1.6,1c-0.6,0.2-1.3,0.3-2.1,0.3
			c-1.7,0-3-0.6-4-1.7c-1-1.1-1.4-2.4-1.4-3.8c0-1.3,0.4-2.5,1.2-3.5c1-1.3,2.4-2,4.1-2c1.8,0,3.2,0.7,4.2,2
			c0.8,0.9,1.1,2.1,1.1,3.6h-9.4c0,1.2,0.4,2.2,1.2,3s1.7,1.2,2.8,1.2c0.5,0,1-0.1,1.5-0.3c0.5-0.2,0.9-0.4,1.3-0.7
			S22.6,167,23,166.4z M23,163.6c-0.2-0.7-0.4-1.3-0.8-1.7s-0.8-0.8-1.4-1s-1.2-0.4-1.8-0.4c-1,0-1.9,0.3-2.6,1
			c-0.5,0.5-0.9,1.2-1.2,2.2H23z"/>
		<path class="st0" d="M29.1,155.6h1.3v3.9h2.1v1.2h-2.1v9.2h-1.3v-9.2h-1.8v-1.2h1.8V155.6z"/>
		<path class="st0" d="M36.5,159.8h-1l-0.2-4.4h1.4L36.5,159.8z"/>
		<path class="st0" d="M45.6,160.6l-0.9,0.9c-0.7-0.7-1.4-1-2.1-1c-0.4,0-0.8,0.1-1.1,0.4c-0.3,0.3-0.5,0.6-0.5,1
			c0,0.3,0.1,0.7,0.4,1c0.3,0.3,0.8,0.7,1.6,1.1c1,0.5,1.7,1,2,1.5c0.4,0.5,0.5,1,0.5,1.6c0,0.9-0.3,1.6-0.9,2.2
			c-0.6,0.6-1.3,0.9-2.2,0.9c-0.6,0-1.2-0.1-1.7-0.4c-0.5-0.3-1-0.6-1.4-1.1l0.8-1c0.7,0.8,1.4,1.2,2.2,1.2c0.5,0,1-0.2,1.4-0.5
			c0.4-0.3,0.6-0.7,0.6-1.2c0-0.4-0.1-0.7-0.4-1c-0.2-0.3-0.8-0.7-1.7-1.1c-0.9-0.5-1.6-1-1.9-1.4c-0.3-0.5-0.5-1-0.5-1.6
			c0-0.8,0.3-1.4,0.8-2c0.5-0.5,1.2-0.8,2-0.8C43.7,159.1,44.6,159.6,45.6,160.6z"/>
		<path class="st0" d="M56.5,155.6h1.3v3.9H60v1.2h-2.1v9.2h-1.3v-9.2h-1.8v-1.2h1.8V155.6z"/>
		<path class="st0" d="M62.5,159.4h1.4v1.5c0.4-0.6,0.8-1,1.3-1.3c0.5-0.3,0.9-0.4,1.4-0.4c0.4,0,0.8,0.1,1.2,0.4l-0.7,1.1
			c-0.3-0.1-0.5-0.2-0.7-0.2c-0.4,0-0.9,0.2-1.3,0.5c-0.4,0.4-0.7,0.9-0.9,1.7c-0.2,0.6-0.2,1.8-0.2,3.6v3.5h-1.4V159.4z"/>
		<path class="st0" d="M80.2,159.4v10.4h-1.3V168c-0.6,0.7-1.2,1.2-1.9,1.5s-1.5,0.5-2.3,0.5c-1.5,0-2.7-0.5-3.8-1.6
			c-1-1.1-1.6-2.4-1.6-3.9c0-1.5,0.5-2.8,1.6-3.8c1.1-1.1,2.3-1.6,3.8-1.6c0.9,0,1.6,0.2,2.3,0.5s1.3,0.9,1.8,1.6v-1.9H80.2z
			 M74.8,160.4c-0.7,0-1.4,0.2-2.1,0.5c-0.6,0.4-1.1,0.9-1.5,1.5c-0.4,0.7-0.6,1.4-0.6,2.1c0,0.7,0.2,1.4,0.6,2.1s0.9,1.2,1.5,1.6
			s1.3,0.6,2,0.6c0.7,0,1.4-0.2,2.1-0.6c0.7-0.4,1.2-0.9,1.5-1.5c0.4-0.6,0.5-1.3,0.5-2.1c0-1.2-0.4-2.2-1.2-3
			C77,160.8,76,160.4,74.8,160.4z"/>
		<path class="st0" d="M94.6,155.4v14.4h-1.3V168c-0.6,0.7-1.2,1.2-1.9,1.5s-1.5,0.5-2.3,0.5c-1.5,0-2.7-0.5-3.8-1.6
			c-1-1.1-1.6-2.4-1.6-3.9c0-1.5,0.5-2.8,1.6-3.8c1.1-1.1,2.3-1.6,3.8-1.6c0.9,0,1.6,0.2,2.3,0.5s1.3,0.9,1.8,1.6v-5.9H94.6z
			 M89.2,160.4c-0.7,0-1.4,0.2-2.1,0.5c-0.6,0.4-1.1,0.9-1.5,1.5c-0.4,0.7-0.6,1.4-0.6,2.1c0,0.7,0.2,1.4,0.6,2.1s0.9,1.2,1.5,1.6
			s1.3,0.6,2,0.6c0.7,0,1.4-0.2,2.1-0.6c0.7-0.4,1.2-0.9,1.5-1.5c0.4-0.6,0.5-1.3,0.5-2.1c0-1.2-0.4-2.2-1.2-3
			C91.4,160.8,90.4,160.4,89.2,160.4z"/>
		<path class="st0" d="M107.3,166.4l1.1,0.6c-0.4,0.7-0.8,1.3-1.3,1.8c-0.5,0.4-1,0.8-1.6,1c-0.6,0.2-1.3,0.3-2.1,0.3
			c-1.7,0-3-0.6-4-1.7c-1-1.1-1.4-2.4-1.4-3.8c0-1.3,0.4-2.5,1.2-3.5c1-1.3,2.4-2,4.1-2c1.8,0,3.2,0.7,4.2,2
			c0.8,0.9,1.1,2.1,1.1,3.6h-9.4c0,1.2,0.4,2.2,1.2,3c0.7,0.8,1.7,1.2,2.8,1.2c0.5,0,1-0.1,1.5-0.3c0.5-0.2,0.9-0.4,1.3-0.7
			C106.5,167.5,106.9,167,107.3,166.4z M107.3,163.6c-0.2-0.7-0.4-1.3-0.8-1.7c-0.3-0.4-0.8-0.8-1.4-1s-1.2-0.4-1.8-0.4
			c-1,0-1.9,0.3-2.6,1c-0.5,0.5-0.9,1.2-1.2,2.2H107.3z"/>
		<path class="st0" d="M128.9,165.4h-8.4c0.1,0.7,0.4,1.3,1,1.8s1.2,0.7,2,0.7c1,0,1.8-0.3,2.5-1l2.2,1c-0.5,0.8-1.2,1.4-2,1.7
			c-0.8,0.4-1.7,0.6-2.7,0.6c-1.6,0-3-0.5-4-1.5c-1-1-1.5-2.3-1.5-3.9c0-1.6,0.5-2.9,1.5-4c1-1,2.3-1.6,3.8-1.6c1.6,0,3,0.5,4,1.6
			c1,1,1.5,2.4,1.5,4.2L128.9,165.4z M126.3,163.3c-0.2-0.6-0.5-1.1-1-1.4s-1.1-0.5-1.8-0.5c-0.7,0-1.4,0.2-1.9,0.6
			c-0.3,0.3-0.7,0.7-1,1.3H126.3z"/>
		<path class="st0" d="M139.7,159.4h2.6v10.4h-2.6v-1.1c-0.5,0.5-1,0.8-1.5,1c-0.5,0.2-1.1,0.3-1.7,0.3c-1.3,0-2.5-0.5-3.5-1.6
			c-1-1-1.5-2.3-1.5-3.9c0-1.6,0.5-2.9,1.4-3.9c0.9-1,2.1-1.5,3.5-1.5c0.6,0,1.2,0.1,1.8,0.4c0.5,0.2,1.1,0.6,1.5,1.1V159.4z
			 M136.9,161.6c-0.8,0-1.5,0.3-2,0.9c-0.5,0.6-0.8,1.3-0.8,2.2c0,0.9,0.3,1.6,0.8,2.2c0.5,0.6,1.2,0.9,2,0.9c0.8,0,1.5-0.3,2-0.9
			s0.8-1.3,0.8-2.2c0-0.9-0.3-1.6-0.8-2.2S137.8,161.6,136.9,161.6z"/>
		<path class="st0" d="M152.3,160.9l-1.6,1.6c-0.7-0.6-1.3-1-1.8-1c-0.3,0-0.5,0.1-0.7,0.2c-0.2,0.1-0.2,0.3-0.2,0.5
			c0,0.1,0.1,0.3,0.2,0.4c0.1,0.1,0.4,0.3,0.8,0.5l1,0.5c1,0.5,1.7,1,2.1,1.5s0.6,1.1,0.6,1.8c0,0.9-0.3,1.7-1,2.3
			c-0.7,0.6-1.6,0.9-2.7,0.9c-1.5,0-2.7-0.6-3.6-1.8l1.6-1.7c0.3,0.4,0.7,0.6,1.1,0.9s0.8,0.3,1.1,0.3c0.3,0,0.6-0.1,0.8-0.2
			c0.2-0.2,0.3-0.4,0.3-0.6c0-0.4-0.4-0.8-1.1-1.2l-0.9-0.4c-1.7-0.8-2.5-1.9-2.5-3.2c0-0.8,0.3-1.5,1-2.1c0.6-0.6,1.4-0.9,2.4-0.9
			c0.7,0,1.3,0.1,1.9,0.4C151.4,159.9,151.9,160.3,152.3,160.9z"/>
		<path class="st0" d="M156.5,155.1c0.5,0,0.8,0.2,1.2,0.5s0.5,0.7,0.5,1.2c0,0.5-0.2,0.9-0.5,1.2s-0.7,0.5-1.2,0.5
			c-0.5,0-0.9-0.2-1.2-0.5s-0.5-0.7-0.5-1.2c0-0.5,0.2-0.9,0.5-1.2C155.7,155.3,156.1,155.1,156.5,155.1z M155.2,159.4h2.6v10.4
			h-2.6V159.4z"/>
		<path class="st0" d="M160.9,155.4h2.6v14.4h-2.6V155.4z"/>
		<path class="st0" d="M165.7,159.4h2.7l2.7,6.5l3-6.5h2.7l-6.5,14.2h-2.7l2.1-4.6L165.7,159.4z"/>
	</g>
</g>
</svg>
