<?xml version="1.0" encoding="utf-8"?>
<!-- Generator: Adobe Illustrator 22.0.1, SVG Export Plug-In . SVG Version: 6.00 Build 0)  -->
<svg version="1.1" id="레이어_1" xmlns="http://www.w3.org/2000/svg" xmlns:xlink="http://www.w3.org/1999/xlink" x="0px"
	 y="0px" viewBox="0 0 602.4 353.6" style="enable-background:new 0 0 602.4 353.6;" xml:space="preserve">
<style type="text/css">
	.st0{clip-path:url(#SVGID_2_);}
	.st1{clip-path:url(#SVGID_4_);fill:#AFC2CD;}
</style>
<g>
	<defs>
		<rect id="SVGID_1_" x="0" y="0" width="602.4" height="353.6"/>
	</defs>
	<use xlink:href="#SVGID_1_"  style="overflow:visible;fill:#DEDEDD;"/>
	<clipPath id="SVGID_2_">
		<use xlink:href="#SVGID_1_"  style="overflow:visible;"/>
	</clipPath>
	<g class="st0">
		<defs>
			<rect id="SVGID_3_" x="0" y="-124.4" width="602.4" height="602.4"/>
		</defs>
		<clipPath id="SVGID_4_">
			<use xlink:href="#SVGID_3_"  style="overflow:visible;"/>
		</clipPath>
		<path class="st1" d="M592.8-55.9h23.9v-11.4h-28.5l-29.8-73.7h-16.9l1.8,4.9h-74l-1.3-4.9h-26.2l1.1,4.9h-76.6l-0.6-4.9h-16.9
			l0.5,4.9h-92.8l0.2-4.9h-16.9l-0.3,4.9h-95.3l1-4.9h-26.2l-1.1,4.9H43l1.7-4.9H27.8l-1.8,4.9H1.3l-4,9.9h25L0.8-67.3h-27.1
			l-4.8,12h27.6l-24.7,67.5L-47-7.8l-18.8,11L-48,23l-3.3,8.5h10.9l3.5,3.9l-31.1,85h-17.5l-9.7,25.2h17.9l-54.5,148.9h-40
			l-10.6,26.3h40.9l-83.5,227.9h33.8l77.9-227.9H11l-53.3,227.9h52.4l22.6-115.3h173.5l-6.7,115.3h33.8l6.9-204.2l176.7,197l0.7,7.2
			h5.7l37.2,41.5l20-31.7L448.4,524l-25.2-203.2h127l53.5,227.9h52.4L594,320.8h122.8l86.5,227.9h33.8L592.8-55.9z M128.5-55.2H155
			l-11.6,71.9h-29L128.5-55.2z M39.6-126.1h76l-5.5,23.5H31.6L39.6-126.1z M29.6-96.7h79.1l-6.9,29.4H19.5L29.6-96.7z M15.4-55.2H99
			L82.2,16.7H-9.2L15.4-55.2z M84.2,170.5l111.2,124H60L84.2,170.5z M78.7,31.6l-17.9,76.4l-71.2-76.4H78.7z M-21.5,52.6l60.9,67.9
			h-84.1L-21.5,52.6z M17.2,294.5h-121.4l22.8-66.6H32.8L17.2,294.5z M-77.1,215.5l23.9-69.8H52l-16.3,69.8H-77.1z M207.3,415.8
			H36.2l18.6-94.9h158.1L207.3,415.8z M215.6,274.1L95.9,145.6h127.2L215.6,274.1z M224.6,120.5H94l17.4-88.9h118.3L224.6,120.5z
			 M230.7,16.7H156l4.6-31.6h71.9L230.7,16.7z M233-22.3h-71.2l4.8-32.9h68.3L233-22.3z M235.6-67.3H130.8l11.5-58.9H239L235.6-67.3
			z M640.8,120.5H539.3l-10.6-38.7h97.3L640.8,120.5z M622.6,72.5h-96.3l-11.2-40.9H607L622.6,72.5z M375,120.5h-82.7l-0.5-39.7H371
			L375,120.5z M373-83.2l50.1,15.9H375L373-83.2z M377.5,145.6l14.8,148.9h-61.9l-6.6-148.9H377.5z M387.2,31.6h95.1l20.9,88.9
			H398.3L387.2,31.6z M584.4-16h-82.3l-7.8-28.6L584.4-16z M500.4-55.2h73.7l9.9,26.2L500.4-55.2z M509.1,145.6l16.4,69.8H410.1
			l-8.7-69.8H509.1z M511.1,16.7l-6.9-25.2h87.7l9.6,25.2H511.1z M547.2-126.1l22.3,58.9h-81.4l-16.1-58.9H547.2z M462.1-54.9
			l16.8,71.6h-93.5l-8.9-71.9h84.5L462.1-54.9z M445.3-126.1l13.6,57.9l-87.5-27.4l-3.8-30.6H445.3z M366.1,31.6l4,40h-78.4l-0.5-40
			H366.1z M364.6,16.7h-25.9l-5-71.9h23.7L364.6,16.7z M350.4-126.1l2.5,24.8l-79.2-24.8H350.4z M256.1-120.3l98,31.1l2.2,21.9h-102
			L256.1-120.3z M253.9-55.2h68.3l0.9,16.7h-69.8L253.9-55.2z M253.1-31.5h70.4l1.3,23.8h-72.5L253.1-31.5z M252,0h73.2l0.9,16.7
			h-74.7L252,0z M250.9,31.6h27.4l-0.2,88.9h-30.2L250.9,31.6z M247.1,145.6h62.1l2,68h-66.4L247.1,145.6z M244.3,225.9h67.2l2,68.5
			H242L244.3,225.9z M259.1,320.8H395l16.3,163.3L259.1,320.8z M419.9,294.5l-8.3-66.6h116.8l15.6,66.6H419.9z M586.8,294.5
			l-40.6-148.9h104.1l56.5,148.9H586.8z"/>
	</g>
</g>
</svg>
