<?xml version="1.0" encoding="utf-8"?>
<!-- Generator: Adobe Illustrator 21.0.2, SVG Export Plug-In . SVG Version: 6.00 Build 0)  -->
<svg version="1.1" id="Layer_1" xmlns="http://www.w3.org/2000/svg" xmlns:xlink="http://www.w3.org/1999/xlink" x="0px" y="0px"
	 viewBox="0 0 283.5 283.5" style="enable-background:new 0 0 283.5 283.5;" xml:space="preserve">
<style type="text/css">
	.st0{fill:#DCDDDE;}
	.st1{fill:#020202;}
</style>
<path class="st0" d="M262.8,283.5H20.7C9.3,283.5,0,274.2,0,262.8V20.7C0,9.3,9.3,0,20.7,0h242.1c11.4,0,20.7,9.3,20.7,20.7v242.1
	C283.5,274.2,274.2,283.5,262.8,283.5z"/>
<g>
	<path class="st1" d="M222.2,147.2h-161c-3,0-5.5-2.5-5.5-5.5v0c0-3,2.5-5.5,5.5-5.5h161c3,0,5.5,2.5,5.5,5.5v0
		C227.7,144.8,225.3,147.2,222.2,147.2z"/>
	<path class="st1" d="M147.2,61.2v161c0,3-2.5,5.5-5.5,5.5h0c-3,0-5.5-2.5-5.5-5.5v-161c0-3,2.5-5.5,5.5-5.5h0
		C144.8,55.7,147.2,58.2,147.2,61.2z"/>
</g>
</svg>
