<?xml version="1.0" encoding="utf-8"?>
<!-- Generator: Adobe Illustrator 21.0.2, SVG Export Plug-In . SVG Version: 6.00 Build 0)  -->
<svg version="1.1" id="White" xmlns="http://www.w3.org/2000/svg" xmlns:xlink="http://www.w3.org/1999/xlink" x="0px" y="0px"
	 viewBox="0 0 200 200" style="enable-background:new 0 0 200 200;" xml:space="preserve">
<style type="text/css">
	.st0{fill:none;stroke:#000000;stroke-width:9;stroke-linejoin:round;stroke-miterlimit:10;}
</style>
<g>
	<g>
		<path d="M150.4,71.6c0-27.8-22.6-50.4-50.4-50.4S49.6,43.8,49.6,71.6c0,10,2.9,19.2,7.8,27l37,61.9c2.5,4.2,8.6,4.2,11.1,0
			l37-61.9C147.5,90.8,150.4,81.6,150.4,71.6z M100,42.8c16,0,28.9,13,28.9,28.9s-13,28.9-28.9,28.9s-28.9-13-28.9-29
			S84,42.8,100,42.8z"/>
		<circle cx="100" cy="71.6" r="16.6"/>
	</g>
	<polygon class="st0" points="190.5,178.8 9.5,178.8 49.5,133.5 150.5,133.5 	"/>
</g>
</svg>
