<?xml version="1.0" encoding="utf-8"?>
<!-- Generator: Adobe Illustrator 21.0.2, SVG Export Plug-In . SVG Version: 6.00 Build 0)  -->
<svg version="1.1" id="Layer_1" xmlns="http://www.w3.org/2000/svg" xmlns:xlink="http://www.w3.org/1999/xlink" x="0px" y="0px"
	 viewBox="0 0 200 200" style="enable-background:new 0 0 200 200;" xml:space="preserve">
<style type="text/css">
	.st0{fill:#392020;}
	.st1{fill:#FFE600;}
</style>
<g>
	<path class="st0" d="M100,8.1C44.8,8.1,0,43.4,0,87.1c0,28.1,18.6,52.6,46.4,66.7L37,188.9c-0.4,1.1-0.1,2.2,0.7,3
		c0.5,0.5,1.3,0.8,2,0.8c0.6,0,1.2-0.3,1.7-0.7L82,164.7c5.9,0.8,11.9,1.3,18,1.3c55.2,0,100-35.4,100-79
		C200,43.4,155.2,8.1,100,8.1"/>
	<path class="st1" d="M35.1,74.5H24.2c-1.5,0-2.8-0.4-3.9-1c-1.1-0.7-1.7-1.7-2-2.9c-0.1-0.3-0.1-0.7-0.2-1.1c0-1.6,0.6-2.8,1.7-3.7
		c1.1-0.9,2.5-1.3,4.3-1.3h33.3c1.5,0,2.8,0.4,3.9,1c1.1,0.7,1.8,1.6,2,2.9c0.1,0.3,0.1,0.7,0.1,1.1c0,1.6-0.6,2.9-1.7,3.8
		c-1.1,0.9-2.5,1.3-4.3,1.3H46.6l0,37.5c0,1.8-0.5,3.3-1.6,4.3c-1,1.1-2.5,1.6-4.2,1.6c-1.4,0-2.7-0.4-3.7-1.2
		c-1-0.8-1.7-1.9-1.9-3.3c-0.1-0.5-0.1-1-0.1-1.5L35.1,74.5z"/>
	<path class="st1" d="M66.2,67.1c0.5-1.3,1.2-2.3,2.1-2.8c0.9-0.6,2.1-0.8,3.5-0.8h2.8c1.5,0,2.7,0.3,3.8,0.9c1,0.6,1.8,1.8,2.4,3.5
		l13.9,40.3c0.4,1.2,0.8,2.3,0.9,3.2c0.1,0.6,0.2,1.1,0.2,1.4c0,1.5-0.6,2.7-1.6,3.7c-1.1,1-2.3,1.5-3.8,1.5c-2.7,0-4.4-1.1-5.2-3.3
		l-3-8.8H63.6l-3,8.8c-0.7,2.2-2.4,3.3-5.2,3.3c-1.3,0-2.5-0.3-3.4-1c-0.9-0.7-1.5-1.7-1.8-3c-0.1-0.4-0.1-0.8-0.1-1.2
		c0-0.6,0.1-1.3,0.3-2.1c0.2-0.8,0.5-1.7,0.8-2.5L66.2,67.1z M73.2,76.5H73l-6.8,21.1h13.5L73.2,76.5z"/>
	<path class="st1" d="M97.6,69.5c0-1.8,0.5-3.2,1.6-4.3c1-1.1,2.4-1.6,4.2-1.6c1.5,0,2.7,0.4,3.7,1.2c1,0.8,1.6,1.9,1.9,3.3
		c0.1,0.5,0.1,1,0.1,1.5l0,37.5h19.2c1.5,0,2.8,0.3,3.9,1c1,0.7,1.7,1.7,1.9,2.9c0.1,0.3,0.1,0.7,0.2,1.1c0,1.6-0.6,2.9-1.7,3.7
		c-1.1,0.9-2.6,1.3-4.3,1.3h-24c-1.8,0-3.2-0.4-4.3-1.1c-1.1-0.7-1.8-1.9-2.2-3.6c-0.1-0.7-0.2-1.5-0.2-2.4L97.6,69.5z"/>
	<path class="st1" d="M135.5,69.5c0-1.8,0.5-3.2,1.6-4.3c1-1.1,2.4-1.6,4.2-1.6c1.5,0,2.7,0.4,3.7,1.2c1,0.8,1.7,1.9,1.9,3.3
		c0.1,0.5,0.1,1,0.1,1.5l0,17.4l18.1-20.8c0.8-0.9,1.5-1.5,2.2-2c0.7-0.4,1.5-0.6,2.4-0.6c1.3,0,2.4,0.4,3.4,1.1
		c1,0.7,1.7,1.6,1.9,2.8c0,0,0,0.2,0.1,0.4c0,0.2,0,0.4,0,0.5c0,0.8-0.2,1.6-0.5,2.2c-0.4,0.6-0.8,1.3-1.4,1.9l-11.8,12.9l14,22.2
		l0.4,0.7c1,1.5,1.5,2.6,1.7,3.3c0,0,0,0.2,0.1,0.4c0,0.2,0,0.3,0,0.4c0,2.1-0.6,3.5-1.7,4.4c-1.2,0.9-2.6,1.3-4.2,1.3
		c-1.2,0-2.1-0.2-2.9-0.6c-0.7-0.5-1.5-1.3-2.3-2.5l-13.3-21.4l-6.3,6.6L147,112c0,1.8-0.5,3.3-1.6,4.3c-1,1.1-2.5,1.6-4.2,1.6
		c-1.5,0-2.7-0.4-3.7-1.2c-1-0.8-1.7-1.9-1.9-3.3c-0.1-0.5-0.1-1-0.1-1.5L135.5,69.5z"/>
</g>
</svg>
