<?xml version="1.0" encoding="utf-8"?>
<!-- Generator: Adobe Illustrator 21.0.2, SVG Export Plug-In . SVG Version: 6.00 Build 0)  -->
<svg version="1.1" id="Layer_1" xmlns="http://www.w3.org/2000/svg" xmlns:xlink="http://www.w3.org/1999/xlink" x="0px" y="0px"
	 viewBox="0 0 259 21" style="enable-background:new 0 0 259 21;" xml:space="preserve">
<style type="text/css">
	.st0{fill:#FFFFFF;}
</style>
<g>
	<path class="st0" d="M1.2,2.6h1.3V14h4.9v1.2H1.2V2.6z"/>
	<path class="st0" d="M17.9,12.1l1,0.5c-0.3,0.7-0.7,1.2-1.2,1.6c-0.4,0.4-0.9,0.7-1.5,0.9c-0.5,0.2-1.2,0.3-1.8,0.3
		c-1.5,0-2.7-0.5-3.6-1.5c-0.9-1-1.3-2.1-1.3-3.4c0-1.2,0.4-2.2,1.1-3.2c0.9-1.2,2.2-1.8,3.7-1.8c1.6,0,2.9,0.6,3.8,1.8
		c0.7,0.9,1,1.9,1,3.2h-8.4c0,1.1,0.4,2,1,2.7c0.7,0.7,1.5,1,2.5,1c0.5,0,0.9-0.1,1.4-0.2c0.5-0.2,0.8-0.4,1.1-0.7
		C17.2,13.1,17.5,12.7,17.9,12.1z M17.9,9.6c-0.2-0.6-0.4-1.2-0.7-1.5c-0.3-0.4-0.7-0.7-1.2-0.9c-0.5-0.2-1-0.4-1.6-0.4
		c-0.9,0-1.7,0.3-2.4,0.9c-0.5,0.4-0.8,1.1-1.1,1.9H17.9z"/>
	<path class="st0" d="M23.4,2.4h1.2v3.5h1.9v1h-1.9v8.3h-1.2V6.9h-1.6v-1h1.6V2.4z"/>
	<path class="st0" d="M30,6.2h-0.9l-0.2-4h1.3L30,6.2z"/>
	<path class="st0" d="M38.3,6.9l-0.8,0.8c-0.6-0.6-1.3-0.9-1.9-0.9c-0.4,0-0.7,0.1-1,0.4c-0.3,0.3-0.4,0.6-0.4,0.9
		c0,0.3,0.1,0.6,0.3,0.9c0.2,0.3,0.7,0.6,1.4,1c0.9,0.5,1.5,0.9,1.8,1.3c0.3,0.4,0.5,0.9,0.5,1.5c0,0.8-0.3,1.4-0.8,2
		c-0.5,0.5-1.2,0.8-2,0.8c-0.5,0-1.1-0.1-1.5-0.4c-0.5-0.2-0.9-0.6-1.2-1l0.8-0.9c0.6,0.7,1.3,1,2,1c0.5,0,0.9-0.2,1.2-0.5
		s0.5-0.7,0.5-1.1c0-0.3-0.1-0.7-0.3-0.9c-0.2-0.3-0.7-0.6-1.5-1c-0.8-0.4-1.4-0.9-1.7-1.3c-0.3-0.4-0.5-0.9-0.5-1.5
		c0-0.7,0.2-1.3,0.7-1.8s1.1-0.7,1.8-0.7C36.5,5.6,37.4,6,38.3,6.9z"/>
	<path class="st0" d="M48.1,2.4h1.2v3.5h1.9v1h-1.9v8.3h-1.2V6.9h-1.6v-1h1.6V2.4z"/>
	<path class="st0" d="M53.4,5.8h1.2v1.4C55,6.7,55.4,6.3,55.8,6c0.4-0.3,0.8-0.4,1.3-0.4c0.3,0,0.7,0.1,1.1,0.3l-0.6,1
		c-0.3-0.1-0.5-0.2-0.6-0.2c-0.4,0-0.8,0.2-1.2,0.5c-0.4,0.3-0.7,0.8-0.9,1.5c-0.1,0.5-0.2,1.6-0.2,3.2v3.2h-1.2V5.8z"/>
	<path class="st0" d="M69.4,5.8v9.3h-1.2v-1.6c-0.5,0.6-1.1,1.1-1.7,1.4c-0.6,0.3-1.3,0.5-2.1,0.5C63.1,15.4,62,15,61,14
		c-0.9-1-1.4-2.1-1.4-3.5C59.6,9.1,60.1,8,61,7c0.9-1,2.1-1.4,3.4-1.4c0.8,0,1.5,0.2,2.1,0.5c0.6,0.3,1.2,0.8,1.6,1.5V5.8H69.4z
		 M64.5,6.8c-0.7,0-1.3,0.2-1.9,0.5s-1,0.8-1.4,1.4c-0.3,0.6-0.5,1.2-0.5,1.9c0,0.7,0.2,1.3,0.5,1.9c0.3,0.6,0.8,1.1,1.4,1.4
		c0.6,0.3,1.2,0.5,1.8,0.5c0.7,0,1.3-0.2,1.9-0.5c0.6-0.3,1-0.8,1.4-1.3s0.5-1.2,0.5-1.9c0-1.1-0.4-2-1.1-2.7S65.6,6.8,64.5,6.8z"/>
	<path class="st0" d="M82.3,2.2v13h-1.2v-1.6c-0.5,0.6-1.1,1.1-1.7,1.4s-1.3,0.5-2.1,0.5c-1.3,0-2.5-0.5-3.4-1.4
		c-0.9-1-1.4-2.1-1.4-3.5C72.5,9.1,73,8,74,7c0.9-1,2.1-1.4,3.4-1.4c0.8,0,1.5,0.2,2.1,0.5c0.6,0.3,1.2,0.8,1.6,1.5V2.2H82.3z
		 M77.5,6.8c-0.7,0-1.3,0.2-1.9,0.5c-0.6,0.3-1,0.8-1.4,1.4c-0.3,0.6-0.5,1.2-0.5,1.9c0,0.7,0.2,1.3,0.5,1.9s0.8,1.1,1.4,1.4
		s1.2,0.5,1.8,0.5c0.7,0,1.3-0.2,1.9-0.5c0.6-0.3,1-0.8,1.4-1.3c0.3-0.6,0.5-1.2,0.5-1.9c0-1.1-0.4-2-1.1-2.7
		C79.4,7.1,78.5,6.8,77.5,6.8z"/>
	<path class="st0" d="M93.7,12.1l1,0.5c-0.3,0.7-0.7,1.2-1.2,1.6c-0.4,0.4-0.9,0.7-1.5,0.9c-0.5,0.2-1.2,0.3-1.8,0.3
		c-1.5,0-2.7-0.5-3.6-1.5c-0.9-1-1.3-2.1-1.3-3.4c0-1.2,0.4-2.2,1.1-3.2c0.9-1.2,2.2-1.8,3.7-1.8c1.6,0,2.9,0.6,3.8,1.8
		c0.7,0.9,1,1.9,1,3.2h-8.4c0,1.1,0.4,2,1,2.7c0.7,0.7,1.5,1,2.5,1c0.5,0,0.9-0.1,1.4-0.2c0.5-0.2,0.8-0.4,1.1-0.7
		C93,13.1,93.4,12.7,93.7,12.1z M93.7,9.6C93.6,8.9,93.4,8.4,93,8c-0.3-0.4-0.7-0.7-1.2-0.9c-0.5-0.2-1-0.4-1.6-0.4
		c-0.9,0-1.7,0.3-2.4,0.9c-0.5,0.4-0.8,1.1-1.1,1.9H93.7z"/>
	<path class="st0" d="M111.8,12.1l1,0.5c-0.3,0.7-0.7,1.2-1.2,1.6c-0.4,0.4-0.9,0.7-1.5,0.9c-0.5,0.2-1.2,0.3-1.8,0.3
		c-1.5,0-2.7-0.5-3.6-1.5c-0.9-1-1.3-2.1-1.3-3.4c0-1.2,0.4-2.2,1.1-3.2c0.9-1.2,2.2-1.8,3.7-1.8c1.6,0,2.9,0.6,3.8,1.8
		c0.7,0.9,1,1.9,1,3.2h-8.4c0,1.1,0.4,2,1,2.7c0.7,0.7,1.5,1,2.5,1c0.5,0,0.9-0.1,1.4-0.2c0.5-0.2,0.8-0.4,1.1-0.7
		C111.1,13.1,111.4,12.7,111.8,12.1z M111.8,9.6c-0.2-0.6-0.4-1.2-0.7-1.5c-0.3-0.4-0.7-0.7-1.2-0.9c-0.5-0.2-1-0.4-1.6-0.4
		c-0.9,0-1.7,0.3-2.4,0.9c-0.5,0.4-0.8,1.1-1.1,1.9H111.8z"/>
	<path class="st0" d="M125.6,5.8v9.3h-1.2v-1.6c-0.5,0.6-1.1,1.1-1.7,1.4c-0.6,0.3-1.3,0.5-2.1,0.5c-1.3,0-2.5-0.5-3.4-1.4
		c-0.9-1-1.4-2.1-1.4-3.5c0-1.3,0.5-2.5,1.4-3.5c0.9-1,2.1-1.4,3.4-1.4c0.8,0,1.5,0.2,2.1,0.5c0.6,0.3,1.2,0.8,1.6,1.5V5.8H125.6z
		 M120.8,6.8c-0.7,0-1.3,0.2-1.9,0.5s-1,0.8-1.4,1.4c-0.3,0.6-0.5,1.2-0.5,1.9c0,0.7,0.2,1.3,0.5,1.9c0.3,0.6,0.8,1.1,1.4,1.4
		c0.6,0.3,1.2,0.5,1.8,0.5c0.7,0,1.3-0.2,1.9-0.5c0.6-0.3,1-0.8,1.4-1.3s0.5-1.2,0.5-1.9c0-1.1-0.4-2-1.1-2.7S121.8,6.8,120.8,6.8z"
		/>
	<path class="st0" d="M133.9,6.9l-0.8,0.8c-0.6-0.6-1.3-0.9-1.9-0.9c-0.4,0-0.7,0.1-1,0.4c-0.3,0.3-0.4,0.6-0.4,0.9
		c0,0.3,0.1,0.6,0.3,0.9c0.2,0.3,0.7,0.6,1.4,1c0.9,0.5,1.5,0.9,1.8,1.3c0.3,0.4,0.5,0.9,0.5,1.5c0,0.8-0.3,1.4-0.8,2
		c-0.5,0.5-1.2,0.8-2,0.8c-0.5,0-1.1-0.1-1.5-0.4c-0.5-0.2-0.9-0.6-1.2-1l0.8-0.9c0.6,0.7,1.3,1,2,1c0.5,0,0.9-0.2,1.2-0.5
		s0.5-0.7,0.5-1.1c0-0.3-0.1-0.7-0.3-0.9c-0.2-0.3-0.7-0.6-1.5-1c-0.8-0.4-1.4-0.9-1.7-1.3c-0.3-0.4-0.5-0.9-0.5-1.5
		c0-0.7,0.2-1.3,0.7-1.8c0.5-0.5,1.1-0.7,1.8-0.7C132.1,5.6,133,6,133.9,6.9z"/>
	<path class="st0" d="M137.3,2c0.3,0,0.5,0.1,0.7,0.3c0.2,0.2,0.3,0.4,0.3,0.7c0,0.3-0.1,0.5-0.3,0.7c-0.2,0.2-0.4,0.3-0.7,0.3
		c-0.3,0-0.5-0.1-0.7-0.3c-0.2-0.2-0.3-0.4-0.3-0.7c0-0.3,0.1-0.5,0.3-0.7C136.8,2.1,137,2,137.3,2z M136.7,5.8h1.2v9.3h-1.2V5.8z"
		/>
	<path class="st0" d="M141.1,2.2h1.2v13h-1.2V2.2z"/>
	<path class="st0" d="M144.7,5.8h1.3l3.2,7.2l3.1-7.2h1.3L148,18.6h-1.3l1.8-4.1L144.7,5.8z"/>
</g>
<g>
	<path class="st0" d="M161.5,0.9c-0.4,0.3-0.7,0.6-1,1.1c-0.2,0.4-0.4,1.2-0.5,2.3l-0.1,0.5h-1.3L158.4,7h1.3l-1.3,9.3h2.3L162,7
		h2.2l0.3-2.2h-2.2l0.1-0.6c0.1-1,0.3-1.3,0.4-1.4c0.1-0.2,0.2-0.2,0.3-0.2c0.3,0,0.7,0.2,1,0.6l0.7,0.7l0.4-2.5l-0.2-0.2
		C163.7,0.3,162.5,0.3,161.5,0.9z"/>
	<path class="st0" d="M174.6,5.2c-1.8-1-4.1-0.9-6,0.2c-1,0.6-1.8,1.4-2.4,2.4c-0.6,1-0.9,2.1-0.9,3.3c0,1.6,0.5,2.9,1.5,3.9
		c1,1,2.3,1.5,3.8,1.5c1.2,0,2.3-0.3,3.3-0.8c1-0.6,1.8-1.4,2.3-2.4c0.6-1,0.9-2.1,0.9-3.3c0-1-0.2-2-0.7-2.8
		C176.1,6.4,175.4,5.7,174.6,5.2z M170.9,14.3c-1,0-1.7-0.3-2.3-0.9c-0.6-0.6-0.9-1.4-0.9-2.3c0-0.8,0.2-1.5,0.5-2.2
		c0.4-0.7,0.8-1.1,1.5-1.5c0.7-0.4,1.4-0.6,2.1-0.6c0.6,0,1.1,0.1,1.6,0.4c0.5,0.3,0.8,0.6,1.1,1.1c0.3,0.5,0.4,1.1,0.4,1.7
		c0,0.8-0.2,1.5-0.5,2.2c-0.4,0.7-0.8,1.2-1.4,1.5C172.3,14.1,171.6,14.3,170.9,14.3z"/>
	<path class="st0" d="M187.5,10.5c-0.2,1.4-0.3,1.9-0.4,2.1c-0.2,0.5-0.5,1-0.9,1.3c-0.4,0.3-0.9,0.5-1.4,0.5
		c-0.7,0-1.2-0.2-1.6-0.6c-0.4-0.4-0.6-0.9-0.6-1.6c0-0.2,0-0.8,0.3-2.4l0.7-5h-2.4l-0.6,4.4l-0.1,1.3c-0.1,0.6-0.1,1.2-0.1,1.6
		c0,1.2,0.4,2.3,1.2,3.1c0.8,0.8,1.9,1.3,3.2,1.3c1.1,0,2.1-0.3,2.8-0.9c0.8-0.6,1.3-1.3,1.6-2.2c0.3-0.8,0.5-2.2,0.8-4.1l0.6-4.5
		h-2.3L187.5,10.5z"/>
	<path class="st0" d="M195.8,5c-0.1,0.1-0.2,0.1-0.4,0.2l0.1-0.4h-2.4l-1.6,11.5h2.3l0.7-4.9c0.2-1.4,0.4-2.4,0.7-3
		c0.2-0.5,0.6-1,1-1.2c0.4-0.3,0.7-0.4,1.1-0.4c0.1,0,0.3,0,0.6,0.2l0.4,0.2l1.1-2.1l-0.5-0.2C197.8,4.3,196.8,4.5,195.8,5z"/>
	<path class="st0" d="M212.3,4.5c-1.2,0-2.3,0.3-3.3,0.9c-1,0.6-1.8,1.4-2.4,2.4c-0.6,1-0.9,2.1-0.9,3.3c0,1.4,0.5,2.6,1.3,3.7
		c0.9,1.1,2.3,1.7,4.1,1.7c1,0,2-0.2,2.9-0.6c0.9-0.4,1.6-1,2.2-1.7l0.3-0.4l-1.8-1.5l-0.3,0.4c-0.4,0.5-0.8,0.9-1.4,1.1
		c-0.6,0.3-1.2,0.4-1.8,0.4c-1,0-1.7-0.3-2.3-0.9c-0.5-0.5-0.8-1.2-0.8-2.1h9.3l0.1-0.4c0-0.4,0.1-0.7,0.1-1c0-1.5-0.5-2.8-1.5-3.8
		C215,5,213.7,4.5,212.3,4.5z M208.5,9.1c0.3-0.6,0.7-1.1,1.3-1.5c0.7-0.5,1.5-0.8,2.5-0.8c0.8,0,1.5,0.3,2.1,0.8
		c0.4,0.4,0.7,0.9,0.8,1.5H208.5z"/>
	<polygon class="st0" points="219,16.3 221.3,16.3 222.8,4.8 220.5,4.8 	"/>
	<path class="st0" d="M220.9,0.9c-0.3,0.3-0.5,0.7-0.5,1.1c0,0.4,0.2,0.8,0.5,1.1c0.3,0.3,0.7,0.5,1.1,0.5c0.4,0,0.8-0.2,1.1-0.5
		c0.3-0.3,0.5-0.7,0.5-1.1c0-0.4-0.2-0.8-0.5-1.1C222.5,0.3,221.5,0.3,220.9,0.9z"/>
	<path class="st0" d="M234.5,6.1c-0.4-0.4-0.8-0.7-1.2-0.9c-1.6-0.9-3.7-0.8-5.6,0.3c-1,0.6-1.8,1.4-2.4,2.4c-0.6,1-0.9,2.1-0.9,3.2
		c0,1.5,0.5,2.8,1.5,3.8c1,1,2.3,1.5,3.8,1.5c1.3,0,2.4-0.4,3.4-1.1c-0.1,0.7-0.2,1-0.3,1.2c-0.2,0.5-0.6,0.9-1.2,1.2
		c-0.6,0.3-1.3,0.5-2.1,0.5c-1.6,0-2.6-0.6-3.3-1.7L226,16l-2.1,0.8l0.2,0.5c0.5,1,1.2,1.8,2.1,2.3c0.9,0.5,2,0.8,3.3,0.8
		c1.3,0,2.4-0.3,3.4-0.8c1-0.6,1.7-1.3,2.1-2.2c0.3-0.6,0.5-1.7,0.7-3.2l1.3-9.4h-2.3L234.5,6.1z M232.9,12.8
		c-0.8,0.8-1.8,1.2-3,1.2c-1,0-1.7-0.3-2.3-0.8c-0.6-0.5-0.8-1.2-0.8-2.1c0-0.8,0.2-1.5,0.6-2.2c0.4-0.6,0.9-1.1,1.6-1.5
		c0.7-0.4,1.4-0.6,2.2-0.6c0.7,0,1.4,0.3,2,0.8c0.6,0.5,0.9,1.3,0.9,2.3C234,11.1,233.6,12,232.9,12.8z"/>
	<path class="st0" d="M245.3,4.5c-1.1,0-2.1,0.3-3,1l0.7-4.8h-2.3l-2.1,15.5h2.3l0.7-5c0.2-1.3,0.4-2.2,0.7-2.8
		c0.3-0.5,0.7-1,1.2-1.3c0.5-0.3,1.1-0.5,1.7-0.5c0.6,0,1.1,0.2,1.4,0.5c0.4,0.3,0.5,0.8,0.5,1.4c0,0.5-0.1,1.3-0.2,2.2l-0.7,5.4
		h2.3l0.7-5.2c0.1-1,0.2-1.8,0.2-2.4c0-1.2-0.4-2.2-1.2-2.9C247.4,4.9,246.5,4.5,245.3,4.5z"/>
	<polygon class="st0" points="256.5,4.8 257,0.9 254.7,0.9 254.2,4.8 252.4,4.8 252.1,7 253.9,7 252.6,16.3 255,16.3 256.2,7 
		258.3,7 258.6,4.8 	"/>
</g>
</svg>
