<?xml version="1.0" encoding="utf-8"?>
<!-- Generator: Adobe Illustrator 22.0.1, SVG Export Plug-In . SVG Version: 6.00 Build 0)  -->
<svg version="1.1" id="White" xmlns="http://www.w3.org/2000/svg" xmlns:xlink="http://www.w3.org/1999/xlink" x="0px" y="0px"
	 viewBox="0 0 200 200" style="enable-background:new 0 0 200 200;" xml:space="preserve">
<style type="text/css">
	.st0{fill:#9E9E9F;}
</style>
<g>
	<path class="st0" d="M147.1,83.8h-12.6V63.9c0-20-16.3-36.3-36.3-36.3c-20,0-36.3,16.3-36.3,36.3v19.9H49.4V63.9
		C49.4,36.9,71.3,15,98.3,15c26.9,0,48.9,21.9,48.9,48.9V83.8z"/>
	<path class="st0" d="M156.1,83.8H41.8c-4.1,0-7.4,3.3-7.4,7.5v85.8c0,4.1,3.3,7.5,7.4,7.5h114.3c4.1,0,7.4-3.3,7.4-7.5V91.3
		C163.4,87.1,160.1,83.8,156.1,83.8z M104.2,134.2v15.1c0,3.2-2.6,5.9-5.9,5.9c-3.2,0-5.9-2.6-5.9-5.9v-15.1
		c-2.6-1.8-4.3-4.9-4.3-8.3c0-5.6,4.5-10.2,10.2-10.2c5.6,0,10.2,4.5,10.2,10.2C108.4,129.4,106.8,132.4,104.2,134.2z"/>
</g>
</svg>
