<?xml version="1.0" encoding="utf-8"?>
<!-- Generator: Adobe Illustrator 21.0.2, SVG Export Plug-In . SVG Version: 6.00 Build 0)  -->
<svg version="1.1" id="Layer_1" xmlns="http://www.w3.org/2000/svg" xmlns:xlink="http://www.w3.org/1999/xlink" x="0px" y="0px"
	 viewBox="0 0 57.2 57.2" style="enable-background:new 0 0 57.2 57.2;" xml:space="preserve">
<style type="text/css">
	.st0{fill:#474747;}
</style>
<g>
	<path class="st0" d="M13.7,27.7c0-2.9,1.1-5.7,3.1-8C8.7,20.1,2.3,25.2,2.3,31.4c0,4.6,3.5,8.6,8.6,10.5C9.3,44.1,8.1,45,8.1,45
		c4.9-0.3,6.2-1.8,6.4-2.1c1.1,0.2,2.3,0.3,3.5,0.3c2.9,0,5.7-0.6,8-1.7C18.8,39.2,13.7,33.9,13.7,27.7z"/>
	<path class="st0" d="M54.9,27.2c0-8.3-8.9-15-20-15c0,0,0,0-0.1,0c0,0,0,0-0.1,0c-7.1,0-13.3,2.8-16.8,7c-2,2.3-3.1,5.1-3.1,8
		c0,6.2,5.1,11.5,12.3,13.8c2.4,0.7,5,1.2,7.7,1.2c0,0,0,0,0,0c0,0,0,0,0.1,0c1.5,0,2.9-0.1,4.3-0.4c0.3,0.4,1.9,2.3,8.1,2.7
		c0,0,0,0,0,0c0,0,0.1,0,0.1,0c0,0-1.5-1.1-3.6-3.9C50.5,38.1,54.9,33,54.9,27.2z M26.6,29.9c-1.3,0-2.3-1-2.3-2.3
		c0-1.3,1-2.3,2.3-2.3c1.3,0,2.3,1,2.3,2.3C28.9,28.9,27.9,29.9,26.6,29.9z M34.9,29.9C34.8,29.9,34.8,29.9,34.9,29.9
		c-1.3,0-2.3-1-2.3-2.3c0-0.7,0.3-1.3,0.8-1.7c0.4-0.3,0.9-0.6,1.5-0.6c1.3,0,2.3,1,2.3,2.3C37.1,28.9,36.1,29.9,34.9,29.9z
		 M43.1,29.9c-1.3,0-2.3-1-2.3-2.3c0-1.3,1-2.3,2.3-2.3c1.3,0,2.3,1,2.3,2.3C45.4,28.9,44.3,29.9,43.1,29.9z"/>
</g>
</svg>
