<?xml version="1.0" encoding="utf-8"?>
<!-- Generator: Adobe Illustrator 21.0.2, SVG Export Plug-In . SVG Version: 6.00 Build 0)  -->
<svg version="1.1" id="White" xmlns="http://www.w3.org/2000/svg" xmlns:xlink="http://www.w3.org/1999/xlink" x="0px" y="0px"
	 viewBox="0 0 200 200" style="enable-background:new 0 0 200 200;" xml:space="preserve">
<style type="text/css">
	.st0{fill:#FFFFFF;}
</style>
<path class="st0" d="M140.2,77.6h-4.7c0-0.3,0.1-0.7,0.1-1v-25c0-18.5-15.2-33.7-33.7-33.7h-3.7c-18.5,0-33.7,15.2-33.7,33.7v25
	c0,0.3,0,0.7,0.1,1h-4.7c-6.6,0-12,5.4-12,12v65.3c0,6.6,5.4,12,12,12h80.3c6.6,0,12-5.4,12-12V89.6C152.2,83,146.8,77.6,140.2,77.6
	z M76.5,76.6v-25c0-11.9,9.7-21.7,21.7-21.7h3.7c11.9,0,21.7,9.7,21.7,21.7v25c0,0.3,0,0.7-0.1,1H76.6
	C76.5,77.2,76.5,76.9,76.5,76.6z M104.7,127.3v12.2c0,2.6-2.1,4.7-4.7,4.7s-4.7-2.1-4.7-4.7v-12.2c-4.7-1.9-8-6.4-8-11.8
	c0-7,5.7-12.7,12.7-12.7s12.7,5.7,12.7,12.7C112.7,120.9,109.4,125.5,104.7,127.3z"/>
</svg>
