<?xml version="1.0" encoding="utf-8"?>
<!-- Generator: Adobe Illustrator 21.0.2, SVG Export Plug-In . SVG Version: 6.00 Build 0)  -->
<svg version="1.1" id="Layer_1" xmlns="http://www.w3.org/2000/svg" xmlns:xlink="http://www.w3.org/1999/xlink" x="0px" y="0px"
	 viewBox="0 0 57.2 57.2" style="enable-background:new 0 0 57.2 57.2;" xml:space="preserve">
<style type="text/css">
	.st0{fill:#474747;}
</style>
<g>
	<g>
		<g>
			<g>
				<g>
					<path class="st0" d="M31.3,17.5c0,1.1-0.9,2-2,2h-1.4c-1.1,0-2-0.9-2-2v-4.8c0-1.1,0.9-2,2-2h1.4c1.1,0,2,0.9,2,2V17.5z"/>
				</g>
			</g>
		</g>
		<g>
			<ellipse class="st0" cx="18.6" cy="28.8" rx="3.4" ry="3.7"/>
			<path class="st0" d="M12,38.5c0-3.9,2.9-7.1,6.5-7.1s6.5,3.2,6.5,7.1"/>
		</g>
		<path class="st0" d="M44,28.9H29c-0.7,0-1.2-0.5-1.2-1.2s0.5-1.2,1.2-1.2h15c0.7,0,1.2,0.5,1.2,1.2S44.7,28.9,44,28.9z"/>
		<path class="st0" d="M44,33.7H29c-0.7,0-1.2-0.5-1.2-1.2s0.5-1.2,1.2-1.2h15c0.7,0,1.2,0.5,1.2,1.2S44.7,33.7,44,33.7z"/>
		<path class="st0" d="M44,38.6H29c-0.7,0-1.2-0.5-1.2-1.2s0.5-1.2,1.2-1.2h15c0.7,0,1.2,0.5,1.2,1.2S44.7,38.6,44,38.6z"/>
	</g>
	<path class="st0" d="M49.7,46.6H7.6c-1,0-1.8-0.8-1.8-1.8V18.1c0-1,0.8-1.8,1.8-1.8h42.1c1,0,1.8,0.8,1.8,1.8v26.7
		C51.5,45.8,50.6,46.6,49.7,46.6z M9.4,43h38.5V19.9H9.4V43z"/>
</g>
</svg>
