<?xml version="1.0" encoding="utf-8"?>
<!-- Generator: Adobe Illustrator 21.0.2, SVG Export Plug-In . SVG Version: 6.00 Build 0)  -->
<svg version="1.1" id="Layer_1" xmlns="http://www.w3.org/2000/svg" xmlns:xlink="http://www.w3.org/1999/xlink" x="0px" y="0px"
	 viewBox="0 0 14.2 14.7" style="enable-background:new 0 0 14.2 14.7;" xml:space="preserve">
<style type="text/css">
	.st0{opacity:0.8;}
	.st1{fill:#FFE400;}
</style>
<path class="st0" d="M8.5,7.6l5.4-5.4c0.4-0.4,0.4-1,0-1.4c-0.4-0.4-1-0.4-1.4,0L7.1,6.2L1.7,0.8c-0.4-0.4-1-0.4-1.4,0
	c-0.4,0.4-0.4,1,0,1.4l5.4,5.4L0.3,13c-0.4,0.4-0.4,1,0,1.4c0.2,0.2,0.4,0.3,0.7,0.3s0.5-0.1,0.7-0.3L7.1,9l5.4,5.4
	c0.2,0.2,0.4,0.3,0.7,0.3c0.2,0,0.5-0.1,0.7-0.3c0.4-0.4,0.4-1,0-1.4L8.5,7.6z"/>
<path class="st1" d="M8.5,7.1l5.4-5.4c0.4-0.4,0.4-1,0-1.4c-0.4-0.4-1-0.4-1.4,0L7.1,5.7L1.7,0.3c-0.4-0.4-1-0.4-1.4,0
	c-0.4,0.4-0.4,1,0,1.4l5.4,5.4l-5.4,5.4c-0.4,0.4-0.4,1,0,1.4c0.2,0.2,0.4,0.3,0.7,0.3s0.5-0.1,0.7-0.3l5.4-5.4l5.4,5.4
	c0.2,0.2,0.4,0.3,0.7,0.3c0.2,0,0.5-0.1,0.7-0.3c0.4-0.4,0.4-1,0-1.4L8.5,7.1z"/>
</svg>
