<?xml version="1.0" encoding="utf-8"?>
<!-- Generator: Adobe Illustrator 22.0.1, SVG Export Plug-In . SVG Version: 6.00 Build 0)  -->
<svg version="1.1" id="White" xmlns="http://www.w3.org/2000/svg" xmlns:xlink="http://www.w3.org/1999/xlink" x="0px" y="0px"
	 viewBox="0 0 200 200" style="enable-background:new 0 0 200 200;" xml:space="preserve">
<style type="text/css">
	.st0{fill:#FFFFFF;}
	.st1{fill:#9E9E9F;}
</style>
<path class="st0" d="M64.6,77.6h-4.7c-6.6,0-12,5.4-12,12v65.3c0,6.6,5.4,12,12,12h80.3c6.6,0,12-5.4,12-12V89.6c0-6.6-5.4-12-12-12
	h-4.7h-12H76.6 M104.7,127.3v12.2c0,2.6-2.1,4.7-4.7,4.7s-4.7-2.1-4.7-4.7v-12.2c-4.7-1.9-8-6.4-8-11.8c0-7,5.7-12.7,12.7-12.7
	s12.7,5.7,12.7,12.7C112.7,120.9,109.4,125.5,104.7,127.3z"/>
<path class="st0" d="M76.6,77.6c0-0.3,0.1-0.7,0.1-1v-25c0-18.5-15.2-33.7-33.7-33.7h-3.7c-18.5,0-33.7,15.2-33.7,33.7v25
	c0,0.2-0.1,5.2,5.9,5.2s5.9-5.1,5.9-5.2v-25c0-11.9,9.7-21.7,21.7-21.7h3.7c11.9,0,21.7,9.7,21.7,21.7v25c0,0.3,0,0.7-0.1,1"/>
<g>
	<path class="st1" d="M148.7,83.2h-12.6v-20c0-20.1-16.4-36.5-36.5-36.5S63.1,43.1,63.1,63.2H50.4c0-27.1,22-49.1,49.1-49.1
		c27.1,0,49.1,22,49.1,49.1V83.2z"/>
	<path class="st1" d="M157.6,83.2H42.8c-4.1,0-7.4,3.4-7.4,7.5v86.3c0,4.2,3.3,7.5,7.4,7.5h114.9c4.1,0,7.4-3.4,7.4-7.5V90.7
		C165.1,86.6,161.8,83.2,157.6,83.2z M105.5,133.9v15.2c0,3.3-2.6,5.9-5.9,5.9c-3.3,0-5.9-2.7-5.9-5.9v-15.2
		c-2.6-1.8-4.3-4.9-4.3-8.3c0-5.6,4.6-10.2,10.2-10.2c5.6,0,10.2,4.6,10.2,10.2C109.8,129,108.1,132.1,105.5,133.9z"/>
</g>
</svg>
