<?xml version="1.0" encoding="utf-8"?>
<!-- Generator: Adobe Illustrator 21.0.2, SVG Export Plug-In . SVG Version: 6.00 Build 0)  -->
<svg version="1.1" id="White" xmlns="http://www.w3.org/2000/svg" xmlns:xlink="http://www.w3.org/1999/xlink" x="0px" y="0px"
	 viewBox="0 0 200 200" style="enable-background:new 0 0 200 200;" xml:space="preserve">
<path d="M100,175.6c-41.7,0-75.6-33.9-75.6-75.6c0-41.7,33.9-75.6,75.6-75.6s75.6,33.9,75.6,75.6C175.6,141.7,141.7,175.6,100,175.6
	z M100,33.4c-36.7,0-66.6,29.9-66.6,66.6s29.9,66.6,66.6,66.6c36.7,0,66.6-29.9,66.6-66.6S136.7,33.4,100,33.4z"/>
<path d="M100,104.5c-2.5,0-4.5-2-4.5-4.5V44.2c0-2.5,2-4.5,4.5-4.5s4.5,2,4.5,4.5V100C104.5,102.5,102.5,104.5,100,104.5z"/>
<path d="M139,104.5h-39c-2.5,0-4.5-2-4.5-4.5c0-2.5,2-4.5,4.5-4.5h39c2.5,0,4.5,2,4.5,4.5C143.5,102.5,141.5,104.5,139,104.5z"/>
</svg>
