<?xml version="1.0" encoding="utf-8"?>
<!-- Generator: Adobe Illustrator 22.0.1, SVG Export Plug-In . SVG Version: 6.00 Build 0)  -->
<svg version="1.1" id="Layer_1" xmlns="http://www.w3.org/2000/svg" xmlns:xlink="http://www.w3.org/1999/xlink" x="0px" y="0px"
	 viewBox="0 0 14.2 14.2" style="enable-background:new 0 0 14.2 14.2;" xml:space="preserve">
<style type="text/css">
	.st0{filter:url(#Adobe_OpacityMaskFilter);}
	.st1{mask:url(#SVGID_1_);}
	.st2{fill:#9E9E9F;}
	.st3{fill:#FFFFFF;}
</style>
<g>
	<g>
		<defs>
			<filter id="Adobe_OpacityMaskFilter" filterUnits="userSpaceOnUse" x="0.6" y="1.7" width="13.4" height="11.5">
				<feFlood  style="flood-color:white;flood-opacity:1" result="back"/>
				<feBlend  in="SourceGraphic" in2="back" mode="normal"/>
			</filter>
		</defs>
		<mask maskUnits="userSpaceOnUse" x="0.6" y="1.7" width="13.4" height="11.5" id="SVGID_1_">
			<g class="st0">
				<image style="overflow:visible;" width="19" height="17" xlink:href="2B5FFAB9.jpg"  transform="matrix(1 0 0 1 -2 -0.8)">
				</image>
			</g>
		</mask>
		<g class="st1">
			<path class="st2" d="M7.3,13.2c0,0,3.2-2.5,4.8-4.3C13.7,7.2,14,5.7,14,5c0-0.7-0.1-3.3-2.7-3.3s-4,3.1-4,3.1s-1.4-3.1-4-3.1
				C0.7,1.7,0.6,4.3,0.6,5c0,0.7,0.3,2.1,1.9,3.9C4.1,10.8,7.3,13.2,7.3,13.2z"/>
		</g>
	</g>
	<path class="st3" d="M6.9,12.5c0,0,3.2-2.5,4.8-4.3c1.6-1.8,1.9-3.2,1.9-3.9c0-0.7-0.1-3.3-2.7-3.3c-2.6,0-4,3.1-4,3.1S5.4,1,2.9,1
		C0.3,1,0.2,3.6,0.2,4.3C0.2,5,0.5,6.4,2,8.2C3.6,10,6.9,12.5,6.9,12.5z"/>
</g>
</svg>
