<?xml version="1.0" encoding="utf-8"?>
<!-- Generator: Adobe Illustrator 22.0.1, SVG Export Plug-In . SVG Version: 6.00 Build 0)  -->
<svg version="1.1" id="Layer_1" xmlns="http://www.w3.org/2000/svg" xmlns:xlink="http://www.w3.org/1999/xlink" x="0px" y="0px"
	 viewBox="0 0 251.6 45.8" style="enable-background:new 0 0 251.6 45.8;" xml:space="preserve">
<style type="text/css">
	.st0{fill:#717171;}
</style>
<path class="st0" d="M236.5,45.8H15.1C6.8,45.8,0,39.1,0,30.7c0-8.3,6.8-15.1,15.1-15.1h106.8L138.2,0v15.6h98.3
	c8.3,0,15.1,6.8,15.1,15.1C251.6,39.1,244.9,45.8,236.5,45.8z M15.1,16.6C7.3,16.6,1,23,1,30.7c0,7.8,6.3,14.1,14.1,14.1h221.4
	c7.8,0,14.1-6.3,14.1-14.1c0-7.8-6.3-14.1-14.1-14.1h-99.3V2.3l-14.9,14.3H15.1z"/>
</svg>
