<?xml version="1.0" encoding="utf-8"?>
<!-- Generator: Adobe Illustrator 22.0.0, SVG Export Plug-In . SVG Version: 6.00 Build 0)  -->
<svg version="1.1" id="Layer_1" xmlns="http://www.w3.org/2000/svg" xmlns:xlink="http://www.w3.org/1999/xlink" x="0px" y="0px"
	 viewBox="0 0 46.5 46.5" style="enable-background:new 0 0 46.5 46.5;" xml:space="preserve">
<style type="text/css">
	.st0{fill:#9E9E9F;}
	.st1{fill:none;stroke:#9E9E9F;stroke-width:2;stroke-miterlimit:10;}
</style>
<g>
	<g>
		<path class="st0" d="M37,42.9c-1.1,0-2.5,0-4.2,0c-1.2,0-2.2,0-2.9,0c-2.4,0-8-0.4-10-1.3c-1.8-0.7-3.9-1.9-3.9-3.9V24.5
			c0-2.3,1.8-4.9,3.3-6.7c1-1.2,3.4-4.2,3.9-5.1c0.5-0.9,0.9-1.9,1.1-3.1V9.2c0.2-1.1,0.5-2.6,1.2-3.5c0.7-1,1.7-2.1,3.3-2.1
			c1.7,0,3.2,1.2,3.7,2.8c0.4,1.4,0.4,2.1,0.3,3.5c-0.1,1.4-0.6,4-1.2,5.5c-0.4,1.1-0.6,1.5-0.9,2L30.4,18c-0.1,0.2-0.1,0.3-0.1,0.4
			c0.1,0,0.2,0,0.4,0h11.1c2,0,3.5,2.1,3.5,3.8c0,1-0.3,2.1-0.8,2.8c0.7,0.7,1.5,1.8,1.5,3.1c0,1.7-0.5,3-1.7,4
			c0.4,0.8,0.8,2,0.3,3.3c-0.5,1.4-1.6,2.3-2.8,2.6c0.3,0.7,0.4,1.5,0,2.3c-0.8,1.8-1.9,2.3-2.7,2.3C38.9,42.9,38.1,42.9,37,42.9z
			 M28.8,5.6c-0.6,0-1,0.3-1.7,1.3c-0.4,0.6-0.7,1.8-0.9,2.8l-0.1,0.4c-0.3,1.4-0.7,2.6-1.3,3.6c-0.7,1.2-3.2,4.4-4.1,5.4
			c-1.8,2.1-2.8,4.1-2.8,5.4v13.2c0,0.7,0.9,1.3,2.7,2.1c1.7,0.7,6.9,1.1,9.2,1.1c0.7,0,1.8,0,2.9,0c2.4,0,5.8,0,6.3,0
			s0.8-0.6,1.1-1.1c0.2-0.6-0.4-1.4-0.6-1.6l-1.9-2l2.7,0.3c0.8,0.1,2-0.3,2.4-1.5c0.4-1.1-0.5-2.2-0.6-2.2l-0.8-0.9l1.1-0.6
			c1.1-0.6,1.5-1.5,1.5-2.9c0-1.1-1.2-2-1.6-2.3L40.4,25l2.1-0.7c0.4-0.1,0.8-0.9,0.8-1.9c0-0.7-0.8-1.8-1.5-1.8H30.7
			c-1.3,0-1.8-0.5-2.1-0.9c-0.3-0.4-0.5-1.2,0-2.3l0.3-0.7c0.2-0.5,0.4-0.9,0.8-1.9c0.5-1.3,1-3.7,1.1-4.9c0.1-1.3,0.1-1.7-0.2-2.9
			C30.3,6.1,29.5,5.6,28.8,5.6z"/>
		<path class="st0" d="M13.7,42.9h-11c-0.7,0-1.3-0.3-1.7-0.7c-0.5-0.6-0.6-1.4-0.5-2.4C0.9,38.4,4,22.2,4.2,21
			c0.2-1,0.5-2.4,2.3-2.4h7.2c1.5,0,2.3,0.9,2.3,2.7v19.4C16,42.1,15.2,42.9,13.7,42.9z M6.5,20.7C6.4,20.7,6.4,20.7,6.5,20.7
			c-0.1,0.1-0.3,0.6-0.3,0.8C6,22.4,2.9,38.4,2.6,40.1c-0.1,0.6,0,0.7,0,0.7h0.1h11c0.2,0,0.2,0,0.3,0v-0.1V21.4
			c0-0.4-0.1-0.6-0.1-0.7c0,0-0.1,0-0.2,0H6.5z"/>
	</g>
</g>
<g>
	<path class="st1" d="M-3907.4-1287.1c0,0,0-11,0-13.2s2.1-4.9,3-6c1-1.1,3.4-4.2,4-5.3c0.6-1.1,1-2.2,1.2-3.4
		c0.2-1.1,0.5-2.7,1.1-3.6s1.3-1.7,2.5-1.7s2.4,0.8,2.7,2.1c0.3,1.3,0.3,1.9,0.2,3.2c-0.1,1.3-0.6,3.8-1.2,5.2
		c-0.6,1.4-0.7,1.7-1.1,2.6c-0.4,0.9-0.3,1.9,1.2,1.9s9.8,0,11.1,0s2.5,1.6,2.5,2.8c0,1.3-0.5,2.6-1.4,2.9c0,0,2.1,1.2,2.1,3.1
		s-0.8,3-2,3.7c0,0,1.3,1.5,0.8,3.2c-0.6,1.7-2.3,2.3-3.5,2.2c0,0,1.3,1.4,0.8,2.7c-0.5,1.3-1.3,1.7-1.9,1.7c-0.7,0.1-6.9,0-9.3,0
		c-2.3,0-7.7-0.4-9.6-1.2C-3906-1284.9-3907.4-1285.7-3907.4-1287.1z"/>
	<path class="st1" d="M-3910.6-1305.1c0,0-6.3,0-7.2,0s-1.1,0.6-1.3,1.6c-0.2,1.1-3.3,17.1-3.6,18.7s0.5,1.9,1.2,1.9
		c0.6,0,9.9,0,11,0s1.3-0.6,1.3-1.2s0-18.1,0-19.4S-3909.7-1305.1-3910.6-1305.1z"/>
</g>
<path class="st1" d="M-3918.9-1311.8c3.4-5.4,9.4-9,16.3-9c10.6,0,19.3,8.6,19.3,19.3c0,10.6-8.6,19.3-19.3,19.3
	c-5.8,0-11-2.5-14.5-6.6"/>
</svg>
