<?xml version="1.0" encoding="utf-8"?>
<!-- Generator: Adobe Illustrator 22.0.1, SVG Export Plug-In . SVG Version: 6.00 Build 0)  -->
<svg version="1.1" id="White" xmlns="http://www.w3.org/2000/svg" xmlns:xlink="http://www.w3.org/1999/xlink" x="0px" y="0px"
	 viewBox="0 0 200 200" style="enable-background:new 0 0 200 200;" xml:space="preserve">
<style type="text/css">
	.st0{fill:#9E9E9F;}
</style>
<g>
	<path class="st0" d="M148.7,83.2h-12.6v-20c0-20.1-16.4-36.5-36.5-36.5S63.1,43.1,63.1,63.2H50.4c0-27.1,22-49.1,49.1-49.1
		s49.1,22,49.1,49.1L148.7,83.2L148.7,83.2z"/>
	<path class="st0" d="M157.6,83.2H42.8c-4.1,0-7.4,3.4-7.4,7.5V177c0,4.2,3.3,7.5,7.4,7.5h114.9c4.1,0,7.4-3.4,7.4-7.5V90.7
		C165.1,86.6,161.8,83.2,157.6,83.2z M105.5,133.9v15.2c0,3.3-2.6,5.9-5.9,5.9s-5.9-2.7-5.9-5.9v-15.2c-2.6-1.8-4.3-4.9-4.3-8.3
		c0-5.6,4.6-10.2,10.2-10.2s10.2,4.6,10.2,10.2C109.8,129,108.1,132.1,105.5,133.9z"/>
</g>
</svg>
