<?xml version="1.0" encoding="utf-8"?>
<!-- Generator: Adobe Illustrator 21.0.2, SVG Export Plug-In . SVG Version: 6.00 Build 0)  -->
<svg version="1.1" id="Layer_1" xmlns="http://www.w3.org/2000/svg" xmlns:xlink="http://www.w3.org/1999/xlink" x="0px" y="0px"
	 viewBox="0 0 14.2 14.2" style="enable-background:new 0 0 14.2 14.2;" xml:space="preserve">
<style type="text/css">
	.st0{opacity:0.4;}
	.st1{fill:#FFFFFF;}
</style>
<path class="st0" d="M11,1.5c1.1,0,2.1,0.7,2.5,2.4c1,4.3-6.4,8.8-6.4,8.8c-0.1,0-0.1,0-0.1,0s-7.5-4.5-6.5-8.8C1,2.2,2,1.5,3.2,1.5
	c1.5,0,3.2,1.3,3.9,3.1C7.8,2.8,9.5,1.5,11,1.5 M11,1C9.6,1,8,2,7.1,3.5C6.2,2,4.6,1,3.2,1c-1.5,0-2.6,1-3,2.8
	c-1.1,4.6,6.4,9.1,6.7,9.3c0.1,0,0.2,0.1,0.3,0.1h0.1c0.1,0,0.2,0,0.3-0.1c0.3-0.2,7.7-4.7,6.6-9.3C13.6,2,12.5,1,11,1L11,1z"/>
<path class="st1" d="M13.5,3.9c-1-4-5.3-2.4-6.5,0.7C5.9,1.5,1.6-0.1,0.6,3.9c-1,4.3,6.5,8.8,6.5,8.8s0,0,0.1,0
	C7.2,12.7,14.6,8.2,13.5,3.9z"/>
</svg>
