<?xml version="1.0" encoding="utf-8"?>
<!-- Generator: Adobe Illustrator 22.0.1, SVG Export Plug-In . SVG Version: 6.00 Build 0)  -->
<svg version="1.1" id="Layer_1" xmlns="http://www.w3.org/2000/svg" xmlns:xlink="http://www.w3.org/1999/xlink" x="0px" y="0px"
	 viewBox="0 0 14.2 14.7" style="enable-background:new 0 0 14.2 14.7;" xml:space="preserve">
<style type="text/css">
	.st0{fill:url(#SVGID_1_);}
</style>
<linearGradient id="SVGID_1_" gradientUnits="userSpaceOnUse" x1="2.719462e-07" y1="7.35" x2="14.2" y2="7.35">
	<stop  offset="0" style="stop-color:#EB7580"/>
	<stop  offset="1" style="stop-color:#F4B18B"/>
</linearGradient>
<path class="st0" d="M8.5,7.3l5.4-5.4c0.4-0.4,0.4-1,0-1.4s-1-0.4-1.4,0L7.1,5.9L1.7,0.6c-0.4-0.4-1-0.4-1.4,0s-0.4,1,0,1.4l5.4,5.4
	l-5.4,5.4c-0.4,0.4-0.4,1,0,1.4c0.2,0.2,0.4,0.3,0.7,0.3s0.5-0.1,0.7-0.3l5.4-5.4l5.4,5.4c0.2,0.2,0.4,0.3,0.7,0.3
	c0.2,0,0.5-0.1,0.7-0.3c0.4-0.4,0.4-1,0-1.4L8.5,7.3z"/>
</svg>
