<?xml version="1.0" encoding="utf-8"?>
<!-- Generator: Adobe Illustrator 21.0.2, SVG Export Plug-In . SVG Version: 6.00 Build 0)  -->
<svg version="1.1" id="Layer_1" xmlns="http://www.w3.org/2000/svg" xmlns:xlink="http://www.w3.org/1999/xlink" x="0px" y="0px"
	 viewBox="0 0 57.2 57.2" style="enable-background:new 0 0 57.2 57.2;" xml:space="preserve">
<style type="text/css">
	.st0{fill:#474747;}
</style>
<g>
	<g>
		<g>
			<path class="st0" d="M50.5,13.4c0.2,0.2,0.4,0.4,0.6,0.6C50.8,13.7,50.6,13.5,50.5,13.4z"/>
		</g>
		<g>
			<path class="st0" d="M51,13.9c0.2,0.2,0.3,0.4,0.5,0.6C51.4,14.4,51.2,14.1,51,13.9z"/>
		</g>
		<g>
			<path class="st0" d="M51.5,42.7c-0.2,0.2-0.3,0.4-0.5,0.6c1.2-1.4,2-3.2,2-5.2V19.2c0-1.7-0.6-3.3-1.5-4.6l-16.7,14L51.5,42.7z"
				/>
		</g>
		<g>
			<path class="st0" d="M5.7,14.6c-0.9,1.3-1.5,2.9-1.5,4.6v18.9c0,1.7,0.6,3.3,1.5,4.6l16.7-14L5.7,14.6z"/>
		</g>
		<g>
			<path class="st0" d="M33.6,29.7l-4.5,3.8c-0.1,0.1-0.3,0.2-0.4,0.2l0,0c-0.2,0-0.3-0.1-0.4-0.2l-4.5-3.8L6.8,43.9
				c1.4,1.3,3.3,2.1,5.4,2.1h16.4h16.4c2.4,0,4.5-1,6-2.7c-0.2,0.2-0.4,0.4-0.6,0.6L33.6,29.7z"/>
		</g>
		<g>
			<path class="st0" d="M28.6,31.8l21.8-18.4c-1.4-1.3-3.3-2.1-5.4-2.1H28.6H12.2c-2.1,0-4,0.8-5.4,2.1L28.6,31.8L28.6,31.8z"/>
		</g>
		<g>
			<path class="st0" d="M51,43.3C51,43.3,51,43.3,51,43.3C51,43.3,51,43.3,51,43.3z"/>
		</g>
		<g>
			<polygon class="st0" points="50.4,13.4 50.4,13.4 50.5,13.4 			"/>
		</g>
		<g>
			<polygon class="st0" points="51.5,14.6 51.5,14.6 51.5,14.6 			"/>
		</g>
		<g>
			<path class="st0" d="M51,13.9C51,13.9,51,13.9,51,13.9C51,13.9,51,13.9,51,13.9z"/>
		</g>
	</g>
</g>
</svg>
