<?xml version="1.0" encoding="utf-8"?>
<!-- Generator: Adobe Illustrator 21.0.2, SVG Export Plug-In . SVG Version: 6.00 Build 0)  -->
<svg version="1.1" id="Layer_1" xmlns="http://www.w3.org/2000/svg" xmlns:xlink="http://www.w3.org/1999/xlink" x="0px" y="0px"
	 viewBox="0 0 57.2 57.2" style="enable-background:new 0 0 57.2 57.2;" xml:space="preserve">
<style type="text/css">
	.st0{fill:#474747;}
</style>
<g>
	<path class="st0" d="M38.9,37.3c-1.1-1.1-3.1-0.8-4.4,0.6c-0.8,0.8-1.7,1.3-2.6,1.7c-0.4,0.2-0.8,0.3-1.2,0.3
		c-3.1,0.4-5.9-0.4-7.8-2.3l-1.2-1.2l0,0l-0.9-0.9l-2.1-2.1c-1.9-1.9-2.7-4.7-2.3-7.8c0.1-0.4,0.2-0.8,0.3-1.2
		c0.3-0.9,0.9-1.8,1.7-2.6c1.4-1.4,1.7-3.4,0.6-4.4l-4.2-4.2c-1.1-1.1-3.1-0.8-4.4,0.6c-0.7,0.7-1.4,1.5-1.9,2.3
		c-2.1,3-3.2,6.5-2.8,9.7c0.1,0.4,0.1,0.9,0.2,1.3c0.8,4.6,2.9,8.6,5.9,11.7l2.9,2.9l0.9,0.9h0l2,2c3.1,3.1,7.1,5.1,11.7,5.9
		c0.4,0.1,0.9,0.1,1.3,0.2c3.1,0.4,6.6-0.6,9.7-2.8c0.8-0.6,1.6-1.2,2.3-1.9c1.4-1.4,1.7-3.4,0.6-4.4L38.9,37.3z"/>
	<path class="st0" d="M40.3,17.8L40.3,17.8c-2.5-2.5-5.8-3.9-9.3-3.9c-0.6,0-1.1,0.5-1.1,1.1c0,0.6,0.5,1.1,1.1,1.1
		c2.9,0,5.7,1.1,7.8,3.2v0c2.1,2.1,3.2,4.8,3.2,7.8c0,0.6,0.5,1.1,1.1,1.1c0.3,0,0.6-0.1,0.8-0.3s0.3-0.5,0.3-0.8
		C44.2,23.6,42.8,20.3,40.3,17.8L40.3,17.8z"/>
	<path class="st0" d="M30.3,23.3c1.2,0,2.4,0.5,3.2,1.3l0,0v0c0.9,0.9,1.3,2,1.3,3.2c0,0.6,0.5,1,1,1c0.3,0,0.5-0.1,0.7-0.3
		c0.2-0.2,0.3-0.4,0.3-0.7c0-1.8-0.7-3.4-1.9-4.7v0c-1.2-1.2-2.9-1.9-4.7-1.9c-0.6,0-1,0.5-1,1C29.3,22.9,29.7,23.3,30.3,23.3z"/>
	<path class="st0" d="M45.7,12.5L45.7,12.5C41.7,8.6,36.5,6.4,31,6.4c-0.6,0-1.1,0.5-1.1,1.1c0,0.6,0.5,1.1,1.1,1.1
		c4.9,0,9.6,1.9,13.1,5.4h0c3.5,3.5,5.4,8.1,5.4,13.1c0,0.6,0.5,1.1,1.1,1.1c0.3,0,0.6-0.1,0.8-0.3c0.2-0.2,0.3-0.5,0.3-0.8
		C51.7,21.6,49.6,16.4,45.7,12.5z"/>
</g>
</svg>
