<?xml version="1.0" encoding="utf-8"?>
<!-- Generator: Adobe Illustrator 21.0.2, SVG Export Plug-In . SVG Version: 6.00 Build 0)  -->
<svg version="1.1" id="Layer_1" xmlns="http://www.w3.org/2000/svg" xmlns:xlink="http://www.w3.org/1999/xlink" x="0px" y="0px"
	 viewBox="0 0 44.4 46.5" style="enable-background:new 0 0 44.4 46.5;" xml:space="preserve">
<style type="text/css">
	.st0{fill:#555555;}
</style>
<g>
	<path class="st0" d="M41.7,43.2h-7.5c-0.6,0-1-0.4-1-1v-24c0-0.6,0.4-1,1-1h7.5c0.6,0,1,0.4,1,1v24C42.7,42.8,42.3,43.2,41.7,43.2z
		 M35.2,41.2h5.5v-22h-5.5V41.2z"/>
	<path class="st0" d="M18.6,45.2h-6.2c-2.3,0-4.2-1.9-4.2-4.2c0-0.9,0.3-1.7,0.7-2.4c-1.7-0.6-2.8-2.1-2.8-3.9c0-1,0.4-1.9,1-2.6
		C5.3,31.6,4,30,4,28.2c0-0.9,0.3-1.7,0.8-2.3c-1.8-0.6-3.1-2.1-3.1-4c0-2.3,2.1-4.2,4.6-4.2l9.7,0.2c-1.5-3.3-1.7-6.5-1.9-8.5
		c-0.2-1.8,0.8-4.9,2.4-6.7c0.8-0.9,1.8-1.4,2.8-1.4c1.7,0,2.7,0.8,3.3,1.4C23.6,4,23.7,6,23.4,7.4c-0.3,1.3-0.1,2.1,0.1,3l0.1,0.4
		c0.2,1.1,0.8,3.1,2.8,4.4c0.6,0.4,1.2,0.7,1.9,1.1c3.1,1.7,7,3.8,7,9.3v7.8c0,9.7-4.8,11.7-8.8,11.7C26.4,45.1,18.9,45.2,18.6,45.2
		z M6.2,19.7c-1.4,0-2.6,1-2.6,2.2c0,1.2,1.2,2.2,2.6,2.2h1.6c0.5,0,0.9,0.4,1,0.9S8.5,26,8,26.1c-1.2,0.2-2,1.1-2,2.1
		c0,1.2,1.2,2.2,2.6,2.2l2,0.2c0.5,0.1,0.9,0.5,0.9,1c0,0.5-0.5,1-1,1c-1.3,0-2.4,1-2.4,2.2c0,1.2,1.1,2.2,2.4,2.2h1.1
		c0.5,0,0.9,0.4,1,0.9s-0.3,1-0.8,1.1c-1,0.2-1.7,1.1-1.7,2.1c0,1.2,1,2.2,2.2,2.2h6.2c0.3,0,7.8-0.1,7.8-0.1c1.7,0,6.8,0,6.8-9.7
		v-7.8c0-4.3-3-5.9-5.9-7.5c-0.7-0.4-1.4-0.7-2-1.1l0,0c-2.6-1.7-3.5-4.3-3.7-5.7l-0.1-0.3c-0.2-1-0.4-2.1-0.1-3.8
		c0.2-1,0.1-2.3-0.5-3.1c-0.4-0.4-0.9-0.7-1.7-0.7c0,0,0,0,0,0c-0.5,0-1,0.4-1.3,0.7c-1.2,1.3-2,3.8-1.9,5.2
		c0.2,2.3,0.5,5.7,2.4,9.3c0.2,0.3,0.2,0.7,0,1c-0.2,0.3-0.5,0.5-0.9,0.5L6.2,19.7z"/>
</g>
</svg>
