<?xml version="1.0" encoding="utf-8"?>
<!-- Generator: Adobe Illustrator 22.0.1, SVG Export Plug-In . SVG Version: 6.00 Build 0)  -->
<svg version="1.1" id="Layer_1" xmlns="http://www.w3.org/2000/svg" xmlns:xlink="http://www.w3.org/1999/xlink" x="0px" y="0px"
	 viewBox="0 0 138.7 11.3" style="enable-background:new 0 0 138.7 11.3;" xml:space="preserve">
<style type="text/css">
	.st0{fill:#FFFFFF;}
</style>
<g>
	<path class="st0" d="M6.1,4c0,0.1-0.1,0.2-0.3,0.4C5.7,4.6,5.5,4.7,5.3,4.9C5.1,5.1,4.8,5.4,4.5,5.6c-0.3,0.2-0.6,0.5-1,0.7
		L2.8,5.5c0.4-0.3,0.7-0.5,1.1-0.8S4.5,4.2,4.7,4C4.8,3.9,5,3.7,5.1,3.6c0.1-0.1,0.2-0.3,0.2-0.4C5.4,3,5.4,2.9,5.4,2.7
		c0-0.2,0-0.4,0-0.6V1.7H3.2v-1h5.7v1H6.7v0.4c0,0.2,0,0.4,0,0.5c0,0.2,0,0.3,0.1,0.4c0,0.1,0.1,0.2,0.2,0.4C7,3.5,7.1,3.6,7.3,3.7
		C7.6,4,7.9,4.2,8.2,4.4c0.3,0.2,0.6,0.5,1,0.7L8.5,6C8.2,5.8,7.9,5.6,7.6,5.3C7.4,5.1,7.1,4.9,6.8,4.7C6.6,4.5,6.5,4.4,6.4,4.3
		C6.2,4.2,6.2,4.1,6.1,4L6.1,4z M4.4,7h6.9v4.1h-1.2V8H4.4V7z M12.9,3.7h-1.6v2.7h-1.2V0h1.2v2.6h1.6V3.7z"/>
	<path class="st0" d="M23.6,5.7v1h-10v-1H23.6z M16.1,9.8h6.2v1H15V7.6h1.2V9.8z M18.5,0.2c0.5,0,1,0.1,1.5,0.2
		c0.4,0.1,0.8,0.3,1.1,0.5c0.3,0.2,0.5,0.4,0.7,0.7C22,1.8,22,2.1,22,2.4v0.4C22,3,22,3.3,21.8,3.6c-0.2,0.3-0.4,0.5-0.7,0.7
		c-0.3,0.2-0.7,0.4-1.1,0.5s-0.9,0.2-1.5,0.2s-1-0.1-1.5-0.2S16.3,4.5,16,4.3c-0.3-0.2-0.5-0.4-0.7-0.7C15.1,3.3,15,3,15,2.7V2.4
		c0-0.3,0.1-0.6,0.2-0.8C15.4,1.2,15.7,1,16,0.8s0.7-0.4,1.1-0.5C17.5,0.2,18,0.2,18.5,0.2z M18.5,3.9c0.4,0,0.7,0,1-0.1
		s0.5-0.2,0.7-0.3c0.2-0.1,0.4-0.2,0.5-0.4c0.1-0.1,0.2-0.3,0.2-0.5V2.4c0-0.2-0.1-0.3-0.2-0.5c-0.1-0.1-0.3-0.3-0.5-0.4
		c-0.2-0.1-0.4-0.2-0.7-0.3s-0.6-0.1-1-0.1c-0.4,0-0.7,0-1,0.1S17,1.4,16.8,1.5c-0.2,0.1-0.4,0.2-0.5,0.4c-0.1,0.2-0.2,0.3-0.2,0.5
		v0.3c0,0.2,0.1,0.3,0.2,0.5c0.1,0.2,0.3,0.3,0.5,0.4c0.2,0.1,0.4,0.2,0.7,0.3S18.2,3.9,18.5,3.9z"/>
	<path class="st0" d="M37.3,5.2v1h-10v-1H37.3z M30,0.4v2.6h5.9v1h-7.1V0.4H30z M32.3,11.3c-0.5,0-1,0-1.4-0.1
		c-0.4-0.1-0.8-0.2-1.1-0.4s-0.5-0.4-0.7-0.6c-0.2-0.2-0.2-0.5-0.2-0.8V8.9c0-0.3,0.1-0.5,0.2-0.8c0.2-0.2,0.4-0.4,0.7-0.6
		c0.3-0.2,0.7-0.3,1.1-0.4c0.4-0.1,0.9-0.1,1.4-0.1c0.5,0,1,0,1.4,0.1c0.4,0.1,0.8,0.2,1.1,0.4c0.3,0.2,0.5,0.4,0.7,0.6
		c0.2,0.2,0.2,0.5,0.2,0.8v0.4c0,0.3-0.1,0.5-0.2,0.8s-0.4,0.4-0.7,0.6c-0.3,0.2-0.7,0.3-1.1,0.4C33.3,11.2,32.8,11.3,32.3,11.3z
		 M32.3,7.9c-0.3,0-0.6,0-0.9,0.1c-0.3,0.1-0.5,0.1-0.7,0.2c-0.2,0.1-0.4,0.2-0.5,0.3C30.1,8.7,30,8.8,30,9v0.3
		c0,0.1,0.1,0.3,0.2,0.4c0.1,0.1,0.3,0.2,0.5,0.3c0.2,0.1,0.4,0.2,0.7,0.2c0.3,0.1,0.6,0.1,0.9,0.1s0.6,0,0.9-0.1s0.5-0.1,0.7-0.2
		c0.2-0.1,0.4-0.2,0.5-0.3s0.2-0.3,0.2-0.4V9c0-0.1-0.1-0.3-0.2-0.4c-0.1-0.1-0.3-0.2-0.5-0.3c-0.2-0.1-0.4-0.2-0.7-0.2
		C32.9,7.9,32.6,7.9,32.3,7.9z"/>
	<path class="st0" d="M38.7,6.2V2.9h3.4V1.5h-3.4v-1h4.6v3.3h-3.4v1.4h0.8c0.3,0,0.6,0,0.9,0c0.3,0,0.6,0,0.9,0c0.3,0,0.6,0,1-0.1
		c0.3,0,0.7-0.1,1-0.1l0.1,1c-0.3,0-0.7,0.1-1,0.1c-0.3,0-0.6,0-0.9,0.1c-0.3,0-0.7,0-1,0c-0.4,0-0.8,0-1.2,0H38.7z M40,7.3h7.2v3.8
		H46V8.3h-6V7.3z M46,6.7V4.4h-2v-1h2V2.5h-2v-1h2V0h1.1v6.7H46z"/>
	<path class="st0" d="M52.2,0.8c0.4,0,0.8,0.1,1.1,0.2s0.6,0.3,0.9,0.6c0.2,0.3,0.4,0.6,0.6,1C54.9,3,54.9,3.4,54.9,4v1.2
		c0,0.5-0.1,1-0.2,1.4c-0.1,0.4-0.3,0.7-0.6,1c-0.2,0.3-0.5,0.5-0.9,0.6c-0.3,0.1-0.7,0.2-1.1,0.2c-0.4,0-0.8-0.1-1.1-0.2
		c-0.3-0.1-0.6-0.3-0.9-0.6c-0.2-0.3-0.4-0.6-0.6-1c-0.1-0.4-0.2-0.9-0.2-1.4V4c0-0.5,0.1-1,0.2-1.4c0.1-0.4,0.3-0.7,0.6-1
		c0.2-0.3,0.5-0.5,0.9-0.6S51.8,0.8,52.2,0.8z M52.2,7.3c0.2,0,0.4,0,0.6-0.1C53,7.1,53.1,7,53.3,6.8c0.1-0.2,0.3-0.4,0.4-0.7
		s0.1-0.6,0.1-1.1V4.1c0-0.4,0-0.8-0.1-1.1s-0.2-0.5-0.4-0.7C53.1,2.2,53,2,52.8,2s-0.4-0.1-0.6-0.1s-0.4,0-0.6,0.1S51.2,2.2,51,2.4
		c-0.2,0.2-0.3,0.4-0.4,0.7s-0.1,0.6-0.1,1.1V5c0,0.4,0,0.8,0.1,1.1s0.2,0.5,0.4,0.7c0.1,0.2,0.3,0.3,0.5,0.4
		C51.7,7.3,51.9,7.3,52.2,7.3z M56.7,11V0h1.2V11H56.7z"/>
	<path class="st0" d="M61.4,5v2.3h1c0.4,0,0.8,0,1.1,0s0.6,0,0.9,0s0.6,0,0.9-0.1c0.3,0,0.6-0.1,0.9-0.1l0.1,1
		c-0.3,0-0.6,0.1-0.8,0.1c-0.3,0-0.6,0.1-0.9,0.1c-0.3,0-0.7,0-1.1,0c-0.4,0-0.8,0-1.3,0h-1.9V4H64V1.9h-3.8v-1h4.9V5H61.4z
		 M69.9,5.1h-1.7V11h-1.2V0h1.2v4h1.7V5.1z"/>
	<path class="st0" d="M79.2,6.1H76v2.4h4.4v1h-10v-1h4.4V6.1h-3.1V1H79v1H73v3.2h6.2V6.1z"/>
	<path class="st0" d="M89.2,0.1c0.5,0,1,0,1.5,0.1c0.4,0.1,0.8,0.2,1.1,0.4c0.3,0.2,0.5,0.4,0.7,0.6c0.2,0.2,0.2,0.5,0.2,0.8v0.3
		c0,0.5-0.3,0.9-0.8,1.3c-0.5,0.3-1.2,0.5-2.1,0.6v0.7h4.4v1h-10v-1h4.4V4.1C87.7,4,87,3.8,86.5,3.5c-0.5-0.3-0.8-0.8-0.8-1.3V2
		c0-0.3,0.1-0.5,0.2-0.8c0.2-0.2,0.4-0.4,0.7-0.6c0.3-0.2,0.7-0.3,1.1-0.4C88.2,0.1,88.7,0.1,89.2,0.1z M85.6,11V8.3h6V7.6h-6.1v-1
		h7.2v2.7h-6v0.8h6.3v1H85.6z M89.2,3.1c0.8,0,1.3-0.1,1.7-0.3c0.4-0.2,0.6-0.4,0.6-0.7V2c0-0.3-0.2-0.5-0.6-0.7s-1-0.3-1.7-0.3
		s-1.3,0.1-1.7,0.3c-0.4,0.2-0.6,0.4-0.6,0.7v0.2c0,0.3,0.2,0.5,0.6,0.7C87.9,3,88.4,3.1,89.2,3.1z"/>
	<path class="st0" d="M96.8,5v2.3h1c0.4,0,0.8,0,1.1,0c0.3,0,0.6,0,0.9,0c0.3,0,0.6,0,0.9-0.1c0.3,0,0.6-0.1,0.9-0.1l0.1,1
		c-0.3,0-0.6,0.1-0.8,0.1c-0.3,0-0.6,0.1-0.9,0.1c-0.3,0-0.7,0-1.1,0s-0.8,0-1.3,0h-1.9V4H99V1.9h-3.3v-1h4.5V5H96.8z M103,11V6h-2
		V5h2V3.4h-2v-1h2V0h1.2V11H103z"/>
	<path class="st0" d="M114.4,6.5h-3v2.1h4.4v1h-10v-1h4.4V6.5h-3V0.9h1.2v1.9h4.9V0.8h1.2V6.5z M108.3,5.5h4.9V3.7h-4.9V5.5z"/>
	<path class="st0" d="M119.3,5.6c0,0.1-0.1,0.2-0.2,0.4c-0.1,0.1-0.2,0.3-0.3,0.4c-0.2,0.3-0.5,0.6-0.8,0.9c-0.3,0.3-0.6,0.6-0.9,1
		l-0.8-0.8c0.4-0.3,0.7-0.7,1-1c0.3-0.3,0.6-0.7,0.9-1c0.1-0.2,0.2-0.3,0.3-0.5c0.1-0.2,0.1-0.3,0.2-0.5c0-0.2,0.1-0.3,0.1-0.5
		c0-0.2,0-0.4,0-0.6V0.9h1.1v2.4c0,0.2,0,0.4,0,0.6s0,0.3,0.1,0.5c0,0.2,0.1,0.3,0.2,0.5c0.1,0.2,0.2,0.3,0.3,0.5
		c0.3,0.3,0.5,0.7,0.8,1c0.3,0.3,0.6,0.7,1,1l-0.8,0.8c-0.3-0.3-0.6-0.6-0.9-0.9c-0.3-0.3-0.5-0.6-0.8-0.8c-0.1-0.1-0.2-0.3-0.3-0.4
		S119.3,5.7,119.3,5.6L119.3,5.6z M122.8,0.3h1.2v10.2h-1.2V4.6H121v-1h1.8V0.3z M126.1,11h-1.2V0h1.2V11z"/>
	<path class="st0" d="M137.4,8.5v1h-10v-1h2.5V5.9c-0.4-0.2-0.6-0.5-0.8-0.8c-0.2-0.3-0.3-0.7-0.3-1.2V3.3c0-0.4,0.1-0.8,0.3-1.1
		c0.2-0.3,0.5-0.6,0.8-0.8c0.3-0.2,0.7-0.4,1.2-0.5c0.4-0.1,0.9-0.2,1.4-0.2s1,0.1,1.4,0.2s0.8,0.3,1.2,0.5c0.3,0.2,0.6,0.5,0.8,0.8
		c0.2,0.3,0.3,0.7,0.3,1.1v0.6c0,0.4-0.1,0.8-0.3,1.2c-0.2,0.3-0.5,0.6-0.8,0.8v2.6H137.4z M132.4,1.7c-0.3,0-0.7,0-1,0.1
		c-0.3,0.1-0.6,0.2-0.8,0.3c-0.2,0.1-0.4,0.3-0.6,0.5c-0.1,0.2-0.2,0.5-0.2,0.7v0.5c0,0.3,0.1,0.5,0.2,0.7c0.1,0.2,0.3,0.4,0.6,0.5
		s0.5,0.3,0.8,0.3c0.3,0.1,0.6,0.1,1,0.1s0.7,0,1-0.1c0.3-0.1,0.6-0.2,0.8-0.3s0.4-0.3,0.6-0.5c0.1-0.2,0.2-0.5,0.2-0.7V3.4
		c0-0.3-0.1-0.5-0.2-0.7c-0.1-0.2-0.3-0.4-0.6-0.5c-0.2-0.1-0.5-0.3-0.8-0.3C133,1.7,132.7,1.7,132.4,1.7z M132.4,6.5
		c-0.5,0-0.9-0.1-1.4-0.2v2.2h2.7V6.4C133.3,6.5,132.8,6.5,132.4,6.5z"/>
</g>
</svg>
