<?xml version="1.0" encoding="utf-8"?>
<!-- Generator: Adobe Illustrator 22.0.1, SVG Export Plug-In . SVG Version: 6.00 Build 0)  -->
<svg version="1.1" id="Layer_1" xmlns="http://www.w3.org/2000/svg" xmlns:xlink="http://www.w3.org/1999/xlink" x="0px" y="0px"
	 viewBox="0 0 138.7 11.3" style="enable-background:new 0 0 138.7 11.3;" xml:space="preserve">
<style type="text/css">
	.st0{fill:#FFFFFF;}
</style>
<g>
	<path class="st0" d="M7.7,3c0-0.3,0.1-0.6,0.2-0.8s0.3-0.6,0.5-0.8c0.2-0.2,0.5-0.4,0.9-0.6c0.3-0.2,0.7-0.2,1.2-0.2
		c0.5,0,0.9,0.1,1.2,0.2c0.3,0.2,0.6,0.4,0.9,0.6c0.2,0.2,0.4,0.5,0.5,0.8c0.1,0.3,0.2,0.6,0.2,0.8v0.6c0,0.3-0.1,0.6-0.2,0.8
		c-0.1,0.3-0.3,0.6-0.5,0.8c-0.2,0.2-0.5,0.4-0.9,0.6s-0.7,0.2-1.2,0.2C10,6.1,9.6,6,9.2,5.9S8.6,5.5,8.4,5.3C8.2,5,8,4.7,7.9,4.5
		S7.7,3.9,7.7,3.6V3z M12.1,3c0-0.2,0-0.4-0.1-0.5c-0.1-0.2-0.2-0.3-0.3-0.5c-0.1-0.1-0.3-0.3-0.5-0.4c-0.2-0.1-0.4-0.1-0.7-0.1
		s-0.5,0-0.7,0.1C9.5,1.7,9.4,1.8,9.2,2C9.1,2.1,9,2.3,8.9,2.5C8.9,2.7,8.8,2.9,8.8,3v0.5c0,0.2,0,0.4,0.1,0.5s0.2,0.3,0.3,0.5
		c0.1,0.1,0.3,0.3,0.5,0.4s0.4,0.1,0.7,0.1s0.5,0,0.7-0.1c0.2-0.1,0.4-0.2,0.5-0.4c0.1-0.1,0.2-0.3,0.3-0.5c0.1-0.2,0.1-0.4,0.1-0.5
		V3z M10.6,9.8h5.8v1h-7V7.2h1.2V9.8z M17.6,4.1h-1.6v3.7h-1.2V0h1.2v3.1h1.6V4.1z"/>
	<path class="st0" d="M28.2,8.5v1h-10v-1H28.2z M25.8,0.8v1.7c0,0.2,0,0.4,0,0.6c0,0.2,0.1,0.3,0.1,0.5C26,3.7,26.1,3.8,26.2,4
		c0.1,0.1,0.2,0.3,0.3,0.4c0.2,0.2,0.4,0.4,0.6,0.6c0.3,0.2,0.5,0.4,0.8,0.6l-0.7,0.8c-0.3-0.2-0.6-0.5-0.8-0.7
		c-0.2-0.2-0.4-0.4-0.7-0.6c-0.3-0.3-0.5-0.5-0.5-0.7h0c0,0.1-0.1,0.2-0.2,0.3S24.8,5,24.6,5.2c-0.2,0.2-0.4,0.4-0.6,0.6
		c-0.2,0.2-0.5,0.4-0.8,0.6h0c-0.3-0.2-0.5-0.4-0.8-0.6c-0.2-0.2-0.4-0.4-0.6-0.6c-0.1-0.1-0.3-0.3-0.4-0.4s-0.2-0.2-0.2-0.3h0
		c0,0.1-0.2,0.4-0.5,0.7c-0.2,0.2-0.4,0.4-0.7,0.6c-0.2,0.2-0.5,0.4-0.8,0.7l-0.7-0.8c0.3-0.2,0.6-0.5,0.8-0.7
		c0.2-0.2,0.5-0.4,0.6-0.6c0.1-0.1,0.2-0.3,0.3-0.4s0.2-0.3,0.2-0.4c0.1-0.1,0.1-0.3,0.1-0.5c0-0.2,0-0.4,0-0.6V0.8h1.1v1.7
		c0,0.2,0,0.4,0,0.6c0,0.2,0.1,0.3,0.1,0.4s0.1,0.3,0.2,0.4s0.2,0.3,0.3,0.4c0.1,0.1,0.2,0.2,0.4,0.4c0.1,0.1,0.3,0.2,0.4,0.3
		c0.2-0.1,0.3-0.2,0.4-0.3c0.1-0.1,0.2-0.2,0.4-0.4c0.1-0.2,0.3-0.3,0.3-0.4s0.2-0.3,0.2-0.4s0.1-0.3,0.1-0.4s0-0.4,0-0.6V0.8H25.8z
		"/>
	<path class="st0" d="M39,5.6v1H29v-1H39z M31.6,9.8h6.2v1h-7.4V7.6h1.2V9.8z M31.7,0.5v2.8h5.9v1h-7.1V0.5H31.7z"/>
	<path class="st0" d="M47.8,7.8V3.9H45c-0.1,0.2-0.3,0.5-0.5,0.7c-0.2,0.2-0.5,0.4-0.8,0.7c-0.3,0.2-0.8,0.5-1.3,0.7
		c-0.5,0.2-1.1,0.5-1.8,0.8l-0.5-0.9c0.8-0.4,1.5-0.7,2-1c0.5-0.3,0.9-0.5,1.2-0.8s0.5-0.5,0.6-0.7c0.1-0.2,0.1-0.5,0.1-0.8V1.7
		h-3.5v-1h4.7v1.9c0,0,0,0.1,0,0.1s0,0.1,0,0.1h2.5V0h1.2v7.8H47.8z M43.3,9.8h5.9v1h-7.1V7.3h1.2V9.8z"/>
	<path class="st0" d="M53.7,4.2h1.1V1.5h-1V0.5h6v0.9h-1v2.6c0.2,0,0.5,0,0.7,0c0.2,0,0.5,0,0.7-0.1l0.1,0.9c-0.4,0-0.7,0.1-1.1,0.1
		s-0.8,0-1.3,0.1c-0.5,0-1.1,0-1.7,0s-1.5,0-2.4,0V4.2z M55.5,11v-3H61v-1h-5.6v-1h6.8v3h-5.6v1h5.9v1H55.5z M57.6,4.1V1.5h-1.7v2.7
		L57.6,4.1z M63.7,3.2h-1.6v2.3H61V0h1.2v2.2h1.6V3.2z"/>
	<path class="st0" d="M74.4,8.5v1h-10v-1H68v-4h1.2v4H74.4z M72.9,1v1.4c0,0.5,0,1,0,1.4s0,0.8-0.1,1.2c0,0.4-0.1,0.7-0.1,1.1
		c0,0.3-0.1,0.7-0.2,1.1l-1.2-0.1c0.1-0.7,0.2-1.5,0.3-2.1c0.1-0.7,0.1-1.4,0.1-2.1V2h-6.2V1H72.9z"/>
	<path class="st0" d="M79.9,7h0.6c0.8,0,1.5,0,2.1-0.1c0.7,0,1.3-0.1,2-0.2l0.1,1c-0.4,0.1-0.7,0.1-1,0.2c-0.3,0-0.7,0.1-1,0.1
		c-0.4,0-0.7,0-1.1,0.1c-0.4,0-0.8,0-1.2,0h-1.6V1h1.2V7z M88.3,5h-1.7v6h-1.2V0h1.2v3.9h1.7V5z"/>
	<path class="st0" d="M91.9,10.6v-4c-0.4,0-0.9,0-1.3,0c-0.5,0-0.9,0-1.5,0v-1c0.8,0,1.5,0,2.2,0c0.7,0,1.3,0,1.8,0
		c0.6,0,1.1,0,1.6-0.1c0.5,0,1-0.1,1.5-0.1l0.1,1c-0.5,0.1-1,0.1-1.5,0.1c-0.5,0-1.1,0.1-1.7,0.1v4H91.9z M91.1,0.5v2.9h4.3v1h-5.5
		V0.5H91.1z M96.9,11V8.6h-2.4v-1h2.4V0h1.2V11H96.9z"/>
	<path class="st0" d="M108.3,6.5h-3v2.1h4.4v1h-10v-1h4.4V6.5h-3V0.9h1.2v1.9h4.9V0.8h1.2V6.5z M102.2,5.5h4.9V3.7h-4.9V5.5z"/>
	<path class="st0" d="M113.2,5.6c0,0.1-0.1,0.2-0.2,0.4c-0.1,0.1-0.2,0.3-0.3,0.4c-0.2,0.3-0.5,0.6-0.8,0.9c-0.3,0.3-0.6,0.6-0.9,1
		l-0.8-0.8c0.4-0.3,0.7-0.7,1-1c0.3-0.3,0.6-0.7,0.9-1c0.1-0.2,0.2-0.3,0.3-0.5c0.1-0.2,0.1-0.3,0.2-0.5c0-0.2,0.1-0.3,0.1-0.5
		c0-0.2,0-0.4,0-0.6V0.9h1.1v2.4c0,0.2,0,0.4,0,0.6s0,0.3,0.1,0.5c0,0.2,0.1,0.3,0.2,0.5c0.1,0.2,0.2,0.3,0.3,0.5
		c0.3,0.3,0.5,0.7,0.8,1c0.3,0.3,0.6,0.7,1,1l-0.8,0.8c-0.3-0.3-0.6-0.6-0.9-0.9c-0.3-0.3-0.5-0.6-0.8-0.8c-0.1-0.1-0.2-0.3-0.3-0.4
		S113.2,5.7,113.2,5.6L113.2,5.6z M116.7,0.3h1.2v10.2h-1.2V4.6h-1.8v-1h1.8V0.3z M120,11h-1.2V0h1.2V11z"/>
	<path class="st0" d="M131.3,8.5v1h-10v-1h2.5V5.9c-0.4-0.2-0.6-0.5-0.8-0.8c-0.2-0.3-0.3-0.7-0.3-1.2V3.3c0-0.4,0.1-0.8,0.3-1.1
		c0.2-0.3,0.5-0.6,0.8-0.8c0.3-0.2,0.7-0.4,1.2-0.5c0.4-0.1,0.9-0.2,1.4-0.2s1,0.1,1.4,0.2s0.8,0.3,1.2,0.5c0.3,0.2,0.6,0.5,0.8,0.8
		c0.2,0.3,0.3,0.7,0.3,1.1v0.6c0,0.4-0.1,0.8-0.3,1.2c-0.2,0.3-0.5,0.6-0.8,0.8v2.6H131.3z M126.3,1.7c-0.3,0-0.7,0-1,0.1
		c-0.3,0.1-0.6,0.2-0.8,0.3c-0.2,0.1-0.4,0.3-0.6,0.5c-0.1,0.2-0.2,0.5-0.2,0.7v0.5c0,0.3,0.1,0.5,0.2,0.7c0.1,0.2,0.3,0.4,0.6,0.5
		s0.5,0.3,0.8,0.3c0.3,0.1,0.6,0.1,1,0.1s0.7,0,1-0.1c0.3-0.1,0.6-0.2,0.8-0.3s0.4-0.3,0.6-0.5c0.1-0.2,0.2-0.5,0.2-0.7V3.4
		c0-0.3-0.1-0.5-0.2-0.7c-0.1-0.2-0.3-0.4-0.6-0.5c-0.2-0.1-0.5-0.3-0.8-0.3C126.9,1.7,126.6,1.7,126.3,1.7z M126.3,6.5
		c-0.5,0-0.9-0.1-1.4-0.2v2.2h2.7V6.4C127.2,6.5,126.7,6.5,126.3,6.5z"/>
</g>
</svg>
